<?xml version="1.0" encoding="UTF-8"?>
<svg xmlns="http://www.w3.org/2000/svg" xmlns:xlink="http://www.w3.org/1999/xlink" width="248pt" height="134pt" viewBox="0 0 248 134" version="1.1">
<g id="surface1">
<path style="fill-rule:nonzero;fill:rgb(69.803922%,85.098039%,100%);fill-opacity:1;stroke-width:1;stroke-linecap:round;stroke-linejoin:round;stroke:rgb(0%,0%,0%);stroke-opacity:1;stroke-miterlimit:10;" d="M 71.765625 61.734375 C 76.746875 66.715625 76.746875 74.784375 71.765625 79.765625 C 66.784375 84.746875 58.715625 84.746875 53.734375 79.765625 C 48.753125 74.784375 48.753125 66.715625 53.734375 61.734375 C 58.715625 56.753125 66.784375 56.753125 71.765625 61.734375 " transform="matrix(1.25,0,0,1.25,-35,-71.25)"/>
<path style=" stroke:none;fill-rule:nonzero;fill:rgb(0%,0%,0%);fill-opacity:1;" d="M 44.625 20.03125 C 44.273438 20.332031 43.933594 20.554688 43.609375 20.695312 C 43.296875 20.820312 42.957031 20.890625 42.59375 20.890625 C 42.058594 20.890625 41.621094 20.734375 41.285156 20.421875 C 40.957031 20.097656 40.796875 19.6875 40.796875 19.191406 C 40.796875 18.867188 40.867188 18.582031 41.011719 18.332031 C 41.167969 18.085938 41.367188 17.882812 41.617188 17.726562 C 41.863281 17.570312 42.164062 17.460938 42.515625 17.394531 C 42.734375 17.355469 43.160156 17.324219 43.785156 17.296875 C 44.410156 17.273438 44.859375 17.207031 45.132812 17.101562 C 45.210938 16.828125 45.25 16.601562 45.25 16.417969 C 45.25 16.183594 45.164062 16.003906 44.996094 15.871094 C 44.761719 15.691406 44.421875 15.597656 43.980469 15.597656 C 43.5625 15.597656 43.21875 15.695312 42.945312 15.890625 C 42.683594 16.074219 42.496094 16.335938 42.378906 16.671875 L 41.382812 16.574219 C 41.578125 16.003906 41.894531 15.566406 42.339844 15.265625 C 42.792969 14.953125 43.359375 14.796875 44.039062 14.796875 C 44.753906 14.796875 45.320312 14.96875 45.738281 15.304688 C 46.0625 15.566406 46.226562 15.898438 46.226562 16.300781 C 46.226562 16.613281 46.179688 16.980469 46.089844 17.394531 L 45.777344 18.839844 C 45.671875 19.296875 45.621094 19.667969 45.621094 19.953125 C 45.621094 20.148438 45.660156 20.417969 45.738281 20.753906 L 44.722656 20.753906 C 44.667969 20.558594 44.636719 20.320312 44.625 20.03125 Z M 44.976562 17.804688 C 44.84375 17.859375 44.695312 17.898438 44.527344 17.921875 C 44.371094 17.949219 44.109375 17.980469 43.746094 18.019531 C 43.160156 18.074219 42.75 18.136719 42.515625 18.214844 C 42.28125 18.292969 42.097656 18.417969 41.96875 18.585938 C 41.851562 18.757812 41.792969 18.945312 41.792969 19.152344 C 41.792969 19.441406 41.882812 19.675781 42.066406 19.855469 C 42.261719 20.027344 42.539062 20.109375 42.90625 20.109375 C 43.230469 20.109375 43.542969 20.027344 43.84375 19.855469 C 44.15625 19.6875 44.394531 19.445312 44.566406 19.132812 C 44.746094 18.820312 44.882812 18.378906 44.976562 17.804688 Z M 44.976562 17.804688 "/>
<path style="fill-rule:nonzero;fill:rgb(69.803922%,85.098039%,100%);fill-opacity:1;stroke-width:1;stroke-linecap:round;stroke-linejoin:round;stroke:rgb(0%,0%,0%);stroke-opacity:1;stroke-miterlimit:10;" d="M 121.765625 61.734375 C 126.746875 66.715625 126.746875 74.784375 121.765625 79.765625 C 116.784375 84.746875 108.715625 84.746875 103.734375 79.765625 C 98.753125 74.784375 98.753125 66.715625 103.734375 61.734375 C 108.715625 56.753125 116.784375 56.753125 121.765625 61.734375 " transform="matrix(1.25,0,0,1.25,-35,-71.25)"/>
<path style=" stroke:none;fill-rule:nonzero;fill:rgb(0%,0%,0%);fill-opacity:1;" d="M 103.179688 20.753906 L 104.859375 12.707031 L 105.855469 12.707031 L 105.25 15.578125 C 105.574219 15.292969 105.859375 15.089844 106.109375 14.972656 C 106.367188 14.855469 106.636719 14.796875 106.910156 14.796875 C 107.457031 14.796875 107.910156 15 108.277344 15.402344 C 108.640625 15.808594 108.824219 16.398438 108.824219 17.179688 C 108.824219 17.6875 108.75 18.15625 108.609375 18.585938 C 108.464844 19.015625 108.28125 19.382812 108.0625 19.679688 C 107.851562 19.96875 107.632812 20.203125 107.398438 20.382812 C 107.164062 20.554688 106.921875 20.675781 106.675781 20.753906 C 106.441406 20.839844 106.210938 20.890625 105.992188 20.890625 C 105.601562 20.890625 105.253906 20.792969 104.957031 20.597656 C 104.667969 20.390625 104.449219 20.070312 104.292969 19.640625 L 104.058594 20.753906 Z M 104.664062 18.351562 L 104.644531 18.546875 C 104.644531 19.042969 104.761719 19.421875 104.996094 19.679688 C 105.242188 19.941406 105.542969 20.070312 105.894531 20.070312 C 106.246094 20.070312 106.5625 19.953125 106.851562 19.71875 C 107.148438 19.472656 107.390625 19.089844 107.574219 18.566406 C 107.753906 18.046875 107.847656 17.570312 107.847656 17.140625 C 107.847656 16.648438 107.730469 16.269531 107.496094 16.007812 C 107.261719 15.734375 106.96875 15.597656 106.617188 15.597656 C 106.265625 15.597656 105.9375 15.734375 105.640625 16.007812 C 105.339844 16.28125 105.085938 16.707031 104.878906 17.277344 C 104.734375 17.707031 104.664062 18.066406 104.664062 18.351562 Z M 104.664062 18.351562 "/>
<path style="fill-rule:nonzero;fill:rgb(69.803922%,85.098039%,100%);fill-opacity:1;stroke-width:1;stroke-linecap:round;stroke-linejoin:round;stroke:rgb(0%,0%,0%);stroke-opacity:1;stroke-miterlimit:10;" d="M 171.765625 61.734375 C 176.746875 66.715625 176.746875 74.784375 171.765625 79.765625 C 166.784375 84.746875 158.715625 84.746875 153.734375 79.765625 C 148.753125 74.784375 148.753125 66.715625 153.734375 61.734375 C 158.715625 56.753125 166.784375 56.753125 171.765625 61.734375 " transform="matrix(1.25,0,0,1.25,-35,-71.25)"/>
<path style=" stroke:none;fill-rule:nonzero;fill:rgb(0%,0%,0%);fill-opacity:1;" d="M 170.019531 18.625 L 171.015625 18.722656 C 170.765625 19.453125 170.410156 20 169.941406 20.363281 C 169.484375 20.714844 168.964844 20.890625 168.378906 20.890625 C 167.753906 20.890625 167.234375 20.691406 166.835938 20.285156 C 166.445312 19.871094 166.25 19.289062 166.25 18.546875 C 166.25 17.910156 166.371094 17.285156 166.621094 16.671875 C 166.878906 16.0625 167.246094 15.597656 167.714844 15.285156 C 168.183594 14.960938 168.71875 14.796875 169.335938 14.796875 C 169.960938 14.796875 170.453125 14.972656 170.820312 15.324219 C 171.179688 15.675781 171.367188 16.144531 171.367188 16.730469 L 170.390625 16.789062 C 170.390625 16.425781 170.28125 16.140625 170.078125 15.929688 C 169.867188 15.710938 169.589844 15.597656 169.238281 15.597656 C 168.832031 15.597656 168.480469 15.730469 168.183594 15.988281 C 167.894531 16.238281 167.664062 16.621094 167.5 17.140625 C 167.34375 17.648438 167.265625 18.144531 167.265625 18.625 C 167.265625 19.121094 167.375 19.492188 167.597656 19.738281 C 167.816406 19.988281 168.085938 20.109375 168.398438 20.109375 C 168.71875 20.109375 169.027344 19.992188 169.316406 19.757812 C 169.613281 19.511719 169.847656 19.132812 170.019531 18.625 Z M 170.019531 18.625 "/>
<path style="fill-rule:nonzero;fill:rgb(69.803922%,85.098039%,100%);fill-opacity:1;stroke-width:1;stroke-linecap:round;stroke-linejoin:round;stroke:rgb(0%,0%,0%);stroke-opacity:1;stroke-miterlimit:10;" d="M 221.765625 61.734375 C 226.746875 66.715625 226.746875 74.784375 221.765625 79.765625 C 216.784375 84.746875 208.715625 84.746875 203.734375 79.765625 C 198.753125 74.784375 198.753125 66.715625 203.734375 61.734375 C 208.715625 56.753125 216.784375 56.753125 221.765625 61.734375 " transform="matrix(1.25,0,0,1.25,-35,-71.25)"/>
<path style=" stroke:none;fill-rule:nonzero;fill:rgb(0%,0%,0%);fill-opacity:1;" d="M 232.125 19.914062 C 231.550781 20.566406 230.953125 20.890625 230.328125 20.890625 C 229.78125 20.890625 229.316406 20.691406 228.941406 20.285156 C 228.574219 19.871094 228.394531 19.269531 228.394531 18.488281 C 228.394531 17.785156 228.535156 17.140625 228.824219 16.554688 C 229.121094 15.96875 229.488281 15.535156 229.917969 15.246094 C 230.359375 14.949219 230.800781 14.796875 231.246094 14.796875 C 231.972656 14.796875 232.519531 15.144531 232.886719 15.832031 L 233.550781 12.707031 L 234.546875 12.707031 L 232.847656 20.753906 L 231.949219 20.753906 Z M 229.390625 18.3125 C 229.390625 18.71875 229.429688 19.035156 229.507812 19.269531 C 229.585938 19.503906 229.722656 19.699219 229.917969 19.855469 C 230.113281 20.011719 230.347656 20.089844 230.621094 20.089844 C 231.074219 20.089844 231.484375 19.855469 231.851562 19.386719 C 232.332031 18.761719 232.574219 17.996094 232.574219 17.082031 C 232.574219 16.613281 232.449219 16.25 232.203125 15.988281 C 231.96875 15.730469 231.667969 15.597656 231.304688 15.597656 C 231.070312 15.597656 230.855469 15.65625 230.660156 15.773438 C 230.464844 15.878906 230.269531 16.0625 230.074219 16.320312 C 229.878906 16.570312 229.714844 16.886719 229.585938 17.277344 C 229.453125 17.667969 229.390625 18.015625 229.390625 18.3125 Z M 229.390625 18.3125 "/>
<path style="fill:none;stroke-width:1;stroke-linecap:round;stroke-linejoin:round;stroke:rgb(0%,0%,0%);stroke-opacity:1;stroke-miterlimit:10;" d="M 96.765625 101.734375 C 101.746875 106.715625 101.746875 114.784375 96.765625 119.765625 C 91.784375 124.746875 83.715625 124.746875 78.734375 119.765625 C 73.753125 114.784375 73.753125 106.715625 78.734375 101.734375 C 83.715625 96.753125 91.784375 96.753125 96.765625 101.734375 " transform="matrix(1.25,0,0,1.25,-35,-71.25)"/>
<path style=" stroke:none;fill-rule:nonzero;fill:rgb(0%,0%,0%);fill-opacity:1;" d="M 76.226562 68.761719 L 77.183594 68.878906 C 77.039062 69.347656 76.71875 69.804688 76.226562 70.246094 C 75.730469 70.675781 75.132812 70.890625 74.429688 70.890625 C 74 70.890625 73.601562 70.792969 73.238281 70.597656 C 72.886719 70.390625 72.613281 70.097656 72.417969 69.71875 C 72.234375 69.34375 72.144531 68.90625 72.144531 68.410156 C 72.144531 67.773438 72.285156 67.15625 72.574219 66.554688 C 72.871094 65.957031 73.257812 65.515625 73.726562 65.226562 C 74.195312 64.941406 74.703125 64.796875 75.25 64.796875 C 75.9375 64.796875 76.492188 65.011719 76.910156 65.441406 C 77.324219 65.871094 77.535156 66.457031 77.535156 67.199219 C 77.535156 67.488281 77.507812 67.78125 77.457031 68.078125 L 73.160156 68.078125 C 73.144531 68.195312 73.140625 68.300781 73.140625 68.390625 C 73.140625 68.9375 73.261719 69.355469 73.511719 69.640625 C 73.769531 69.929688 74.082031 70.070312 74.449219 70.070312 C 74.785156 70.070312 75.117188 69.960938 75.445312 69.738281 C 75.769531 69.519531 76.03125 69.191406 76.226562 68.761719 Z M 73.335938 67.316406 L 76.597656 67.316406 C 76.597656 67.226562 76.597656 67.15625 76.597656 67.101562 C 76.597656 66.609375 76.472656 66.230469 76.226562 65.96875 C 75.976562 65.695312 75.660156 65.558594 75.269531 65.558594 C 74.851562 65.558594 74.46875 65.710938 74.117188 66.007812 C 73.765625 66.296875 73.503906 66.730469 73.335938 67.316406 Z M 73.335938 67.316406 "/>
<path style="fill:none;stroke-width:1;stroke-linecap:round;stroke-linejoin:round;stroke:rgb(0%,0%,0%);stroke-opacity:1;stroke-miterlimit:10;" d="M 196.765625 101.734375 C 201.746875 106.715625 201.746875 114.784375 196.765625 119.765625 C 191.784375 124.746875 183.715625 124.746875 178.734375 119.765625 C 173.753125 114.784375 173.753125 106.715625 178.734375 101.734375 C 183.715625 96.753125 191.784375 96.753125 196.765625 101.734375 " transform="matrix(1.25,0,0,1.25,-35,-71.25)"/>
<path style=" stroke:none;fill-rule:nonzero;fill:rgb(0%,0%,0%);fill-opacity:1;" d="M 198.632812 70.753906 L 199.6875 65.695312 L 198.808594 65.695312 L 198.964844 64.914062 L 199.863281 64.914062 L 200.019531 64.09375 C 200.105469 63.679688 200.199219 63.378906 200.292969 63.195312 C 200.378906 63.015625 200.53125 62.863281 200.742188 62.746094 C 200.960938 62.628906 201.253906 62.570312 201.621094 62.570312 C 201.863281 62.570312 202.230469 62.625 202.714844 62.726562 L 202.539062 63.585938 C 202.195312 63.496094 201.914062 63.449219 201.679688 63.449219 C 201.484375 63.449219 201.332031 63.503906 201.230469 63.605469 C 201.136719 63.699219 201.054688 63.925781 200.976562 64.289062 L 200.859375 64.914062 L 201.953125 64.914062 L 201.796875 65.695312 L 200.683594 65.695312 L 199.628906 70.753906 Z M 198.632812 70.753906 "/>
<path style="fill-rule:nonzero;fill:rgb(41.568627%,75.294118%,98.823529%);fill-opacity:1;stroke-width:1;stroke-linecap:round;stroke-linejoin:round;stroke:rgb(0%,0%,0%);stroke-opacity:1;stroke-miterlimit:10;" d="M 146.765625 141.734375 C 151.746875 146.715625 151.746875 154.784375 146.765625 159.765625 C 141.784375 164.746875 133.715625 164.746875 128.734375 159.765625 C 123.753125 154.784375 123.753125 146.715625 128.734375 141.734375 C 133.715625 136.753125 141.784375 136.753125 146.765625 141.734375 " transform="matrix(1.25,0,0,1.25,-35,-71.25)"/>
<path style=" stroke:none;fill-rule:nonzero;fill:rgb(0%,0%,0%);fill-opacity:1;" d="M 134.371094 121.28125 L 135.386719 121.378906 C 135.371094 121.597656 135.398438 121.769531 135.464844 121.886719 C 135.527344 122.003906 135.625 122.085938 135.757812 122.140625 C 135.9375 122.226562 136.171875 122.277344 136.460938 122.277344 C 137.058594 122.277344 137.488281 122.121094 137.75 121.808594 C 137.929688 121.597656 138.09375 121.144531 138.238281 120.441406 L 138.335938 119.972656 C 137.8125 120.496094 137.261719 120.753906 136.675781 120.753906 C 136.089844 120.753906 135.59375 120.539062 135.191406 120.109375 C 134.800781 119.667969 134.605469 119.050781 134.605469 118.253906 C 134.605469 117.605469 134.761719 117.003906 135.074219 116.457031 C 135.386719 115.910156 135.757812 115.5 136.1875 115.226562 C 136.628906 114.941406 137.078125 114.796875 137.535156 114.796875 C 138.300781 114.796875 138.886719 115.15625 139.292969 115.871094 L 139.488281 114.914062 L 140.40625 114.914062 L 139.234375 120.558594 C 139.101562 121.167969 138.933594 121.640625 138.726562 121.984375 C 138.515625 122.335938 138.222656 122.609375 137.847656 122.804688 C 137.480469 123 137.058594 123.097656 136.578125 123.097656 C 136.109375 123.097656 135.703125 123.027344 135.367188 122.902344 C 135.027344 122.785156 134.773438 122.609375 134.605469 122.375 C 134.433594 122.140625 134.351562 121.871094 134.351562 121.574219 C 134.351562 121.480469 134.355469 121.382812 134.371094 121.28125 Z M 135.621094 118.175781 C 135.621094 118.566406 135.660156 118.867188 135.738281 119.074219 C 135.839844 119.363281 135.992188 119.578125 136.1875 119.71875 C 136.394531 119.863281 136.628906 119.933594 136.890625 119.933594 C 137.214844 119.933594 137.535156 119.824219 137.847656 119.601562 C 138.171875 119.367188 138.433594 119.015625 138.628906 118.546875 C 138.835938 118.066406 138.941406 117.605469 138.941406 117.160156 C 138.941406 116.679688 138.804688 116.300781 138.53125 116.027344 C 138.269531 115.742188 137.945312 115.597656 137.554688 115.597656 C 137.304688 115.597656 137.066406 115.664062 136.832031 115.792969 C 136.609375 115.925781 136.402344 116.121094 136.207031 116.378906 C 136.011719 116.640625 135.859375 116.960938 135.757812 117.335938 C 135.664062 117.703125 135.621094 117.980469 135.621094 118.175781 Z M 135.621094 118.175781 "/>
<path style="fill:none;stroke-width:1;stroke-linecap:round;stroke-linejoin:miter;stroke:rgb(0%,0%,0%);stroke-opacity:1;stroke-miterlimit:10;" d="M 69.50625 81.5625 L 77.8625 94.934375 " transform="matrix(1.25,0,0,1.25,-35,-71.25)"/>
<path style="fill-rule:nonzero;fill:rgb(0%,0%,0%);fill-opacity:1;stroke-width:1;stroke-linecap:butt;stroke-linejoin:miter;stroke:rgb(0%,0%,0%);stroke-opacity:1;stroke-miterlimit:10;" d="M 79.984375 98.325 L 79.1375 94.1375 L 76.59375 95.725 Z M 79.984375 98.325 " transform="matrix(1.25,0,0,1.25,-35,-71.25)"/>
<path style="fill:none;stroke-width:1;stroke-linecap:round;stroke-linejoin:miter;stroke:rgb(0%,0%,0%);stroke-opacity:1;stroke-miterlimit:10;" d="M 105.99375 81.5625 L 97.6375 94.934375 " transform="matrix(1.25,0,0,1.25,-35,-71.25)"/>
<path style="fill-rule:nonzero;fill:rgb(0%,0%,0%);fill-opacity:1;stroke-width:1;stroke-linecap:butt;stroke-linejoin:miter;stroke:rgb(0%,0%,0%);stroke-opacity:1;stroke-miterlimit:10;" d="M 95.515625 98.325 L 98.90625 95.725 L 96.3625 94.1375 Z M 95.515625 98.325 " transform="matrix(1.25,0,0,1.25,-35,-71.25)"/>
<path style="fill:none;stroke-width:1;stroke-linecap:round;stroke-linejoin:miter;stroke:rgb(0%,0%,0%);stroke-opacity:1;stroke-miterlimit:10;" d="M 169.50625 81.5625 L 177.8625 94.934375 " transform="matrix(1.25,0,0,1.25,-35,-71.25)"/>
<path style="fill-rule:nonzero;fill:rgb(0%,0%,0%);fill-opacity:1;stroke-width:1;stroke-linecap:butt;stroke-linejoin:miter;stroke:rgb(0%,0%,0%);stroke-opacity:1;stroke-miterlimit:10;" d="M 179.984375 98.325 L 179.1375 94.1375 L 176.59375 95.725 Z M 179.984375 98.325 " transform="matrix(1.25,0,0,1.25,-35,-71.25)"/>
<path style="fill:none;stroke-width:1;stroke-linecap:round;stroke-linejoin:miter;stroke:rgb(0%,0%,0%);stroke-opacity:1;stroke-miterlimit:10;" d="M 205.99375 81.5625 L 197.6375 94.934375 " transform="matrix(1.25,0,0,1.25,-35,-71.25)"/>
<path style="fill-rule:nonzero;fill:rgb(0%,0%,0%);fill-opacity:1;stroke-width:1;stroke-linecap:butt;stroke-linejoin:miter;stroke:rgb(0%,0%,0%);stroke-opacity:1;stroke-miterlimit:10;" d="M 195.515625 98.325 L 198.90625 95.725 L 196.3625 94.1375 Z M 195.515625 98.325 " transform="matrix(1.25,0,0,1.25,-35,-71.25)"/>
<path style="fill:none;stroke-width:1;stroke-linecap:round;stroke-linejoin:miter;stroke:rgb(0%,0%,0%);stroke-opacity:1;stroke-miterlimit:10;" d="M 177.79375 118.715625 L 152.3125 139.096875 " transform="matrix(1.25,0,0,1.25,-35,-71.25)"/>
<path style="fill-rule:nonzero;fill:rgb(0%,0%,0%);fill-opacity:1;stroke-width:1;stroke-linecap:butt;stroke-linejoin:miter;stroke:rgb(0%,0%,0%);stroke-opacity:1;stroke-miterlimit:10;" d="M 149.190625 141.596875 L 153.25 140.26875 L 151.378125 137.925 Z M 149.190625 141.596875 " transform="matrix(1.25,0,0,1.25,-35,-71.25)"/>
<path style="fill:none;stroke-width:1;stroke-linecap:round;stroke-linejoin:miter;stroke:rgb(0%,0%,0%);stroke-opacity:1;stroke-miterlimit:10;" d="M 97.70625 118.715625 L 123.1875 139.096875 " transform="matrix(1.25,0,0,1.25,-35,-71.25)"/>
<path style="fill-rule:nonzero;fill:rgb(0%,0%,0%);fill-opacity:1;stroke-width:1;stroke-linecap:butt;stroke-linejoin:miter;stroke:rgb(0%,0%,0%);stroke-opacity:1;stroke-miterlimit:10;" d="M 126.309375 141.596875 L 124.121875 137.925 L 122.25 140.26875 Z M 126.309375 141.596875 " transform="matrix(1.25,0,0,1.25,-35,-71.25)"/>
<path style=" stroke:none;fill-rule:nonzero;fill:rgb(0%,0%,0%);fill-opacity:1;" d="M 11.738281 70.03125 C 11.371094 70.34375 11.019531 70.566406 10.683594 70.695312 C 10.339844 70.820312 9.980469 70.890625 9.589844 70.890625 C 8.949219 70.890625 8.457031 70.734375 8.105469 70.421875 C 7.761719 70.109375 7.597656 69.707031 7.597656 69.210938 C 7.597656 68.925781 7.660156 68.664062 7.792969 68.429688 C 7.917969 68.195312 8.089844 68.007812 8.300781 67.863281 C 8.503906 67.722656 8.738281 67.609375 9.003906 67.53125 C 9.199219 67.492188 9.492188 67.449219 9.882812 67.394531 C 10.6875 67.304688 11.277344 67.1875 11.660156 67.042969 C 11.660156 66.914062 11.660156 66.828125 11.660156 66.789062 C 11.660156 66.386719 11.566406 66.105469 11.386719 65.949219 C 11.121094 65.714844 10.746094 65.597656 10.253906 65.597656 C 9.785156 65.597656 9.4375 65.683594 9.21875 65.851562 C 8.992188 66.007812 8.832031 66.296875 8.730469 66.710938 L 7.773438 66.59375 C 7.851562 66.179688 7.988281 65.847656 8.183594 65.597656 C 8.386719 65.339844 8.679688 65.144531 9.0625 65.011719 C 9.453125 64.871094 9.890625 64.796875 10.390625 64.796875 C 10.898438 64.796875 11.296875 64.855469 11.601562 64.972656 C 11.914062 65.089844 12.136719 65.242188 12.285156 65.421875 C 12.441406 65.59375 12.542969 65.8125 12.597656 66.085938 C 12.636719 66.257812 12.65625 66.554688 12.65625 66.984375 L 12.65625 68.3125 C 12.65625 69.226562 12.675781 69.804688 12.714844 70.050781 C 12.753906 70.300781 12.835938 70.535156 12.96875 70.753906 L 11.933594 70.753906 C 11.824219 70.546875 11.761719 70.304688 11.738281 70.03125 Z M 11.660156 67.824219 C 11.292969 67.96875 10.75 68.09375 10.039062 68.195312 C 9.632812 68.261719 9.34375 68.332031 9.179688 68.410156 C 9.007812 68.476562 8.875 68.582031 8.789062 68.722656 C 8.695312 68.867188 8.652344 69.023438 8.652344 69.191406 C 8.652344 69.453125 8.75 69.675781 8.945312 69.855469 C 9.140625 70.027344 9.433594 70.109375 9.824219 70.109375 C 10.199219 70.109375 10.535156 70.027344 10.839844 69.855469 C 11.136719 69.6875 11.355469 69.460938 11.503906 69.171875 C 11.605469 68.953125 11.660156 68.625 11.660156 68.195312 Z M 11.660156 67.824219 "/>
<path style=" stroke:none;fill-rule:nonzero;fill:rgb(0%,0%,0%);fill-opacity:1;" d="M 17.976562 70.753906 L 17.976562 70.011719 C 17.59375 70.597656 17.046875 70.890625 16.335938 70.890625 C 15.875 70.890625 15.457031 70.757812 15.066406 70.5 C 14.675781 70.242188 14.367188 69.882812 14.148438 69.425781 C 13.9375 68.972656 13.835938 68.445312 13.835938 67.84375 C 13.835938 67.257812 13.933594 66.730469 14.128906 66.261719 C 14.324219 65.78125 14.605469 65.417969 14.988281 65.167969 C 15.378906 64.921875 15.8125 64.796875 16.296875 64.796875 C 16.648438 64.796875 16.960938 64.871094 17.234375 65.011719 C 17.507812 65.15625 17.726562 65.351562 17.898438 65.597656 L 17.898438 62.707031 L 18.894531 62.707031 L 18.894531 70.753906 Z M 14.851562 67.84375 C 14.851562 68.585938 15.007812 69.148438 15.320312 69.523438 C 15.632812 69.890625 16.003906 70.070312 16.433594 70.070312 C 16.863281 70.070312 17.222656 69.894531 17.527344 69.542969 C 17.839844 69.191406 17.996094 68.652344 17.996094 67.921875 C 17.996094 67.128906 17.839844 66.542969 17.527344 66.164062 C 17.214844 65.789062 16.832031 65.597656 16.394531 65.597656 C 15.949219 65.597656 15.578125 65.78125 15.28125 66.144531 C 14.992188 66.511719 14.851562 67.078125 14.851562 67.84375 Z M 14.851562 67.84375 "/>
<path style=" stroke:none;fill-rule:nonzero;fill:rgb(0%,0%,0%);fill-opacity:1;" d="M 24.234375 70.753906 L 24.234375 70.011719 C 23.851562 70.597656 23.304688 70.890625 22.59375 70.890625 C 22.132812 70.890625 21.714844 70.757812 21.324219 70.5 C 20.933594 70.242188 20.625 69.882812 20.40625 69.425781 C 20.195312 68.972656 20.09375 68.445312 20.09375 67.84375 C 20.09375 67.257812 20.191406 66.730469 20.386719 66.261719 C 20.582031 65.78125 20.863281 65.417969 21.246094 65.167969 C 21.636719 64.921875 22.070312 64.796875 22.554688 64.796875 C 22.90625 64.796875 23.21875 64.871094 23.492188 65.011719 C 23.765625 65.15625 23.984375 65.351562 24.15625 65.597656 L 24.15625 62.707031 L 25.152344 62.707031 L 25.152344 70.753906 Z M 21.109375 67.84375 C 21.109375 68.585938 21.265625 69.148438 21.578125 69.523438 C 21.890625 69.890625 22.261719 70.070312 22.691406 70.070312 C 23.121094 70.070312 23.480469 69.894531 23.785156 69.542969 C 24.097656 69.191406 24.253906 68.652344 24.253906 67.921875 C 24.253906 67.128906 24.097656 66.542969 23.785156 66.164062 C 23.472656 65.789062 23.089844 65.597656 22.652344 65.597656 C 22.207031 65.597656 21.835938 65.78125 21.539062 66.144531 C 21.25 66.511719 21.109375 67.078125 21.109375 67.84375 Z M 21.109375 67.84375 "/>
<path style=" stroke:none;fill-rule:nonzero;fill:rgb(0%,0%,0%);fill-opacity:1;" d="M 28.59375 73.117188 C 28.046875 72.421875 27.585938 71.621094 27.207031 70.714844 C 26.828125 69.792969 26.640625 68.835938 26.640625 67.84375 C 26.640625 66.972656 26.785156 66.132812 27.070312 65.324219 C 27.394531 64.402344 27.902344 63.484375 28.59375 62.570312 L 29.296875 62.570312 C 28.855469 63.328125 28.5625 63.867188 28.417969 64.191406 C 28.195312 64.699219 28.019531 65.226562 27.890625 65.773438 C 27.734375 66.464844 27.65625 67.15625 27.65625 67.84375 C 27.65625 69.601562 28.203125 71.359375 29.296875 73.117188 Z M 28.59375 73.117188 "/>
<path style=" stroke:none;fill-rule:nonzero;fill:rgb(0%,0%,0%);fill-opacity:1;" d="M 34.257812 70.03125 C 33.890625 70.34375 33.539062 70.566406 33.203125 70.695312 C 32.859375 70.820312 32.5 70.890625 32.109375 70.890625 C 31.46875 70.890625 30.976562 70.734375 30.625 70.421875 C 30.28125 70.109375 30.117188 69.707031 30.117188 69.210938 C 30.117188 68.925781 30.179688 68.664062 30.3125 68.429688 C 30.4375 68.195312 30.609375 68.007812 30.820312 67.863281 C 31.023438 67.722656 31.257812 67.609375 31.523438 67.53125 C 31.71875 67.492188 32.011719 67.449219 32.402344 67.394531 C 33.207031 67.304688 33.796875 67.1875 34.179688 67.042969 C 34.179688 66.914062 34.179688 66.828125 34.179688 66.789062 C 34.179688 66.386719 34.085938 66.105469 33.90625 65.949219 C 33.640625 65.714844 33.265625 65.597656 32.773438 65.597656 C 32.304688 65.597656 31.957031 65.683594 31.738281 65.851562 C 31.511719 66.007812 31.351562 66.296875 31.25 66.710938 L 30.292969 66.59375 C 30.371094 66.179688 30.507812 65.847656 30.703125 65.597656 C 30.90625 65.339844 31.199219 65.144531 31.582031 65.011719 C 31.972656 64.871094 32.410156 64.796875 32.910156 64.796875 C 33.417969 64.796875 33.816406 64.855469 34.121094 64.972656 C 34.433594 65.089844 34.65625 65.242188 34.804688 65.421875 C 34.960938 65.59375 35.0625 65.8125 35.117188 66.085938 C 35.15625 66.257812 35.175781 66.554688 35.175781 66.984375 L 35.175781 68.3125 C 35.175781 69.226562 35.195312 69.804688 35.234375 70.050781 C 35.273438 70.300781 35.355469 70.535156 35.488281 70.753906 L 34.453125 70.753906 C 34.34375 70.546875 34.28125 70.304688 34.257812 70.03125 Z M 34.179688 67.824219 C 33.8125 67.96875 33.269531 68.09375 32.558594 68.195312 C 32.152344 68.261719 31.863281 68.332031 31.699219 68.410156 C 31.527344 68.476562 31.394531 68.582031 31.308594 68.722656 C 31.214844 68.867188 31.171875 69.023438 31.171875 69.191406 C 31.171875 69.453125 31.269531 69.675781 31.464844 69.855469 C 31.660156 70.027344 31.953125 70.109375 32.34375 70.109375 C 32.71875 70.109375 33.054688 70.027344 33.359375 69.855469 C 33.65625 69.6875 33.875 69.460938 34.023438 69.171875 C 34.125 68.953125 34.179688 68.625 34.179688 68.195312 Z M 34.179688 67.824219 "/>
<path style=" stroke:none;fill-rule:nonzero;fill:rgb(0%,0%,0%);fill-opacity:1;" d="M 36.957031 70.753906 L 36.957031 69.621094 L 38.089844 69.621094 L 38.089844 70.753906 C 38.089844 71.167969 38.011719 71.5 37.855469 71.75 C 37.710938 72.007812 37.484375 72.207031 37.171875 72.355469 L 36.898438 71.925781 C 37.105469 71.832031 37.257812 71.695312 37.347656 71.515625 C 37.453125 71.34375 37.511719 71.089844 37.523438 70.753906 Z M 36.957031 70.753906 "/>
<path style=" stroke:none;fill-rule:nonzero;fill:rgb(0%,0%,0%);fill-opacity:1;" d="M 43.875 70.753906 L 42.957031 70.753906 L 42.957031 62.707031 L 43.933594 62.707031 L 43.933594 65.578125 C 44.347656 65.058594 44.878906 64.796875 45.535156 64.796875 C 45.894531 64.796875 46.238281 64.871094 46.550781 65.011719 C 46.871094 65.15625 47.140625 65.359375 47.351562 65.617188 C 47.554688 65.878906 47.722656 66.199219 47.839844 66.574219 C 47.957031 66.941406 48.015625 67.332031 48.015625 67.746094 C 48.015625 68.75 47.765625 69.523438 47.273438 70.070312 C 46.773438 70.617188 46.183594 70.890625 45.496094 70.890625 C 44.800781 70.890625 44.265625 70.605469 43.875 70.03125 Z M 43.855469 67.785156 C 43.855469 68.488281 43.953125 68.996094 44.148438 69.308594 C 44.460938 69.816406 44.875 70.070312 45.398438 70.070312 C 45.835938 70.070312 46.21875 69.882812 46.53125 69.503906 C 46.84375 69.128906 47 68.566406 47 67.824219 C 47 67.070312 46.847656 66.511719 46.550781 66.144531 C 46.246094 65.78125 45.886719 65.597656 45.457031 65.597656 C 45.011719 65.597656 44.636719 65.789062 44.324219 66.164062 C 44.011719 66.542969 43.855469 67.082031 43.855469 67.785156 Z M 43.855469 67.785156 "/>
<path style=" stroke:none;fill-rule:nonzero;fill:rgb(0%,0%,0%);fill-opacity:1;" d="M 49.855469 73.117188 L 49.152344 73.117188 C 50.246094 71.359375 50.792969 69.601562 50.792969 67.84375 C 50.792969 67.15625 50.714844 66.472656 50.558594 65.792969 C 50.429688 65.246094 50.253906 64.71875 50.03125 64.210938 C 49.886719 63.886719 49.59375 63.339844 49.152344 62.570312 L 49.855469 62.570312 C 50.546875 63.484375 51.054688 64.402344 51.378906 65.324219 C 51.664062 66.132812 51.808594 66.972656 51.808594 67.84375 C 51.808594 68.835938 51.621094 69.792969 51.242188 70.714844 C 50.863281 71.621094 50.402344 72.421875 49.855469 73.117188 Z M 49.855469 73.117188 "/>
<path style=" stroke:none;fill-rule:nonzero;fill:rgb(0%,0%,0%);fill-opacity:1;" d="M 136.738281 70.03125 C 136.371094 70.34375 136.019531 70.566406 135.683594 70.695312 C 135.339844 70.820312 134.980469 70.890625 134.589844 70.890625 C 133.949219 70.890625 133.457031 70.734375 133.105469 70.421875 C 132.761719 70.109375 132.597656 69.707031 132.597656 69.210938 C 132.597656 68.925781 132.660156 68.664062 132.792969 68.429688 C 132.917969 68.195312 133.089844 68.007812 133.300781 67.863281 C 133.503906 67.722656 133.738281 67.609375 134.003906 67.53125 C 134.199219 67.492188 134.492188 67.449219 134.882812 67.394531 C 135.6875 67.304688 136.277344 67.1875 136.660156 67.042969 C 136.660156 66.914062 136.660156 66.828125 136.660156 66.789062 C 136.660156 66.386719 136.566406 66.105469 136.386719 65.949219 C 136.121094 65.714844 135.746094 65.597656 135.253906 65.597656 C 134.785156 65.597656 134.4375 65.683594 134.21875 65.851562 C 133.992188 66.007812 133.832031 66.296875 133.730469 66.710938 L 132.773438 66.59375 C 132.851562 66.179688 132.988281 65.847656 133.183594 65.597656 C 133.386719 65.339844 133.679688 65.144531 134.0625 65.011719 C 134.453125 64.871094 134.890625 64.796875 135.390625 64.796875 C 135.898438 64.796875 136.296875 64.855469 136.601562 64.972656 C 136.914062 65.089844 137.136719 65.242188 137.285156 65.421875 C 137.441406 65.59375 137.542969 65.8125 137.597656 66.085938 C 137.636719 66.257812 137.65625 66.554688 137.65625 66.984375 L 137.65625 68.3125 C 137.65625 69.226562 137.675781 69.804688 137.714844 70.050781 C 137.753906 70.300781 137.835938 70.535156 137.96875 70.753906 L 136.933594 70.753906 C 136.824219 70.546875 136.761719 70.304688 136.738281 70.03125 Z M 136.660156 67.824219 C 136.292969 67.96875 135.75 68.09375 135.039062 68.195312 C 134.632812 68.261719 134.34375 68.332031 134.179688 68.410156 C 134.007812 68.476562 133.875 68.582031 133.789062 68.722656 C 133.695312 68.867188 133.652344 69.023438 133.652344 69.191406 C 133.652344 69.453125 133.75 69.675781 133.945312 69.855469 C 134.140625 70.027344 134.433594 70.109375 134.824219 70.109375 C 135.199219 70.109375 135.535156 70.027344 135.839844 69.855469 C 136.136719 69.6875 136.355469 69.460938 136.503906 69.171875 C 136.605469 68.953125 136.660156 68.625 136.660156 68.195312 Z M 136.660156 67.824219 "/>
<path style=" stroke:none;fill-rule:nonzero;fill:rgb(0%,0%,0%);fill-opacity:1;" d="M 142.976562 70.753906 L 142.976562 70.011719 C 142.59375 70.597656 142.046875 70.890625 141.335938 70.890625 C 140.875 70.890625 140.457031 70.757812 140.066406 70.5 C 139.675781 70.242188 139.367188 69.882812 139.148438 69.425781 C 138.9375 68.972656 138.835938 68.445312 138.835938 67.84375 C 138.835938 67.257812 138.933594 66.730469 139.128906 66.261719 C 139.324219 65.78125 139.605469 65.417969 139.988281 65.167969 C 140.378906 64.921875 140.8125 64.796875 141.296875 64.796875 C 141.648438 64.796875 141.960938 64.871094 142.234375 65.011719 C 142.507812 65.15625 142.726562 65.351562 142.898438 65.597656 L 142.898438 62.707031 L 143.894531 62.707031 L 143.894531 70.753906 Z M 139.851562 67.84375 C 139.851562 68.585938 140.007812 69.148438 140.320312 69.523438 C 140.632812 69.890625 141.003906 70.070312 141.433594 70.070312 C 141.863281 70.070312 142.222656 69.894531 142.527344 69.542969 C 142.839844 69.191406 142.996094 68.652344 142.996094 67.921875 C 142.996094 67.128906 142.839844 66.542969 142.527344 66.164062 C 142.214844 65.789062 141.832031 65.597656 141.394531 65.597656 C 140.949219 65.597656 140.578125 65.78125 140.28125 66.144531 C 139.992188 66.511719 139.851562 67.078125 139.851562 67.84375 Z M 139.851562 67.84375 "/>
<path style=" stroke:none;fill-rule:nonzero;fill:rgb(0%,0%,0%);fill-opacity:1;" d="M 149.234375 70.753906 L 149.234375 70.011719 C 148.851562 70.597656 148.304688 70.890625 147.59375 70.890625 C 147.132812 70.890625 146.714844 70.757812 146.324219 70.5 C 145.933594 70.242188 145.625 69.882812 145.40625 69.425781 C 145.195312 68.972656 145.09375 68.445312 145.09375 67.84375 C 145.09375 67.257812 145.191406 66.730469 145.386719 66.261719 C 145.582031 65.78125 145.863281 65.417969 146.246094 65.167969 C 146.636719 64.921875 147.070312 64.796875 147.554688 64.796875 C 147.90625 64.796875 148.21875 64.871094 148.492188 65.011719 C 148.765625 65.15625 148.984375 65.351562 149.15625 65.597656 L 149.15625 62.707031 L 150.152344 62.707031 L 150.152344 70.753906 Z M 146.109375 67.84375 C 146.109375 68.585938 146.265625 69.148438 146.578125 69.523438 C 146.890625 69.890625 147.261719 70.070312 147.691406 70.070312 C 148.121094 70.070312 148.480469 69.894531 148.785156 69.542969 C 149.097656 69.191406 149.253906 68.652344 149.253906 67.921875 C 149.253906 67.128906 149.097656 66.542969 148.785156 66.164062 C 148.472656 65.789062 148.089844 65.597656 147.652344 65.597656 C 147.207031 65.597656 146.835938 65.78125 146.539062 66.144531 C 146.25 66.511719 146.109375 67.078125 146.109375 67.84375 Z M 146.109375 67.84375 "/>
<path style=" stroke:none;fill-rule:nonzero;fill:rgb(0%,0%,0%);fill-opacity:1;" d="M 153.597656 73.117188 C 153.050781 72.421875 152.585938 71.621094 152.210938 70.714844 C 151.828125 69.792969 151.644531 68.835938 151.644531 67.84375 C 151.644531 66.972656 151.785156 66.132812 152.074219 65.324219 C 152.394531 64.402344 152.902344 63.484375 153.597656 62.570312 L 154.300781 62.570312 C 153.855469 63.328125 153.5625 63.867188 153.421875 64.191406 C 153.195312 64.699219 153.019531 65.226562 152.894531 65.773438 C 152.738281 66.464844 152.660156 67.15625 152.660156 67.84375 C 152.660156 69.601562 153.207031 71.359375 154.300781 73.117188 Z M 153.597656 73.117188 "/>
<path style=" stroke:none;fill-rule:nonzero;fill:rgb(0%,0%,0%);fill-opacity:1;" d="M 159.257812 68.625 L 160.234375 68.742188 C 160.125 69.421875 159.851562 69.949219 159.414062 70.324219 C 158.96875 70.703125 158.425781 70.890625 157.792969 70.890625 C 156.996094 70.890625 156.355469 70.632812 155.878906 70.109375 C 155.394531 69.589844 155.15625 68.839844 155.15625 67.863281 C 155.15625 67.226562 155.257812 66.671875 155.46875 66.203125 C 155.671875 65.734375 155.984375 65.382812 156.40625 65.148438 C 156.835938 64.914062 157.304688 64.796875 157.8125 64.796875 C 158.4375 64.796875 158.949219 64.960938 159.355469 65.285156 C 159.753906 65.597656 160.019531 66.046875 160.136719 66.632812 L 159.179688 66.789062 C 159.085938 66.398438 158.925781 66.105469 158.691406 65.910156 C 158.457031 65.703125 158.171875 65.597656 157.851562 65.597656 C 157.34375 65.597656 156.933594 65.78125 156.621094 66.144531 C 156.316406 66.496094 156.171875 67.058594 156.171875 67.824219 C 156.171875 68.621094 156.316406 69.191406 156.621094 69.542969 C 156.917969 69.894531 157.308594 70.070312 157.792969 70.070312 C 158.183594 70.070312 158.503906 69.953125 158.769531 69.71875 C 159.027344 69.484375 159.1875 69.121094 159.257812 68.625 Z M 159.257812 68.625 "/>
<path style=" stroke:none;fill-rule:nonzero;fill:rgb(0%,0%,0%);fill-opacity:1;" d="M 161.328125 70.753906 L 161.328125 69.621094 L 162.460938 69.621094 L 162.460938 70.753906 C 162.460938 71.167969 162.382812 71.5 162.226562 71.75 C 162.078125 72.007812 161.855469 72.207031 161.542969 72.355469 L 161.269531 71.925781 C 161.472656 71.832031 161.625 71.695312 161.71875 71.515625 C 161.820312 71.34375 161.878906 71.089844 161.894531 70.753906 Z M 161.328125 70.753906 "/>
<path style=" stroke:none;fill-rule:nonzero;fill:rgb(0%,0%,0%);fill-opacity:1;" d="M 171.113281 70.753906 L 171.113281 70.011719 C 170.730469 70.597656 170.183594 70.890625 169.472656 70.890625 C 169.011719 70.890625 168.59375 70.757812 168.203125 70.5 C 167.8125 70.242188 167.503906 69.882812 167.285156 69.425781 C 167.074219 68.972656 166.972656 68.445312 166.972656 67.84375 C 166.972656 67.257812 167.070312 66.730469 167.265625 66.261719 C 167.460938 65.78125 167.742188 65.417969 168.125 65.167969 C 168.515625 64.921875 168.949219 64.796875 169.433594 64.796875 C 169.785156 64.796875 170.097656 64.871094 170.371094 65.011719 C 170.644531 65.15625 170.863281 65.351562 171.035156 65.597656 L 171.035156 62.707031 L 172.03125 62.707031 L 172.03125 70.753906 Z M 167.988281 67.84375 C 167.988281 68.585938 168.144531 69.148438 168.457031 69.523438 C 168.769531 69.890625 169.140625 70.070312 169.570312 70.070312 C 170 70.070312 170.359375 69.894531 170.664062 69.542969 C 170.976562 69.191406 171.132812 68.652344 171.132812 67.921875 C 171.132812 67.128906 170.976562 66.542969 170.664062 66.164062 C 170.351562 65.789062 169.96875 65.597656 169.53125 65.597656 C 169.085938 65.597656 168.714844 65.78125 168.417969 66.144531 C 168.128906 66.511719 167.988281 67.078125 167.988281 67.84375 Z M 167.988281 67.84375 "/>
<path style=" stroke:none;fill-rule:nonzero;fill:rgb(0%,0%,0%);fill-opacity:1;" d="M 174.226562 73.117188 L 173.523438 73.117188 C 174.617188 71.359375 175.164062 69.601562 175.164062 67.84375 C 175.164062 67.15625 175.085938 66.472656 174.929688 65.792969 C 174.796875 65.246094 174.621094 64.71875 174.402344 64.210938 C 174.253906 63.886719 173.960938 63.339844 173.523438 62.570312 L 174.226562 62.570312 C 174.914062 63.484375 175.421875 64.402344 175.75 65.324219 C 176.03125 66.132812 176.179688 66.972656 176.179688 67.84375 C 176.179688 68.835938 175.988281 69.792969 175.613281 70.714844 C 175.230469 71.621094 174.773438 72.421875 174.226562 73.117188 Z M 174.226562 73.117188 "/>
<path style=" stroke:none;fill-rule:nonzero;fill:rgb(0%,0%,0%);fill-opacity:1;" d="M 74.238281 120.03125 C 73.871094 120.34375 73.519531 120.566406 73.183594 120.695312 C 72.839844 120.820312 72.480469 120.890625 72.089844 120.890625 C 71.449219 120.890625 70.957031 120.734375 70.605469 120.421875 C 70.261719 120.109375 70.097656 119.707031 70.097656 119.210938 C 70.097656 118.925781 70.160156 118.664062 70.292969 118.429688 C 70.417969 118.195312 70.589844 118.007812 70.800781 117.863281 C 71.003906 117.722656 71.238281 117.609375 71.503906 117.53125 C 71.699219 117.492188 71.992188 117.449219 72.382812 117.394531 C 73.1875 117.304688 73.777344 117.1875 74.160156 117.042969 C 74.160156 116.914062 74.160156 116.828125 74.160156 116.789062 C 74.160156 116.386719 74.066406 116.105469 73.886719 115.949219 C 73.621094 115.714844 73.246094 115.597656 72.753906 115.597656 C 72.285156 115.597656 71.9375 115.683594 71.71875 115.851562 C 71.492188 116.007812 71.332031 116.296875 71.230469 116.710938 L 70.273438 116.59375 C 70.351562 116.179688 70.488281 115.847656 70.683594 115.597656 C 70.886719 115.339844 71.179688 115.144531 71.5625 115.011719 C 71.953125 114.871094 72.390625 114.796875 72.890625 114.796875 C 73.398438 114.796875 73.796875 114.855469 74.101562 114.972656 C 74.414062 115.089844 74.636719 115.242188 74.785156 115.421875 C 74.941406 115.59375 75.042969 115.8125 75.097656 116.085938 C 75.136719 116.257812 75.15625 116.554688 75.15625 116.984375 L 75.15625 118.3125 C 75.15625 119.226562 75.175781 119.804688 75.214844 120.050781 C 75.253906 120.300781 75.335938 120.535156 75.46875 120.753906 L 74.433594 120.753906 C 74.324219 120.546875 74.261719 120.304688 74.238281 120.03125 Z M 74.160156 117.824219 C 73.792969 117.96875 73.25 118.09375 72.539062 118.195312 C 72.132812 118.261719 71.84375 118.332031 71.679688 118.410156 C 71.507812 118.476562 71.375 118.582031 71.289062 118.722656 C 71.195312 118.867188 71.152344 119.023438 71.152344 119.191406 C 71.152344 119.453125 71.25 119.675781 71.445312 119.855469 C 71.640625 120.027344 71.933594 120.109375 72.324219 120.109375 C 72.699219 120.109375 73.035156 120.027344 73.339844 119.855469 C 73.636719 119.6875 73.855469 119.460938 74.003906 119.171875 C 74.105469 118.953125 74.160156 118.625 74.160156 118.195312 Z M 74.160156 117.824219 "/>
<path style=" stroke:none;fill-rule:nonzero;fill:rgb(0%,0%,0%);fill-opacity:1;" d="M 80.476562 120.753906 L 80.476562 120.011719 C 80.09375 120.597656 79.546875 120.890625 78.835938 120.890625 C 78.375 120.890625 77.957031 120.757812 77.566406 120.5 C 77.175781 120.242188 76.867188 119.882812 76.648438 119.425781 C 76.4375 118.972656 76.335938 118.445312 76.335938 117.84375 C 76.335938 117.257812 76.433594 116.730469 76.628906 116.261719 C 76.824219 115.78125 77.105469 115.417969 77.488281 115.167969 C 77.878906 114.921875 78.3125 114.796875 78.796875 114.796875 C 79.148438 114.796875 79.460938 114.871094 79.734375 115.011719 C 80.007812 115.15625 80.226562 115.351562 80.398438 115.597656 L 80.398438 112.707031 L 81.394531 112.707031 L 81.394531 120.753906 Z M 77.351562 117.84375 C 77.351562 118.585938 77.507812 119.148438 77.820312 119.523438 C 78.132812 119.890625 78.503906 120.070312 78.933594 120.070312 C 79.363281 120.070312 79.722656 119.894531 80.027344 119.542969 C 80.339844 119.191406 80.496094 118.652344 80.496094 117.921875 C 80.496094 117.128906 80.339844 116.542969 80.027344 116.164062 C 79.714844 115.789062 79.332031 115.597656 78.894531 115.597656 C 78.449219 115.597656 78.078125 115.78125 77.78125 116.144531 C 77.492188 116.511719 77.351562 117.078125 77.351562 117.84375 Z M 77.351562 117.84375 "/>
<path style=" stroke:none;fill-rule:nonzero;fill:rgb(0%,0%,0%);fill-opacity:1;" d="M 86.734375 120.753906 L 86.734375 120.011719 C 86.351562 120.597656 85.804688 120.890625 85.09375 120.890625 C 84.632812 120.890625 84.214844 120.757812 83.824219 120.5 C 83.433594 120.242188 83.125 119.882812 82.90625 119.425781 C 82.695312 118.972656 82.59375 118.445312 82.59375 117.84375 C 82.59375 117.257812 82.691406 116.730469 82.886719 116.261719 C 83.082031 115.78125 83.363281 115.417969 83.746094 115.167969 C 84.136719 114.921875 84.570312 114.796875 85.054688 114.796875 C 85.40625 114.796875 85.71875 114.871094 85.992188 115.011719 C 86.265625 115.15625 86.484375 115.351562 86.65625 115.597656 L 86.65625 112.707031 L 87.652344 112.707031 L 87.652344 120.753906 Z M 83.609375 117.84375 C 83.609375 118.585938 83.765625 119.148438 84.078125 119.523438 C 84.390625 119.890625 84.761719 120.070312 85.191406 120.070312 C 85.621094 120.070312 85.980469 119.894531 86.285156 119.542969 C 86.597656 119.191406 86.753906 118.652344 86.753906 117.921875 C 86.753906 117.128906 86.597656 116.542969 86.285156 116.164062 C 85.972656 115.789062 85.589844 115.597656 85.152344 115.597656 C 84.707031 115.597656 84.335938 115.78125 84.039062 116.144531 C 83.75 116.511719 83.609375 117.078125 83.609375 117.84375 Z M 83.609375 117.84375 "/>
<path style=" stroke:none;fill-rule:nonzero;fill:rgb(0%,0%,0%);fill-opacity:1;" d="M 91.09375 123.117188 C 90.546875 122.421875 90.085938 121.621094 89.707031 120.714844 C 89.328125 119.792969 89.140625 118.835938 89.140625 117.84375 C 89.140625 116.972656 89.285156 116.132812 89.570312 115.324219 C 89.894531 114.402344 90.402344 113.484375 91.09375 112.570312 L 91.796875 112.570312 C 91.355469 113.328125 91.0625 113.867188 90.917969 114.191406 C 90.695312 114.699219 90.519531 115.226562 90.390625 115.773438 C 90.234375 116.464844 90.15625 117.15625 90.15625 117.84375 C 90.15625 119.601562 90.703125 121.359375 91.796875 123.117188 Z M 91.09375 123.117188 "/>
<path style=" stroke:none;fill-rule:nonzero;fill:rgb(0%,0%,0%);fill-opacity:1;" d="M 96.933594 118.878906 L 97.96875 118.996094 C 97.796875 119.597656 97.488281 120.066406 97.050781 120.402344 C 96.621094 120.730469 96.0625 120.890625 95.390625 120.890625 C 94.539062 120.890625 93.867188 120.632812 93.359375 120.109375 C 92.859375 119.578125 92.617188 118.835938 92.617188 117.882812 C 92.617188 116.90625 92.871094 116.152344 93.378906 115.617188 C 93.886719 115.070312 94.539062 114.796875 95.351562 114.796875 C 96.132812 114.796875 96.761719 115.066406 97.246094 115.597656 C 97.738281 116.121094 97.988281 116.863281 97.988281 117.824219 C 97.988281 117.890625 97.988281 117.980469 97.988281 118.097656 L 93.632812 118.097656 C 93.671875 118.738281 93.851562 119.226562 94.179688 119.5625 C 94.5 119.902344 94.910156 120.070312 95.410156 120.070312 C 95.769531 120.070312 96.078125 119.980469 96.328125 119.796875 C 96.585938 119.601562 96.785156 119.296875 96.933594 118.878906 Z M 93.691406 117.277344 L 96.953125 117.277344 C 96.914062 116.785156 96.785156 116.414062 96.582031 116.164062 C 96.269531 115.789062 95.859375 115.597656 95.351562 115.597656 C 94.890625 115.597656 94.511719 115.753906 94.199219 116.066406 C 93.894531 116.367188 93.730469 116.769531 93.691406 117.277344 Z M 93.691406 117.277344 "/>
<path style=" stroke:none;fill-rule:nonzero;fill:rgb(0%,0%,0%);fill-opacity:1;" d="M 99.457031 120.753906 L 99.457031 119.621094 L 100.589844 119.621094 L 100.589844 120.753906 C 100.589844 121.167969 100.511719 121.5 100.355469 121.75 C 100.210938 122.007812 99.984375 122.207031 99.671875 122.355469 L 99.398438 121.925781 C 99.605469 121.832031 99.757812 121.695312 99.847656 121.515625 C 99.953125 121.34375 100.011719 121.089844 100.023438 120.753906 Z M 99.457031 120.753906 "/>
<path style=" stroke:none;fill-rule:nonzero;fill:rgb(0%,0%,0%);fill-opacity:1;" d="M 105.691406 120.753906 L 105.691406 115.695312 L 104.8125 115.695312 L 104.8125 114.914062 L 105.691406 114.914062 L 105.691406 114.308594 C 105.691406 113.90625 105.71875 113.613281 105.789062 113.429688 C 105.890625 113.171875 106.0625 112.960938 106.296875 112.804688 C 106.539062 112.648438 106.882812 112.570312 107.3125 112.570312 C 107.585938 112.570312 107.886719 112.605469 108.230469 112.667969 L 108.074219 113.527344 C 107.878906 113.488281 107.6875 113.46875 107.507812 113.46875 C 107.203125 113.46875 106.988281 113.535156 106.863281 113.664062 C 106.730469 113.796875 106.667969 114.035156 106.667969 114.386719 L 106.667969 114.914062 L 107.820312 114.914062 L 107.820312 115.695312 L 106.667969 115.695312 L 106.667969 120.753906 Z M 105.691406 120.753906 "/>
<path style=" stroke:none;fill-rule:nonzero;fill:rgb(0%,0%,0%);fill-opacity:1;" d="M 109.226562 123.117188 L 108.523438 123.117188 C 109.617188 121.359375 110.164062 119.601562 110.164062 117.84375 C 110.164062 117.15625 110.085938 116.472656 109.929688 115.792969 C 109.796875 115.246094 109.621094 114.71875 109.402344 114.210938 C 109.253906 113.886719 108.960938 113.339844 108.523438 112.570312 L 109.226562 112.570312 C 109.914062 113.484375 110.421875 114.402344 110.75 115.324219 C 111.03125 116.132812 111.179688 116.972656 111.179688 117.84375 C 111.179688 118.835938 110.988281 119.792969 110.613281 120.714844 C 110.230469 121.621094 109.773438 122.421875 109.226562 123.117188 Z M 109.226562 123.117188 "/>
</g>
</svg>
