<?xml version="1.0" encoding="UTF-8"?>
<svg xmlns="http://www.w3.org/2000/svg" xmlns:xlink="http://www.w3.org/1999/xlink" width="320pt" height="235pt" viewBox="0 0 320 235" version="1.1">
<defs>
<clipPath id="clip1">
  <path d="M 59.324219 99 L 69 99 L 69 109 L 59.324219 109 Z M 59.324219 99 "/>
</clipPath>
</defs>
<g id="surface1">
<rect x="0" y="0" width="320" height="235" style="fill:rgb(100%,100%,100%);fill-opacity:1;stroke:none;"/>
<path style=" stroke:none;fill-rule:nonzero;fill:rgb(100%,100%,100%);fill-opacity:1;" d="M 59.324219 182.25 L 303.449219 182.25 L 303.449219 9 L 59.324219 9 Z M 59.324219 182.25 "/>
<path style=" stroke:none;fill-rule:nonzero;fill:rgb(12.156863%,46.666667%,70.588235%);fill-opacity:1;" d="M 64.109375 107.558594 C 65.105469 107.558594 66.058594 107.164062 66.761719 106.460938 C 67.464844 105.757812 67.859375 104.804688 67.859375 103.808594 C 67.859375 102.816406 67.464844 101.863281 66.761719 101.15625 C 66.058594 100.453125 65.105469 100.058594 64.109375 100.058594 C 63.117188 100.058594 62.164062 100.453125 61.460938 101.15625 C 60.757812 101.863281 60.359375 102.816406 60.359375 103.808594 C 60.359375 104.804688 60.757812 105.757812 61.460938 106.460938 C 62.164062 107.164062 63.117188 107.558594 64.109375 107.558594 Z M 64.109375 107.558594 "/>
<g clip-path="url(#clip1)" clip-rule="nonzero">
<path style="fill:none;stroke-width:1;stroke-linecap:butt;stroke-linejoin:round;stroke:rgb(12.156863%,46.666667%,70.588235%);stroke-opacity:1;stroke-miterlimit:4;" d="M -0.001287 2.999047 C 0.795588 2.999047 1.558088 2.683422 2.120588 2.120922 C 2.683088 1.558422 2.998713 0.795922 2.998713 -0.000953 C 2.998713 -0.794703 2.683088 -1.557203 2.120588 -2.122828 C 1.558088 -2.685328 0.795588 -3.000953 -0.001287 -3.000953 C -0.795037 -3.000953 -1.557537 -2.685328 -2.120037 -2.122828 C -2.682537 -1.557203 -3.001287 -0.794703 -3.001287 -0.000953 C -3.001287 0.795922 -2.682537 1.558422 -2.120037 2.120922 C -1.557537 2.683422 -0.795037 2.999047 -0.001287 2.999047 Z M -0.001287 2.999047 " transform="matrix(1.25,0,0,1.25,64.110984,103.809785)"/>
</g>
<path style="fill-rule:nonzero;fill:rgb(12.156863%,46.666667%,70.588235%);fill-opacity:1;stroke-width:1;stroke-linecap:butt;stroke-linejoin:round;stroke:rgb(12.156863%,46.666667%,70.588235%);stroke-opacity:1;stroke-miterlimit:4;" d="M -0.000735 3 C 0.79614 3 1.55864 2.684375 2.12114 2.121875 C 2.68364 1.559375 2.999265 0.796875 2.999265 0 C 2.999265 -0.796875 2.68364 -1.559375 2.12114 -2.121875 C 1.55864 -2.684375 0.79614 -3 -0.000735 -3 C -0.794485 -3 -1.56011 -2.684375 -2.12261 -2.121875 C -2.68511 -1.559375 -3.000735 -0.796875 -3.000735 0 C -3.000735 0.796875 -2.68511 1.559375 -2.12261 2.121875 C -1.56011 2.684375 -0.794485 3 -0.000735 3 Z M -0.000735 3 " transform="matrix(1.25,0,0,1.25,73.684512,16.875)"/>
<path style="fill-rule:nonzero;fill:rgb(12.156863%,46.666667%,70.588235%);fill-opacity:1;stroke-width:1;stroke-linecap:butt;stroke-linejoin:round;stroke:rgb(12.156863%,46.666667%,70.588235%);stroke-opacity:1;stroke-miterlimit:4;" d="M -0.000184 3.00089 C 0.796691 3.00089 1.559191 2.685265 2.121691 2.122765 C 2.684191 1.560265 2.999816 0.79464 2.999816 0.00089 C 2.999816 -0.795985 2.684191 -1.558485 2.121691 -2.120985 C 1.559191 -2.683485 0.796691 -2.99911 -0.000184 -2.99911 C -0.797059 -2.99911 -1.559559 -2.683485 -2.122059 -2.120985 C -2.684559 -1.558485 -3.000184 -0.795985 -3.000184 0.00089 C -3.000184 0.79464 -2.684559 1.560265 -2.122059 2.122765 C -1.559559 2.685265 -0.797059 3.00089 -0.000184 3.00089 Z M -0.000184 3.00089 " transform="matrix(1.25,0,0,1.25,83.258042,68.737169)"/>
<path style="fill-rule:nonzero;fill:rgb(12.156863%,46.666667%,70.588235%);fill-opacity:1;stroke-width:1;stroke-linecap:butt;stroke-linejoin:round;stroke:rgb(12.156863%,46.666667%,70.588235%);stroke-opacity:1;stroke-miterlimit:4;" d="M 0.000368 2.999433 C 0.794118 2.999433 1.559743 2.683808 2.122243 2.121308 C 2.684743 1.558808 3.000368 0.796308 3.000368 -0.000567 C 3.000368 -0.794317 2.684743 -1.559942 2.122243 -2.122442 C 1.559743 -2.684942 0.794118 -3.000567 0.000368 -3.000567 C -0.796507 -3.000567 -1.559007 -2.684942 -2.121507 -2.122442 C -2.684007 -1.559942 -2.999632 -0.794317 -2.999632 -0.000567 C -2.999632 0.796308 -2.684007 1.558808 -2.121507 2.121308 C -1.559007 2.683808 -0.796507 2.999433 0.000368 2.999433 Z M 0.000368 2.999433 " transform="matrix(1.25,0,0,1.25,92.831571,124.996803)"/>
<path style="fill-rule:nonzero;fill:rgb(12.156863%,46.666667%,70.588235%);fill-opacity:1;stroke-width:1;stroke-linecap:butt;stroke-linejoin:round;stroke:rgb(12.156863%,46.666667%,70.588235%);stroke-opacity:1;stroke-miterlimit:4;" d="M -0.001103 3.0005 C 0.795772 3.0005 1.558272 2.684875 2.120772 2.122375 C 2.683272 1.559875 2.998897 0.79425 2.998897 0.0005 C 2.998897 -0.796375 2.683272 -1.558875 2.120772 -2.121375 C 1.558272 -2.683875 0.795772 -2.9995 -0.001103 -2.9995 C -0.794853 -2.9995 -1.557353 -2.683875 -2.119853 -2.121375 C -2.682353 -1.558875 -3.001103 -0.796375 -3.001103 0.0005 C -3.001103 0.79425 -2.682353 1.559875 -2.119853 2.122375 C -1.557353 2.684875 -0.794853 3.0005 -0.001103 3.0005 Z M -0.001103 3.0005 " transform="matrix(1.25,0,0,1.25,121.55216,131.034531)"/>
<path style="fill-rule:nonzero;fill:rgb(12.156863%,46.666667%,70.588235%);fill-opacity:1;stroke-width:1;stroke-linecap:butt;stroke-linejoin:round;stroke:rgb(12.156863%,46.666667%,70.588235%);stroke-opacity:1;stroke-miterlimit:4;" d="M -0.000551 2.999343 C 0.796324 2.999343 1.558824 2.683718 2.121324 2.121218 C 2.683824 1.558718 2.999449 0.796218 2.999449 -0.000657 C 2.999449 -0.794407 2.683824 -1.560032 2.121324 -2.122532 C 1.558824 -2.685032 0.796324 -3.000657 -0.000551 -3.000657 C -0.794301 -3.000657 -1.559926 -2.685032 -2.122426 -2.122532 C -2.684926 -1.560032 -3.000551 -0.794407 -3.000551 -0.000657 C -3.000551 0.796218 -2.684926 1.558718 -2.122426 2.121218 C -1.559926 2.683718 -0.794301 2.999343 -0.000551 2.999343 Z M -0.000551 2.999343 " transform="matrix(1.25,0,0,1.25,131.125689,119.571134)"/>
<path style="fill-rule:nonzero;fill:rgb(12.156863%,46.666667%,70.588235%);fill-opacity:1;stroke-width:1;stroke-linecap:butt;stroke-linejoin:round;stroke:rgb(12.156863%,46.666667%,70.588235%);stroke-opacity:1;stroke-miterlimit:4;" d="M 0 3.001533 C 0.796875 3.001533 1.559375 2.682783 2.121875 2.120283 C 2.684375 1.557783 3 0.795283 3 0.001533 C 3 -0.795342 2.684375 -1.557842 2.121875 -2.120342 C 1.559375 -2.682842 0.796875 -2.998467 0 -2.998467 C -0.796875 -2.998467 -1.559375 -2.682842 -2.121875 -2.120342 C -2.684375 -1.557842 -3 -0.795342 -3 0.001533 C -3 0.795283 -2.684375 1.557783 -2.121875 2.120283 C -1.559375 2.682783 -0.796875 3.001533 0 3.001533 Z M 0 3.001533 " transform="matrix(1.25,0,0,1.25,140.699219,61.93949)"/>
<path style="fill-rule:nonzero;fill:rgb(12.156863%,46.666667%,70.588235%);fill-opacity:1;stroke-width:1;stroke-linecap:butt;stroke-linejoin:round;stroke:rgb(12.156863%,46.666667%,70.588235%);stroke-opacity:1;stroke-miterlimit:4;" d="M 0.000551 2.999298 C 0.794301 2.999298 1.559926 2.683673 2.122426 2.121173 C 2.684926 1.558673 3.000551 0.796173 3.000551 -0.000702 C 3.000551 -0.794452 2.684926 -1.560077 2.122426 -2.122577 C 1.559926 -2.685077 0.794301 -3.000702 0.000551 -3.000702 C -0.796324 -3.000702 -1.558824 -2.685077 -2.121324 -2.122577 C -2.683824 -1.560077 -2.999449 -0.794452 -2.999449 -0.000702 C -2.999449 0.796173 -2.683824 1.558673 -2.121324 2.121173 C -1.558824 2.683673 -0.796324 2.999298 0.000551 2.999298 Z M 0.000551 2.999298 " transform="matrix(1.25,0,0,1.25,150.272749,38.543846)"/>
<path style="fill-rule:nonzero;fill:rgb(12.156863%,46.666667%,70.588235%);fill-opacity:1;stroke-width:1;stroke-linecap:butt;stroke-linejoin:round;stroke:rgb(12.156863%,46.666667%,70.588235%);stroke-opacity:1;stroke-miterlimit:4;" d="M 0.001103 2.998831 C 0.794853 2.998831 1.557353 2.683206 2.119853 2.120706 C 2.682353 1.558206 3.001103 0.795706 3.001103 -0.001169 C 3.001103 -0.794919 2.682353 -1.557419 2.119853 -2.119919 C 1.557353 -2.682419 0.794853 -3.001169 0.001103 -3.001169 C -0.795772 -3.001169 -1.558272 -2.682419 -2.120772 -2.119919 C -2.683272 -1.557419 -2.998897 -0.794919 -2.998897 -0.001169 C -2.998897 0.795706 -2.683272 1.558206 -2.120772 2.120706 C -1.558272 2.683206 -0.795772 2.998831 0.001103 2.998831 Z M 0.001103 2.998831 " transform="matrix(1.25,0,0,1.25,159.846277,84.755368)"/>
<path style="fill-rule:nonzero;fill:rgb(12.156863%,46.666667%,70.588235%);fill-opacity:1;stroke-width:1;stroke-linecap:butt;stroke-linejoin:round;stroke:rgb(12.156863%,46.666667%,70.588235%);stroke-opacity:1;stroke-miterlimit:4;" d="M 0.001287 3.001063 C 0.795037 3.001063 1.557537 2.685438 2.120037 2.119813 C 2.682537 1.557313 3.001287 0.794813 3.001287 0.001063 C 3.001287 -0.795812 2.682537 -1.558312 2.120037 -2.120812 C 1.557537 -2.683312 0.795037 -2.998937 0.001287 -2.998937 C -0.795588 -2.998937 -1.558088 -2.683312 -2.120588 -2.120812 C -2.683088 -1.558312 -2.998713 -0.795812 -2.998713 0.001063 C -2.998713 0.794813 -2.683088 1.557313 -2.120588 2.119813 C -1.558088 2.685438 -0.795588 3.001063 0.001287 3.001063 Z M 0.001287 3.001063 " transform="matrix(1.25,0,0,1.25,217.287454,68.096328)"/>
<path style="fill-rule:nonzero;fill:rgb(12.156863%,46.666667%,70.588235%);fill-opacity:1;stroke-width:1;stroke-linecap:butt;stroke-linejoin:round;stroke:rgb(12.156863%,46.666667%,70.588235%);stroke-opacity:1;stroke-miterlimit:4;" d="M -0.001287 2.999218 C 0.795588 2.999218 1.558088 2.683593 2.120588 2.121093 C 2.683088 1.558593 2.998713 0.796093 2.998713 -0.000782 C 2.998713 -0.794532 2.683088 -1.560157 2.120588 -2.122657 C 1.558088 -2.685157 0.795588 -3.000782 -0.001287 -3.000782 C -0.795037 -3.000782 -1.557537 -2.685157 -2.120037 -2.122657 C -2.682537 -1.560157 -3.001287 -0.794532 -3.001287 -0.000782 C -3.001287 0.796093 -2.682537 1.558593 -2.120037 2.121093 C -1.557537 2.683593 -0.795037 2.999218 -0.001287 2.999218 Z M -0.001287 2.999218 " transform="matrix(1.25,0,0,1.25,226.860984,34.622071)"/>
<path style="fill-rule:nonzero;fill:rgb(12.156863%,46.666667%,70.588235%);fill-opacity:1;stroke-width:1;stroke-linecap:butt;stroke-linejoin:round;stroke:rgb(12.156863%,46.666667%,70.588235%);stroke-opacity:1;stroke-miterlimit:4;" d="M -0.000184 3 C 0.796691 3 1.559191 2.684375 2.121691 2.121875 C 2.684191 1.559375 2.999816 0.796875 2.999816 0 C 2.999816 -0.796875 2.684191 -1.559375 2.121691 -2.121875 C 1.559191 -2.684375 0.796691 -3 -0.000184 -3 C -0.797059 -3 -1.559559 -2.684375 -2.122059 -2.121875 C -2.684559 -1.559375 -3.000184 -0.796875 -3.000184 0 C -3.000184 0.796875 -2.684559 1.559375 -2.122059 2.121875 C -1.559559 2.684375 -0.797059 3 -0.000184 3 Z M -0.000184 3 " transform="matrix(1.25,0,0,1.25,246.008042,174.375)"/>
<path style="fill:none;stroke-width:0.8;stroke-linecap:butt;stroke-linejoin:round;stroke:rgb(0%,0%,0%);stroke-opacity:1;stroke-miterlimit:4;" d="M -0.001287 0 L -0.001287 3.5 " transform="matrix(1.25,0,0,1.25,64.110984,182.25)"/>
<path style=" stroke:none;fill-rule:nonzero;fill:rgb(0%,0%,0%);fill-opacity:1;" d="M 64.105469 192.199219 C 63.472656 192.199219 62.996094 192.511719 62.675781 193.136719 C 62.355469 193.757812 62.195312 194.699219 62.195312 195.953125 C 62.195312 197.199219 62.355469 198.136719 62.675781 198.761719 C 62.996094 199.386719 63.472656 199.699219 64.105469 199.699219 C 64.746094 199.699219 65.226562 199.386719 65.542969 198.761719 C 65.863281 198.136719 66.023438 197.199219 66.023438 195.953125 C 66.023438 194.699219 65.863281 193.757812 65.542969 193.136719 C 65.226562 192.511719 64.746094 192.199219 64.105469 192.199219 Z M 64.105469 191.222656 C 65.128906 191.222656 65.910156 191.625 66.449219 192.433594 C 66.988281 193.242188 67.257812 194.414062 67.257812 195.953125 C 67.257812 197.484375 66.988281 198.65625 66.449219 199.464844 C 65.910156 200.273438 65.128906 200.675781 64.105469 200.675781 C 63.085938 200.675781 62.304688 200.273438 61.765625 199.464844 C 61.226562 198.65625 60.957031 197.484375 60.957031 195.953125 C 60.957031 194.414062 61.226562 193.242188 61.765625 192.433594 C 62.304688 191.625 63.085938 191.222656 64.105469 191.222656 Z M 64.105469 191.222656 "/>
<path style="fill:none;stroke-width:0.8;stroke-linecap:butt;stroke-linejoin:round;stroke:rgb(0%,0%,0%);stroke-opacity:1;stroke-miterlimit:4;" d="M 0.001471 0 L 0.001471 3.5 " transform="matrix(1.25,0,0,1.25,111.97863,182.25)"/>
<path style=" stroke:none;fill-rule:nonzero;fill:rgb(0%,0%,0%);fill-opacity:1;" d="M 109.351562 191.386719 L 114.191406 191.386719 L 114.191406 192.425781 L 110.480469 192.425781 L 110.480469 194.65625 C 110.660156 194.59375 110.835938 194.550781 111.015625 194.519531 C 111.195312 194.488281 111.375 194.476562 111.554688 194.476562 C 112.570312 194.476562 113.378906 194.753906 113.972656 195.3125 C 114.566406 195.867188 114.863281 196.621094 114.863281 197.574219 C 114.863281 198.554688 114.558594 199.316406 113.949219 199.863281 C 113.335938 200.40625 112.476562 200.675781 111.367188 200.675781 C 110.984375 200.675781 110.59375 200.644531 110.195312 200.578125 C 109.800781 200.511719 109.390625 200.414062 108.96875 200.285156 L 108.96875 199.046875 C 109.332031 199.246094 109.710938 199.394531 110.101562 199.492188 C 110.492188 199.589844 110.90625 199.636719 111.339844 199.636719 C 112.042969 199.636719 112.601562 199.453125 113.011719 199.082031 C 113.421875 198.710938 113.628906 198.210938 113.628906 197.574219 C 113.628906 196.941406 113.421875 196.4375 113.011719 196.070312 C 112.601562 195.699219 112.042969 195.511719 111.339844 195.511719 C 111.011719 195.511719 110.683594 195.546875 110.355469 195.621094 C 110.027344 195.695312 109.691406 195.808594 109.351562 195.964844 Z M 109.351562 191.386719 "/>
<path style="fill:none;stroke-width:0.8;stroke-linecap:butt;stroke-linejoin:round;stroke:rgb(0%,0%,0%);stroke-opacity:1;stroke-miterlimit:4;" d="M 0.001103 0 L 0.001103 3.5 " transform="matrix(1.25,0,0,1.25,159.846277,182.25)"/>
<path style=" stroke:none;fill-rule:nonzero;fill:rgb(0%,0%,0%);fill-opacity:1;" d="M 153.445312 199.460938 L 155.457031 199.460938 L 155.457031 192.507812 L 153.265625 192.949219 L 153.265625 191.824219 L 155.445312 191.386719 L 156.679688 191.386719 L 156.679688 199.460938 L 158.691406 199.460938 L 158.691406 200.5 L 153.445312 200.5 Z M 153.445312 199.460938 "/>
<path style=" stroke:none;fill-rule:nonzero;fill:rgb(0%,0%,0%);fill-opacity:1;" d="M 163.820312 192.199219 C 163.183594 192.199219 162.707031 192.511719 162.386719 193.136719 C 162.066406 193.757812 161.910156 194.699219 161.910156 195.953125 C 161.910156 197.199219 162.066406 198.136719 162.386719 198.761719 C 162.707031 199.386719 163.183594 199.699219 163.820312 199.699219 C 164.457031 199.699219 164.9375 199.386719 165.257812 198.761719 C 165.578125 198.136719 165.738281 197.199219 165.738281 195.953125 C 165.738281 194.699219 165.578125 193.757812 165.257812 193.136719 C 164.9375 192.511719 164.457031 192.199219 163.820312 192.199219 Z M 163.820312 191.222656 C 164.839844 191.222656 165.621094 191.625 166.160156 192.433594 C 166.699219 193.242188 166.96875 194.414062 166.96875 195.953125 C 166.96875 197.484375 166.699219 198.65625 166.160156 199.464844 C 165.621094 200.273438 164.839844 200.675781 163.820312 200.675781 C 162.796875 200.675781 162.019531 200.273438 161.480469 199.464844 C 160.941406 198.65625 160.671875 197.484375 160.671875 195.953125 C 160.671875 194.414062 160.941406 193.242188 161.480469 192.433594 C 162.019531 191.625 162.796875 191.222656 163.820312 191.222656 Z M 163.820312 191.222656 "/>
<path style="fill:none;stroke-width:0.8;stroke-linecap:butt;stroke-linejoin:round;stroke:rgb(0%,0%,0%);stroke-opacity:1;stroke-miterlimit:4;" d="M 0.000735 0 L 0.000735 3.5 " transform="matrix(1.25,0,0,1.25,207.713925,182.25)"/>
<path style=" stroke:none;fill-rule:nonzero;fill:rgb(0%,0%,0%);fill-opacity:1;" d="M 201.3125 199.460938 L 203.324219 199.460938 L 203.324219 192.507812 L 201.132812 192.949219 L 201.132812 191.824219 L 203.3125 191.386719 L 204.546875 191.386719 L 204.546875 199.460938 L 206.558594 199.460938 L 206.558594 200.5 L 201.3125 200.5 Z M 201.3125 199.460938 "/>
<path style=" stroke:none;fill-rule:nonzero;fill:rgb(0%,0%,0%);fill-opacity:1;" d="M 209.0625 191.386719 L 213.902344 191.386719 L 213.902344 192.425781 L 210.191406 192.425781 L 210.191406 194.65625 C 210.371094 194.59375 210.550781 194.550781 210.726562 194.519531 C 210.90625 194.488281 211.085938 194.476562 211.265625 194.476562 C 212.285156 194.476562 213.089844 194.753906 213.683594 195.3125 C 214.277344 195.867188 214.574219 196.621094 214.574219 197.574219 C 214.574219 198.554688 214.269531 199.316406 213.660156 199.863281 C 213.046875 200.40625 212.1875 200.675781 211.078125 200.675781 C 210.695312 200.675781 210.304688 200.644531 209.90625 200.578125 C 209.511719 200.511719 209.101562 200.414062 208.679688 200.285156 L 208.679688 199.046875 C 209.042969 199.246094 209.421875 199.394531 209.8125 199.492188 C 210.203125 199.589844 210.617188 199.636719 211.050781 199.636719 C 211.757812 199.636719 212.3125 199.453125 212.722656 199.082031 C 213.136719 198.710938 213.339844 198.210938 213.339844 197.574219 C 213.339844 196.941406 213.136719 196.4375 212.722656 196.070312 C 212.3125 195.699219 211.757812 195.511719 211.050781 195.511719 C 210.722656 195.511719 210.394531 195.546875 210.066406 195.621094 C 209.738281 195.695312 209.40625 195.808594 209.0625 195.964844 Z M 209.0625 191.386719 "/>
<path style="fill:none;stroke-width:0.8;stroke-linecap:butt;stroke-linejoin:round;stroke:rgb(0%,0%,0%);stroke-opacity:1;stroke-miterlimit:4;" d="M 0.000368 0 L 0.000368 3.5 " transform="matrix(1.25,0,0,1.25,255.581571,182.25)"/>
<path style=" stroke:none;fill-rule:nonzero;fill:rgb(0%,0%,0%);fill-opacity:1;" d="M 250.027344 199.460938 L 254.328125 199.460938 L 254.328125 200.5 L 248.542969 200.5 L 248.542969 199.460938 C 249.011719 198.976562 249.648438 198.328125 250.457031 197.511719 C 251.265625 196.695312 251.773438 196.167969 251.980469 195.933594 C 252.375 195.488281 252.648438 195.113281 252.804688 194.808594 C 252.964844 194.5 253.042969 194.199219 253.042969 193.902344 C 253.042969 193.417969 252.871094 193.023438 252.53125 192.71875 C 252.191406 192.410156 251.75 192.257812 251.203125 192.257812 C 250.816406 192.257812 250.410156 192.324219 249.980469 192.460938 C 249.550781 192.59375 249.09375 192.796875 248.605469 193.070312 L 248.605469 191.824219 C 249.101562 191.625 249.566406 191.476562 249.996094 191.375 C 250.429688 191.273438 250.824219 191.222656 251.179688 191.222656 C 252.125 191.222656 252.878906 191.457031 253.4375 191.929688 C 254 192.402344 254.28125 193.03125 254.28125 193.820312 C 254.28125 194.195312 254.210938 194.550781 254.070312 194.886719 C 253.929688 195.222656 253.675781 195.617188 253.304688 196.074219 C 253.203125 196.191406 252.878906 196.53125 252.332031 197.097656 C 251.789062 197.660156 251.019531 198.449219 250.027344 199.460938 Z M 250.027344 199.460938 "/>
<path style=" stroke:none;fill-rule:nonzero;fill:rgb(0%,0%,0%);fill-opacity:1;" d="M 259.554688 192.199219 C 258.917969 192.199219 258.441406 192.511719 258.121094 193.136719 C 257.804688 193.757812 257.644531 194.699219 257.644531 195.953125 C 257.644531 197.199219 257.804688 198.136719 258.121094 198.761719 C 258.441406 199.386719 258.917969 199.699219 259.554688 199.699219 C 260.191406 199.699219 260.671875 199.386719 260.992188 198.761719 C 261.3125 198.136719 261.472656 197.199219 261.472656 195.953125 C 261.472656 194.699219 261.3125 193.757812 260.992188 193.136719 C 260.671875 192.511719 260.191406 192.199219 259.554688 192.199219 Z M 259.554688 191.222656 C 260.574219 191.222656 261.355469 191.625 261.894531 192.433594 C 262.433594 193.242188 262.703125 194.414062 262.703125 195.953125 C 262.703125 197.484375 262.433594 198.65625 261.894531 199.464844 C 261.355469 200.273438 260.574219 200.675781 259.554688 200.675781 C 258.53125 200.675781 257.753906 200.273438 257.214844 199.464844 C 256.675781 198.65625 256.40625 197.484375 256.40625 195.953125 C 256.40625 194.414062 256.675781 193.242188 257.214844 192.433594 C 257.753906 191.625 258.53125 191.222656 259.554688 191.222656 Z M 259.554688 191.222656 "/>
<path style="fill:none;stroke-width:0.8;stroke-linecap:butt;stroke-linejoin:round;stroke:rgb(0%,0%,0%);stroke-opacity:1;stroke-miterlimit:4;" d="M 0 0 L 0 3.5 " transform="matrix(1.25,0,0,1.25,303.449219,182.25)"/>
<path style=" stroke:none;fill-rule:nonzero;fill:rgb(0%,0%,0%);fill-opacity:1;" d="M 297.894531 199.460938 L 302.195312 199.460938 L 302.195312 200.5 L 296.414062 200.5 L 296.414062 199.460938 C 296.878906 198.976562 297.515625 198.328125 298.324219 197.511719 C 299.132812 196.695312 299.640625 196.167969 299.847656 195.933594 C 300.242188 195.488281 300.515625 195.113281 300.671875 194.808594 C 300.832031 194.5 300.910156 194.199219 300.910156 193.902344 C 300.910156 193.417969 300.742188 193.023438 300.398438 192.71875 C 300.0625 192.410156 299.617188 192.257812 299.070312 192.257812 C 298.6875 192.257812 298.277344 192.324219 297.847656 192.460938 C 297.417969 192.59375 296.960938 192.796875 296.472656 193.070312 L 296.472656 191.824219 C 296.96875 191.625 297.433594 191.476562 297.863281 191.375 C 298.296875 191.273438 298.691406 191.222656 299.046875 191.222656 C 299.992188 191.222656 300.746094 191.457031 301.304688 191.929688 C 301.867188 192.402344 302.148438 193.03125 302.148438 193.820312 C 302.148438 194.195312 302.078125 194.550781 301.9375 194.886719 C 301.796875 195.222656 301.542969 195.617188 301.171875 196.074219 C 301.070312 196.191406 300.746094 196.53125 300.203125 197.097656 C 299.65625 197.660156 298.886719 198.449219 297.894531 199.460938 Z M 297.894531 199.460938 "/>
<path style=" stroke:none;fill-rule:nonzero;fill:rgb(0%,0%,0%);fill-opacity:1;" d="M 304.796875 191.386719 L 309.636719 191.386719 L 309.636719 192.425781 L 305.925781 192.425781 L 305.925781 194.65625 C 306.105469 194.59375 306.285156 194.550781 306.460938 194.519531 C 306.640625 194.488281 306.820312 194.476562 307 194.476562 C 308.019531 194.476562 308.824219 194.753906 309.417969 195.3125 C 310.011719 195.867188 310.308594 196.621094 310.308594 197.574219 C 310.308594 198.554688 310.003906 199.316406 309.394531 199.863281 C 308.785156 200.40625 307.921875 200.675781 306.8125 200.675781 C 306.429688 200.675781 306.039062 200.644531 305.640625 200.578125 C 305.246094 200.511719 304.835938 200.414062 304.414062 200.285156 L 304.414062 199.046875 C 304.78125 199.246094 305.15625 199.394531 305.546875 199.492188 C 305.9375 199.589844 306.351562 199.636719 306.785156 199.636719 C 307.492188 199.636719 308.046875 199.453125 308.457031 199.082031 C 308.871094 198.710938 309.074219 198.210938 309.074219 197.574219 C 309.074219 196.941406 308.871094 196.4375 308.457031 196.070312 C 308.046875 195.699219 307.492188 195.511719 306.785156 195.511719 C 306.457031 195.511719 306.128906 195.546875 305.800781 195.621094 C 305.472656 195.695312 305.140625 195.808594 304.796875 195.964844 Z M 304.796875 191.386719 "/>
<path style=" stroke:none;fill-rule:nonzero;fill:rgb(0%,0%,0%);fill-opacity:1;" d="M 145.539062 208.675781 L 147.386719 208.675781 L 147.386719 222.34375 L 145.539062 222.34375 Z M 145.539062 208.675781 "/>
<path style=" stroke:none;fill-rule:nonzero;fill:rgb(0%,0%,0%);fill-opacity:1;" d="M 159.519531 216.152344 L 159.519531 222.34375 L 157.835938 222.34375 L 157.835938 216.210938 C 157.835938 215.238281 157.648438 214.511719 157.269531 214.03125 C 156.890625 213.550781 156.320312 213.308594 155.566406 213.308594 C 154.65625 213.308594 153.9375 213.597656 153.414062 214.179688 C 152.886719 214.757812 152.625 215.546875 152.625 216.550781 L 152.625 222.34375 L 150.929688 222.34375 L 150.929688 212.089844 L 152.625 212.089844 L 152.625 213.683594 C 153.027344 213.066406 153.503906 212.605469 154.046875 212.300781 C 154.59375 211.996094 155.226562 211.84375 155.941406 211.84375 C 157.117188 211.84375 158.007812 212.207031 158.613281 212.9375 C 159.21875 213.664062 159.519531 214.738281 159.519531 216.152344 Z M 159.519531 216.152344 "/>
<path style=" stroke:none;fill-rule:nonzero;fill:rgb(0%,0%,0%);fill-opacity:1;" d="M 164.507812 220.804688 L 164.507812 226.242188 L 162.816406 226.242188 L 162.816406 212.089844 L 164.507812 212.089844 L 164.507812 213.644531 C 164.863281 213.035156 165.3125 212.585938 165.851562 212.289062 C 166.390625 211.992188 167.035156 211.84375 167.785156 211.84375 C 169.03125 211.84375 170.042969 212.339844 170.820312 213.328125 C 171.601562 214.316406 171.992188 215.613281 171.992188 217.226562 C 171.992188 218.835938 171.601562 220.136719 170.820312 221.128906 C 170.042969 222.117188 169.03125 222.609375 167.785156 222.609375 C 167.035156 222.609375 166.390625 222.460938 165.851562 222.164062 C 165.3125 221.867188 164.863281 221.414062 164.507812 220.804688 Z M 170.242188 217.226562 C 170.242188 215.988281 169.988281 215.015625 169.476562 214.3125 C 168.96875 213.605469 168.265625 213.253906 167.375 213.253906 C 166.484375 213.253906 165.78125 213.605469 165.273438 214.3125 C 164.761719 215.015625 164.507812 215.988281 164.507812 217.226562 C 164.507812 218.464844 164.761719 219.4375 165.273438 220.140625 C 165.78125 220.847656 166.484375 221.199219 167.375 221.199219 C 168.265625 221.199219 168.96875 220.847656 169.476562 220.140625 C 169.988281 219.4375 170.242188 218.464844 170.242188 217.226562 Z M 170.242188 217.226562 "/>
<path style=" stroke:none;fill-rule:nonzero;fill:rgb(0%,0%,0%);fill-opacity:1;" d="M 174.609375 218.296875 L 174.609375 212.089844 L 176.292969 212.089844 L 176.292969 218.234375 C 176.292969 219.203125 176.480469 219.933594 176.859375 220.417969 C 177.238281 220.902344 177.804688 221.144531 178.5625 221.144531 C 179.472656 221.144531 180.1875 220.855469 180.714844 220.277344 C 181.246094 219.695312 181.511719 218.90625 181.511719 217.902344 L 181.511719 212.089844 L 183.195312 212.089844 L 183.195312 222.34375 L 181.511719 222.34375 L 181.511719 220.769531 C 181.101562 221.390625 180.628906 221.855469 180.085938 222.15625 C 179.546875 222.460938 178.921875 222.609375 178.207031 222.609375 C 177.027344 222.609375 176.132812 222.246094 175.523438 221.511719 C 174.914062 220.78125 174.609375 219.707031 174.609375 218.296875 Z M 178.847656 211.84375 Z M 178.847656 211.84375 "/>
<path style=" stroke:none;fill-rule:nonzero;fill:rgb(0%,0%,0%);fill-opacity:1;" d="M 188.332031 209.179688 L 188.332031 212.089844 L 191.800781 212.089844 L 191.800781 213.398438 L 188.332031 213.398438 L 188.332031 218.964844 C 188.332031 219.800781 188.445312 220.339844 188.675781 220.578125 C 188.902344 220.816406 189.367188 220.933594 190.070312 220.933594 L 191.800781 220.933594 L 191.800781 222.34375 L 190.070312 222.34375 C 188.769531 222.34375 187.875 222.101562 187.378906 221.617188 C 186.886719 221.132812 186.636719 220.246094 186.636719 218.964844 L 186.636719 213.398438 L 185.402344 213.398438 L 185.402344 212.089844 L 186.636719 212.089844 L 186.636719 209.179688 Z M 188.332031 209.179688 "/>
<path style=" stroke:none;fill-rule:nonzero;fill:rgb(0%,0%,0%);fill-opacity:1;" d="M 200.550781 212.390625 L 200.550781 213.984375 C 200.078125 213.742188 199.582031 213.558594 199.070312 213.4375 C 198.558594 213.316406 198.027344 213.253906 197.476562 213.253906 C 196.640625 213.253906 196.011719 213.382812 195.59375 213.636719 C 195.175781 213.894531 194.96875 214.277344 194.96875 214.792969 C 194.96875 215.183594 195.117188 215.488281 195.417969 215.710938 C 195.714844 215.933594 196.316406 216.144531 197.222656 216.347656 L 197.796875 216.476562 C 198.992188 216.730469 199.84375 217.09375 200.347656 217.558594 C 200.851562 218.027344 201.101562 218.679688 201.101562 219.515625 C 201.101562 220.46875 200.726562 221.222656 199.972656 221.777344 C 199.21875 222.332031 198.183594 222.609375 196.863281 222.609375 C 196.316406 222.609375 195.742188 222.558594 195.148438 222.449219 C 194.550781 222.34375 193.925781 222.183594 193.265625 221.96875 L 193.265625 220.230469 C 193.890625 220.554688 194.503906 220.796875 195.105469 220.957031 C 195.710938 221.117188 196.308594 221.199219 196.902344 221.199219 C 197.695312 221.199219 198.304688 221.0625 198.730469 220.792969 C 199.15625 220.519531 199.371094 220.136719 199.371094 219.644531 C 199.371094 219.1875 199.21875 218.835938 198.910156 218.589844 C 198.601562 218.347656 197.925781 218.113281 196.882812 217.886719 L 196.296875 217.746094 C 195.253906 217.527344 194.5 217.191406 194.035156 216.738281 C 193.570312 216.28125 193.339844 215.65625 193.339844 214.863281 C 193.339844 213.898438 193.679688 213.15625 194.363281 212.632812 C 195.046875 212.105469 196.019531 211.84375 197.277344 211.84375 C 197.898438 211.84375 198.484375 211.890625 199.03125 211.980469 C 199.582031 212.070312 200.089844 212.207031 200.550781 212.390625 Z M 200.550781 212.390625 "/>
<path style=" stroke:none;fill-rule:nonzero;fill:rgb(0%,0%,0%);fill-opacity:1;" d="M 218.269531 212.089844 L 214.5625 217.078125 L 218.460938 222.34375 L 216.472656 222.34375 L 213.488281 218.316406 L 210.507812 222.34375 L 208.515625 222.34375 L 212.5 216.980469 L 208.855469 212.089844 L 210.84375 212.089844 L 213.5625 215.742188 L 216.28125 212.089844 Z M 218.269531 212.089844 "/>
<path style="fill:none;stroke-width:0.8;stroke-linecap:butt;stroke-linejoin:round;stroke:rgb(0%,0%,0%);stroke-opacity:1;stroke-miterlimit:4;" d="M 0 -0.000112 L -3.5 -0.000112 " transform="matrix(1.25,0,0,1.25,59.324219,177.957171)"/>
<path style=" stroke:none;fill-rule:nonzero;fill:rgb(0%,0%,0%);fill-opacity:1;" d="M 33.472656 178.269531 L 41.296875 178.269531 L 41.296875 179.304688 L 33.472656 179.304688 Z M 33.472656 178.269531 "/>
<path style=" stroke:none;fill-rule:nonzero;fill:rgb(0%,0%,0%);fill-opacity:1;" d="M 45.019531 181.667969 L 49.320312 181.667969 L 49.320312 182.707031 L 43.535156 182.707031 L 43.535156 181.667969 C 44.003906 181.183594 44.640625 180.535156 45.449219 179.71875 C 46.257812 178.902344 46.765625 178.375 46.972656 178.140625 C 47.367188 177.695312 47.640625 177.320312 47.796875 177.015625 C 47.957031 176.707031 48.035156 176.40625 48.035156 176.109375 C 48.035156 175.625 47.863281 175.230469 47.523438 174.925781 C 47.183594 174.617188 46.742188 174.464844 46.195312 174.464844 C 45.808594 174.464844 45.402344 174.53125 44.972656 174.667969 C 44.542969 174.800781 44.085938 175.003906 43.597656 175.277344 L 43.597656 174.03125 C 44.09375 173.832031 44.554688 173.683594 44.988281 173.582031 C 45.417969 173.480469 45.816406 173.429688 46.171875 173.429688 C 47.117188 173.429688 47.871094 173.664062 48.429688 174.136719 C 48.992188 174.609375 49.273438 175.238281 49.273438 176.027344 C 49.273438 176.402344 49.203125 176.757812 49.0625 177.09375 C 48.921875 177.429688 48.667969 177.824219 48.296875 178.28125 C 48.195312 178.398438 47.871094 178.738281 47.324219 179.304688 C 46.78125 179.867188 46.011719 180.65625 45.019531 181.667969 Z M 45.019531 181.667969 "/>
<path style="fill:none;stroke-width:0.8;stroke-linecap:butt;stroke-linejoin:round;stroke:rgb(0%,0%,0%);stroke-opacity:1;stroke-miterlimit:4;" d="M 0 -0.000698 L -3.5 -0.000698 " transform="matrix(1.25,0,0,1.25,59.324219,138.411029)"/>
<path style=" stroke:none;fill-rule:nonzero;fill:rgb(0%,0%,0%);fill-opacity:1;" d="M 33.472656 138.722656 L 41.296875 138.722656 L 41.296875 139.757812 L 33.472656 139.757812 Z M 33.472656 138.722656 "/>
<path style=" stroke:none;fill-rule:nonzero;fill:rgb(0%,0%,0%);fill-opacity:1;" d="M 44.171875 142.121094 L 46.183594 142.121094 L 46.183594 135.167969 L 43.992188 135.609375 L 43.992188 134.484375 L 46.171875 134.046875 L 47.40625 134.046875 L 47.40625 142.121094 L 49.417969 142.121094 L 49.417969 143.160156 L 44.171875 143.160156 Z M 44.171875 142.121094 "/>
<path style="fill:none;stroke-width:0.8;stroke-linecap:butt;stroke-linejoin:round;stroke:rgb(0%,0%,0%);stroke-opacity:1;stroke-miterlimit:4;" d="M 0 -0.001283 L -3.5 -0.001283 " transform="matrix(1.25,0,0,1.25,59.324219,98.864885)"/>
<path style=" stroke:none;fill-rule:nonzero;fill:rgb(0%,0%,0%);fill-opacity:1;" d="M 46.59375 95.3125 C 45.960938 95.3125 45.484375 95.625 45.164062 96.25 C 44.84375 96.875 44.683594 97.8125 44.683594 99.066406 C 44.683594 100.316406 44.84375 101.253906 45.164062 101.878906 C 45.484375 102.503906 45.960938 102.816406 46.59375 102.816406 C 47.234375 102.816406 47.710938 102.503906 48.03125 101.878906 C 48.351562 101.253906 48.511719 100.316406 48.511719 99.066406 C 48.511719 97.8125 48.351562 96.875 48.03125 96.25 C 47.710938 95.625 47.234375 95.3125 46.59375 95.3125 Z M 46.59375 94.335938 C 47.617188 94.335938 48.398438 94.742188 48.9375 95.550781 C 49.476562 96.355469 49.742188 97.527344 49.742188 99.066406 C 49.742188 100.601562 49.476562 101.773438 48.9375 102.582031 C 48.398438 103.386719 47.617188 103.792969 46.59375 103.792969 C 45.574219 103.792969 44.792969 103.386719 44.253906 102.582031 C 43.714844 101.773438 43.445312 100.601562 43.445312 99.066406 C 43.445312 97.527344 43.714844 96.355469 44.253906 95.550781 C 44.792969 94.742188 45.574219 94.335938 46.59375 94.335938 Z M 46.59375 94.335938 "/>
<path style="fill:none;stroke-width:0.8;stroke-linecap:butt;stroke-linejoin:round;stroke:rgb(0%,0%,0%);stroke-opacity:1;stroke-miterlimit:4;" d="M 0 0.001256 L -3.5 0.001256 " transform="matrix(1.25,0,0,1.25,59.324219,59.318742)"/>
<path style=" stroke:none;fill-rule:nonzero;fill:rgb(0%,0%,0%);fill-opacity:1;" d="M 44.171875 63.03125 L 46.1875 63.03125 L 46.1875 56.078125 L 43.992188 56.515625 L 43.992188 55.394531 L 46.171875 54.953125 L 47.40625 54.953125 L 47.40625 63.03125 L 49.421875 63.03125 L 49.421875 64.066406 L 44.171875 64.066406 Z M 44.171875 63.03125 "/>
<path style="fill:none;stroke-width:0.8;stroke-linecap:butt;stroke-linejoin:round;stroke:rgb(0%,0%,0%);stroke-opacity:1;stroke-miterlimit:4;" d="M 0 0.00067 L -3.5 0.00067 " transform="matrix(1.25,0,0,1.25,59.324219,19.7726)"/>
<path style=" stroke:none;fill-rule:nonzero;fill:rgb(0%,0%,0%);fill-opacity:1;" d="M 45.019531 23.484375 L 49.320312 23.484375 L 49.320312 24.523438 L 43.539062 24.523438 L 43.539062 23.484375 C 44.003906 23 44.640625 22.351562 45.449219 21.535156 C 46.257812 20.71875 46.765625 20.191406 46.972656 19.957031 C 47.367188 19.511719 47.640625 19.136719 47.796875 18.832031 C 47.957031 18.523438 48.035156 18.222656 48.035156 17.925781 C 48.035156 17.441406 47.867188 17.046875 47.523438 16.742188 C 47.1875 16.433594 46.742188 16.28125 46.195312 16.28125 C 45.8125 16.28125 45.402344 16.347656 44.972656 16.484375 C 44.542969 16.617188 44.085938 16.820312 43.597656 17.09375 L 43.597656 15.847656 C 44.09375 15.648438 44.558594 15.5 44.988281 15.398438 C 45.421875 15.296875 45.816406 15.246094 46.171875 15.246094 C 47.117188 15.246094 47.871094 15.480469 48.429688 15.953125 C 48.992188 16.425781 49.273438 17.054688 49.273438 17.84375 C 49.273438 18.21875 49.203125 18.574219 49.0625 18.910156 C 48.921875 19.246094 48.667969 19.640625 48.296875 20.097656 C 48.195312 20.214844 47.871094 20.554688 47.328125 21.121094 C 46.78125 21.683594 46.011719 22.472656 45.019531 23.484375 Z M 45.019531 23.484375 "/>
<path style=" stroke:none;fill-rule:nonzero;fill:rgb(0%,0%,0%);fill-opacity:1;" d="M 10.832031 158.738281 C 10.832031 160.082031 11.332031 161.148438 12.332031 161.941406 C 13.332031 162.730469 14.699219 163.125 16.425781 163.125 C 18.148438 163.125 19.507812 162.730469 20.511719 161.941406 C 21.511719 161.148438 22.011719 160.082031 22.011719 158.738281 C 22.011719 157.394531 21.511719 156.332031 20.511719 155.546875 C 19.507812 154.761719 18.148438 154.371094 16.425781 154.371094 C 14.699219 154.371094 13.332031 154.761719 12.332031 155.546875 C 11.332031 156.332031 10.832031 157.394531 10.832031 158.738281 Z M 9.332031 158.738281 C 9.332031 156.820312 9.972656 155.289062 11.257812 154.144531 C 12.542969 152.996094 14.265625 152.421875 16.425781 152.421875 C 18.582031 152.421875 20.300781 152.996094 21.585938 154.144531 C 22.871094 155.289062 23.511719 156.820312 23.511719 158.738281 C 23.511719 160.660156 22.871094 162.195312 21.589844 163.347656 C 20.308594 164.5 18.585938 165.074219 16.425781 165.074219 C 14.265625 165.074219 12.542969 164.5 11.257812 163.347656 C 9.972656 162.195312 9.332031 160.660156 9.332031 158.738281 Z M 9.332031 158.738281 "/>
<path style=" stroke:none;fill-rule:nonzero;fill:rgb(0%,0%,0%);fill-opacity:1;" d="M 18.128906 142.238281 C 16.890625 142.238281 15.917969 142.496094 15.214844 143.003906 C 14.507812 143.515625 14.15625 144.214844 14.15625 145.105469 C 14.15625 145.996094 14.507812 146.699219 15.214844 147.207031 C 15.917969 147.71875 16.890625 147.972656 18.128906 147.972656 C 19.367188 147.972656 20.339844 147.71875 21.042969 147.207031 C 21.75 146.699219 22.101562 145.996094 22.101562 145.105469 C 22.101562 144.214844 21.75 143.515625 21.042969 143.003906 C 20.339844 142.496094 19.367188 142.238281 18.128906 142.238281 Z M 14.546875 147.972656 C 13.9375 147.617188 13.488281 147.171875 13.191406 146.632812 C 12.894531 146.089844 12.746094 145.445312 12.746094 144.695312 C 12.746094 143.449219 13.242188 142.4375 14.230469 141.660156 C 15.21875 140.878906 16.515625 140.492188 18.128906 140.492188 C 19.738281 140.492188 21.039062 140.878906 22.03125 141.660156 C 23.019531 142.4375 23.511719 143.449219 23.511719 144.695312 C 23.511719 145.445312 23.363281 146.089844 23.066406 146.632812 C 22.769531 147.171875 22.316406 147.617188 21.707031 147.972656 L 23.246094 147.972656 L 23.246094 149.667969 L 9 149.667969 L 9 147.972656 Z M 14.546875 147.972656 "/>
<path style=" stroke:none;fill-rule:nonzero;fill:rgb(0%,0%,0%);fill-opacity:1;" d="M 13.292969 131.164062 L 14.886719 131.164062 C 14.644531 131.636719 14.460938 132.132812 14.339844 132.644531 C 14.21875 133.15625 14.15625 133.6875 14.15625 134.238281 C 14.15625 135.074219 14.285156 135.703125 14.539062 136.121094 C 14.796875 136.539062 15.179688 136.746094 15.695312 136.746094 C 16.085938 136.746094 16.390625 136.597656 16.613281 136.300781 C 16.835938 136 17.046875 135.398438 17.25 134.496094 L 17.378906 133.917969 C 17.632812 132.722656 17.996094 131.871094 18.460938 131.367188 C 18.929688 130.863281 19.582031 130.613281 20.417969 130.613281 C 21.371094 130.613281 22.125 130.988281 22.679688 131.742188 C 23.234375 132.496094 23.511719 133.535156 23.511719 134.851562 C 23.511719 135.402344 23.460938 135.972656 23.351562 136.570312 C 23.246094 137.164062 23.085938 137.792969 22.871094 138.449219 L 21.132812 138.449219 C 21.457031 137.828125 21.699219 137.214844 21.859375 136.609375 C 22.019531 136.007812 22.101562 135.40625 22.101562 134.8125 C 22.101562 134.019531 21.964844 133.410156 21.695312 132.984375 C 21.421875 132.558594 21.039062 132.34375 20.546875 132.34375 C 20.089844 132.34375 19.738281 132.5 19.492188 132.808594 C 19.25 133.113281 19.015625 133.789062 18.789062 134.835938 L 18.648438 135.421875 C 18.429688 136.464844 18.09375 137.21875 17.640625 137.683594 C 17.183594 138.144531 16.558594 138.375 15.765625 138.375 C 14.800781 138.375 14.058594 138.035156 13.535156 137.351562 C 13.007812 136.667969 12.746094 135.695312 12.746094 134.4375 C 12.746094 133.816406 12.792969 133.234375 12.882812 132.683594 C 12.972656 132.132812 13.109375 131.625 13.292969 131.164062 Z M 13.292969 131.164062 "/>
<path style=" stroke:none;fill-rule:nonzero;fill:rgb(0%,0%,0%);fill-opacity:1;" d="M 17.699219 119.160156 L 18.519531 119.160156 L 18.519531 126.90625 C 19.679688 126.832031 20.566406 126.480469 21.171875 125.855469 C 21.78125 125.230469 22.082031 124.359375 22.082031 123.242188 C 22.082031 122.597656 22.003906 121.96875 21.847656 121.363281 C 21.6875 120.753906 21.449219 120.152344 21.132812 119.550781 L 22.726562 119.550781 C 22.980469 120.15625 23.175781 120.777344 23.3125 121.414062 C 23.445312 122.046875 23.511719 122.691406 23.511719 123.34375 C 23.511719 124.980469 23.039062 126.277344 22.085938 127.230469 C 21.132812 128.1875 19.84375 128.664062 18.21875 128.664062 C 16.542969 128.664062 15.210938 128.210938 14.226562 127.304688 C 13.238281 126.398438 12.746094 125.175781 12.746094 123.636719 C 12.746094 122.257812 13.191406 121.167969 14.078125 120.363281 C 14.964844 119.5625 16.171875 119.160156 17.699219 119.160156 Z M 17.203125 120.84375 C 16.28125 120.855469 15.546875 121.113281 15 121.617188 C 14.449219 122.121094 14.171875 122.789062 14.171875 123.617188 C 14.171875 124.558594 14.4375 125.308594 14.96875 125.875 C 15.5 126.4375 16.25 126.765625 17.214844 126.851562 Z M 17.203125 120.84375 "/>
<path style=" stroke:none;fill-rule:nonzero;fill:rgb(0%,0%,0%);fill-opacity:1;" d="M 14.566406 110.453125 C 14.457031 110.644531 14.375 110.847656 14.324219 111.070312 C 14.273438 111.292969 14.246094 111.539062 14.246094 111.808594 C 14.246094 112.761719 14.554688 113.492188 15.175781 114 C 15.792969 114.511719 16.683594 114.765625 17.84375 114.765625 L 23.246094 114.765625 L 23.246094 116.460938 L 12.992188 116.460938 L 12.992188 114.765625 L 14.585938 114.765625 C 13.964844 114.410156 13.5 113.949219 13.199219 113.382812 C 12.898438 112.816406 12.746094 112.125 12.746094 111.3125 C 12.746094 111.195312 12.753906 111.070312 12.769531 110.929688 C 12.785156 110.789062 12.804688 110.632812 12.835938 110.460938 Z M 14.566406 110.453125 "/>
<path style=" stroke:none;fill-rule:nonzero;fill:rgb(0%,0%,0%);fill-opacity:1;" d="M 12.992188 109.894531 L 12.992188 108.109375 L 21.597656 104.90625 L 12.992188 101.699219 L 12.992188 99.914062 L 23.246094 103.761719 L 23.246094 106.050781 Z M 12.992188 109.894531 "/>
<path style=" stroke:none;fill-rule:nonzero;fill:rgb(0%,0%,0%);fill-opacity:1;" d="M 18.09375 92.929688 C 18.09375 94.289062 18.25 95.234375 18.558594 95.757812 C 18.871094 96.285156 19.402344 96.546875 20.152344 96.546875 C 20.75 96.546875 21.226562 96.351562 21.578125 95.957031 C 21.925781 95.5625 22.101562 95.027344 22.101562 94.351562 C 22.101562 93.414062 21.769531 92.664062 21.109375 92.101562 C 20.445312 91.535156 19.566406 91.253906 18.46875 91.253906 L 18.09375 91.253906 Z M 17.394531 89.570312 L 23.246094 89.570312 L 23.246094 91.253906 L 21.691406 91.253906 C 22.3125 91.636719 22.769531 92.117188 23.066406 92.691406 C 23.363281 93.265625 23.511719 93.96875 23.511719 94.796875 C 23.511719 95.847656 23.21875 96.683594 22.628906 97.304688 C 22.039062 97.921875 21.25 98.230469 20.261719 98.230469 C 19.109375 98.230469 18.238281 97.847656 17.652344 97.074219 C 17.066406 96.300781 16.773438 95.148438 16.773438 93.617188 L 16.773438 91.253906 L 16.609375 91.253906 C 15.832031 91.253906 15.234375 91.507812 14.808594 92.019531 C 14.386719 92.527344 14.171875 93.242188 14.171875 94.164062 C 14.171875 94.75 14.242188 95.324219 14.382812 95.878906 C 14.523438 96.433594 14.734375 96.96875 15.015625 97.480469 L 13.457031 97.480469 C 13.21875 96.863281 13.042969 96.265625 12.925781 95.6875 C 12.804688 95.105469 12.746094 94.542969 12.746094 93.992188 C 12.746094 92.507812 13.132812 91.398438 13.902344 90.667969 C 14.667969 89.933594 15.832031 89.570312 17.394531 89.570312 Z M 17.394531 89.570312 "/>
<path style=" stroke:none;fill-rule:nonzero;fill:rgb(0%,0%,0%);fill-opacity:1;" d="M 10.082031 84.433594 L 12.992188 84.433594 L 12.992188 80.964844 L 14.300781 80.964844 L 14.300781 84.433594 L 19.867188 84.433594 C 20.703125 84.433594 21.242188 84.320312 21.480469 84.089844 C 21.71875 83.863281 21.835938 83.398438 21.835938 82.695312 L 21.835938 80.964844 L 23.246094 80.964844 L 23.246094 82.695312 C 23.246094 83.996094 23.003906 84.890625 22.519531 85.386719 C 22.035156 85.878906 21.148438 86.128906 19.867188 86.128906 L 14.300781 86.128906 L 14.300781 87.363281 L 12.992188 87.363281 L 12.992188 86.128906 L 10.082031 86.128906 Z M 10.082031 84.433594 "/>
<path style=" stroke:none;fill-rule:nonzero;fill:rgb(0%,0%,0%);fill-opacity:1;" d="M 12.992188 78.75 L 12.992188 77.0625 L 23.246094 77.0625 L 23.246094 78.75 Z M 9 78.75 L 9 77.0625 L 11.136719 77.0625 L 11.136719 78.75 Z M 9 78.75 "/>
<path style=" stroke:none;fill-rule:nonzero;fill:rgb(0%,0%,0%);fill-opacity:1;" d="M 14.171875 69.566406 C 14.171875 70.46875 14.527344 71.183594 15.230469 71.707031 C 15.9375 72.234375 16.902344 72.496094 18.128906 72.496094 C 19.355469 72.496094 20.320312 72.234375 21.027344 71.714844 C 21.730469 71.191406 22.082031 70.476562 22.082031 69.566406 C 22.082031 68.667969 21.730469 67.957031 21.023438 67.433594 C 20.3125 66.910156 19.347656 66.644531 18.128906 66.644531 C 16.914062 66.644531 15.949219 66.910156 15.238281 67.433594 C 14.527344 67.957031 14.171875 68.667969 14.171875 69.566406 Z M 12.746094 69.566406 C 12.746094 68.101562 13.222656 66.953125 14.175781 66.117188 C 15.128906 65.277344 16.445312 64.859375 18.128906 64.859375 C 19.804688 64.859375 21.125 65.277344 22.082031 66.117188 C 23.035156 66.953125 23.511719 68.101562 23.511719 69.566406 C 23.511719 71.039062 23.035156 72.191406 22.082031 73.023438 C 21.125 73.855469 19.804688 74.273438 18.128906 74.273438 C 16.445312 74.273438 15.128906 73.855469 14.175781 73.023438 C 13.222656 72.191406 12.746094 71.039062 12.746094 69.566406 Z M 12.746094 69.566406 "/>
<path style=" stroke:none;fill-rule:nonzero;fill:rgb(0%,0%,0%);fill-opacity:1;" d="M 17.054688 53.542969 L 23.246094 53.542969 L 23.246094 55.226562 L 17.113281 55.226562 C 16.140625 55.226562 15.414062 55.417969 14.933594 55.796875 C 14.453125 56.175781 14.210938 56.742188 14.210938 57.496094 C 14.210938 58.40625 14.5 59.125 15.082031 59.652344 C 15.660156 60.175781 16.449219 60.4375 17.453125 60.4375 L 23.246094 60.4375 L 23.246094 62.132812 L 12.992188 62.132812 L 12.992188 60.4375 L 14.585938 60.4375 C 13.96875 60.035156 13.507812 59.558594 13.203125 59.015625 C 12.898438 58.46875 12.746094 57.835938 12.746094 57.121094 C 12.746094 55.945312 13.109375 55.054688 13.839844 54.449219 C 14.566406 53.84375 15.640625 53.542969 17.054688 53.542969 Z M 17.054688 53.542969 "/>
<path style=" stroke:none;fill-rule:nonzero;fill:rgb(0%,0%,0%);fill-opacity:1;" d="M 13.292969 43.648438 L 14.886719 43.648438 C 14.644531 44.121094 14.460938 44.617188 14.339844 45.128906 C 14.21875 45.640625 14.15625 46.171875 14.15625 46.722656 C 14.15625 47.558594 14.285156 48.1875 14.539062 48.605469 C 14.796875 49.023438 15.179688 49.230469 15.695312 49.230469 C 16.085938 49.230469 16.390625 49.082031 16.613281 48.785156 C 16.835938 48.484375 17.046875 47.882812 17.25 46.980469 L 17.378906 46.402344 C 17.632812 45.207031 17.996094 44.355469 18.460938 43.851562 C 18.929688 43.347656 19.582031 43.097656 20.417969 43.097656 C 21.371094 43.097656 22.125 43.472656 22.679688 44.226562 C 23.234375 44.980469 23.511719 46.019531 23.511719 47.335938 C 23.511719 47.886719 23.460938 48.457031 23.351562 49.054688 C 23.246094 49.648438 23.085938 50.277344 22.871094 50.933594 L 21.132812 50.933594 C 21.457031 50.3125 21.699219 49.699219 21.859375 49.09375 C 22.019531 48.492188 22.101562 47.890625 22.101562 47.296875 C 22.101562 46.503906 21.964844 45.894531 21.695312 45.46875 C 21.421875 45.042969 21.039062 44.828125 20.546875 44.828125 C 20.089844 44.828125 19.738281 44.984375 19.492188 45.292969 C 19.25 45.597656 19.015625 46.273438 18.789062 47.320312 L 18.648438 47.90625 C 18.429688 48.949219 18.09375 49.703125 17.640625 50.167969 C 17.183594 50.628906 16.558594 50.859375 15.765625 50.859375 C 14.800781 50.859375 14.058594 50.519531 13.535156 49.835938 C 13.007812 49.152344 12.746094 48.179688 12.746094 46.921875 C 12.746094 46.300781 12.792969 45.71875 12.882812 45.167969 C 12.972656 44.617188 13.109375 44.109375 13.292969 43.648438 Z M 13.292969 43.648438 "/>
<path style=" stroke:none;fill-rule:nonzero;fill:rgb(0%,0%,0%);fill-opacity:1;" d="M 24.199219 30.191406 C 25.417969 30.664062 26.214844 31.128906 26.585938 31.582031 C 26.960938 32.03125 27.144531 32.636719 27.144531 33.390625 L 27.144531 34.738281 L 25.738281 34.738281 L 25.738281 33.75 C 25.738281 33.285156 25.625 32.925781 25.40625 32.671875 C 25.1875 32.414062 24.667969 32.128906 23.851562 31.820312 L 23.082031 31.515625 L 12.992188 35.664062 L 12.992188 33.878906 L 21.011719 30.671875 L 12.992188 27.46875 L 12.992188 25.683594 Z M 24.199219 30.191406 "/>
<path style="fill:none;stroke-width:0.8;stroke-linecap:square;stroke-linejoin:miter;stroke:rgb(0%,0%,0%);stroke-opacity:1;stroke-miterlimit:4;" d="M 47.459375 145.8 L 47.459375 7.2 " transform="matrix(1.25,0,0,1.25,0,0)"/>
<path style="fill:none;stroke-width:0.8;stroke-linecap:square;stroke-linejoin:miter;stroke:rgb(0%,0%,0%);stroke-opacity:1;stroke-miterlimit:4;" d="M 242.759375 145.8 L 242.759375 7.2 " transform="matrix(1.25,0,0,1.25,0,0)"/>
<path style="fill:none;stroke-width:0.8;stroke-linecap:square;stroke-linejoin:miter;stroke:rgb(0%,0%,0%);stroke-opacity:1;stroke-miterlimit:4;" d="M 47.459375 145.8 L 242.759375 145.8 " transform="matrix(1.25,0,0,1.25,0,0)"/>
<path style="fill:none;stroke-width:0.8;stroke-linecap:square;stroke-linejoin:miter;stroke:rgb(0%,0%,0%);stroke-opacity:1;stroke-miterlimit:4;" d="M 47.459375 7.2 L 242.759375 7.2 " transform="matrix(1.25,0,0,1.25,0,0)"/>
</g>
</svg>
