<?xml version="1.0" encoding="UTF-8"?>
<svg xmlns="http://www.w3.org/2000/svg" xmlns:xlink="http://www.w3.org/1999/xlink" width="292pt" height="209pt" viewBox="0 0 292 209" version="1.1">
<defs>
<clipPath id="clip1">
  <path d="M 48 9 L 50 9 L 50 178.875 L 48 178.875 Z M 48 9 "/>
</clipPath>
<clipPath id="clip2">
  <path d="M 93 9 L 95 9 L 95 178.875 L 93 178.875 Z M 93 9 "/>
</clipPath>
<clipPath id="clip3">
  <path d="M 138 9 L 141 9 L 141 178.875 L 138 178.875 Z M 138 9 "/>
</clipPath>
<clipPath id="clip4">
  <path d="M 183 9 L 186 9 L 186 178.875 L 183 178.875 Z M 183 9 "/>
</clipPath>
<clipPath id="clip5">
  <path d="M 229 9 L 231 9 L 231 178.875 L 229 178.875 Z M 229 9 "/>
</clipPath>
<clipPath id="clip6">
  <path d="M 274 9 L 276 9 L 276 178.875 L 274 178.875 Z M 274 9 "/>
</clipPath>
<clipPath id="clip7">
  <path d="M 37.628906 171 L 281.753906 171 L 281.753906 173 L 37.628906 173 Z M 37.628906 171 "/>
</clipPath>
<clipPath id="clip8">
  <path d="M 37.628906 128 L 281.753906 128 L 281.753906 130 L 37.628906 130 Z M 37.628906 128 "/>
</clipPath>
<clipPath id="clip9">
  <path d="M 37.628906 85 L 281.753906 85 L 281.753906 87 L 37.628906 87 Z M 37.628906 85 "/>
</clipPath>
<clipPath id="clip10">
  <path d="M 37.628906 41 L 281.753906 41 L 281.753906 44 L 37.628906 44 Z M 37.628906 41 "/>
</clipPath>
</defs>
<g id="surface1">
<path style=" stroke:none;fill-rule:nonzero;fill:rgb(100%,100%,100%);fill-opacity:1;" d="M 37.628906 178.875 L 281.753906 178.875 L 281.753906 9 L 37.628906 9 Z M 37.628906 178.875 "/>
<g clip-path="url(#clip1)" clip-rule="nonzero">
<path style="fill:none;stroke-width:0.8;stroke-linecap:square;stroke-linejoin:round;stroke:rgb(69.019608%,69.019608%,69.019608%);stroke-opacity:1;stroke-miterlimit:4;" d="M 38.98125 143.1 L 38.98125 7.2 " transform="matrix(1.25,0,0,1.25,0,0)"/>
</g>
<path style="fill:none;stroke-width:0.8;stroke-linecap:butt;stroke-linejoin:round;stroke:rgb(0%,0%,0%);stroke-opacity:1;stroke-miterlimit:4;" d="M 0.000852 -0.000000000000028422 L 0.000852 3.5 " transform="matrix(1.25,0,0,1.25,48.725498,178.875)"/>
<path style=" stroke:none;fill-rule:nonzero;fill:rgb(0%,0%,0%);fill-opacity:1;" d="M 48.722656 188.824219 C 48.085938 188.824219 47.609375 189.136719 47.289062 189.761719 C 46.972656 190.382812 46.8125 191.324219 46.8125 192.578125 C 46.8125 193.824219 46.972656 194.761719 47.289062 195.386719 C 47.609375 196.011719 48.085938 196.324219 48.722656 196.324219 C 49.359375 196.324219 49.839844 196.011719 50.160156 195.386719 C 50.480469 194.761719 50.640625 193.824219 50.640625 192.578125 C 50.640625 191.324219 50.480469 190.382812 50.160156 189.761719 C 49.839844 189.136719 49.359375 188.824219 48.722656 188.824219 Z M 48.722656 187.847656 C 49.742188 187.847656 50.523438 188.25 51.0625 189.058594 C 51.601562 189.867188 51.871094 191.039062 51.871094 192.578125 C 51.871094 194.109375 51.601562 195.28125 51.0625 196.089844 C 50.523438 196.898438 49.742188 197.300781 48.722656 197.300781 C 47.699219 197.300781 46.921875 196.898438 46.382812 196.089844 C 45.84375 195.28125 45.574219 194.109375 45.574219 192.578125 C 45.574219 191.039062 45.84375 189.867188 46.382812 189.058594 C 46.921875 188.25 47.699219 187.847656 48.722656 187.847656 Z M 48.722656 187.847656 "/>
<g clip-path="url(#clip2)" clip-rule="nonzero">
<path style="fill:none;stroke-width:0.8;stroke-linecap:square;stroke-linejoin:round;stroke:rgb(69.019608%,69.019608%,69.019608%);stroke-opacity:1;stroke-miterlimit:4;" d="M 75.215625 143.1 L 75.215625 7.2 " transform="matrix(1.25,0,0,1.25,0,0)"/>
</g>
<path style="fill:none;stroke-width:0.8;stroke-linecap:butt;stroke-linejoin:round;stroke:rgb(0%,0%,0%);stroke-opacity:1;stroke-miterlimit:4;" d="M 0.001461 -0.000000000000028422 L 0.001461 3.5 " transform="matrix(1.25,0,0,1.25,94.017705,178.875)"/>
<path style=" stroke:none;fill-rule:nonzero;fill:rgb(0%,0%,0%);fill-opacity:1;" d="M 87.617188 196.085938 L 89.628906 196.085938 L 89.628906 189.132812 L 87.4375 189.574219 L 87.4375 188.449219 L 89.617188 188.011719 L 90.851562 188.011719 L 90.851562 196.085938 L 92.863281 196.085938 L 92.863281 197.125 L 87.617188 197.125 Z M 87.617188 196.085938 "/>
<path style=" stroke:none;fill-rule:nonzero;fill:rgb(0%,0%,0%);fill-opacity:1;" d="M 97.988281 188.824219 C 97.355469 188.824219 96.878906 189.136719 96.558594 189.761719 C 96.238281 190.382812 96.078125 191.324219 96.078125 192.578125 C 96.078125 193.824219 96.238281 194.761719 96.558594 195.386719 C 96.878906 196.011719 97.355469 196.324219 97.988281 196.324219 C 98.628906 196.324219 99.109375 196.011719 99.425781 195.386719 C 99.746094 194.761719 99.90625 193.824219 99.90625 192.578125 C 99.90625 191.324219 99.746094 190.382812 99.425781 189.761719 C 99.109375 189.136719 98.628906 188.824219 97.988281 188.824219 Z M 97.988281 187.847656 C 99.011719 187.847656 99.792969 188.25 100.332031 189.058594 C 100.871094 189.867188 101.140625 191.039062 101.140625 192.578125 C 101.140625 194.109375 100.871094 195.28125 100.332031 196.089844 C 99.792969 196.898438 99.011719 197.300781 97.988281 197.300781 C 96.96875 197.300781 96.1875 196.898438 95.648438 196.089844 C 95.109375 195.28125 94.839844 194.109375 94.839844 192.578125 C 94.839844 191.039062 95.109375 189.867188 95.648438 189.058594 C 96.1875 188.25 96.96875 187.847656 97.988281 187.847656 Z M 97.988281 187.847656 "/>
<g clip-path="url(#clip3)" clip-rule="nonzero">
<path style="fill:none;stroke-width:0.8;stroke-linecap:square;stroke-linejoin:round;stroke:rgb(69.019608%,69.019608%,69.019608%);stroke-opacity:1;stroke-miterlimit:4;" d="M 111.446875 143.1 L 111.446875 7.2 " transform="matrix(1.25,0,0,1.25,0,0)"/>
</g>
<path style="fill:none;stroke-width:0.8;stroke-linecap:butt;stroke-linejoin:round;stroke:rgb(0%,0%,0%);stroke-opacity:1;stroke-miterlimit:4;" d="M -0.001055 -0.000000000000028422 L -0.001055 3.5 " transform="matrix(1.25,0,0,1.25,139.309913,178.875)"/>
<path style=" stroke:none;fill-rule:nonzero;fill:rgb(0%,0%,0%);fill-opacity:1;" d="M 133.753906 196.085938 L 138.058594 196.085938 L 138.058594 197.125 L 132.273438 197.125 L 132.273438 196.085938 C 132.742188 195.601562 133.378906 194.953125 134.183594 194.136719 C 134.992188 193.320312 135.5 192.792969 135.707031 192.558594 C 136.101562 192.113281 136.378906 191.738281 136.535156 191.433594 C 136.691406 191.125 136.769531 190.824219 136.769531 190.527344 C 136.769531 190.042969 136.601562 189.648438 136.261719 189.34375 C 135.921875 189.035156 135.480469 188.882812 134.933594 188.882812 C 134.546875 188.882812 134.136719 188.949219 133.707031 189.085938 C 133.28125 189.21875 132.820312 189.421875 132.332031 189.695312 L 132.332031 188.449219 C 132.828125 188.25 133.292969 188.101562 133.722656 188 C 134.15625 187.898438 134.550781 187.847656 134.910156 187.847656 C 135.855469 187.847656 136.605469 188.082031 137.167969 188.554688 C 137.730469 189.027344 138.007812 189.65625 138.007812 190.445312 C 138.007812 190.820312 137.9375 191.175781 137.796875 191.511719 C 137.660156 191.847656 137.402344 192.242188 137.03125 192.699219 C 136.929688 192.816406 136.609375 193.15625 136.0625 193.722656 C 135.519531 194.285156 134.75 195.074219 133.753906 196.085938 Z M 133.753906 196.085938 "/>
<path style=" stroke:none;fill-rule:nonzero;fill:rgb(0%,0%,0%);fill-opacity:1;" d="M 143.28125 188.824219 C 142.648438 188.824219 142.171875 189.136719 141.851562 189.761719 C 141.53125 190.382812 141.371094 191.324219 141.371094 192.578125 C 141.371094 193.824219 141.53125 194.761719 141.851562 195.386719 C 142.171875 196.011719 142.648438 196.324219 143.28125 196.324219 C 143.921875 196.324219 144.402344 196.011719 144.71875 195.386719 C 145.039062 194.761719 145.199219 193.824219 145.199219 192.578125 C 145.199219 191.324219 145.039062 190.382812 144.71875 189.761719 C 144.402344 189.136719 143.921875 188.824219 143.28125 188.824219 Z M 143.28125 187.847656 C 144.304688 187.847656 145.085938 188.25 145.625 189.058594 C 146.164062 189.867188 146.433594 191.039062 146.433594 192.578125 C 146.433594 194.109375 146.164062 195.28125 145.625 196.089844 C 145.085938 196.898438 144.304688 197.300781 143.28125 197.300781 C 142.261719 197.300781 141.480469 196.898438 140.941406 196.089844 C 140.402344 195.28125 140.132812 194.109375 140.132812 192.578125 C 140.132812 191.039062 140.402344 189.867188 140.941406 189.058594 C 141.480469 188.25 142.261719 187.847656 143.28125 187.847656 Z M 143.28125 187.847656 "/>
<g clip-path="url(#clip4)" clip-rule="nonzero">
<path style="fill:none;stroke-width:0.8;stroke-linecap:square;stroke-linejoin:round;stroke:rgb(69.019608%,69.019608%,69.019608%);stroke-opacity:1;stroke-miterlimit:4;" d="M 147.68125 143.1 L 147.68125 7.2 " transform="matrix(1.25,0,0,1.25,0,0)"/>
</g>
<path style="fill:none;stroke-width:0.8;stroke-linecap:butt;stroke-linejoin:round;stroke:rgb(0%,0%,0%);stroke-opacity:1;stroke-miterlimit:4;" d="M -0.000446 -0.000000000000028422 L -0.000446 3.5 " transform="matrix(1.25,0,0,1.25,184.60212,178.875)"/>
<path style=" stroke:none;fill-rule:nonzero;fill:rgb(0%,0%,0%);fill-opacity:1;" d="M 181.722656 192.210938 C 182.3125 192.335938 182.769531 192.597656 183.101562 193 C 183.433594 193.398438 183.601562 193.890625 183.601562 194.476562 C 183.601562 195.375 183.289062 196.070312 182.671875 196.5625 C 182.054688 197.054688 181.175781 197.300781 180.035156 197.300781 C 179.652344 197.300781 179.261719 197.261719 178.855469 197.1875 C 178.449219 197.113281 178.03125 197 177.601562 196.847656 L 177.601562 195.660156 C 177.941406 195.859375 178.316406 196.007812 178.722656 196.109375 C 179.128906 196.210938 179.554688 196.261719 180 196.261719 C 180.773438 196.261719 181.359375 196.109375 181.765625 195.804688 C 182.171875 195.5 182.375 195.058594 182.375 194.476562 C 182.375 193.9375 182.183594 193.515625 181.808594 193.214844 C 181.433594 192.910156 180.910156 192.761719 180.238281 192.761719 L 179.175781 192.761719 L 179.175781 191.746094 L 180.289062 191.746094 C 180.894531 191.746094 181.355469 191.625 181.679688 191.382812 C 182 191.140625 182.160156 190.792969 182.160156 190.335938 C 182.160156 189.867188 181.996094 189.511719 181.664062 189.261719 C 181.332031 189.007812 180.855469 188.882812 180.238281 188.882812 C 179.898438 188.882812 179.539062 188.921875 179.152344 188.996094 C 178.765625 189.066406 178.339844 189.179688 177.875 189.335938 L 177.875 188.238281 C 178.34375 188.105469 178.78125 188.007812 179.191406 187.945312 C 179.601562 187.878906 179.984375 187.847656 180.347656 187.847656 C 181.285156 187.847656 182.023438 188.058594 182.570312 188.484375 C 183.113281 188.910156 183.386719 189.484375 183.386719 190.207031 C 183.386719 190.710938 183.242188 191.140625 182.953125 191.488281 C 182.664062 191.835938 182.253906 192.074219 181.722656 192.210938 Z M 181.722656 192.210938 "/>
<path style=" stroke:none;fill-rule:nonzero;fill:rgb(0%,0%,0%);fill-opacity:1;" d="M 188.574219 188.824219 C 187.941406 188.824219 187.464844 189.136719 187.144531 189.761719 C 186.824219 190.382812 186.664062 191.324219 186.664062 192.578125 C 186.664062 193.824219 186.824219 194.761719 187.144531 195.386719 C 187.464844 196.011719 187.941406 196.324219 188.574219 196.324219 C 189.214844 196.324219 189.691406 196.011719 190.011719 195.386719 C 190.332031 194.761719 190.492188 193.824219 190.492188 192.578125 C 190.492188 191.324219 190.332031 190.382812 190.011719 189.761719 C 189.691406 189.136719 189.214844 188.824219 188.574219 188.824219 Z M 188.574219 187.847656 C 189.597656 187.847656 190.378906 188.25 190.917969 189.058594 C 191.457031 189.867188 191.726562 191.039062 191.726562 192.578125 C 191.726562 194.109375 191.457031 195.28125 190.917969 196.089844 C 190.378906 196.898438 189.597656 197.300781 188.574219 197.300781 C 187.554688 197.300781 186.773438 196.898438 186.234375 196.089844 C 185.695312 195.28125 185.425781 194.109375 185.425781 192.578125 C 185.425781 191.039062 185.695312 189.867188 186.234375 189.058594 C 186.773438 188.25 187.554688 187.847656 188.574219 187.847656 Z M 188.574219 187.847656 "/>
<g clip-path="url(#clip5)" clip-rule="nonzero">
<path style="fill:none;stroke-width:0.8;stroke-linecap:square;stroke-linejoin:round;stroke:rgb(69.019608%,69.019608%,69.019608%);stroke-opacity:1;stroke-miterlimit:4;" d="M 183.915625 143.1 L 183.915625 7.2 " transform="matrix(1.25,0,0,1.25,0,0)"/>
</g>
<path style="fill:none;stroke-width:0.8;stroke-linecap:butt;stroke-linejoin:round;stroke:rgb(0%,0%,0%);stroke-opacity:1;stroke-miterlimit:4;" d="M 0.000162 -0.000000000000028422 L 0.000162 3.5 " transform="matrix(1.25,0,0,1.25,229.894329,178.875)"/>
<path style=" stroke:none;fill-rule:nonzero;fill:rgb(0%,0%,0%);fill-opacity:1;" d="M 226.664062 189.085938 L 223.550781 193.949219 L 226.664062 193.949219 Z M 226.339844 188.011719 L 227.890625 188.011719 L 227.890625 193.949219 L 229.191406 193.949219 L 229.191406 194.976562 L 227.890625 194.976562 L 227.890625 197.125 L 226.664062 197.125 L 226.664062 194.976562 L 222.550781 194.976562 L 222.550781 193.785156 Z M 226.339844 188.011719 "/>
<path style=" stroke:none;fill-rule:nonzero;fill:rgb(0%,0%,0%);fill-opacity:1;" d="M 233.867188 188.824219 C 233.234375 188.824219 232.753906 189.136719 232.433594 189.761719 C 232.117188 190.382812 231.957031 191.324219 231.957031 192.578125 C 231.957031 193.824219 232.117188 194.761719 232.433594 195.386719 C 232.753906 196.011719 233.234375 196.324219 233.867188 196.324219 C 234.507812 196.324219 234.984375 196.011719 235.304688 195.386719 C 235.625 194.761719 235.785156 193.824219 235.785156 192.578125 C 235.785156 191.324219 235.625 190.382812 235.304688 189.761719 C 234.984375 189.136719 234.507812 188.824219 233.867188 188.824219 Z M 233.867188 187.847656 C 234.890625 187.847656 235.667969 188.25 236.207031 189.058594 C 236.746094 189.867188 237.015625 191.039062 237.015625 192.578125 C 237.015625 194.109375 236.746094 195.28125 236.207031 196.089844 C 235.667969 196.898438 234.890625 197.300781 233.867188 197.300781 C 232.847656 197.300781 232.066406 196.898438 231.527344 196.089844 C 230.988281 195.28125 230.71875 194.109375 230.71875 192.578125 C 230.71875 191.039062 230.988281 189.867188 231.527344 189.058594 C 232.066406 188.25 232.847656 187.847656 233.867188 187.847656 Z M 233.867188 187.847656 "/>
<g clip-path="url(#clip6)" clip-rule="nonzero">
<path style="fill:none;stroke-width:0.8;stroke-linecap:square;stroke-linejoin:round;stroke:rgb(69.019608%,69.019608%,69.019608%);stroke-opacity:1;stroke-miterlimit:4;" d="M 220.15 143.1 L 220.15 7.2 " transform="matrix(1.25,0,0,1.25,0,0)"/>
</g>
<path style="fill:none;stroke-width:0.8;stroke-linecap:butt;stroke-linejoin:round;stroke:rgb(0%,0%,0%);stroke-opacity:1;stroke-miterlimit:4;" d="M 0.000771 -0.000000000000028422 L 0.000771 3.5 " transform="matrix(1.25,0,0,1.25,275.186536,178.875)"/>
<path style=" stroke:none;fill-rule:nonzero;fill:rgb(0%,0%,0%);fill-opacity:1;" d="M 268.582031 188.011719 L 273.421875 188.011719 L 273.421875 189.050781 L 269.710938 189.050781 L 269.710938 191.28125 C 269.890625 191.21875 270.070312 191.175781 270.246094 191.144531 C 270.425781 191.113281 270.605469 191.101562 270.785156 191.101562 C 271.804688 191.101562 272.609375 191.378906 273.203125 191.9375 C 273.796875 192.492188 274.09375 193.246094 274.09375 194.199219 C 274.09375 195.179688 273.789062 195.941406 273.179688 196.488281 C 272.566406 197.03125 271.707031 197.300781 270.597656 197.300781 C 270.214844 197.300781 269.824219 197.269531 269.425781 197.203125 C 269.03125 197.136719 268.621094 197.039062 268.199219 196.910156 L 268.199219 195.671875 C 268.5625 195.871094 268.941406 196.019531 269.332031 196.117188 C 269.722656 196.214844 270.136719 196.261719 270.570312 196.261719 C 271.277344 196.261719 271.832031 196.078125 272.242188 195.707031 C 272.65625 195.335938 272.859375 194.835938 272.859375 194.199219 C 272.859375 193.566406 272.65625 193.0625 272.242188 192.695312 C 271.832031 192.324219 271.277344 192.136719 270.570312 192.136719 C 270.242188 192.136719 269.914062 192.171875 269.585938 192.246094 C 269.257812 192.320312 268.925781 192.433594 268.582031 192.589844 Z M 268.582031 188.011719 "/>
<path style=" stroke:none;fill-rule:nonzero;fill:rgb(0%,0%,0%);fill-opacity:1;" d="M 279.160156 188.824219 C 278.523438 188.824219 278.046875 189.136719 277.726562 189.761719 C 277.410156 190.382812 277.25 191.324219 277.25 192.578125 C 277.25 193.824219 277.410156 194.761719 277.726562 195.386719 C 278.046875 196.011719 278.523438 196.324219 279.160156 196.324219 C 279.796875 196.324219 280.277344 196.011719 280.597656 195.386719 C 280.917969 194.761719 281.078125 193.824219 281.078125 192.578125 C 281.078125 191.324219 280.917969 190.382812 280.597656 189.761719 C 280.277344 189.136719 279.796875 188.824219 279.160156 188.824219 Z M 279.160156 187.847656 C 280.179688 187.847656 280.960938 188.25 281.5 189.058594 C 282.039062 189.867188 282.308594 191.039062 282.308594 192.578125 C 282.308594 194.109375 282.039062 195.28125 281.5 196.089844 C 280.960938 196.898438 280.179688 197.300781 279.160156 197.300781 C 278.136719 197.300781 277.359375 196.898438 276.820312 196.089844 C 276.28125 195.28125 276.011719 194.109375 276.011719 192.578125 C 276.011719 191.039062 276.28125 189.867188 276.820312 189.058594 C 277.359375 188.25 278.136719 187.847656 279.160156 187.847656 Z M 279.160156 187.847656 "/>
<g clip-path="url(#clip7)" clip-rule="nonzero">
<path style="fill:none;stroke-width:0.8;stroke-linecap:square;stroke-linejoin:round;stroke:rgb(69.019608%,69.019608%,69.019608%);stroke-opacity:1;stroke-miterlimit:4;" d="M 30.103125 137.634375 L 225.403125 137.634375 " transform="matrix(1.25,0,0,1.25,0,0)"/>
</g>
<path style="fill:none;stroke-width:0.8;stroke-linecap:butt;stroke-linejoin:round;stroke:rgb(0%,0%,0%);stroke-opacity:1;stroke-miterlimit:4;" d="M -0.000000000000003553 0.0001 L -3.5 0.0001 " transform="matrix(1.25,0,0,1.25,37.628906,172.042844)"/>
<path style=" stroke:none;fill-rule:nonzero;fill:rgb(0%,0%,0%);fill-opacity:1;" d="M 12.972656 168.492188 C 12.339844 168.492188 11.863281 168.804688 11.542969 169.429688 C 11.222656 170.050781 11.0625 170.992188 11.0625 172.246094 C 11.0625 173.492188 11.222656 174.429688 11.542969 175.054688 C 11.863281 175.679688 12.339844 175.992188 12.972656 175.992188 C 13.613281 175.992188 14.089844 175.679688 14.410156 175.054688 C 14.730469 174.429688 14.890625 173.492188 14.890625 172.246094 C 14.890625 170.992188 14.730469 170.050781 14.410156 169.429688 C 14.089844 168.804688 13.613281 168.492188 12.972656 168.492188 Z M 12.972656 167.515625 C 13.996094 167.515625 14.777344 167.917969 15.316406 168.726562 C 15.855469 169.535156 16.125 170.707031 16.125 172.246094 C 16.125 173.777344 15.855469 174.949219 15.316406 175.757812 C 14.777344 176.566406 13.996094 176.96875 12.972656 176.96875 C 11.953125 176.96875 11.171875 176.566406 10.632812 175.757812 C 10.09375 174.949219 9.824219 173.777344 9.824219 172.246094 C 9.824219 170.707031 10.09375 169.535156 10.632812 168.726562 C 11.171875 167.917969 11.953125 167.515625 12.972656 167.515625 Z M 12.972656 167.515625 "/>
<path style=" stroke:none;fill-rule:nonzero;fill:rgb(0%,0%,0%);fill-opacity:1;" d="M 18.289062 175.242188 L 19.578125 175.242188 L 19.578125 176.792969 L 18.289062 176.792969 Z M 18.289062 175.242188 "/>
<path style=" stroke:none;fill-rule:nonzero;fill:rgb(0%,0%,0%);fill-opacity:1;" d="M 24.898438 168.492188 C 24.265625 168.492188 23.789062 168.804688 23.46875 169.429688 C 23.148438 170.050781 22.988281 170.992188 22.988281 172.246094 C 22.988281 173.492188 23.148438 174.429688 23.46875 175.054688 C 23.789062 175.679688 24.265625 175.992188 24.898438 175.992188 C 25.539062 175.992188 26.015625 175.679688 26.335938 175.054688 C 26.65625 174.429688 26.816406 173.492188 26.816406 172.246094 C 26.816406 170.992188 26.65625 170.050781 26.335938 169.429688 C 26.015625 168.804688 25.539062 168.492188 24.898438 168.492188 Z M 24.898438 167.515625 C 25.921875 167.515625 26.703125 167.917969 27.242188 168.726562 C 27.78125 169.535156 28.050781 170.707031 28.050781 172.246094 C 28.050781 173.777344 27.78125 174.949219 27.242188 175.757812 C 26.703125 176.566406 25.921875 176.96875 24.898438 176.96875 C 23.878906 176.96875 23.097656 176.566406 22.558594 175.757812 C 22.019531 174.949219 21.75 173.777344 21.75 172.246094 C 21.75 170.707031 22.019531 169.535156 22.558594 168.726562 C 23.097656 167.917969 23.878906 167.515625 24.898438 167.515625 Z M 24.898438 167.515625 "/>
<g clip-path="url(#clip8)" clip-rule="nonzero">
<path style="fill:none;stroke-width:0.8;stroke-linecap:square;stroke-linejoin:round;stroke:rgb(69.019608%,69.019608%,69.019608%);stroke-opacity:1;stroke-miterlimit:4;" d="M 30.103125 103.11875 L 225.403125 103.11875 " transform="matrix(1.25,0,0,1.25,0,0)"/>
</g>
<path style="fill:none;stroke-width:0.8;stroke-linecap:butt;stroke-linejoin:round;stroke:rgb(0%,0%,0%);stroke-opacity:1;stroke-miterlimit:4;" d="M -0.000000000000003553 0.000309 L -3.5 0.000309 " transform="matrix(1.25,0,0,1.25,37.628906,128.898051)"/>
<path style=" stroke:none;fill-rule:nonzero;fill:rgb(0%,0%,0%);fill-opacity:1;" d="M 12.972656 125.347656 C 12.339844 125.347656 11.863281 125.660156 11.542969 126.285156 C 11.222656 126.90625 11.0625 127.847656 11.0625 129.101562 C 11.0625 130.347656 11.222656 131.285156 11.542969 131.910156 C 11.863281 132.535156 12.339844 132.847656 12.972656 132.847656 C 13.613281 132.847656 14.089844 132.535156 14.410156 131.910156 C 14.730469 131.285156 14.890625 130.347656 14.890625 129.101562 C 14.890625 127.847656 14.730469 126.90625 14.410156 126.285156 C 14.089844 125.660156 13.613281 125.347656 12.972656 125.347656 Z M 12.972656 124.371094 C 13.996094 124.371094 14.777344 124.773438 15.316406 125.582031 C 15.855469 126.390625 16.125 127.5625 16.125 129.101562 C 16.125 130.632812 15.855469 131.804688 15.316406 132.613281 C 14.777344 133.421875 13.996094 133.824219 12.972656 133.824219 C 11.953125 133.824219 11.171875 133.421875 10.632812 132.613281 C 10.09375 131.804688 9.824219 130.632812 9.824219 129.101562 C 9.824219 127.5625 10.09375 126.390625 10.632812 125.582031 C 11.171875 124.773438 11.953125 124.371094 12.972656 124.371094 Z M 12.972656 124.371094 "/>
<path style=" stroke:none;fill-rule:nonzero;fill:rgb(0%,0%,0%);fill-opacity:1;" d="M 18.289062 132.097656 L 19.578125 132.097656 L 19.578125 133.648438 L 18.289062 133.648438 Z M 18.289062 132.097656 "/>
<path style=" stroke:none;fill-rule:nonzero;fill:rgb(0%,0%,0%);fill-opacity:1;" d="M 22.277344 124.535156 L 27.117188 124.535156 L 27.117188 125.574219 L 23.40625 125.574219 L 23.40625 127.804688 C 23.582031 127.742188 23.761719 127.699219 23.941406 127.667969 C 24.121094 127.636719 24.300781 127.625 24.480469 127.625 C 25.496094 127.625 26.300781 127.902344 26.894531 128.460938 C 27.488281 129.015625 27.789062 129.769531 27.789062 130.722656 C 27.789062 131.703125 27.480469 132.464844 26.871094 133.011719 C 26.261719 133.554688 25.398438 133.824219 24.289062 133.824219 C 23.90625 133.824219 23.515625 133.792969 23.121094 133.726562 C 22.722656 133.660156 22.3125 133.5625 21.890625 133.433594 L 21.890625 132.195312 C 22.257812 132.394531 22.636719 132.542969 23.027344 132.640625 C 23.417969 132.738281 23.828125 132.785156 24.265625 132.785156 C 24.96875 132.785156 25.527344 132.601562 25.9375 132.230469 C 26.347656 131.859375 26.554688 131.359375 26.554688 130.722656 C 26.554688 130.089844 26.347656 129.585938 25.9375 129.21875 C 25.527344 128.847656 24.96875 128.660156 24.265625 128.660156 C 23.933594 128.660156 23.605469 128.695312 23.277344 128.769531 C 22.949219 128.84375 22.617188 128.957031 22.277344 129.113281 Z M 22.277344 124.535156 "/>
<g clip-path="url(#clip9)" clip-rule="nonzero">
<path style="fill:none;stroke-width:0.8;stroke-linecap:square;stroke-linejoin:round;stroke:rgb(69.019608%,69.019608%,69.019608%);stroke-opacity:1;stroke-miterlimit:4;" d="M 30.103125 68.603125 L 225.403125 68.603125 " transform="matrix(1.25,0,0,1.25,0,0)"/>
</g>
<path style="fill:none;stroke-width:0.8;stroke-linecap:butt;stroke-linejoin:round;stroke:rgb(0%,0%,0%);stroke-opacity:1;stroke-miterlimit:4;" d="M -0.000000000000003553 0.000518 L -3.5 0.000518 " transform="matrix(1.25,0,0,1.25,37.628906,85.753259)"/>
<path style=" stroke:none;fill-rule:nonzero;fill:rgb(0%,0%,0%);fill-opacity:1;" d="M 10.550781 89.464844 L 12.566406 89.464844 L 12.566406 82.511719 L 10.375 82.953125 L 10.375 81.828125 L 12.554688 81.390625 L 13.785156 81.390625 L 13.785156 89.464844 L 15.800781 89.464844 L 15.800781 90.503906 L 10.550781 90.503906 Z M 10.550781 89.464844 "/>
<path style=" stroke:none;fill-rule:nonzero;fill:rgb(0%,0%,0%);fill-opacity:1;" d="M 18.289062 88.953125 L 19.578125 88.953125 L 19.578125 90.503906 L 18.289062 90.503906 Z M 18.289062 88.953125 "/>
<path style=" stroke:none;fill-rule:nonzero;fill:rgb(0%,0%,0%);fill-opacity:1;" d="M 24.898438 82.203125 C 24.265625 82.203125 23.789062 82.515625 23.46875 83.140625 C 23.148438 83.761719 22.988281 84.703125 22.988281 85.957031 C 22.988281 87.203125 23.148438 88.140625 23.46875 88.765625 C 23.789062 89.390625 24.265625 89.703125 24.898438 89.703125 C 25.539062 89.703125 26.015625 89.390625 26.335938 88.765625 C 26.65625 88.140625 26.816406 87.203125 26.816406 85.957031 C 26.816406 84.703125 26.65625 83.761719 26.335938 83.140625 C 26.015625 82.515625 25.539062 82.203125 24.898438 82.203125 Z M 24.898438 81.226562 C 25.921875 81.226562 26.703125 81.628906 27.242188 82.4375 C 27.78125 83.246094 28.050781 84.417969 28.050781 85.957031 C 28.050781 87.488281 27.78125 88.660156 27.242188 89.46875 C 26.703125 90.277344 25.921875 90.679688 24.898438 90.679688 C 23.878906 90.679688 23.097656 90.277344 22.558594 89.46875 C 22.019531 88.660156 21.75 87.488281 21.75 85.957031 C 21.75 84.417969 22.019531 83.246094 22.558594 82.4375 C 23.097656 81.628906 23.878906 81.226562 24.898438 81.226562 Z M 24.898438 81.226562 "/>
<g clip-path="url(#clip10)" clip-rule="nonzero">
<path style="fill:none;stroke-width:0.8;stroke-linecap:square;stroke-linejoin:round;stroke:rgb(69.019608%,69.019608%,69.019608%);stroke-opacity:1;stroke-miterlimit:4;" d="M 30.103125 34.0875 L 225.403125 34.0875 " transform="matrix(1.25,0,0,1.25,0,0)"/>
</g>
<path style="fill:none;stroke-width:0.8;stroke-linecap:butt;stroke-linejoin:round;stroke:rgb(0%,0%,0%);stroke-opacity:1;stroke-miterlimit:4;" d="M -0.000000000000003553 0.000727 L -3.5 0.000727 " transform="matrix(1.25,0,0,1.25,37.628906,42.608466)"/>
<path style=" stroke:none;fill-rule:nonzero;fill:rgb(0%,0%,0%);fill-opacity:1;" d="M 10.550781 46.320312 L 12.566406 46.320312 L 12.566406 39.367188 L 10.375 39.808594 L 10.375 38.683594 L 12.554688 38.246094 L 13.785156 38.246094 L 13.785156 46.320312 L 15.800781 46.320312 L 15.800781 47.359375 L 10.550781 47.359375 Z M 10.550781 46.320312 "/>
<path style=" stroke:none;fill-rule:nonzero;fill:rgb(0%,0%,0%);fill-opacity:1;" d="M 18.289062 45.808594 L 19.578125 45.808594 L 19.578125 47.359375 L 18.289062 47.359375 Z M 18.289062 45.808594 "/>
<path style=" stroke:none;fill-rule:nonzero;fill:rgb(0%,0%,0%);fill-opacity:1;" d="M 22.277344 38.246094 L 27.117188 38.246094 L 27.117188 39.285156 L 23.40625 39.285156 L 23.40625 41.515625 C 23.582031 41.453125 23.761719 41.410156 23.941406 41.378906 C 24.121094 41.347656 24.300781 41.335938 24.480469 41.335938 C 25.496094 41.335938 26.300781 41.613281 26.894531 42.171875 C 27.488281 42.726562 27.789062 43.480469 27.789062 44.433594 C 27.789062 45.414062 27.480469 46.175781 26.871094 46.722656 C 26.261719 47.265625 25.398438 47.535156 24.289062 47.535156 C 23.90625 47.535156 23.515625 47.503906 23.121094 47.4375 C 22.722656 47.371094 22.3125 47.273438 21.890625 47.144531 L 21.890625 45.90625 C 22.257812 46.105469 22.636719 46.253906 23.027344 46.351562 C 23.417969 46.449219 23.828125 46.496094 24.265625 46.496094 C 24.96875 46.496094 25.527344 46.3125 25.9375 45.941406 C 26.347656 45.570312 26.554688 45.070312 26.554688 44.433594 C 26.554688 43.800781 26.347656 43.296875 25.9375 42.929688 C 25.527344 42.558594 24.96875 42.371094 24.265625 42.371094 C 23.933594 42.371094 23.605469 42.40625 23.277344 42.480469 C 22.949219 42.554688 22.617188 42.667969 22.277344 42.824219 Z M 22.277344 38.246094 "/>
<path style="fill:none;stroke-width:1.5;stroke-linecap:square;stroke-linejoin:round;stroke:rgb(12.156863%,46.666667%,70.588235%);stroke-opacity:1;stroke-miterlimit:4;" d="M 38.98125 13.378125 L 42.603125 25.803125 L 46.228125 36.9875 L 49.85 47.05 L 53.475 56.109375 L 57.096875 64.2625 L 60.721875 71.6 L 64.34375 78.203125 L 67.96875 84.146875 L 71.590625 89.49375 L 75.215625 94.309375 L 78.8375 98.640625 L 82.459375 102.540625 L 86.084375 106.05 L 89.70625 109.209375 L 93.33125 112.05 L 96.953125 114.609375 L 100.578125 116.9125 L 104.2 118.984375 L 107.825 120.85 L 111.446875 122.528125 L 115.071875 124.0375 L 118.69375 125.396875 L 122.31875 126.621875 L 125.940625 127.721875 L 129.565625 128.7125 L 133.1875 129.60625 L 136.8125 130.409375 L 140.434375 131.13125 L 144.059375 131.78125 L 147.68125 132.365625 L 151.30625 132.89375 L 154.928125 133.36875 L 158.553125 133.79375 L 162.175 134.178125 L 165.8 134.525 L 169.421875 134.834375 L 173.046875 135.115625 L 176.66875 135.365625 L 180.290625 135.59375 L 183.915625 135.796875 L 187.5375 135.98125 L 191.1625 136.146875 L 194.784375 136.296875 L 198.409375 136.428125 L 202.03125 136.55 L 205.65625 136.659375 L 209.278125 136.75625 L 212.903125 136.84375 L 216.525 136.921875 " transform="matrix(1.25,0,0,1.25,0,0)"/>
<path style="fill:none;stroke-width:0.8;stroke-linecap:square;stroke-linejoin:miter;stroke:rgb(0%,0%,0%);stroke-opacity:1;stroke-miterlimit:4;" d="M 30.103125 143.1 L 30.103125 7.2 " transform="matrix(1.25,0,0,1.25,0,0)"/>
<path style="fill:none;stroke-width:0.8;stroke-linecap:square;stroke-linejoin:miter;stroke:rgb(0%,0%,0%);stroke-opacity:1;stroke-miterlimit:4;" d="M 225.403125 143.1 L 225.403125 7.2 " transform="matrix(1.25,0,0,1.25,0,0)"/>
<path style="fill:none;stroke-width:0.8;stroke-linecap:square;stroke-linejoin:miter;stroke:rgb(0%,0%,0%);stroke-opacity:1;stroke-miterlimit:4;" d="M 30.103125 143.1 L 225.403125 143.1 " transform="matrix(1.25,0,0,1.25,0,0)"/>
<path style="fill:none;stroke-width:0.8;stroke-linecap:square;stroke-linejoin:miter;stroke:rgb(0%,0%,0%);stroke-opacity:1;stroke-miterlimit:4;" d="M 30.103125 7.2 L 225.403125 7.2 " transform="matrix(1.25,0,0,1.25,0,0)"/>
</g>
</svg>
