<?xml version="1.0" encoding="UTF-8"?>
<svg xmlns="http://www.w3.org/2000/svg" xmlns:xlink="http://www.w3.org/1999/xlink" width="509pt" height="264pt" viewBox="0 0 509 264" version="1.1">
<defs>
<clipPath id="clip1">
  <path d="M 147 9 L 150 9 L 150 216.898438 L 147 216.898438 Z M 147 9 "/>
</clipPath>
<clipPath id="clip2">
  <path d="M 231 9 L 234 9 L 234 216.898438 L 231 216.898438 Z M 231 9 "/>
</clipPath>
<clipPath id="clip3">
  <path d="M 315 9 L 317 9 L 317 216.898438 L 315 216.898438 Z M 315 9 "/>
</clipPath>
<clipPath id="clip4">
  <path d="M 399 9 L 401 9 L 401 216.898438 L 399 216.898438 Z M 399 9 "/>
</clipPath>
<clipPath id="clip5">
  <path d="M 482 9 L 483.703125 9 L 483.703125 216.898438 L 482 216.898438 Z M 482 9 "/>
</clipPath>
<clipPath id="clip6">
  <path d="M 65.203125 208 L 483.703125 208 L 483.703125 210 L 65.203125 210 Z M 65.203125 208 "/>
</clipPath>
<clipPath id="clip7">
  <path d="M 65.203125 177 L 483.703125 177 L 483.703125 179 L 65.203125 179 Z M 65.203125 177 "/>
</clipPath>
<clipPath id="clip8">
  <path d="M 65.203125 147 L 483.703125 147 L 483.703125 149 L 65.203125 149 Z M 65.203125 147 "/>
</clipPath>
<clipPath id="clip9">
  <path d="M 65.203125 116 L 483.703125 116 L 483.703125 119 L 65.203125 119 Z M 65.203125 116 "/>
</clipPath>
<clipPath id="clip10">
  <path d="M 65.203125 86 L 483.703125 86 L 483.703125 88 L 65.203125 88 Z M 65.203125 86 "/>
</clipPath>
<clipPath id="clip11">
  <path d="M 65.203125 55 L 483.703125 55 L 483.703125 58 L 65.203125 58 Z M 65.203125 55 "/>
</clipPath>
<clipPath id="clip12">
  <path d="M 65.203125 25 L 483.703125 25 L 483.703125 27 L 65.203125 27 Z M 65.203125 25 "/>
</clipPath>
<clipPath id="clip13">
  <path d="M 65.203125 17 L 483.703125 17 L 483.703125 209 L 65.203125 209 Z M 65.203125 17 "/>
</clipPath>
</defs>
<g id="surface1">
<path style=" stroke:none;fill-rule:nonzero;fill:rgb(100%,100%,100%);fill-opacity:1;" d="M 0 263.84375 L 508.609375 263.84375 L 508.609375 0 L 0 0 Z M 0 263.84375 "/>
<path style=" stroke:none;fill-rule:nonzero;fill:rgb(100%,100%,100%);fill-opacity:1;" d="M 65.203125 216.898438 L 483.703125 216.898438 L 483.703125 9 L 65.203125 9 Z M 65.203125 216.898438 "/>
<g clip-path="url(#clip1)" clip-rule="nonzero">
<path style="fill:none;stroke-width:0.8;stroke-linecap:square;stroke-linejoin:round;stroke:rgb(69.019608%,69.019608%,69.019608%);stroke-opacity:1;stroke-miterlimit:4;" d="M 118.853125 173.51875 L 118.853125 7.2 " transform="matrix(1.25,0,0,1.25,0,0)"/>
</g>
<path style="fill:none;stroke-width:0.8;stroke-linecap:butt;stroke-linejoin:round;stroke:rgb(0%,0%,0%);stroke-opacity:1;stroke-miterlimit:4;" d="M 0.000296 -0.00125 L 0.000296 3.49875 " transform="matrix(1.25,0,0,1.25,148.566036,216.9)"/>
<path style=" stroke:none;fill-rule:nonzero;fill:rgb(0%,0%,0%);fill-opacity:1;" d="M 139.035156 234.109375 L 143.335938 234.109375 L 143.335938 235.148438 L 137.550781 235.148438 L 137.550781 234.109375 C 138.019531 233.625 138.65625 232.976562 139.464844 232.160156 C 140.273438 231.34375 140.78125 230.820312 140.988281 230.582031 C 141.382812 230.140625 141.65625 229.765625 141.8125 229.457031 C 141.972656 229.148438 142.050781 228.847656 142.050781 228.550781 C 142.050781 228.066406 141.878906 227.671875 141.539062 227.367188 C 141.199219 227.0625 140.757812 226.90625 140.210938 226.90625 C 139.824219 226.90625 139.417969 226.976562 138.988281 227.109375 C 138.558594 227.242188 138.101562 227.445312 137.613281 227.71875 L 137.613281 226.472656 C 138.109375 226.273438 138.574219 226.125 139.003906 226.023438 C 139.4375 225.921875 139.832031 225.871094 140.1875 225.871094 C 141.132812 225.871094 141.886719 226.105469 142.445312 226.578125 C 143.007812 227.050781 143.289062 227.679688 143.289062 228.46875 C 143.289062 228.84375 143.21875 229.199219 143.078125 229.535156 C 142.9375 229.871094 142.683594 230.265625 142.3125 230.722656 C 142.210938 230.839844 141.886719 231.183594 141.339844 231.746094 C 140.796875 232.308594 140.027344 233.097656 139.035156 234.109375 Z M 139.035156 234.109375 "/>
<path style=" stroke:none;fill-rule:nonzero;fill:rgb(0%,0%,0%);fill-opacity:1;" d="M 148.5625 226.847656 C 147.929688 226.847656 147.449219 227.160156 147.128906 227.785156 C 146.8125 228.410156 146.652344 229.347656 146.652344 230.601562 C 146.652344 231.851562 146.8125 232.785156 147.128906 233.410156 C 147.449219 234.035156 147.929688 234.347656 148.5625 234.347656 C 149.203125 234.347656 149.679688 234.035156 150 233.410156 C 150.320312 232.785156 150.480469 231.851562 150.480469 230.601562 C 150.480469 229.347656 150.320312 228.410156 150 227.785156 C 149.679688 227.160156 149.203125 226.847656 148.5625 226.847656 Z M 148.5625 225.871094 C 149.585938 225.871094 150.363281 226.273438 150.902344 227.082031 C 151.441406 227.890625 151.710938 229.0625 151.710938 230.601562 C 151.710938 232.136719 151.441406 233.304688 150.902344 234.113281 C 150.363281 234.921875 149.585938 235.324219 148.5625 235.324219 C 147.542969 235.324219 146.761719 234.921875 146.222656 234.113281 C 145.683594 233.304688 145.414062 232.136719 145.414062 230.601562 C 145.414062 229.0625 145.683594 227.890625 146.222656 227.082031 C 146.761719 226.273438 147.542969 225.871094 148.5625 225.871094 Z M 148.5625 225.871094 "/>
<path style=" stroke:none;fill-rule:nonzero;fill:rgb(0%,0%,0%);fill-opacity:1;" d="M 156.515625 226.847656 C 155.878906 226.847656 155.402344 227.160156 155.082031 227.785156 C 154.765625 228.410156 154.605469 229.347656 154.605469 230.601562 C 154.605469 231.851562 154.765625 232.785156 155.082031 233.410156 C 155.402344 234.035156 155.878906 234.347656 156.515625 234.347656 C 157.152344 234.347656 157.632812 234.035156 157.953125 233.410156 C 158.273438 232.785156 158.433594 231.851562 158.433594 230.601562 C 158.433594 229.347656 158.273438 228.410156 157.953125 227.785156 C 157.632812 227.160156 157.152344 226.847656 156.515625 226.847656 Z M 156.515625 225.871094 C 157.535156 225.871094 158.316406 226.273438 158.855469 227.082031 C 159.394531 227.890625 159.664062 229.0625 159.664062 230.601562 C 159.664062 232.136719 159.394531 233.304688 158.855469 234.113281 C 158.316406 234.921875 157.535156 235.324219 156.515625 235.324219 C 155.492188 235.324219 154.714844 234.921875 154.175781 234.113281 C 153.636719 233.304688 153.367188 232.136719 153.367188 230.601562 C 153.367188 229.0625 153.636719 227.890625 154.175781 227.082031 C 154.714844 226.273438 155.492188 225.871094 156.515625 225.871094 Z M 156.515625 225.871094 "/>
<g clip-path="url(#clip2)" clip-rule="nonzero">
<path style="fill:none;stroke-width:0.8;stroke-linecap:square;stroke-linejoin:round;stroke:rgb(69.019608%,69.019608%,69.019608%);stroke-opacity:1;stroke-miterlimit:4;" d="M 185.88125 173.51875 L 185.88125 7.2 " transform="matrix(1.25,0,0,1.25,0,0)"/>
</g>
<path style="fill:none;stroke-width:0.8;stroke-linecap:butt;stroke-linejoin:round;stroke:rgb(0%,0%,0%);stroke-opacity:1;stroke-miterlimit:4;" d="M 0.001394 -0.00125 L 0.001394 3.49875 " transform="matrix(1.25,0,0,1.25,232.34982,216.9)"/>
<path style=" stroke:none;fill-rule:nonzero;fill:rgb(0%,0%,0%);fill-opacity:1;" d="M 225.144531 227.109375 L 222.03125 231.972656 L 225.144531 231.972656 Z M 224.820312 226.035156 L 226.371094 226.035156 L 226.371094 231.972656 L 227.671875 231.972656 L 227.671875 233 L 226.371094 233 L 226.371094 235.148438 L 225.144531 235.148438 L 225.144531 233 L 221.03125 233 L 221.03125 231.808594 Z M 224.820312 226.035156 "/>
<path style=" stroke:none;fill-rule:nonzero;fill:rgb(0%,0%,0%);fill-opacity:1;" d="M 232.34375 226.847656 C 231.710938 226.847656 231.234375 227.160156 230.914062 227.785156 C 230.59375 228.410156 230.433594 229.347656 230.433594 230.601562 C 230.433594 231.851562 230.59375 232.785156 230.914062 233.410156 C 231.234375 234.035156 231.710938 234.347656 232.34375 234.347656 C 232.984375 234.347656 233.464844 234.035156 233.78125 233.410156 C 234.101562 232.785156 234.261719 231.851562 234.261719 230.601562 C 234.261719 229.347656 234.101562 228.410156 233.78125 227.785156 C 233.464844 227.160156 232.984375 226.847656 232.34375 226.847656 Z M 232.34375 225.871094 C 233.367188 225.871094 234.148438 226.273438 234.6875 227.082031 C 235.226562 227.890625 235.496094 229.0625 235.496094 230.601562 C 235.496094 232.136719 235.226562 233.304688 234.6875 234.113281 C 234.148438 234.921875 233.367188 235.324219 232.34375 235.324219 C 231.324219 235.324219 230.542969 234.921875 230.003906 234.113281 C 229.464844 233.304688 229.195312 232.136719 229.195312 230.601562 C 229.195312 229.0625 229.464844 227.890625 230.003906 227.082031 C 230.542969 226.273438 231.324219 225.871094 232.34375 225.871094 Z M 232.34375 225.871094 "/>
<path style=" stroke:none;fill-rule:nonzero;fill:rgb(0%,0%,0%);fill-opacity:1;" d="M 240.296875 226.847656 C 239.664062 226.847656 239.1875 227.160156 238.867188 227.785156 C 238.546875 228.410156 238.386719 229.347656 238.386719 230.601562 C 238.386719 231.851562 238.546875 232.785156 238.867188 233.410156 C 239.1875 234.035156 239.664062 234.347656 240.296875 234.347656 C 240.9375 234.347656 241.417969 234.035156 241.734375 233.410156 C 242.054688 232.785156 242.214844 231.851562 242.214844 230.601562 C 242.214844 229.347656 242.054688 228.410156 241.734375 227.785156 C 241.417969 227.160156 240.9375 226.847656 240.296875 226.847656 Z M 240.296875 225.871094 C 241.320312 225.871094 242.101562 226.273438 242.640625 227.082031 C 243.179688 227.890625 243.449219 229.0625 243.449219 230.601562 C 243.449219 232.136719 243.179688 233.304688 242.640625 234.113281 C 242.101562 234.921875 241.320312 235.324219 240.296875 235.324219 C 239.277344 235.324219 238.496094 234.921875 237.957031 234.113281 C 237.417969 233.304688 237.148438 232.136719 237.148438 230.601562 C 237.148438 229.0625 237.417969 227.890625 237.957031 227.082031 C 238.496094 226.273438 239.277344 225.871094 240.296875 225.871094 Z M 240.296875 225.871094 "/>
<g clip-path="url(#clip3)" clip-rule="nonzero">
<path style="fill:none;stroke-width:0.8;stroke-linecap:square;stroke-linejoin:round;stroke:rgb(69.019608%,69.019608%,69.019608%);stroke-opacity:1;stroke-miterlimit:4;" d="M 252.90625 173.51875 L 252.90625 7.2 " transform="matrix(1.25,0,0,1.25,0,0)"/>
</g>
<path style="fill:none;stroke-width:0.8;stroke-linecap:butt;stroke-linejoin:round;stroke:rgb(0%,0%,0%);stroke-opacity:1;stroke-miterlimit:4;" d="M -0.000633 -0.00125 L -0.000633 3.49875 " transform="matrix(1.25,0,0,1.25,316.133604,216.9)"/>
<path style=" stroke:none;fill-rule:nonzero;fill:rgb(0%,0%,0%);fill-opacity:1;" d="M 308.332031 230.101562 C 307.777344 230.101562 307.339844 230.289062 307.015625 230.667969 C 306.691406 231.046875 306.53125 231.566406 306.53125 232.222656 C 306.53125 232.878906 306.691406 233.398438 307.015625 233.777344 C 307.339844 234.160156 307.777344 234.347656 308.332031 234.347656 C 308.882812 234.347656 309.324219 234.160156 309.644531 233.777344 C 309.96875 233.398438 310.128906 232.878906 310.128906 232.222656 C 310.128906 231.566406 309.96875 231.046875 309.644531 230.667969 C 309.324219 230.289062 308.882812 230.101562 308.332031 230.101562 Z M 310.777344 226.234375 L 310.777344 227.359375 C 310.46875 227.214844 310.15625 227.101562 309.839844 227.023438 C 309.527344 226.945312 309.214844 226.90625 308.902344 226.90625 C 308.089844 226.90625 307.46875 227.183594 307.039062 227.730469 C 306.609375 228.28125 306.363281 229.113281 306.304688 230.222656 C 306.542969 229.867188 306.84375 229.597656 307.207031 229.40625 C 307.570312 229.21875 307.96875 229.125 308.402344 229.125 C 309.320312 229.125 310.042969 229.402344 310.574219 229.957031 C 311.105469 230.511719 311.371094 231.269531 311.371094 232.222656 C 311.371094 233.160156 311.09375 233.910156 310.539062 234.476562 C 309.988281 235.042969 309.25 235.324219 308.332031 235.324219 C 307.277344 235.324219 306.46875 234.921875 305.914062 234.113281 C 305.355469 233.304688 305.078125 232.136719 305.078125 230.601562 C 305.078125 229.160156 305.417969 228.011719 306.101562 227.15625 C 306.785156 226.300781 307.703125 225.871094 308.855469 225.871094 C 309.164062 225.871094 309.476562 225.902344 309.792969 225.960938 C 310.105469 226.023438 310.4375 226.113281 310.777344 226.234375 Z M 310.777344 226.234375 "/>
<path style=" stroke:none;fill-rule:nonzero;fill:rgb(0%,0%,0%);fill-opacity:1;" d="M 316.128906 226.847656 C 315.496094 226.847656 315.019531 227.160156 314.699219 227.785156 C 314.378906 228.410156 314.21875 229.347656 314.21875 230.601562 C 314.21875 231.851562 314.378906 232.785156 314.699219 233.410156 C 315.019531 234.035156 315.496094 234.347656 316.128906 234.347656 C 316.769531 234.347656 317.246094 234.035156 317.566406 233.410156 C 317.886719 232.785156 318.046875 231.851562 318.046875 230.601562 C 318.046875 229.347656 317.886719 228.410156 317.566406 227.785156 C 317.246094 227.160156 316.769531 226.847656 316.128906 226.847656 Z M 316.128906 225.871094 C 317.152344 225.871094 317.933594 226.273438 318.472656 227.082031 C 319.011719 227.890625 319.28125 229.0625 319.28125 230.601562 C 319.28125 232.136719 319.011719 233.304688 318.472656 234.113281 C 317.933594 234.921875 317.152344 235.324219 316.128906 235.324219 C 315.109375 235.324219 314.328125 234.921875 313.789062 234.113281 C 313.25 233.304688 312.980469 232.136719 312.980469 230.601562 C 312.980469 229.0625 313.25 227.890625 313.789062 227.082031 C 314.328125 226.273438 315.109375 225.871094 316.128906 225.871094 Z M 316.128906 225.871094 "/>
<path style=" stroke:none;fill-rule:nonzero;fill:rgb(0%,0%,0%);fill-opacity:1;" d="M 324.082031 226.847656 C 323.449219 226.847656 322.972656 227.160156 322.652344 227.785156 C 322.332031 228.410156 322.171875 229.347656 322.171875 230.601562 C 322.171875 231.851562 322.332031 232.785156 322.652344 233.410156 C 322.972656 234.035156 323.449219 234.347656 324.082031 234.347656 C 324.722656 234.347656 325.199219 234.035156 325.519531 233.410156 C 325.839844 232.785156 326 231.851562 326 230.601562 C 326 229.347656 325.839844 228.410156 325.519531 227.785156 C 325.199219 227.160156 324.722656 226.847656 324.082031 226.847656 Z M 324.082031 225.871094 C 325.105469 225.871094 325.886719 226.273438 326.425781 227.082031 C 326.964844 227.890625 327.234375 229.0625 327.234375 230.601562 C 327.234375 232.136719 326.964844 233.304688 326.425781 234.113281 C 325.886719 234.921875 325.105469 235.324219 324.082031 235.324219 C 323.0625 235.324219 322.28125 234.921875 321.742188 234.113281 C 321.203125 233.304688 320.933594 232.136719 320.933594 230.601562 C 320.933594 229.0625 321.203125 227.890625 321.742188 227.082031 C 322.28125 226.273438 323.0625 225.871094 324.082031 225.871094 Z M 324.082031 225.871094 "/>
<g clip-path="url(#clip4)" clip-rule="nonzero">
<path style="fill:none;stroke-width:0.8;stroke-linecap:square;stroke-linejoin:round;stroke:rgb(69.019608%,69.019608%,69.019608%);stroke-opacity:1;stroke-miterlimit:4;" d="M 319.934375 173.51875 L 319.934375 7.2 " transform="matrix(1.25,0,0,1.25,0,0)"/>
</g>
<path style="fill:none;stroke-width:0.8;stroke-linecap:butt;stroke-linejoin:round;stroke:rgb(0%,0%,0%);stroke-opacity:1;stroke-miterlimit:4;" d="M 0.000465 -0.00125 L 0.000465 3.49875 " transform="matrix(1.25,0,0,1.25,399.917388,216.9)"/>
<path style=" stroke:none;fill-rule:nonzero;fill:rgb(0%,0%,0%);fill-opacity:1;" d="M 391.960938 230.820312 C 391.375 230.820312 390.914062 230.976562 390.578125 231.289062 C 390.242188 231.605469 390.074219 232.035156 390.074219 232.582031 C 390.074219 233.132812 390.242188 233.566406 390.578125 233.878906 C 390.914062 234.191406 391.375 234.347656 391.960938 234.347656 C 392.546875 234.347656 393.007812 234.191406 393.34375 233.875 C 393.683594 233.558594 393.851562 233.128906 393.851562 232.582031 C 393.851562 232.035156 393.683594 231.605469 393.347656 231.289062 C 393.015625 230.976562 392.550781 230.820312 391.960938 230.820312 Z M 390.726562 230.296875 C 390.199219 230.167969 389.789062 229.921875 389.492188 229.558594 C 389.199219 229.195312 389.050781 228.753906 389.050781 228.230469 C 389.050781 227.503906 389.308594 226.929688 389.828125 226.503906 C 390.347656 226.082031 391.058594 225.871094 391.960938 225.871094 C 392.867188 225.871094 393.582031 226.082031 394.097656 226.503906 C 394.613281 226.929688 394.871094 227.503906 394.871094 228.230469 C 394.871094 228.753906 394.726562 229.195312 394.429688 229.558594 C 394.136719 229.921875 393.726562 230.167969 393.199219 230.296875 C 393.792969 230.433594 394.257812 230.707031 394.585938 231.109375 C 394.917969 231.511719 395.085938 232.003906 395.085938 232.582031 C 395.085938 233.46875 394.816406 234.144531 394.277344 234.617188 C 393.738281 235.089844 392.964844 235.324219 391.960938 235.324219 C 390.957031 235.324219 390.183594 235.089844 389.644531 234.617188 C 389.105469 234.144531 388.835938 233.46875 388.835938 232.582031 C 388.835938 232.003906 389.003906 231.511719 389.335938 231.109375 C 389.671875 230.707031 390.132812 230.433594 390.726562 230.296875 Z M 390.277344 228.347656 C 390.277344 228.820312 390.425781 229.1875 390.71875 229.453125 C 391.015625 229.71875 391.429688 229.847656 391.960938 229.847656 C 392.492188 229.847656 392.90625 229.71875 393.203125 229.453125 C 393.503906 229.1875 393.652344 228.820312 393.652344 228.347656 C 393.652344 227.875 393.503906 227.507812 393.203125 227.242188 C 392.90625 226.980469 392.492188 226.847656 391.960938 226.847656 C 391.429688 226.847656 391.015625 226.980469 390.71875 227.242188 C 390.425781 227.507812 390.277344 227.875 390.277344 228.347656 Z M 390.277344 228.347656 "/>
<path style=" stroke:none;fill-rule:nonzero;fill:rgb(0%,0%,0%);fill-opacity:1;" d="M 399.914062 226.847656 C 399.277344 226.847656 398.800781 227.160156 398.480469 227.785156 C 398.164062 228.410156 398.003906 229.347656 398.003906 230.601562 C 398.003906 231.851562 398.164062 232.785156 398.480469 233.410156 C 398.800781 234.035156 399.277344 234.347656 399.914062 234.347656 C 400.550781 234.347656 401.03125 234.035156 401.351562 233.410156 C 401.671875 232.785156 401.832031 231.851562 401.832031 230.601562 C 401.832031 229.347656 401.671875 228.410156 401.351562 227.785156 C 401.03125 227.160156 400.550781 226.847656 399.914062 226.847656 Z M 399.914062 225.871094 C 400.933594 225.871094 401.714844 226.273438 402.253906 227.082031 C 402.792969 227.890625 403.0625 229.0625 403.0625 230.601562 C 403.0625 232.136719 402.792969 233.304688 402.253906 234.113281 C 401.714844 234.921875 400.933594 235.324219 399.914062 235.324219 C 398.890625 235.324219 398.113281 234.921875 397.574219 234.113281 C 397.035156 233.304688 396.765625 232.136719 396.765625 230.601562 C 396.765625 229.0625 397.035156 227.890625 397.574219 227.082031 C 398.113281 226.273438 398.890625 225.871094 399.914062 225.871094 Z M 399.914062 225.871094 "/>
<path style=" stroke:none;fill-rule:nonzero;fill:rgb(0%,0%,0%);fill-opacity:1;" d="M 407.867188 226.847656 C 407.230469 226.847656 406.753906 227.160156 406.433594 227.785156 C 406.117188 228.410156 405.957031 229.347656 405.957031 230.601562 C 405.957031 231.851562 406.117188 232.785156 406.433594 233.410156 C 406.753906 234.035156 407.230469 234.347656 407.867188 234.347656 C 408.503906 234.347656 408.984375 234.035156 409.304688 233.410156 C 409.625 232.785156 409.785156 231.851562 409.785156 230.601562 C 409.785156 229.347656 409.625 228.410156 409.304688 227.785156 C 408.984375 227.160156 408.503906 226.847656 407.867188 226.847656 Z M 407.867188 225.871094 C 408.886719 225.871094 409.667969 226.273438 410.207031 227.082031 C 410.746094 227.890625 411.015625 229.0625 411.015625 230.601562 C 411.015625 232.136719 410.746094 233.304688 410.207031 234.113281 C 409.667969 234.921875 408.886719 235.324219 407.867188 235.324219 C 406.84375 235.324219 406.066406 234.921875 405.527344 234.113281 C 404.988281 233.304688 404.71875 232.136719 404.71875 230.601562 C 404.71875 229.0625 404.988281 227.890625 405.527344 227.082031 C 406.066406 226.273438 406.84375 225.871094 407.867188 225.871094 Z M 407.867188 225.871094 "/>
<g clip-path="url(#clip5)" clip-rule="nonzero">
<path style="fill:none;stroke-width:0.8;stroke-linecap:square;stroke-linejoin:round;stroke:rgb(69.019608%,69.019608%,69.019608%);stroke-opacity:1;stroke-miterlimit:4;" d="M 386.9625 173.51875 L 386.9625 7.2 " transform="matrix(1.25,0,0,1.25,0,0)"/>
</g>
<path style="fill:none;stroke-width:0.8;stroke-linecap:butt;stroke-linejoin:round;stroke:rgb(0%,0%,0%);stroke-opacity:1;stroke-miterlimit:4;" d="M 0.001562 -0.00125 L 0.001562 3.49875 " transform="matrix(1.25,0,0,1.25,483.701172,216.9)"/>
<path style=" stroke:none;fill-rule:nonzero;fill:rgb(0%,0%,0%);fill-opacity:1;" d="M 469.34375 234.109375 L 471.359375 234.109375 L 471.359375 227.15625 L 469.167969 227.597656 L 469.167969 226.472656 L 471.347656 226.035156 L 472.578125 226.035156 L 472.578125 234.109375 L 474.59375 234.109375 L 474.59375 235.148438 L 469.34375 235.148438 Z M 469.34375 234.109375 "/>
<path style=" stroke:none;fill-rule:nonzero;fill:rgb(0%,0%,0%);fill-opacity:1;" d="M 479.71875 226.847656 C 479.085938 226.847656 478.609375 227.160156 478.289062 227.785156 C 477.96875 228.410156 477.808594 229.347656 477.808594 230.601562 C 477.808594 231.851562 477.96875 232.785156 478.289062 233.410156 C 478.609375 234.035156 479.085938 234.347656 479.71875 234.347656 C 480.359375 234.347656 480.839844 234.035156 481.15625 233.410156 C 481.476562 232.785156 481.636719 231.851562 481.636719 230.601562 C 481.636719 229.347656 481.476562 228.410156 481.15625 227.785156 C 480.839844 227.160156 480.359375 226.847656 479.71875 226.847656 Z M 479.71875 225.871094 C 480.742188 225.871094 481.523438 226.273438 482.0625 227.082031 C 482.601562 227.890625 482.871094 229.0625 482.871094 230.601562 C 482.871094 232.136719 482.601562 233.304688 482.0625 234.113281 C 481.523438 234.921875 480.742188 235.324219 479.71875 235.324219 C 478.699219 235.324219 477.917969 234.921875 477.378906 234.113281 C 476.839844 233.304688 476.570312 232.136719 476.570312 230.601562 C 476.570312 229.0625 476.839844 227.890625 477.378906 227.082031 C 477.917969 226.273438 478.699219 225.871094 479.71875 225.871094 Z M 479.71875 225.871094 "/>
<path style=" stroke:none;fill-rule:nonzero;fill:rgb(0%,0%,0%);fill-opacity:1;" d="M 487.671875 226.847656 C 487.039062 226.847656 486.5625 227.160156 486.242188 227.785156 C 485.921875 228.410156 485.761719 229.347656 485.761719 230.601562 C 485.761719 231.851562 485.921875 232.785156 486.242188 233.410156 C 486.5625 234.035156 487.039062 234.347656 487.671875 234.347656 C 488.3125 234.347656 488.792969 234.035156 489.109375 233.410156 C 489.429688 232.785156 489.589844 231.851562 489.589844 230.601562 C 489.589844 229.347656 489.429688 228.410156 489.109375 227.785156 C 488.792969 227.160156 488.3125 226.847656 487.671875 226.847656 Z M 487.671875 225.871094 C 488.695312 225.871094 489.476562 226.273438 490.015625 227.082031 C 490.554688 227.890625 490.824219 229.0625 490.824219 230.601562 C 490.824219 232.136719 490.554688 233.304688 490.015625 234.113281 C 489.476562 234.921875 488.695312 235.324219 487.671875 235.324219 C 486.652344 235.324219 485.871094 234.921875 485.332031 234.113281 C 484.792969 233.304688 484.523438 232.136719 484.523438 230.601562 C 484.523438 229.0625 484.792969 227.890625 485.332031 227.082031 C 485.871094 226.273438 486.652344 225.871094 487.671875 225.871094 Z M 487.671875 225.871094 "/>
<path style=" stroke:none;fill-rule:nonzero;fill:rgb(0%,0%,0%);fill-opacity:1;" d="M 495.625 226.847656 C 494.992188 226.847656 494.515625 227.160156 494.195312 227.785156 C 493.875 228.410156 493.714844 229.347656 493.714844 230.601562 C 493.714844 231.851562 493.875 232.785156 494.195312 233.410156 C 494.515625 234.035156 494.992188 234.347656 495.625 234.347656 C 496.265625 234.347656 496.746094 234.035156 497.0625 233.410156 C 497.382812 232.785156 497.542969 231.851562 497.542969 230.601562 C 497.542969 229.347656 497.382812 228.410156 497.0625 227.785156 C 496.746094 227.160156 496.265625 226.847656 495.625 226.847656 Z M 495.625 225.871094 C 496.648438 225.871094 497.429688 226.273438 497.96875 227.082031 C 498.507812 227.890625 498.777344 229.0625 498.777344 230.601562 C 498.777344 232.136719 498.507812 233.304688 497.96875 234.113281 C 497.429688 234.921875 496.648438 235.324219 495.625 235.324219 C 494.605469 235.324219 493.824219 234.921875 493.285156 234.113281 C 492.746094 233.304688 492.476562 232.136719 492.476562 230.601562 C 492.476562 229.0625 492.746094 227.890625 493.285156 227.082031 C 493.824219 226.273438 494.605469 225.871094 495.625 225.871094 Z M 495.625 225.871094 "/>
<path style=" stroke:none;fill-rule:nonzero;fill:rgb(0%,0%,0%);fill-opacity:1;" d="M 262.621094 243.46875 L 262.621094 245.410156 L 264.933594 245.410156 L 264.933594 246.28125 L 262.621094 246.28125 L 262.621094 249.992188 C 262.621094 250.550781 262.695312 250.910156 262.847656 251.066406 C 263 251.226562 263.3125 251.304688 263.78125 251.304688 L 264.933594 251.304688 L 264.933594 252.246094 L 263.78125 252.246094 C 262.914062 252.246094 262.316406 252.085938 261.984375 251.761719 C 261.65625 251.4375 261.492188 250.847656 261.492188 249.992188 L 261.492188 246.28125 L 260.667969 246.28125 L 260.667969 245.410156 L 261.492188 245.410156 L 261.492188 243.46875 Z M 262.621094 243.46875 "/>
<path style=" stroke:none;fill-rule:nonzero;fill:rgb(0%,0%,0%);fill-opacity:1;" d="M 266.410156 245.410156 L 267.53125 245.410156 L 267.53125 252.246094 L 266.410156 252.246094 Z M 266.410156 242.746094 L 267.53125 242.746094 L 267.53125 244.171875 L 266.410156 244.171875 Z M 266.410156 242.746094 "/>
<path style=" stroke:none;fill-rule:nonzero;fill:rgb(0%,0%,0%);fill-opacity:1;" d="M 275.207031 246.722656 C 275.488281 246.21875 275.824219 245.84375 276.214844 245.605469 C 276.605469 245.367188 277.0625 245.246094 277.59375 245.246094 C 278.304688 245.246094 278.855469 245.496094 279.242188 245.992188 C 279.628906 246.492188 279.820312 247.199219 279.820312 248.117188 L 279.820312 252.246094 L 278.691406 252.246094 L 278.691406 248.15625 C 278.691406 247.5 278.574219 247.015625 278.34375 246.699219 C 278.109375 246.382812 277.757812 246.222656 277.28125 246.222656 C 276.699219 246.222656 276.238281 246.414062 275.902344 246.800781 C 275.5625 247.1875 275.394531 247.714844 275.394531 248.382812 L 275.394531 252.246094 L 274.265625 252.246094 L 274.265625 248.15625 C 274.265625 247.496094 274.148438 247.011719 273.917969 246.695312 C 273.6875 246.378906 273.328125 246.222656 272.84375 246.222656 C 272.269531 246.222656 271.8125 246.417969 271.476562 246.804688 C 271.136719 247.191406 270.96875 247.71875 270.96875 248.382812 L 270.96875 252.246094 L 269.839844 252.246094 L 269.839844 245.410156 L 270.96875 245.410156 L 270.96875 246.472656 C 271.226562 246.054688 271.53125 245.742188 271.890625 245.542969 C 272.25 245.34375 272.675781 245.246094 273.167969 245.246094 C 273.664062 245.246094 274.085938 245.371094 274.433594 245.625 C 274.78125 245.875 275.039062 246.242188 275.207031 246.722656 Z M 275.207031 246.722656 "/>
<path style=" stroke:none;fill-rule:nonzero;fill:rgb(0%,0%,0%);fill-opacity:1;" d="M 287.90625 248.546875 L 287.90625 249.09375 L 282.742188 249.09375 C 282.792969 249.867188 283.027344 250.457031 283.441406 250.863281 C 283.859375 251.269531 284.441406 251.46875 285.183594 251.46875 C 285.617188 251.46875 286.035156 251.417969 286.4375 251.3125 C 286.84375 251.207031 287.246094 251.046875 287.644531 250.835938 L 287.644531 251.898438 C 287.242188 252.070312 286.828125 252.199219 286.40625 252.289062 C 285.980469 252.378906 285.554688 252.421875 285.117188 252.421875 C 284.027344 252.421875 283.164062 252.105469 282.527344 251.472656 C 281.890625 250.835938 281.570312 249.976562 281.570312 248.894531 C 281.570312 247.777344 281.875 246.886719 282.476562 246.230469 C 283.082031 245.574219 283.898438 245.246094 284.921875 245.246094 C 285.84375 245.246094 286.570312 245.542969 287.105469 246.132812 C 287.640625 246.726562 287.90625 247.53125 287.90625 248.546875 Z M 286.785156 248.214844 C 286.777344 247.601562 286.605469 247.113281 286.269531 246.746094 C 285.933594 246.378906 285.488281 246.195312 284.933594 246.195312 C 284.308594 246.195312 283.808594 246.375 283.429688 246.726562 C 283.054688 247.082031 282.835938 247.582031 282.78125 248.222656 Z M 286.785156 248.214844 "/>
<g clip-path="url(#clip6)" clip-rule="nonzero">
<path style="fill:none;stroke-width:0.8;stroke-linecap:square;stroke-linejoin:round;stroke:rgb(69.019608%,69.019608%,69.019608%);stroke-opacity:1;stroke-miterlimit:4;" d="M 52.1625 166.996875 L 386.9625 166.996875 " transform="matrix(1.25,0,0,1.25,0,0)"/>
</g>
<path style="fill:none;stroke-width:0.8;stroke-linecap:butt;stroke-linejoin:round;stroke:rgb(0%,0%,0%);stroke-opacity:1;stroke-miterlimit:4;" d="M 0.001562 0.001283 L -3.498438 0.001283 " transform="matrix(1.25,0,0,1.25,65.201172,208.74449)"/>
<path style=" stroke:none;fill-rule:nonzero;fill:rgb(0%,0%,0%);fill-opacity:1;" d="M 27.421875 209.054688 L 35.246094 209.054688 L 35.246094 210.09375 L 27.421875 210.09375 Z M 27.421875 209.054688 "/>
<path style=" stroke:none;fill-rule:nonzero;fill:rgb(0%,0%,0%);fill-opacity:1;" d="M 38.121094 212.457031 L 40.136719 212.457031 L 40.136719 205.503906 L 37.945312 205.941406 L 37.945312 204.820312 L 40.125 204.378906 L 41.355469 204.378906 L 41.355469 212.457031 L 43.371094 212.457031 L 43.371094 213.492188 L 38.121094 213.492188 Z M 38.121094 212.457031 "/>
<path style=" stroke:none;fill-rule:nonzero;fill:rgb(0%,0%,0%);fill-opacity:1;" d="M 45.859375 211.941406 L 47.148438 211.941406 L 47.148438 213.492188 L 45.859375 213.492188 Z M 45.859375 211.941406 "/>
<path style=" stroke:none;fill-rule:nonzero;fill:rgb(0%,0%,0%);fill-opacity:1;" d="M 49.847656 204.378906 L 54.6875 204.378906 L 54.6875 205.417969 L 50.976562 205.417969 L 50.976562 207.652344 C 51.15625 207.589844 51.332031 207.546875 51.511719 207.515625 C 51.691406 207.484375 51.871094 207.46875 52.050781 207.46875 C 53.066406 207.46875 53.871094 207.75 54.464844 208.304688 C 55.0625 208.863281 55.359375 209.617188 55.359375 210.570312 C 55.359375 211.550781 55.054688 212.3125 54.441406 212.855469 C 53.832031 213.398438 52.972656 213.671875 51.859375 213.671875 C 51.476562 213.671875 51.089844 213.640625 50.691406 213.574219 C 50.296875 213.507812 49.886719 213.410156 49.460938 213.28125 L 49.460938 212.039062 C 49.828125 212.238281 50.207031 212.386719 50.597656 212.484375 C 50.988281 212.582031 51.402344 212.632812 51.835938 212.632812 C 52.539062 212.632812 53.097656 212.449219 53.507812 212.078125 C 53.917969 211.707031 54.125 211.207031 54.125 210.570312 C 54.125 209.9375 53.917969 209.433594 53.507812 209.0625 C 53.097656 208.691406 52.539062 208.507812 51.835938 208.507812 C 51.507812 208.507812 51.175781 208.542969 50.847656 208.617188 C 50.523438 208.691406 50.1875 208.804688 49.847656 208.957031 Z M 49.847656 204.378906 "/>
<g clip-path="url(#clip7)" clip-rule="nonzero">
<path style="fill:none;stroke-width:0.8;stroke-linecap:square;stroke-linejoin:round;stroke:rgb(69.019608%,69.019608%,69.019608%);stroke-opacity:1;stroke-miterlimit:4;" d="M 52.1625 142.63125 L 386.9625 142.63125 " transform="matrix(1.25,0,0,1.25,0,0)"/>
</g>
<path style="fill:none;stroke-width:0.8;stroke-linecap:butt;stroke-linejoin:round;stroke:rgb(0%,0%,0%);stroke-opacity:1;stroke-miterlimit:4;" d="M 0.001562 -0.000484 L -3.498438 -0.000484 " transform="matrix(1.25,0,0,1.25,65.201172,178.289668)"/>
<path style=" stroke:none;fill-rule:nonzero;fill:rgb(0%,0%,0%);fill-opacity:1;" d="M 27.421875 178.601562 L 35.246094 178.601562 L 35.246094 179.636719 L 27.421875 179.636719 Z M 27.421875 178.601562 "/>
<path style=" stroke:none;fill-rule:nonzero;fill:rgb(0%,0%,0%);fill-opacity:1;" d="M 38.121094 182 L 40.136719 182 L 40.136719 175.046875 L 37.945312 175.488281 L 37.945312 174.363281 L 40.125 173.925781 L 41.355469 173.925781 L 41.355469 182 L 43.371094 182 L 43.371094 183.039062 L 38.121094 183.039062 Z M 38.121094 182 "/>
<path style=" stroke:none;fill-rule:nonzero;fill:rgb(0%,0%,0%);fill-opacity:1;" d="M 45.859375 181.488281 L 47.148438 181.488281 L 47.148438 183.039062 L 45.859375 183.039062 Z M 45.859375 181.488281 "/>
<path style=" stroke:none;fill-rule:nonzero;fill:rgb(0%,0%,0%);fill-opacity:1;" d="M 52.46875 174.738281 C 51.835938 174.738281 51.359375 175.050781 51.039062 175.675781 C 50.71875 176.300781 50.558594 177.238281 50.558594 178.492188 C 50.558594 179.742188 50.71875 180.675781 51.039062 181.300781 C 51.359375 181.925781 51.835938 182.238281 52.46875 182.238281 C 53.109375 182.238281 53.589844 181.925781 53.90625 181.300781 C 54.226562 180.675781 54.386719 179.742188 54.386719 178.492188 C 54.386719 177.238281 54.226562 176.300781 53.90625 175.675781 C 53.589844 175.050781 53.109375 174.738281 52.46875 174.738281 Z M 52.46875 173.761719 C 53.492188 173.761719 54.273438 174.164062 54.8125 174.972656 C 55.351562 175.78125 55.621094 176.953125 55.621094 178.492188 C 55.621094 180.027344 55.351562 181.195312 54.8125 182.003906 C 54.273438 182.8125 53.492188 183.214844 52.46875 183.214844 C 51.449219 183.214844 50.667969 182.8125 50.128906 182.003906 C 49.589844 181.195312 49.320312 180.027344 49.320312 178.492188 C 49.320312 176.953125 49.589844 175.78125 50.128906 174.972656 C 50.667969 174.164062 51.449219 173.761719 52.46875 173.761719 Z M 52.46875 173.761719 "/>
<g clip-path="url(#clip8)" clip-rule="nonzero">
<path style="fill:none;stroke-width:0.8;stroke-linecap:square;stroke-linejoin:round;stroke:rgb(69.019608%,69.019608%,69.019608%);stroke-opacity:1;stroke-miterlimit:4;" d="M 52.1625 118.26875 L 386.9625 118.26875 " transform="matrix(1.25,0,0,1.25,0,0)"/>
</g>
<path style="fill:none;stroke-width:0.8;stroke-linecap:butt;stroke-linejoin:round;stroke:rgb(0%,0%,0%);stroke-opacity:1;stroke-miterlimit:4;" d="M 0.001562 0.000875 L -3.498438 0.000875 " transform="matrix(1.25,0,0,1.25,65.201172,147.834844)"/>
<path style=" stroke:none;fill-rule:nonzero;fill:rgb(0%,0%,0%);fill-opacity:1;" d="M 27.421875 148.144531 L 35.246094 148.144531 L 35.246094 149.183594 L 27.421875 149.183594 Z M 27.421875 148.144531 "/>
<path style=" stroke:none;fill-rule:nonzero;fill:rgb(0%,0%,0%);fill-opacity:1;" d="M 40.542969 144.28125 C 39.910156 144.28125 39.433594 144.59375 39.113281 145.21875 C 38.792969 145.84375 38.632812 146.78125 38.632812 148.035156 C 38.632812 149.285156 38.792969 150.222656 39.113281 150.847656 C 39.433594 151.472656 39.910156 151.785156 40.542969 151.785156 C 41.183594 151.785156 41.664062 151.472656 41.980469 150.847656 C 42.300781 150.222656 42.460938 149.285156 42.460938 148.035156 C 42.460938 146.78125 42.300781 145.84375 41.980469 145.21875 C 41.664062 144.59375 41.183594 144.28125 40.542969 144.28125 Z M 40.542969 143.304688 C 41.566406 143.304688 42.347656 143.710938 42.886719 144.519531 C 43.425781 145.328125 43.695312 146.5 43.695312 148.035156 C 43.695312 149.570312 43.425781 150.742188 42.886719 151.550781 C 42.347656 152.359375 41.566406 152.761719 40.542969 152.761719 C 39.523438 152.761719 38.742188 152.359375 38.203125 151.550781 C 37.664062 150.742188 37.394531 149.570312 37.394531 148.035156 C 37.394531 146.5 37.664062 145.328125 38.203125 144.519531 C 38.742188 143.710938 39.523438 143.304688 40.542969 143.304688 Z M 40.542969 143.304688 "/>
<path style=" stroke:none;fill-rule:nonzero;fill:rgb(0%,0%,0%);fill-opacity:1;" d="M 45.859375 151.03125 L 47.148438 151.03125 L 47.148438 152.582031 L 45.859375 152.582031 Z M 45.859375 151.03125 "/>
<path style=" stroke:none;fill-rule:nonzero;fill:rgb(0%,0%,0%);fill-opacity:1;" d="M 49.847656 143.46875 L 54.6875 143.46875 L 54.6875 144.507812 L 50.976562 144.507812 L 50.976562 146.742188 C 51.15625 146.679688 51.332031 146.636719 51.511719 146.605469 C 51.691406 146.574219 51.871094 146.558594 52.050781 146.558594 C 53.066406 146.558594 53.871094 146.839844 54.464844 147.394531 C 55.0625 147.953125 55.359375 148.707031 55.359375 149.660156 C 55.359375 150.640625 55.054688 151.402344 54.441406 151.945312 C 53.832031 152.488281 52.972656 152.761719 51.859375 152.761719 C 51.476562 152.761719 51.089844 152.730469 50.691406 152.664062 C 50.296875 152.597656 49.886719 152.5 49.460938 152.371094 L 49.460938 151.128906 C 49.828125 151.328125 50.207031 151.476562 50.597656 151.574219 C 50.988281 151.671875 51.402344 151.722656 51.835938 151.722656 C 52.539062 151.722656 53.097656 151.539062 53.507812 151.167969 C 53.917969 150.796875 54.125 150.296875 54.125 149.660156 C 54.125 149.027344 53.917969 148.523438 53.507812 148.152344 C 53.097656 147.78125 52.539062 147.597656 51.835938 147.597656 C 51.507812 147.597656 51.175781 147.632812 50.847656 147.707031 C 50.523438 147.78125 50.1875 147.894531 49.847656 148.046875 Z M 49.847656 143.46875 "/>
<g clip-path="url(#clip9)" clip-rule="nonzero">
<path style="fill:none;stroke-width:0.8;stroke-linecap:square;stroke-linejoin:round;stroke:rgb(69.019608%,69.019608%,69.019608%);stroke-opacity:1;stroke-miterlimit:4;" d="M 52.1625 93.903125 L 386.9625 93.903125 " transform="matrix(1.25,0,0,1.25,0,0)"/>
</g>
<path style="fill:none;stroke-width:0.8;stroke-linecap:butt;stroke-linejoin:round;stroke:rgb(0%,0%,0%);stroke-opacity:1;stroke-miterlimit:4;" d="M 0.001562 -0.000891 L -3.498438 -0.000891 " transform="matrix(1.25,0,0,1.25,65.201172,117.38002)"/>
<path style=" stroke:none;fill-rule:nonzero;fill:rgb(0%,0%,0%);fill-opacity:1;" d="M 40.542969 113.828125 C 39.910156 113.828125 39.433594 114.140625 39.113281 114.765625 C 38.792969 115.390625 38.632812 116.328125 38.632812 117.582031 C 38.632812 118.832031 38.792969 119.769531 39.113281 120.394531 C 39.433594 121.019531 39.910156 121.332031 40.542969 121.332031 C 41.183594 121.332031 41.664062 121.019531 41.980469 120.394531 C 42.300781 119.769531 42.460938 118.832031 42.460938 117.582031 C 42.460938 116.328125 42.300781 115.390625 41.980469 114.765625 C 41.664062 114.140625 41.183594 113.828125 40.542969 113.828125 Z M 40.542969 112.851562 C 41.566406 112.851562 42.347656 113.257812 42.886719 114.066406 C 43.425781 114.871094 43.695312 116.042969 43.695312 117.582031 C 43.695312 119.117188 43.425781 120.289062 42.886719 121.097656 C 42.347656 121.902344 41.566406 122.308594 40.542969 122.308594 C 39.523438 122.308594 38.742188 121.902344 38.203125 121.097656 C 37.664062 120.289062 37.394531 119.117188 37.394531 117.582031 C 37.394531 116.042969 37.664062 114.871094 38.203125 114.066406 C 38.742188 113.257812 39.523438 112.851562 40.542969 112.851562 Z M 40.542969 112.851562 "/>
<path style=" stroke:none;fill-rule:nonzero;fill:rgb(0%,0%,0%);fill-opacity:1;" d="M 45.859375 120.578125 L 47.148438 120.578125 L 47.148438 122.128906 L 45.859375 122.128906 Z M 45.859375 120.578125 "/>
<path style=" stroke:none;fill-rule:nonzero;fill:rgb(0%,0%,0%);fill-opacity:1;" d="M 52.472656 113.828125 C 51.835938 113.828125 51.359375 114.140625 51.039062 114.765625 C 50.71875 115.390625 50.5625 116.328125 50.5625 117.582031 C 50.5625 118.832031 50.71875 119.769531 51.039062 120.394531 C 51.359375 121.019531 51.835938 121.332031 52.472656 121.332031 C 53.109375 121.332031 53.589844 121.019531 53.910156 120.394531 C 54.230469 119.769531 54.390625 118.832031 54.390625 117.582031 C 54.390625 116.328125 54.230469 115.390625 53.910156 114.765625 C 53.589844 114.140625 53.109375 113.828125 52.472656 113.828125 Z M 52.472656 112.851562 C 53.492188 112.851562 54.273438 113.257812 54.8125 114.066406 C 55.351562 114.871094 55.621094 116.042969 55.621094 117.582031 C 55.621094 119.117188 55.351562 120.289062 54.8125 121.097656 C 54.273438 121.902344 53.492188 122.308594 52.472656 122.308594 C 51.449219 122.308594 50.671875 121.902344 50.132812 121.097656 C 49.59375 120.289062 49.324219 119.117188 49.324219 117.582031 C 49.324219 116.042969 49.59375 114.871094 50.132812 114.066406 C 50.671875 113.257812 51.449219 112.851562 52.472656 112.851562 Z M 52.472656 112.851562 "/>
<g clip-path="url(#clip10)" clip-rule="nonzero">
<path style="fill:none;stroke-width:0.8;stroke-linecap:square;stroke-linejoin:round;stroke:rgb(69.019608%,69.019608%,69.019608%);stroke-opacity:1;stroke-miterlimit:4;" d="M 52.1625 69.540625 L 386.9625 69.540625 " transform="matrix(1.25,0,0,1.25,0,0)"/>
</g>
<path style="fill:none;stroke-width:0.8;stroke-linecap:butt;stroke-linejoin:round;stroke:rgb(0%,0%,0%);stroke-opacity:1;stroke-miterlimit:4;" d="M 0.001562 0.000467 L -3.498438 0.000467 " transform="matrix(1.25,0,0,1.25,65.201172,86.925198)"/>
<path style=" stroke:none;fill-rule:nonzero;fill:rgb(0%,0%,0%);fill-opacity:1;" d="M 40.542969 83.375 C 39.910156 83.375 39.433594 83.6875 39.113281 84.3125 C 38.792969 84.933594 38.632812 85.875 38.632812 87.128906 C 38.632812 88.375 38.792969 89.3125 39.113281 89.9375 C 39.433594 90.5625 39.910156 90.875 40.542969 90.875 C 41.183594 90.875 41.664062 90.5625 41.980469 89.9375 C 42.300781 89.3125 42.460938 88.375 42.460938 87.128906 C 42.460938 85.875 42.300781 84.933594 41.980469 84.3125 C 41.664062 83.6875 41.183594 83.375 40.542969 83.375 Z M 40.542969 82.398438 C 41.566406 82.398438 42.347656 82.800781 42.886719 83.609375 C 43.425781 84.417969 43.695312 85.589844 43.695312 87.128906 C 43.695312 88.660156 43.425781 89.832031 42.886719 90.640625 C 42.347656 91.449219 41.566406 91.851562 40.542969 91.851562 C 39.523438 91.851562 38.742188 91.449219 38.203125 90.640625 C 37.664062 89.832031 37.394531 88.660156 37.394531 87.128906 C 37.394531 85.589844 37.664062 84.417969 38.203125 83.609375 C 38.742188 82.800781 39.523438 82.398438 40.542969 82.398438 Z M 40.542969 82.398438 "/>
<path style=" stroke:none;fill-rule:nonzero;fill:rgb(0%,0%,0%);fill-opacity:1;" d="M 45.859375 90.125 L 47.148438 90.125 L 47.148438 91.675781 L 45.859375 91.675781 Z M 45.859375 90.125 "/>
<path style=" stroke:none;fill-rule:nonzero;fill:rgb(0%,0%,0%);fill-opacity:1;" d="M 49.847656 82.5625 L 54.6875 82.5625 L 54.6875 83.601562 L 50.976562 83.601562 L 50.976562 85.832031 C 51.15625 85.769531 51.332031 85.726562 51.511719 85.695312 C 51.691406 85.664062 51.871094 85.652344 52.050781 85.652344 C 53.066406 85.652344 53.875 85.929688 54.46875 86.488281 C 55.0625 87.042969 55.359375 87.796875 55.359375 88.75 C 55.359375 89.730469 55.054688 90.492188 54.445312 91.039062 C 53.832031 91.582031 52.972656 91.851562 51.863281 91.851562 C 51.480469 91.851562 51.089844 91.820312 50.691406 91.753906 C 50.296875 91.6875 49.886719 91.589844 49.464844 91.460938 L 49.464844 90.222656 C 49.828125 90.421875 50.207031 90.570312 50.597656 90.667969 C 50.988281 90.765625 51.402344 90.8125 51.835938 90.8125 C 52.539062 90.8125 53.097656 90.628906 53.507812 90.257812 C 53.917969 89.886719 54.125 89.386719 54.125 88.75 C 54.125 88.117188 53.917969 87.613281 53.507812 87.246094 C 53.097656 86.875 52.539062 86.6875 51.835938 86.6875 C 51.507812 86.6875 51.179688 86.722656 50.851562 86.796875 C 50.523438 86.871094 50.1875 86.984375 49.847656 87.140625 Z M 49.847656 82.5625 "/>
<g clip-path="url(#clip11)" clip-rule="nonzero">
<path style="fill:none;stroke-width:0.8;stroke-linecap:square;stroke-linejoin:round;stroke:rgb(69.019608%,69.019608%,69.019608%);stroke-opacity:1;stroke-miterlimit:4;" d="M 52.1625 45.175 L 386.9625 45.175 " transform="matrix(1.25,0,0,1.25,0,0)"/>
</g>
<path style="fill:none;stroke-width:0.8;stroke-linecap:butt;stroke-linejoin:round;stroke:rgb(0%,0%,0%);stroke-opacity:1;stroke-miterlimit:4;" d="M 0.001562 -0.001299 L -3.498438 -0.001299 " transform="matrix(1.25,0,0,1.25,65.201172,56.470374)"/>
<path style=" stroke:none;fill-rule:nonzero;fill:rgb(0%,0%,0%);fill-opacity:1;" d="M 38.121094 60.183594 L 40.136719 60.183594 L 40.136719 53.230469 L 37.945312 53.667969 L 37.945312 52.546875 L 40.125 52.105469 L 41.355469 52.105469 L 41.355469 60.183594 L 43.371094 60.183594 L 43.371094 61.21875 L 38.121094 61.21875 Z M 38.121094 60.183594 "/>
<path style=" stroke:none;fill-rule:nonzero;fill:rgb(0%,0%,0%);fill-opacity:1;" d="M 45.859375 59.667969 L 47.148438 59.667969 L 47.148438 61.21875 L 45.859375 61.21875 Z M 45.859375 59.667969 "/>
<path style=" stroke:none;fill-rule:nonzero;fill:rgb(0%,0%,0%);fill-opacity:1;" d="M 52.472656 52.917969 C 51.835938 52.917969 51.359375 53.230469 51.039062 53.855469 C 50.71875 54.480469 50.5625 55.417969 50.5625 56.671875 C 50.5625 57.921875 50.71875 58.859375 51.039062 59.484375 C 51.359375 60.109375 51.835938 60.421875 52.472656 60.421875 C 53.109375 60.421875 53.589844 60.109375 53.910156 59.484375 C 54.230469 58.859375 54.390625 57.921875 54.390625 56.671875 C 54.390625 55.417969 54.230469 54.480469 53.910156 53.855469 C 53.589844 53.230469 53.109375 52.917969 52.472656 52.917969 Z M 52.472656 51.941406 C 53.492188 51.941406 54.273438 52.347656 54.8125 53.15625 C 55.351562 53.960938 55.621094 55.132812 55.621094 56.671875 C 55.621094 58.207031 55.351562 59.378906 54.8125 60.1875 C 54.273438 60.992188 53.492188 61.398438 52.472656 61.398438 C 51.449219 61.398438 50.671875 60.992188 50.132812 60.1875 C 49.59375 59.378906 49.324219 58.207031 49.324219 56.671875 C 49.324219 55.132812 49.59375 53.960938 50.132812 53.15625 C 50.671875 52.347656 51.449219 51.941406 52.472656 51.941406 Z M 52.472656 51.941406 "/>
<g clip-path="url(#clip12)" clip-rule="nonzero">
<path style="fill:none;stroke-width:0.8;stroke-linecap:square;stroke-linejoin:round;stroke:rgb(69.019608%,69.019608%,69.019608%);stroke-opacity:1;stroke-miterlimit:4;" d="M 52.1625 20.8125 L 386.9625 20.8125 " transform="matrix(1.25,0,0,1.25,0,0)"/>
</g>
<path style="fill:none;stroke-width:0.8;stroke-linecap:butt;stroke-linejoin:round;stroke:rgb(0%,0%,0%);stroke-opacity:1;stroke-miterlimit:4;" d="M 0.001562 0.000059 L -3.498438 0.000059 " transform="matrix(1.25,0,0,1.25,65.201172,26.015551)"/>
<path style=" stroke:none;fill-rule:nonzero;fill:rgb(0%,0%,0%);fill-opacity:1;" d="M 38.121094 29.726562 L 40.136719 29.726562 L 40.136719 22.773438 L 37.945312 23.214844 L 37.945312 22.089844 L 40.125 21.652344 L 41.355469 21.652344 L 41.355469 29.726562 L 43.371094 29.726562 L 43.371094 30.765625 L 38.121094 30.765625 Z M 38.121094 29.726562 "/>
<path style=" stroke:none;fill-rule:nonzero;fill:rgb(0%,0%,0%);fill-opacity:1;" d="M 45.859375 29.214844 L 47.148438 29.214844 L 47.148438 30.765625 L 45.859375 30.765625 Z M 45.859375 29.214844 "/>
<path style=" stroke:none;fill-rule:nonzero;fill:rgb(0%,0%,0%);fill-opacity:1;" d="M 49.847656 21.652344 L 54.6875 21.652344 L 54.6875 22.691406 L 50.976562 22.691406 L 50.976562 24.921875 C 51.15625 24.863281 51.332031 24.816406 51.511719 24.785156 C 51.691406 24.757812 51.871094 24.742188 52.050781 24.742188 C 53.066406 24.742188 53.875 25.019531 54.46875 25.578125 C 55.0625 26.132812 55.359375 26.890625 55.359375 27.839844 C 55.359375 28.820312 55.054688 29.582031 54.445312 30.128906 C 53.832031 30.671875 52.972656 30.941406 51.863281 30.941406 C 51.480469 30.941406 51.089844 30.910156 50.691406 30.84375 C 50.296875 30.78125 49.886719 30.683594 49.464844 30.550781 L 49.464844 29.3125 C 49.828125 29.511719 50.207031 29.660156 50.597656 29.757812 C 50.988281 29.855469 51.402344 29.902344 51.835938 29.902344 C 52.539062 29.902344 53.097656 29.71875 53.507812 29.347656 C 53.917969 28.980469 54.125 28.476562 54.125 27.839844 C 54.125 27.207031 53.917969 26.703125 53.507812 26.335938 C 53.097656 25.964844 52.539062 25.777344 51.835938 25.777344 C 51.507812 25.777344 51.179688 25.816406 50.851562 25.886719 C 50.523438 25.960938 50.1875 26.074219 49.847656 26.230469 Z M 49.847656 21.652344 "/>
<path style=" stroke:none;fill-rule:nonzero;fill:rgb(0%,0%,0%);fill-opacity:1;" d="M 11.664062 109.789062 L 14.988281 112.261719 L 18.5 109.660156 L 18.5 110.984375 L 15.8125 112.976562 L 18.5 114.964844 L 18.5 116.289062 L 14.921875 113.632812 L 11.664062 116.0625 L 11.664062 114.738281 L 14.097656 112.925781 L 11.664062 111.113281 Z M 11.664062 109.789062 "/>
<g clip-path="url(#clip13)" clip-rule="nonzero">
<path style="fill:none;stroke-width:1.5;stroke-linecap:square;stroke-linejoin:round;stroke:rgb(12.156863%,46.666667%,70.588235%);stroke-opacity:1;stroke-miterlimit:4;" d="M 52.1625 74.121875 L 52.496875 82.975 L 52.83125 86.559375 L 53.165625 83.003125 L 53.5 82.640625 L 53.8375 85.2 L 54.171875 78.028125 L 54.50625 82.5625 L 54.840625 78.88125 L 55.178125 63.1875 L 55.5125 104.8 L 55.846875 101.528125 L 56.18125 77.359375 L 56.51875 78.59375 L 56.853125 98.553125 L 57.1875 92.06875 L 57.521875 78.071875 L 57.859375 102.228125 L 58.19375 83.278125 L 58.528125 79.36875 L 58.8625 72.546875 L 59.2 101.834375 L 59.534375 93.328125 L 59.86875 89.721875 L 60.203125 77.825 L 60.540625 81.70625 L 60.875 64.4625 L 61.209375 84.68125 L 61.54375 78.421875 L 61.88125 67.9 L 62.215625 67.109375 L 62.55 60.178125 L 62.884375 101.99375 L 63.221875 74.309375 L 63.55625 67.065625 L 64.225 89.228125 L 64.5625 80.30625 L 64.896875 48.521875 L 65.23125 72.534375 L 65.565625 77.365625 L 65.9 74.071875 L 66.2375 83.1625 L 66.571875 64.11875 L 66.90625 82.453125 L 67.240625 82.78125 L 67.578125 63.034375 L 67.9125 56.478125 L 68.246875 74.5125 L 68.58125 77.6625 L 68.91875 79.40625 L 69.5875 69.246875 L 69.921875 67.675 L 70.259375 69.621875 L 70.59375 61.959375 L 70.928125 70.971875 L 71.2625 63.43125 L 71.6 70.3625 L 71.934375 67.025 L 72.26875 66.296875 L 72.603125 58.596875 L 72.940625 74.559375 L 73.275 57.759375 L 73.609375 52.9375 L 73.94375 52.3 L 74.28125 49.7125 L 74.615625 69.071875 L 74.95 76.703125 L 75.284375 58.765625 L 75.621875 70.915625 L 75.95625 68.628125 L 76.290625 76.121875 L 76.625 54.721875 L 76.9625 57.86875 L 77.63125 54.246875 L 78.3 79.934375 L 78.6375 56.85625 L 78.971875 52.63125 L 79.30625 52.453125 L 79.640625 55.078125 L 79.978125 61.15 L 80.3125 44.971875 L 80.646875 46.84375 L 80.98125 68.340625 L 81.31875 52.221875 L 81.653125 58.853125 L 81.9875 61.546875 L 82.321875 66.296875 L 82.659375 57.934375 L 82.99375 54.134375 L 83.328125 58.7875 L 83.6625 57.171875 L 84 61.659375 L 84.334375 59.79375 L 84.66875 42.115625 L 85.003125 46.375 L 85.340625 61.90625 L 85.675 43.290625 L 86.009375 50.471875 L 86.34375 61.90625 L 86.68125 57.675 L 87.015625 60.784375 L 87.35 31.671875 L 88.021875 55.475 L 88.35625 47.265625 L 88.690625 45.846875 L 89.025 49.09375 L 89.3625 50.76875 L 89.696875 57.478125 L 90.365625 40.765625 L 90.7 43.428125 L 91.0375 39.509375 L 91.70625 58.45 L 92.040625 41.859375 L 92.378125 36.340625 L 92.7125 62.009375 L 93.046875 51.10625 L 93.38125 33.425 L 93.71875 30.2375 L 94.053125 54.81875 L 94.3875 49.478125 L 94.721875 38.675 L 95.059375 36.546875 L 95.39375 55.303125 L 95.728125 33.59375 L 96.4 54.596875 L 97.06875 34.6875 L 97.740625 47.325 L 98.075 54.56875 L 98.409375 41.00625 L 98.74375 41.859375 L 99.08125 53.728125 L 99.415625 50.771875 L 99.75 21.53125 L 100.084375 32.55625 L 100.421875 38.04375 L 100.75625 38.846875 L 101.090625 45.125 L 101.7625 50.015625 L 102.096875 48.865625 L 102.43125 46.6625 L 102.765625 50.065625 L 103.1 47.35 L 103.771875 64.23125 L 104.10625 49.48125 L 104.440625 43.334375 L 104.778125 61.8125 L 105.1125 49.55625 L 105.446875 21.10625 L 105.78125 29.66875 L 106.11875 34.84375 L 106.453125 42.628125 L 106.7875 40.8125 L 107.121875 55.9125 L 107.459375 59.60625 L 108.128125 36.2 L 108.4625 45.0375 L 108.8 14.759375 L 109.134375 45.084375 L 109.46875 42.51875 L 109.803125 37.96875 L 110.140625 55.184375 L 110.475 56.1625 L 110.809375 46.496875 L 111.14375 48.028125 L 111.48125 38.634375 L 111.815625 52.53125 L 112.15 37.84375 L 112.484375 40.98125 L 112.821875 33.2375 L 113.15625 39.44375 L 113.490625 60.496875 L 113.825 50.278125 L 114.1625 47.6875 L 114.496875 46.425 L 114.83125 50.85625 L 115.165625 48.271875 L 115.5 49.8375 L 115.8375 39.20625 L 116.171875 44.025 L 116.50625 41.825 L 116.840625 60.953125 L 117.178125 44.6625 L 117.5125 39.875 L 117.846875 58.05 L 118.18125 31.08125 L 118.51875 47.3625 L 118.853125 53.540625 L 119.1875 56.515625 L 119.859375 39.10625 L 120.19375 52.21875 L 120.528125 39.25625 L 120.8625 46.240625 L 121.2 41.975 L 121.534375 53.846875 L 121.86875 52.55 L 122.203125 58.159375 L 122.540625 46.8625 L 122.875 63.584375 L 123.209375 48.815625 L 123.54375 59.66875 L 123.88125 63.53125 L 124.215625 59.23125 L 124.55 66.809375 L 124.884375 45.553125 L 125.55625 66.621875 L 125.890625 58.425 L 126.225 53.025 L 126.5625 39.028125 L 126.896875 67.9 L 127.565625 39.890625 L 127.9 46.50625 L 128.2375 55.659375 L 128.571875 56.1875 L 128.90625 51.803125 L 129.578125 55.26875 L 129.9125 54.75 L 130.246875 64.196875 L 130.58125 67.98125 L 130.91875 61.59375 L 131.253125 66.4875 L 131.5875 51.615625 L 131.921875 67.834375 L 132.259375 55.915625 L 132.59375 58.953125 L 132.928125 76.571875 L 133.2625 40.996875 L 133.6 73.10625 L 133.934375 71.85625 L 134.26875 51.203125 L 134.940625 80.934375 L 135.275 44.6875 L 135.609375 67.69375 L 135.94375 69.478125 L 136.28125 77.990625 L 136.615625 63.034375 L 136.95 64.08125 L 137.284375 60.58125 L 137.621875 58.38125 L 137.95625 76.365625 L 138.290625 53.871875 L 138.625 74.11875 L 138.9625 72.1 L 139.296875 78.896875 L 139.63125 78.690625 L 139.965625 71.5 L 140.3 67.015625 L 140.6375 80.978125 L 140.971875 74.0625 L 141.30625 82.309375 L 141.640625 74.4 L 141.978125 56.45 L 142.3125 65.275 L 142.646875 57.0875 L 142.98125 81.95 L 143.31875 67.81875 L 143.653125 60.834375 L 143.9875 80.971875 L 144.321875 56.775 L 144.659375 77.153125 L 144.99375 77.33125 L 145.328125 82.815625 L 145.6625 62.896875 L 146 101.728125 L 146.334375 89.60625 L 146.66875 91.74375 L 147.340625 69.965625 L 147.675 76.090625 L 148.009375 99.109375 L 148.34375 96.7375 L 148.68125 72.75625 L 149.015625 84.190625 L 149.35 80.784375 L 149.684375 80.4625 L 150.021875 87.559375 L 150.35625 72.00625 L 150.690625 100.38125 L 151.025 82.765625 L 151.696875 72.484375 L 152.03125 78.23125 L 152.365625 91.29375 L 152.7 84.315625 L 153.0375 82.234375 L 153.371875 85.79375 L 153.70625 96.796875 L 154.040625 84.31875 L 154.378125 76.75625 L 154.7125 82.878125 L 155.046875 73.440625 L 155.38125 94.434375 L 155.71875 90.928125 L 156.053125 95.05 L 156.3875 88.54375 L 156.721875 95.29375 L 157.059375 91.1875 L 157.39375 93.996875 L 157.728125 106.359375 L 158.0625 100.121875 L 158.4 124.55625 L 158.734375 98.440625 L 159.06875 92.63125 L 159.403125 111.99375 L 159.740625 101.775 L 160.075 112.959375 L 160.409375 94.003125 L 160.74375 96.975 L 161.08125 94.021875 L 161.415625 101.484375 L 161.75 92.55625 L 162.084375 113.659375 L 162.421875 99.81875 L 162.75625 104.740625 L 163.090625 96.428125 L 163.425 110.81875 L 163.7625 87.8875 L 164.096875 110.959375 L 164.43125 111.3625 L 164.765625 107.884375 L 165.4375 87.54375 L 165.771875 107.975 L 166.10625 110.809375 L 166.440625 107.19375 L 166.778125 106.440625 L 167.1125 96.321875 L 167.446875 115.790625 L 167.78125 118.259375 L 168.11875 106.940625 L 168.453125 102.409375 L 168.7875 89.18125 L 169.121875 109.69375 L 169.459375 117.615625 L 169.79375 117.203125 L 170.128125 97.80625 L 170.4625 123.859375 L 171.134375 111.796875 L 171.46875 101.81875 L 171.803125 119.903125 L 172.140625 120.98125 L 172.475 114.140625 L 172.809375 115.840625 L 173.14375 118.5625 L 173.48125 129.871875 L 173.815625 114.43125 L 174.15 110.453125 L 174.484375 121.6 L 174.821875 122.778125 L 175.15625 126.896875 L 175.490625 123.103125 L 175.825 109.965625 L 176.1625 126.44375 L 176.496875 109.16875 L 176.83125 133.9 L 177.165625 118.0375 L 177.5 115.984375 L 178.171875 139.225 L 178.50625 116.11875 L 178.840625 129.403125 L 179.178125 113.709375 L 179.846875 126.56875 L 180.18125 115.228125 L 180.51875 129.28125 L 180.853125 125.91875 L 181.1875 115.175 L 181.521875 119.2625 L 181.859375 137.784375 L 182.19375 128.525 L 182.528125 103.565625 L 182.8625 125.028125 L 183.2 133.2625 L 183.534375 126.565625 L 183.86875 130.70625 L 184.203125 142.721875 L 184.540625 126.26875 L 184.875 135.90625 L 185.209375 132.45625 L 185.54375 149.4125 L 185.88125 129.603125 L 186.215625 130.00625 L 186.55 140.7625 L 186.884375 134.9875 L 187.221875 133.315625 L 187.55625 128.859375 L 187.890625 136.659375 L 188.225 126.315625 L 188.5625 123.609375 L 188.896875 138.7875 L 189.23125 147.509375 L 189.565625 125.871875 L 190.2375 151.15625 L 190.571875 123.475 L 190.90625 152.10625 L 191.240625 126.896875 L 191.578125 149.2375 L 191.9125 135.8875 L 192.246875 132.090625 L 192.91875 137.784375 L 193.253125 138.578125 L 193.5875 136.396875 L 193.921875 136.81875 L 194.259375 154.659375 L 194.59375 136.728125 L 194.928125 145.66875 L 195.2625 148.315625 L 195.6 126.13125 L 195.934375 153.3375 L 196.26875 154.2375 L 196.603125 123.903125 L 196.940625 138.5125 L 197.275 136.909375 L 197.609375 144.409375 L 197.94375 136.5125 L 198.28125 131.984375 L 198.615625 150.4875 L 198.95 138.11875 L 199.284375 142.125 L 199.621875 129.790625 L 199.95625 146.859375 L 200.290625 137.65625 L 200.625 159.034375 L 200.9625 143.2875 L 201.296875 140.89375 L 201.63125 154.003125 L 201.965625 155.796875 L 202.3 141.996875 L 202.6375 141.875 L 202.971875 143.4125 L 203.30625 141.521875 L 203.640625 158.190625 L 203.978125 137.503125 L 204.3125 153.178125 L 204.646875 141.4625 L 204.98125 143.13125 L 205.31875 133.890625 L 205.653125 136.49375 L 205.9875 149.425 L 206.659375 140.1125 L 206.99375 144.8875 L 207.328125 145.76875 L 207.6625 138.25 L 208 146.85 L 208.334375 141.284375 L 208.66875 143.834375 L 209.003125 158.903125 L 209.340625 154.546875 L 209.675 165.959375 L 210.009375 134.825 L 210.34375 138.671875 L 210.68125 151.36875 L 211.015625 133.46875 L 211.35 164.49375 L 211.684375 144.528125 L 212.021875 150.85 L 212.35625 150.915625 L 212.690625 155.378125 L 213.025 128.63125 L 213.3625 144.496875 L 213.696875 148.0875 L 214.03125 146.1375 L 214.365625 124.878125 L 214.7 134.325 L 215.0375 155.503125 L 215.371875 146.753125 L 216.040625 145.3875 L 216.378125 149.815625 L 216.7125 143.821875 L 217.046875 142.06875 L 217.38125 135.953125 L 217.71875 144.225 L 218.053125 146.465625 L 218.3875 156.775 L 218.721875 151.134375 L 219.059375 120.228125 L 219.39375 141.621875 L 219.728125 143.75 L 220.0625 126.05625 L 220.4 138.446875 L 220.734375 157.1375 L 221.06875 143.86875 L 221.403125 153.9375 L 221.740625 127.584375 L 222.075 143.55 L 222.409375 130.3125 L 222.74375 147.35625 L 223.08125 136.63125 L 223.415625 134.19375 L 223.75 134.36875 L 224.084375 133.81875 L 224.421875 138.478125 L 224.75625 156.34375 L 225.090625 144.878125 L 225.425 153.590625 L 225.7625 124.715625 L 226.096875 134.8 L 226.765625 141.50625 L 227.1 140.68125 L 227.4375 137.49375 L 227.771875 139.025 L 228.10625 134.946875 L 228.440625 127.365625 L 228.778125 132.09375 L 229.1125 127.946875 L 229.446875 142.16875 L 229.78125 150.509375 L 230.11875 119.884375 L 230.453125 126.565625 L 230.7875 142.409375 L 231.121875 137.978125 L 231.459375 153.415625 L 231.79375 131.73125 L 232.128125 133.38125 L 232.4625 133.00625 L 232.8 122.5125 L 233.134375 116.659375 L 233.803125 145.178125 L 234.140625 125.20625 L 234.475 139.271875 L 234.809375 128.71875 L 235.14375 132.584375 L 235.815625 117.534375 L 236.15 126.709375 L 236.484375 126.6625 L 236.821875 125.540625 L 237.15625 129.728125 L 237.490625 129.103125 L 237.825 136.63125 L 238.1625 112.48125 L 238.496875 131.59375 L 238.83125 105.31875 L 239.165625 141.39375 L 239.5 131.446875 L 239.8375 126.596875 L 240.171875 132.709375 L 240.50625 155.684375 L 240.840625 110.265625 L 241.178125 121.8125 L 241.5125 129.328125 L 241.846875 109.059375 L 242.51875 127.93125 L 242.853125 127.65625 L 243.1875 101.1 L 243.521875 114.684375 L 243.859375 116.484375 L 244.19375 134.51875 L 244.528125 115.45 L 244.8625 110.55625 L 245.2 119.553125 L 245.534375 116.125 L 245.86875 102.515625 L 246.203125 120.015625 L 246.540625 119.94375 L 246.875 133.978125 L 247.209375 100.9375 L 247.54375 116.1625 L 247.88125 110.8375 L 248.215625 119.84375 L 248.55 93.59375 L 248.884375 113.915625 L 249.221875 102.7375 L 249.55625 113.634375 L 249.890625 118.30625 L 250.225 108.55625 L 250.5625 103.509375 L 250.896875 107.065625 L 251.23125 100.6 L 251.565625 101.590625 L 251.9 101.25625 L 252.571875 99.00625 L 252.90625 98.934375 L 253.240625 100.340625 L 253.578125 116.971875 L 253.9125 106.871875 L 254.246875 108.428125 L 254.58125 108.475 L 254.91875 104.296875 L 255.253125 115.703125 L 255.5875 90.16875 L 255.921875 100.2125 L 256.259375 99.06875 L 256.59375 104.55 L 256.928125 88.10625 L 257.6 122.51875 L 257.934375 111.090625 L 258.26875 86.08125 L 258.603125 99.778125 L 258.940625 99.8625 L 259.275 104.278125 L 259.609375 98.521875 L 259.94375 105.803125 L 260.28125 93.7375 L 260.615625 108.040625 L 260.95 95.45625 L 261.284375 88.68125 L 261.621875 100.846875 L 261.95625 88.4625 L 262.290625 98.871875 L 262.625 94.60625 L 262.9625 97.809375 L 263.63125 82.496875 L 264.3 97.040625 L 264.6375 93.121875 L 264.971875 105.1875 L 265.30625 95.00625 L 265.640625 99.63125 L 265.978125 88.209375 L 266.3125 85.971875 L 266.646875 85.278125 L 266.98125 81.29375 L 267.31875 82.303125 L 267.653125 98.896875 L 267.9875 92.928125 L 268.321875 70.871875 L 268.659375 77.84375 L 268.99375 78.10625 L 269.328125 66.709375 L 269.6625 95.76875 L 270 96.259375 L 270.334375 80.015625 L 270.66875 86.5125 L 271.003125 79.371875 L 271.340625 86.159375 L 271.675 76.040625 L 272.009375 77.784375 L 272.34375 86.99375 L 272.68125 75.471875 L 273.015625 85.446875 L 273.35 76.05 L 273.684375 89.54375 L 274.021875 92.565625 L 274.690625 70.259375 L 275.025 84.03125 L 275.359375 81.5375 L 275.696875 82.9125 L 276.03125 82.4875 L 276.365625 63.10625 L 276.7 66.89375 L 277.0375 80.7875 L 277.371875 68.821875 L 277.70625 88.59375 L 278.040625 61.478125 L 278.378125 78.659375 L 278.7125 67.296875 L 279.046875 69.665625 L 279.38125 73.8875 L 279.71875 74.146875 L 280.053125 65.215625 L 280.3875 69.6625 L 280.721875 70.13125 L 281.059375 56.315625 L 281.728125 77.265625 L 282.0625 49.475 L 282.4 65.69375 L 282.734375 52.034375 L 283.06875 73.640625 L 283.403125 67.603125 L 283.740625 71.021875 L 284.075 65.046875 L 284.409375 56.753125 L 284.74375 73.64375 L 285.08125 62.7125 L 285.415625 57.89375 L 285.75 64.3 L 286.084375 62.259375 L 286.421875 47.25625 L 286.75625 68.14375 L 287.090625 63.440625 L 287.425 82.4875 L 287.7625 53.71875 L 288.096875 70.590625 L 288.43125 64.51875 L 288.765625 55.05 L 289.1 62.959375 L 289.4375 64.3875 L 289.771875 72.19375 L 290.10625 65.184375 L 290.440625 54.85625 L 290.778125 61.2625 L 291.1125 50.259375 L 291.446875 50.3625 L 291.78125 60.025 L 292.453125 44.353125 L 292.7875 62.171875 L 293.121875 59.021875 L 293.459375 60.521875 L 293.79375 41.121875 L 294.128125 36.69375 L 294.4625 57.478125 L 294.8 44.359375 L 295.134375 53.075 L 295.46875 51.78125 L 295.803125 25.421875 L 296.140625 41.58125 L 296.475 42.365625 L 296.809375 58.021875 L 297.14375 50.471875 L 297.48125 48.328125 L 297.815625 32.165625 L 298.15 47.865625 L 298.484375 57.128125 L 298.821875 48.603125 L 299.15625 44.728125 L 299.490625 54.74375 L 299.825 44.178125 L 300.1625 37.859375 L 300.496875 37.64375 L 300.83125 62.81875 L 301.165625 64.19375 L 301.5 24.978125 L 301.8375 39.515625 L 302.171875 62.359375 L 302.50625 45.459375 L 302.840625 45.4625 L 303.178125 51.840625 L 303.5125 66.94375 L 303.846875 37.953125 L 304.18125 65.425 L 304.51875 38.846875 L 305.1875 62.05625 L 305.521875 35.3 L 305.859375 45.265625 L 306.528125 53.45 L 306.8625 47.646875 L 307.2 44.34375 L 307.534375 60.3125 L 307.86875 67.325 L 308.203125 35.334375 L 308.875 45.9625 L 309.209375 34.146875 L 309.54375 43.465625 L 309.88125 47.984375 L 310.215625 42.98125 L 310.55 64.615625 L 310.884375 32.23125 L 311.221875 42.746875 L 311.55625 60.853125 L 311.890625 66.0125 L 312.225 38.634375 L 312.5625 44.384375 L 312.896875 56.06875 L 313.23125 41.94375 L 313.565625 56.08125 L 313.9 38.8625 L 314.2375 51.859375 L 314.571875 54.809375 L 314.90625 55.578125 L 315.240625 41.365625 L 315.578125 54.696875 L 315.9125 58.9375 L 316.246875 36.95625 L 316.58125 50.309375 L 316.91875 45.634375 L 317.253125 34.134375 L 317.5875 31.425 L 317.921875 56.353125 L 318.259375 66.978125 L 318.59375 42.896875 L 318.928125 34.8 L 319.2625 44.259375 L 319.6 38.328125 L 319.934375 47.9 L 320.26875 40.203125 L 320.603125 40.41875 L 320.940625 24.671875 L 321.275 36.421875 L 321.609375 36.98125 L 321.94375 61.884375 L 322.28125 26.05625 L 322.615625 33.009375 L 322.95 50.946875 L 323.284375 42.209375 L 323.621875 45.1625 L 323.95625 31.028125 L 324.290625 39.55 L 324.625 54.4 L 324.9625 54.8 L 325.296875 55.68125 L 325.63125 37.759375 L 325.965625 46.015625 L 326.3 37.5125 L 326.6375 37.146875 L 326.971875 50.534375 L 327.30625 54.403125 L 327.640625 51.590625 L 327.978125 45.875 L 328.3125 43.428125 L 328.646875 42.609375 L 328.98125 46.2375 L 329.31875 62.9 L 329.653125 42.090625 L 329.9875 45.7375 L 330.321875 55.90625 L 330.659375 54.975 L 330.99375 62.94375 L 331.328125 42.553125 L 331.6625 46.75625 L 332 45.275 L 332.334375 61.840625 L 332.66875 43.878125 L 333.003125 43.84375 L 333.340625 44.94375 L 333.675 63.125 L 334.009375 30.5125 L 334.34375 46.928125 L 334.68125 46.209375 L 335.015625 59.24375 L 335.35 38.828125 L 335.684375 54.121875 L 336.021875 63.834375 L 336.35625 54.403125 L 336.690625 65.528125 L 337.025 58.80625 L 337.359375 43.95 L 337.696875 47.946875 L 338.03125 48.925 L 338.365625 46.596875 L 338.7 63.49375 L 339.0375 63.0875 L 339.371875 64.2375 L 339.70625 57.540625 L 340.040625 58.078125 L 340.378125 57.2625 L 340.7125 47.109375 L 341.046875 55.915625 L 341.38125 53.928125 L 341.71875 45.915625 L 342.053125 50.109375 L 342.3875 61.140625 L 342.721875 58.8625 L 343.059375 36.428125 L 343.39375 87.215625 L 343.728125 71.315625 L 344.0625 65.021875 L 344.4 71.875 L 344.734375 66.121875 L 345.06875 56.459375 L 345.403125 67.015625 L 345.740625 63.353125 L 346.075 53.053125 L 346.74375 84.0625 L 347.08125 83.4875 L 347.415625 71.965625 L 347.75 75.98125 L 348.084375 38.003125 L 348.421875 72.409375 L 348.75625 69.09375 L 349.090625 90.146875 L 349.425 76.753125 L 349.7625 72.459375 L 350.096875 63.296875 L 350.43125 72.959375 L 350.765625 76.990625 L 351.1 78.85 L 351.4375 73.271875 L 351.771875 57.021875 L 352.10625 64.934375 L 352.440625 64.015625 L 352.778125 65.721875 L 353.1125 74.66875 L 353.446875 86.8375 L 353.78125 63.953125 L 354.11875 65.665625 L 354.453125 79.10625 L 354.7875 101.45 L 355.121875 73.6 L 355.459375 80.896875 L 355.79375 77.590625 L 356.128125 71 L 356.4625 89.259375 L 356.8 92.559375 L 357.134375 87.125 L 357.46875 79.08125 L 357.803125 95.4875 L 358.140625 58.546875 L 358.475 77.51875 L 358.809375 83.134375 L 359.14375 94.28125 L 359.48125 75.85625 L 359.815625 65.075 L 360.15 65.321875 L 360.484375 92.3625 L 360.821875 71.86875 L 361.15625 82.86875 L 361.490625 87.69375 L 361.825 78.2 L 362.1625 87.078125 L 362.496875 82.4625 L 362.83125 84.075 L 363.165625 93.271875 L 363.8375 75.409375 L 364.171875 88.7625 L 364.50625 93.840625 L 364.840625 119.425 L 365.178125 92.525 L 365.5125 84.975 L 365.846875 93.140625 L 366.18125 104.509375 L 366.51875 92.915625 L 366.853125 93.2125 L 367.1875 86.35625 L 367.521875 108.715625 L 367.859375 90.903125 L 368.19375 107.859375 L 368.528125 98.096875 L 369.2 84.471875 L 369.534375 89.490625 L 369.86875 106.340625 L 370.203125 107.35 L 370.540625 100.36875 L 370.875 103.0625 L 371.209375 104.3625 L 371.54375 91.68125 L 371.88125 114.1375 L 372.215625 106.6 L 372.55 108.584375 L 372.884375 92.21875 L 373.221875 101.01875 L 373.55625 116.296875 L 373.890625 96.99375 L 374.225 118.953125 L 374.5625 122.5625 L 374.896875 100.5125 L 375.23125 121.14375 L 375.565625 106.76875 L 376.2375 105.521875 L 376.571875 128.921875 L 376.90625 115.41875 L 377.240625 106.553125 L 377.578125 113.096875 L 377.9125 112.675 L 378.246875 108.175 L 378.58125 91.721875 L 378.91875 115.765625 L 379.253125 129.440625 L 379.5875 98.584375 L 379.921875 100.003125 L 380.259375 100.49375 L 380.59375 102.928125 L 380.928125 96.9125 L 381.6 128.475 L 381.934375 113.6875 L 382.26875 112.440625 L 382.603125 106.275 L 382.940625 118.3375 L 383.275 100.38125 L 383.609375 128.5625 L 383.94375 126.965625 L 384.28125 117.75625 L 384.615625 122.721875 L 384.95 118.7875 L 385.284375 103.746875 L 385.621875 103.71875 L 385.95625 111.165625 L 386.290625 144.334375 L 386.625 115.059375 L 386.9625 113.4875 " transform="matrix(1.25,0,0,1.25,0,0)"/>
</g>
<path style="fill:none;stroke-width:0.8;stroke-linecap:square;stroke-linejoin:miter;stroke:rgb(0%,0%,0%);stroke-opacity:1;stroke-miterlimit:4;" d="M 52.1625 173.51875 L 52.1625 7.2 " transform="matrix(1.25,0,0,1.25,0,0)"/>
<path style="fill:none;stroke-width:0.8;stroke-linecap:square;stroke-linejoin:miter;stroke:rgb(0%,0%,0%);stroke-opacity:1;stroke-miterlimit:4;" d="M 386.9625 173.51875 L 386.9625 7.2 " transform="matrix(1.25,0,0,1.25,0,0)"/>
<path style="fill:none;stroke-width:0.8;stroke-linecap:square;stroke-linejoin:miter;stroke:rgb(0%,0%,0%);stroke-opacity:1;stroke-miterlimit:4;" d="M 52.1625 173.51875 L 386.9625 173.51875 " transform="matrix(1.25,0,0,1.25,0,0)"/>
<path style="fill:none;stroke-width:0.8;stroke-linecap:square;stroke-linejoin:miter;stroke:rgb(0%,0%,0%);stroke-opacity:1;stroke-miterlimit:4;" d="M 52.1625 7.2 L 386.9625 7.2 " transform="matrix(1.25,0,0,1.25,0,0)"/>
</g>
</svg>
