<?xml version="1.0" encoding="UTF-8"?>
<svg xmlns="http://www.w3.org/2000/svg" xmlns:xlink="http://www.w3.org/1999/xlink" width="250pt" height="181pt" viewBox="0 0 250 181" version="1.1">
<g id="surface1">
<path style=" stroke:none;fill-rule:nonzero;fill:rgb(0%,0%,0%);fill-opacity:1;" d="M 12.121094 171.925781 L 12.121094 170.988281 L 17.453125 168.742188 L 17.453125 169.71875 L 13.214844 171.457031 L 17.453125 173.214844 L 17.453125 174.191406 Z M 12.121094 171.925781 "/>
<path style=" stroke:none;fill-rule:nonzero;fill:rgb(0%,0%,0%);fill-opacity:1;" d="M 22.617188 173.3125 L 23.59375 173.429688 C 23.488281 174.109375 23.214844 174.636719 22.773438 175.011719 C 22.328125 175.390625 21.789062 175.578125 21.152344 175.578125 C 20.355469 175.578125 19.71875 175.320312 19.238281 174.796875 C 18.753906 174.277344 18.515625 173.527344 18.515625 172.550781 C 18.515625 171.914062 18.617188 171.359375 18.828125 170.890625 C 19.035156 170.421875 19.347656 170.070312 19.765625 169.835938 C 20.195312 169.601562 20.664062 169.484375 21.171875 169.484375 C 21.796875 169.484375 22.308594 169.648438 22.714844 169.972656 C 23.117188 170.285156 23.378906 170.734375 23.496094 171.320312 L 22.539062 171.476562 C 22.445312 171.085938 22.285156 170.792969 22.050781 170.597656 C 21.816406 170.390625 21.535156 170.285156 21.210938 170.285156 C 20.703125 170.285156 20.292969 170.46875 19.980469 170.832031 C 19.679688 171.183594 19.53125 171.746094 19.53125 172.511719 C 19.53125 173.308594 19.679688 173.878906 19.980469 174.230469 C 20.277344 174.582031 20.667969 174.757812 21.152344 174.757812 C 21.542969 174.757812 21.867188 174.640625 22.128906 174.40625 C 22.386719 174.171875 22.550781 173.808594 22.617188 173.3125 Z M 22.617188 173.3125 "/>
<path style=" stroke:none;fill-rule:nonzero;fill:rgb(0%,0%,0%);fill-opacity:1;" d="M 24.414062 175.441406 L 24.414062 167.394531 L 25.390625 167.394531 L 25.390625 175.441406 Z M 24.414062 175.441406 "/>
<path style=" stroke:none;fill-rule:nonzero;fill:rgb(0%,0%,0%);fill-opacity:1;" d="M 26.542969 173.703125 L 27.519531 173.546875 C 27.566406 173.9375 27.71875 174.238281 27.96875 174.445312 C 28.226562 174.65625 28.578125 174.757812 29.023438 174.757812 C 29.476562 174.757812 29.8125 174.667969 30.039062 174.484375 C 30.257812 174.304688 30.371094 174.089844 30.371094 173.839844 C 30.371094 173.605469 30.273438 173.429688 30.078125 173.3125 C 29.929688 173.222656 29.59375 173.105469 29.0625 172.960938 C 28.328125 172.78125 27.820312 172.625 27.539062 172.492188 C 27.265625 172.363281 27.054688 172.179688 26.914062 171.945312 C 26.765625 171.710938 26.699219 171.453125 26.699219 171.164062 C 26.699219 170.90625 26.757812 170.664062 26.875 170.441406 C 26.992188 170.222656 27.152344 170.03125 27.363281 169.875 C 27.519531 169.773438 27.722656 169.679688 27.988281 169.601562 C 28.261719 169.523438 28.542969 169.484375 28.847656 169.484375 C 29.300781 169.484375 29.695312 169.550781 30.039062 169.679688 C 30.390625 169.8125 30.648438 169.988281 30.820312 170.207031 C 30.984375 170.429688 31.101562 170.730469 31.171875 171.105469 L 30.195312 171.242188 C 30.15625 170.945312 30.023438 170.710938 29.804688 170.539062 C 29.59375 170.371094 29.300781 170.285156 28.925781 170.285156 C 28.464844 170.285156 28.144531 170.363281 27.949219 170.519531 C 27.753906 170.664062 27.65625 170.839844 27.65625 171.046875 C 27.65625 171.179688 27.695312 171.289062 27.773438 171.378906 C 27.851562 171.496094 27.976562 171.589844 28.164062 171.652344 C 28.25 171.691406 28.539062 171.777344 29.023438 171.90625 C 29.726562 172.089844 30.214844 172.238281 30.488281 172.355469 C 30.769531 172.472656 30.996094 172.648438 31.152344 172.882812 C 31.308594 173.105469 31.386719 173.386719 31.386719 173.722656 C 31.386719 174.0625 31.289062 174.375 31.09375 174.660156 C 30.898438 174.949219 30.613281 175.175781 30.253906 175.34375 C 29.902344 175.5 29.492188 175.578125 29.023438 175.578125 C 28.265625 175.578125 27.683594 175.421875 27.285156 175.109375 C 26.894531 174.785156 26.644531 174.316406 26.542969 173.703125 Z M 26.542969 173.703125 "/>
<path style=" stroke:none;fill-rule:nonzero;fill:rgb(0%,0%,0%);fill-opacity:1;" d="M 37.773438 171.925781 L 32.441406 174.191406 L 32.441406 173.214844 L 36.660156 171.457031 L 32.441406 169.71875 L 32.441406 168.742188 L 37.773438 170.988281 Z M 37.773438 171.925781 "/>
<path style=" stroke:none;fill-rule:nonzero;fill:rgb(0%,0%,0%);fill-opacity:1;" d="M 56.035156 175.441406 L 56.035156 168.332031 L 53.398438 168.332031 L 53.398438 167.394531 L 59.765625 167.394531 L 59.765625 168.332031 L 57.109375 168.332031 L 57.109375 175.441406 Z M 56.035156 175.441406 "/>
<path style=" stroke:none;fill-rule:nonzero;fill:rgb(0%,0%,0%);fill-opacity:1;" d="M 60.738281 175.441406 L 60.738281 167.394531 L 61.734375 167.394531 L 61.734375 170.285156 C 62.1875 169.753906 62.769531 169.484375 63.472656 169.484375 C 63.902344 169.484375 64.273438 169.570312 64.585938 169.738281 C 64.90625 169.910156 65.136719 170.144531 65.269531 170.441406 C 65.410156 170.742188 65.484375 171.179688 65.484375 171.75 L 65.484375 175.441406 L 64.507812 175.441406 L 64.507812 171.75 C 64.507812 171.257812 64.394531 170.898438 64.175781 170.675781 C 63.964844 170.441406 63.667969 170.324219 63.277344 170.324219 C 62.972656 170.324219 62.695312 170.402344 62.4375 170.558594 C 62.171875 170.703125 61.992188 170.90625 61.890625 171.164062 C 61.78125 171.425781 61.734375 171.789062 61.734375 172.257812 L 61.734375 175.441406 Z M 60.738281 175.441406 "/>
<path style=" stroke:none;fill-rule:nonzero;fill:rgb(0%,0%,0%);fill-opacity:1;" d="M 66.988281 168.527344 L 66.988281 167.394531 L 67.984375 167.394531 L 67.984375 168.527344 Z M 66.988281 175.441406 L 66.988281 169.601562 L 67.984375 169.601562 L 67.984375 175.441406 Z M 66.988281 175.441406 "/>
<path style=" stroke:none;fill-rule:nonzero;fill:rgb(0%,0%,0%);fill-opacity:1;" d="M 69.09375 173.703125 L 70.070312 173.546875 C 70.121094 173.9375 70.269531 174.238281 70.519531 174.445312 C 70.777344 174.65625 71.128906 174.757812 71.574219 174.757812 C 72.027344 174.757812 72.367188 174.667969 72.589844 174.484375 C 72.808594 174.304688 72.921875 174.089844 72.921875 173.839844 C 72.921875 173.605469 72.824219 173.429688 72.628906 173.3125 C 72.484375 173.222656 72.144531 173.105469 71.613281 172.960938 C 70.882812 172.78125 70.375 172.625 70.089844 172.492188 C 69.816406 172.363281 69.605469 172.179688 69.464844 171.945312 C 69.320312 171.710938 69.25 171.453125 69.25 171.164062 C 69.25 170.90625 69.308594 170.664062 69.425781 170.441406 C 69.542969 170.222656 69.703125 170.03125 69.914062 169.875 C 70.070312 169.773438 70.277344 169.679688 70.539062 169.601562 C 70.8125 169.523438 71.097656 169.484375 71.398438 169.484375 C 71.851562 169.484375 72.25 169.550781 72.589844 169.679688 C 72.941406 169.8125 73.199219 169.988281 73.371094 170.207031 C 73.539062 170.429688 73.65625 170.730469 73.722656 171.105469 L 72.746094 171.242188 C 72.707031 170.945312 72.574219 170.710938 72.355469 170.539062 C 72.144531 170.371094 71.851562 170.285156 71.476562 170.285156 C 71.019531 170.285156 70.695312 170.363281 70.5 170.519531 C 70.304688 170.664062 70.207031 170.839844 70.207031 171.046875 C 70.207031 171.179688 70.246094 171.289062 70.324219 171.378906 C 70.402344 171.496094 70.53125 171.589844 70.714844 171.652344 C 70.804688 171.691406 71.089844 171.777344 71.574219 171.90625 C 72.277344 172.089844 72.765625 172.238281 73.039062 172.355469 C 73.324219 172.472656 73.546875 172.648438 73.703125 172.882812 C 73.859375 173.105469 73.9375 173.386719 73.9375 173.722656 C 73.9375 174.0625 73.839844 174.375 73.644531 174.660156 C 73.449219 174.949219 73.167969 175.175781 72.804688 175.34375 C 72.453125 175.5 72.042969 175.578125 71.574219 175.578125 C 70.816406 175.578125 70.238281 175.421875 69.835938 175.109375 C 69.445312 174.785156 69.195312 174.316406 69.09375 173.703125 Z M 69.09375 173.703125 "/>
<path style=" stroke:none;fill-rule:nonzero;fill:rgb(0%,0%,0%);fill-opacity:1;" d="M 91.195312 173.703125 L 92.171875 173.546875 C 92.21875 173.9375 92.371094 174.238281 92.621094 174.445312 C 92.878906 174.65625 93.230469 174.757812 93.675781 174.757812 C 94.128906 174.757812 94.464844 174.667969 94.691406 174.484375 C 94.910156 174.304688 95.023438 174.089844 95.023438 173.839844 C 95.023438 173.605469 94.925781 173.429688 94.730469 173.3125 C 94.582031 173.222656 94.246094 173.105469 93.714844 172.960938 C 92.980469 172.78125 92.472656 172.625 92.191406 172.492188 C 91.917969 172.363281 91.707031 172.179688 91.566406 171.945312 C 91.417969 171.710938 91.351562 171.453125 91.351562 171.164062 C 91.351562 170.90625 91.410156 170.664062 91.527344 170.441406 C 91.644531 170.222656 91.804688 170.03125 92.015625 169.875 C 92.171875 169.773438 92.375 169.679688 92.640625 169.601562 C 92.914062 169.523438 93.195312 169.484375 93.5 169.484375 C 93.953125 169.484375 94.347656 169.550781 94.691406 169.679688 C 95.042969 169.8125 95.300781 169.988281 95.472656 170.207031 C 95.636719 170.429688 95.753906 170.730469 95.824219 171.105469 L 94.847656 171.242188 C 94.808594 170.945312 94.675781 170.710938 94.457031 170.539062 C 94.246094 170.371094 93.953125 170.285156 93.578125 170.285156 C 93.117188 170.285156 92.796875 170.363281 92.601562 170.519531 C 92.40625 170.664062 92.308594 170.839844 92.308594 171.046875 C 92.308594 171.179688 92.347656 171.289062 92.425781 171.378906 C 92.503906 171.496094 92.628906 171.589844 92.816406 171.652344 C 92.902344 171.691406 93.191406 171.777344 93.675781 171.90625 C 94.378906 172.089844 94.867188 172.238281 95.140625 172.355469 C 95.421875 172.472656 95.648438 172.648438 95.804688 172.882812 C 95.960938 173.105469 96.039062 173.386719 96.039062 173.722656 C 96.039062 174.0625 95.941406 174.375 95.746094 174.660156 C 95.550781 174.949219 95.265625 175.175781 94.90625 175.34375 C 94.554688 175.5 94.144531 175.578125 93.675781 175.578125 C 92.917969 175.578125 92.335938 175.421875 91.9375 175.109375 C 91.546875 174.785156 91.296875 174.316406 91.195312 173.703125 Z M 91.195312 173.703125 "/>
<path style=" stroke:none;fill-rule:nonzero;fill:rgb(0%,0%,0%);fill-opacity:1;" d="M 97.210938 175.441406 L 97.210938 167.394531 L 98.207031 167.394531 L 98.207031 170.285156 C 98.660156 169.753906 99.242188 169.484375 99.945312 169.484375 C 100.375 169.484375 100.746094 169.570312 101.058594 169.738281 C 101.378906 169.910156 101.609375 170.144531 101.742188 170.441406 C 101.882812 170.742188 101.957031 171.179688 101.957031 171.75 L 101.957031 175.441406 L 100.980469 175.441406 L 100.980469 171.75 C 100.980469 171.257812 100.867188 170.898438 100.648438 170.675781 C 100.4375 170.441406 100.140625 170.324219 99.75 170.324219 C 99.445312 170.324219 99.167969 170.402344 98.910156 170.558594 C 98.644531 170.703125 98.464844 170.90625 98.363281 171.164062 C 98.253906 171.425781 98.207031 171.789062 98.207031 172.257812 L 98.207031 175.441406 Z M 97.210938 175.441406 "/>
<path style=" stroke:none;fill-rule:nonzero;fill:rgb(0%,0%,0%);fill-opacity:1;" d="M 103.097656 172.53125 C 103.097656 171.453125 103.394531 170.652344 103.996094 170.128906 C 104.503906 169.699219 105.113281 169.484375 105.832031 169.484375 C 106.636719 169.484375 107.296875 169.746094 107.804688 170.265625 C 108.3125 170.789062 108.566406 171.511719 108.566406 172.433594 C 108.566406 173.191406 108.449219 173.78125 108.214844 174.210938 C 107.988281 174.640625 107.667969 174.980469 107.238281 175.226562 C 106.808594 175.460938 106.339844 175.578125 105.832031 175.578125 C 105.011719 175.578125 104.347656 175.320312 103.839844 174.796875 C 103.339844 174.265625 103.097656 173.507812 103.097656 172.53125 Z M 104.113281 172.53125 C 104.113281 173.273438 104.273438 173.835938 104.601562 174.210938 C 104.921875 174.578125 105.332031 174.757812 105.832031 174.757812 C 106.324219 174.757812 106.734375 174.578125 107.0625 174.210938 C 107.382812 173.835938 107.550781 173.261719 107.550781 172.492188 C 107.550781 171.777344 107.382812 171.230469 107.0625 170.851562 C 106.734375 170.476562 106.324219 170.285156 105.832031 170.285156 C 105.332031 170.285156 104.921875 170.476562 104.601562 170.851562 C 104.273438 171.21875 104.113281 171.777344 104.113281 172.53125 Z M 104.113281 172.53125 "/>
<path style=" stroke:none;fill-rule:nonzero;fill:rgb(0%,0%,0%);fill-opacity:1;" d="M 110.796875 175.441406 L 109.019531 169.601562 L 110.035156 169.601562 L 110.972656 172.980469 L 111.304688 174.230469 C 111.316406 174.167969 111.421875 173.761719 111.617188 173.019531 L 112.535156 169.601562 L 113.550781 169.601562 L 114.429688 173 L 114.722656 174.113281 L 115.054688 172.980469 L 116.050781 169.601562 L 117.007812 169.601562 L 115.191406 175.441406 L 114.175781 175.441406 L 113.238281 171.945312 L 113.003906 170.949219 L 111.832031 175.441406 Z M 110.796875 175.441406 "/>
<path style=" stroke:none;fill-rule:nonzero;fill:rgb(0%,0%,0%);fill-opacity:1;" d="M 140.683594 168.527344 L 140.683594 167.394531 L 141.679688 167.394531 L 141.679688 168.527344 Z M 140.683594 175.441406 L 140.683594 169.601562 L 141.679688 169.601562 L 141.679688 175.441406 Z M 140.683594 175.441406 "/>
<path style=" stroke:none;fill-rule:nonzero;fill:rgb(0%,0%,0%);fill-opacity:1;" d="M 142.792969 173.703125 L 143.769531 173.546875 C 143.816406 173.9375 143.96875 174.238281 144.21875 174.445312 C 144.476562 174.65625 144.828125 174.757812 145.273438 174.757812 C 145.726562 174.757812 146.0625 174.667969 146.289062 174.484375 C 146.507812 174.304688 146.621094 174.089844 146.621094 173.839844 C 146.621094 173.605469 146.523438 173.429688 146.328125 173.3125 C 146.179688 173.222656 145.84375 173.105469 145.3125 172.960938 C 144.578125 172.78125 144.070312 172.625 143.789062 172.492188 C 143.515625 172.363281 143.304688 172.179688 143.164062 171.945312 C 143.015625 171.710938 142.949219 171.453125 142.949219 171.164062 C 142.949219 170.90625 143.007812 170.664062 143.125 170.441406 C 143.242188 170.222656 143.402344 170.03125 143.613281 169.875 C 143.769531 169.773438 143.972656 169.679688 144.238281 169.601562 C 144.511719 169.523438 144.792969 169.484375 145.097656 169.484375 C 145.550781 169.484375 145.945312 169.550781 146.289062 169.679688 C 146.640625 169.8125 146.898438 169.988281 147.070312 170.207031 C 147.234375 170.429688 147.351562 170.730469 147.421875 171.105469 L 146.445312 171.242188 C 146.40625 170.945312 146.273438 170.710938 146.054688 170.539062 C 145.84375 170.371094 145.550781 170.285156 145.175781 170.285156 C 144.714844 170.285156 144.394531 170.363281 144.199219 170.519531 C 144.003906 170.664062 143.90625 170.839844 143.90625 171.046875 C 143.90625 171.179688 143.945312 171.289062 144.023438 171.378906 C 144.101562 171.496094 144.226562 171.589844 144.414062 171.652344 C 144.5 171.691406 144.789062 171.777344 145.273438 171.90625 C 145.976562 172.089844 146.464844 172.238281 146.738281 172.355469 C 147.019531 172.472656 147.246094 172.648438 147.402344 172.882812 C 147.558594 173.105469 147.636719 173.386719 147.636719 173.722656 C 147.636719 174.0625 147.539062 174.375 147.34375 174.660156 C 147.148438 174.949219 146.863281 175.175781 146.503906 175.34375 C 146.152344 175.5 145.742188 175.578125 145.273438 175.578125 C 144.515625 175.578125 143.933594 175.421875 143.535156 175.109375 C 143.144531 174.785156 142.894531 174.316406 142.792969 173.703125 Z M 142.792969 173.703125 "/>
<path style=" stroke:none;fill-rule:nonzero;fill:rgb(0%,0%,0%);fill-opacity:1;" d="M 175.929688 175.441406 L 175.929688 169.601562 L 176.828125 169.601562 L 176.828125 170.441406 C 177.242188 169.804688 177.863281 169.484375 178.683594 169.484375 C 179.035156 169.484375 179.351562 169.550781 179.640625 169.679688 C 179.9375 169.796875 180.160156 169.960938 180.304688 170.167969 C 180.445312 170.363281 180.550781 170.605469 180.617188 170.890625 C 180.65625 171.074219 180.675781 171.394531 180.675781 171.847656 L 180.675781 175.441406 L 179.679688 175.441406 L 179.679688 171.886719 C 179.679688 171.484375 179.640625 171.183594 179.5625 170.988281 C 179.484375 170.792969 179.347656 170.636719 179.152344 170.519531 C 178.957031 170.390625 178.726562 170.324219 178.46875 170.324219 C 178.050781 170.324219 177.6875 170.460938 177.375 170.734375 C 177.074219 170.996094 176.925781 171.503906 176.925781 172.257812 L 176.925781 175.441406 Z M 175.929688 175.441406 "/>
<path style=" stroke:none;fill-rule:nonzero;fill:rgb(0%,0%,0%);fill-opacity:1;" d="M 181.816406 172.53125 C 181.816406 171.453125 182.113281 170.652344 182.714844 170.128906 C 183.222656 169.699219 183.832031 169.484375 184.550781 169.484375 C 185.355469 169.484375 186.015625 169.746094 186.523438 170.265625 C 187.03125 170.789062 187.285156 171.511719 187.285156 172.433594 C 187.285156 173.191406 187.167969 173.78125 186.933594 174.210938 C 186.707031 174.640625 186.386719 174.980469 185.957031 175.226562 C 185.527344 175.460938 185.058594 175.578125 184.550781 175.578125 C 183.730469 175.578125 183.066406 175.320312 182.558594 174.796875 C 182.058594 174.265625 181.816406 173.507812 181.816406 172.53125 Z M 182.832031 172.53125 C 182.832031 173.273438 182.992188 173.835938 183.320312 174.210938 C 183.640625 174.578125 184.050781 174.757812 184.550781 174.757812 C 185.042969 174.757812 185.453125 174.578125 185.78125 174.210938 C 186.101562 173.835938 186.269531 173.261719 186.269531 172.492188 C 186.269531 171.777344 186.101562 171.230469 185.78125 170.851562 C 185.453125 170.476562 185.042969 170.285156 184.550781 170.285156 C 184.050781 170.285156 183.640625 170.476562 183.320312 170.851562 C 182.992188 171.21875 182.832031 171.777344 182.832031 172.53125 Z M 182.832031 172.53125 "/>
<path style=" stroke:none;fill-rule:nonzero;fill:rgb(0%,0%,0%);fill-opacity:1;" d="M 190.613281 174.5625 L 190.75 175.421875 C 190.460938 175.484375 190.210938 175.519531 190.007812 175.519531 C 189.640625 175.519531 189.363281 175.460938 189.167969 175.34375 C 188.972656 175.226562 188.824219 175.078125 188.738281 174.894531 C 188.660156 174.714844 188.621094 174.328125 188.621094 173.742188 L 188.621094 170.382812 L 187.898438 170.382812 L 187.898438 169.601562 L 188.621094 169.601562 L 188.621094 168.15625 L 189.617188 167.570312 L 189.617188 169.601562 L 190.613281 169.601562 L 190.613281 170.382812 L 189.617188 170.382812 L 189.617188 173.78125 C 189.617188 174.070312 189.625 174.25 189.65625 174.328125 C 189.695312 174.40625 189.753906 174.472656 189.832031 174.523438 C 189.910156 174.578125 190.015625 174.601562 190.164062 174.601562 C 190.28125 174.601562 190.425781 174.589844 190.613281 174.5625 Z M 190.613281 174.5625 "/>
<path style=" stroke:none;fill-rule:nonzero;fill:rgb(0%,0%,0%);fill-opacity:1;" d="M 216.53125 175.441406 L 215.613281 175.441406 L 215.613281 167.394531 L 216.589844 167.394531 L 216.589844 170.265625 C 217.007812 169.746094 217.539062 169.484375 218.191406 169.484375 C 218.554688 169.484375 218.894531 169.558594 219.207031 169.699219 C 219.53125 169.84375 219.800781 170.046875 220.007812 170.304688 C 220.214844 170.566406 220.378906 170.886719 220.496094 171.261719 C 220.613281 171.628906 220.671875 172.019531 220.671875 172.433594 C 220.671875 173.4375 220.425781 174.210938 219.929688 174.757812 C 219.433594 175.304688 218.84375 175.578125 218.152344 175.578125 C 217.460938 175.578125 216.921875 175.292969 216.53125 174.71875 Z M 216.511719 172.472656 C 216.511719 173.175781 216.609375 173.683594 216.804688 173.996094 C 217.117188 174.503906 217.535156 174.757812 218.054688 174.757812 C 218.496094 174.757812 218.875 174.570312 219.1875 174.191406 C 219.5 173.816406 219.65625 173.253906 219.65625 172.511719 C 219.65625 171.757812 219.507812 171.199219 219.207031 170.832031 C 218.90625 170.46875 218.542969 170.285156 218.113281 170.285156 C 217.671875 170.285156 217.292969 170.476562 216.980469 170.851562 C 216.667969 171.230469 216.511719 171.769531 216.511719 172.472656 Z M 216.511719 172.472656 "/>
<path style=" stroke:none;fill-rule:nonzero;fill:rgb(0%,0%,0%);fill-opacity:1;" d="M 225.679688 174.71875 C 225.3125 175.03125 224.960938 175.253906 224.625 175.382812 C 224.285156 175.507812 223.921875 175.578125 223.53125 175.578125 C 222.890625 175.578125 222.398438 175.421875 222.046875 175.109375 C 221.707031 174.796875 221.539062 174.394531 221.539062 173.898438 C 221.539062 173.613281 221.601562 173.351562 221.734375 173.117188 C 221.863281 172.882812 222.03125 172.695312 222.242188 172.550781 C 222.449219 172.410156 222.683594 172.296875 222.945312 172.21875 C 223.140625 172.179688 223.433594 172.136719 223.824219 172.082031 C 224.628906 171.992188 225.222656 171.875 225.601562 171.730469 C 225.601562 171.601562 225.601562 171.515625 225.601562 171.476562 C 225.601562 171.074219 225.507812 170.792969 225.328125 170.636719 C 225.066406 170.402344 224.6875 170.285156 224.195312 170.285156 C 223.726562 170.285156 223.378906 170.371094 223.160156 170.539062 C 222.9375 170.695312 222.773438 170.984375 222.671875 171.398438 L 221.714844 171.28125 C 221.792969 170.867188 221.929688 170.535156 222.125 170.285156 C 222.332031 170.027344 222.625 169.832031 223.003906 169.699219 C 223.394531 169.558594 223.835938 169.484375 224.332031 169.484375 C 224.839844 169.484375 225.242188 169.542969 225.542969 169.660156 C 225.855469 169.777344 226.082031 169.929688 226.226562 170.109375 C 226.382812 170.28125 226.484375 170.5 226.539062 170.773438 C 226.578125 170.945312 226.597656 171.242188 226.597656 171.671875 L 226.597656 173 C 226.597656 173.914062 226.617188 174.492188 226.65625 174.738281 C 226.695312 174.988281 226.777344 175.222656 226.910156 175.441406 L 225.875 175.441406 C 225.769531 175.234375 225.703125 174.992188 225.679688 174.71875 Z M 225.601562 172.511719 C 225.234375 172.65625 224.695312 172.78125 223.980469 172.882812 C 223.574219 172.949219 223.289062 173.019531 223.121094 173.097656 C 222.949219 173.164062 222.820312 173.269531 222.730469 173.410156 C 222.636719 173.554688 222.59375 173.710938 222.59375 173.878906 C 222.59375 174.140625 222.691406 174.363281 222.886719 174.542969 C 223.082031 174.714844 223.375 174.796875 223.765625 174.796875 C 224.140625 174.796875 224.480469 174.714844 224.78125 174.542969 C 225.078125 174.375 225.300781 174.148438 225.445312 173.859375 C 225.546875 173.640625 225.601562 173.3125 225.601562 172.882812 Z M 225.601562 172.511719 "/>
<path style=" stroke:none;fill-rule:nonzero;fill:rgb(0%,0%,0%);fill-opacity:1;" d="M 231.917969 175.441406 L 231.917969 174.699219 C 231.539062 175.285156 230.992188 175.578125 230.277344 175.578125 C 229.820312 175.578125 229.398438 175.445312 229.007812 175.1875 C 228.617188 174.929688 228.308594 174.570312 228.089844 174.113281 C 227.878906 173.660156 227.777344 173.132812 227.777344 172.53125 C 227.777344 171.945312 227.875 171.417969 228.070312 170.949219 C 228.265625 170.46875 228.550781 170.105469 228.929688 169.855469 C 229.320312 169.609375 229.753906 169.484375 230.238281 169.484375 C 230.589844 169.484375 230.902344 169.558594 231.175781 169.699219 C 231.449219 169.84375 231.667969 170.039062 231.839844 170.285156 L 231.839844 167.394531 L 232.835938 167.394531 L 232.835938 175.441406 Z M 228.792969 172.53125 C 228.792969 173.273438 228.949219 173.835938 229.261719 174.210938 C 229.574219 174.578125 229.945312 174.757812 230.375 174.757812 C 230.804688 174.757812 231.167969 174.582031 231.46875 174.230469 C 231.78125 173.878906 231.9375 173.339844 231.9375 172.609375 C 231.9375 171.816406 231.78125 171.230469 231.46875 170.851562 C 231.15625 170.476562 230.777344 170.285156 230.335938 170.285156 C 229.890625 170.285156 229.519531 170.46875 229.222656 170.832031 C 228.933594 171.199219 228.792969 171.765625 228.792969 172.53125 Z M 228.792969 172.53125 "/>
<path style="fill:none;stroke-width:1;stroke-linecap:round;stroke-linejoin:round;stroke:rgb(0%,0%,0%);stroke-opacity:1;stroke-miterlimit:10;" d="M 212 314 L 212 244.4 " transform="matrix(1.25,0,0,1.25,-201.25,-230)"/>
<path style="fill:none;stroke-width:1;stroke-linecap:butt;stroke-linejoin:miter;stroke:rgb(0%,0%,0%);stroke-opacity:1;stroke-miterlimit:10;" d="M 212 240.4 L 212 244.4 M 210.5 244.4 L 212 240.4 L 213.5 244.4 " transform="matrix(1.25,0,0,1.25,-201.25,-230)"/>
<path style="fill:none;stroke-width:1;stroke-linecap:round;stroke-linejoin:round;stroke:rgb(0%,0%,0%);stroke-opacity:1;stroke-miterlimit:10;" d="M 244.18125 314 L 244.18125 244.4 " transform="matrix(1.25,0,0,1.25,-201.25,-230)"/>
<path style="fill:none;stroke-width:1;stroke-linecap:butt;stroke-linejoin:miter;stroke:rgb(0%,0%,0%);stroke-opacity:1;stroke-miterlimit:10;" d="M 244.18125 240.4 L 244.18125 244.4 M 242.68125 244.4 L 244.18125 240.4 L 245.68125 244.4 " transform="matrix(1.25,0,0,1.25,-201.25,-230)"/>
<path style="fill:none;stroke-width:1;stroke-linecap:round;stroke-linejoin:round;stroke:rgb(0%,0%,0%);stroke-opacity:1;stroke-miterlimit:10;" d="M 276.203125 314 L 276.203125 244.4 " transform="matrix(1.25,0,0,1.25,-201.25,-230)"/>
<path style="fill:none;stroke-width:1;stroke-linecap:butt;stroke-linejoin:miter;stroke:rgb(0%,0%,0%);stroke-opacity:1;stroke-miterlimit:10;" d="M 276.203125 240.4 L 276.203125 244.4 M 274.703125 244.4 L 276.203125 240.4 L 277.703125 244.4 " transform="matrix(1.25,0,0,1.25,-201.25,-230)"/>
<path style="fill:none;stroke-width:1;stroke-linecap:round;stroke-linejoin:round;stroke:rgb(0%,0%,0%);stroke-opacity:1;stroke-miterlimit:10;" d="M 307.40625 314 L 307.40625 244.4 " transform="matrix(1.25,0,0,1.25,-201.25,-230)"/>
<path style="fill:none;stroke-width:1;stroke-linecap:butt;stroke-linejoin:miter;stroke:rgb(0%,0%,0%);stroke-opacity:1;stroke-miterlimit:10;" d="M 307.40625 240.4 L 307.40625 244.4 M 305.90625 244.4 L 307.40625 240.4 L 308.90625 244.4 " transform="matrix(1.25,0,0,1.25,-201.25,-230)"/>
<path style="fill:none;stroke-width:1;stroke-linecap:round;stroke-linejoin:round;stroke:rgb(0%,0%,0%);stroke-opacity:1;stroke-miterlimit:10;" d="M 340.40625 314 L 340.40625 244.4 " transform="matrix(1.25,0,0,1.25,-201.25,-230)"/>
<path style="fill:none;stroke-width:1;stroke-linecap:butt;stroke-linejoin:miter;stroke:rgb(0%,0%,0%);stroke-opacity:1;stroke-miterlimit:10;" d="M 340.40625 240.4 L 340.40625 244.4 M 338.90625 244.4 L 340.40625 240.4 L 341.90625 244.4 " transform="matrix(1.25,0,0,1.25,-201.25,-230)"/>
<path style=" stroke:none;fill-rule:nonzero;fill:rgb(40%,74.901961%,100%);fill-opacity:1;" d="M 0.625 68.125 L 49.257812 68.125 L 49.257812 41.558594 L 0.625 41.558594 Z M 0.625 68.125 "/>
<path style="fill:none;stroke-width:1;stroke-linecap:round;stroke-linejoin:round;stroke:rgb(0%,0%,0%);stroke-opacity:1;stroke-miterlimit:10;" d="M 161.5 217.246875 L 200.40625 217.246875 L 200.40625 238.5 L 161.5 238.5 Z M 161.5 217.246875 " transform="matrix(1.25,0,0,1.25,-201.25,-230)"/>
<path style=" stroke:none;fill-rule:nonzero;fill:rgb(0%,0%,0%);fill-opacity:1;" d="M 18.359375 58.410156 L 18.359375 50.363281 L 23.789062 50.363281 L 23.789062 51.300781 L 19.433594 51.300781 L 19.433594 53.800781 L 23.203125 53.800781 L 23.203125 54.757812 L 19.433594 54.757812 L 19.433594 58.410156 Z M 18.359375 58.410156 "/>
<path style=" stroke:none;fill-rule:nonzero;fill:rgb(0%,0%,0%);fill-opacity:1;" d="M 30.9375 55.578125 L 31.992188 55.851562 C 31.765625 56.722656 31.367188 57.394531 30.78125 57.863281 C 30.203125 58.320312 29.496094 58.546875 28.652344 58.546875 C 27.792969 58.546875 27.089844 58.371094 26.542969 58.019531 C 25.996094 57.667969 25.574219 57.160156 25.292969 56.496094 C 25.019531 55.820312 24.882812 55.097656 24.882812 54.328125 C 24.882812 53.480469 25.039062 52.746094 25.351562 52.121094 C 25.671875 51.496094 26.132812 51.027344 26.71875 50.714844 C 27.3125 50.390625 27.96875 50.226562 28.671875 50.226562 C 29.476562 50.226562 30.15625 50.433594 30.703125 50.851562 C 31.257812 51.253906 31.644531 51.828125 31.855469 52.570312 L 30.800781 52.804688 C 30.613281 52.21875 30.351562 51.796875 30 51.535156 C 29.648438 51.261719 29.199219 51.125 28.652344 51.125 C 28.035156 51.125 27.523438 51.273438 27.109375 51.574219 C 26.6875 51.875 26.394531 52.277344 26.230469 52.785156 C 26.058594 53.28125 25.976562 53.789062 25.976562 54.308594 C 25.976562 55 26.074219 55.605469 26.269531 56.125 C 26.472656 56.632812 26.785156 57.011719 27.207031 57.257812 C 27.621094 57.503906 28.074219 57.628906 28.574219 57.628906 C 29.167969 57.628906 29.671875 57.460938 30.078125 57.121094 C 30.492188 56.769531 30.78125 56.253906 30.9375 55.578125 Z M 30.9375 55.578125 "/>
<path style=" stroke:none;fill-rule:nonzero;fill:rgb(0%,0%,0%);fill-opacity:1;" d="M 6.105469 13.875 L 6.105469 5.828125 L 9.152344 5.828125 C 9.683594 5.828125 10.09375 5.859375 10.382812 5.90625 C 10.773438 5.976562 11.09375 6.097656 11.359375 6.277344 C 11.632812 6.464844 11.847656 6.722656 12.003906 7.058594 C 12.167969 7.386719 12.257812 7.753906 12.257812 8.152344 C 12.257812 8.847656 12.03125 9.421875 11.59375 9.890625 C 11.164062 10.359375 10.382812 10.59375 9.25 10.59375 L 7.179688 10.59375 L 7.179688 13.875 Z M 7.179688 9.65625 L 9.269531 9.65625 C 9.941406 9.65625 10.425781 9.53125 10.714844 9.265625 C 11.011719 9.007812 11.164062 8.652344 11.164062 8.191406 C 11.164062 7.855469 11.074219 7.566406 10.910156 7.332031 C 10.738281 7.089844 10.507812 6.921875 10.226562 6.84375 C 10.054688 6.796875 9.722656 6.765625 9.230469 6.765625 L 7.179688 6.765625 Z M 7.179688 9.65625 "/>
<path style=" stroke:none;fill-rule:nonzero;fill:rgb(0%,0%,0%);fill-opacity:1;" d="M 13.121094 10.964844 C 13.121094 9.886719 13.417969 9.085938 14.019531 8.5625 C 14.527344 8.132812 15.136719 7.917969 15.855469 7.917969 C 16.660156 7.917969 17.320312 8.183594 17.828125 8.699219 C 18.335938 9.222656 18.589844 9.945312 18.589844 10.867188 C 18.589844 11.625 18.472656 12.214844 18.238281 12.644531 C 18.011719 13.074219 17.691406 13.417969 17.261719 13.660156 C 16.832031 13.894531 16.363281 14.011719 15.855469 14.011719 C 15.035156 14.011719 14.371094 13.753906 13.863281 13.230469 C 13.363281 12.699219 13.121094 11.941406 13.121094 10.964844 Z M 14.136719 10.964844 C 14.136719 11.707031 14.296875 12.269531 14.625 12.644531 C 14.945312 13.011719 15.355469 13.191406 15.855469 13.191406 C 16.347656 13.191406 16.757812 13.011719 17.085938 12.644531 C 17.40625 12.269531 17.574219 11.699219 17.574219 10.925781 C 17.574219 10.214844 17.40625 9.667969 17.085938 9.285156 C 16.757812 8.910156 16.347656 8.71875 15.855469 8.71875 C 15.355469 8.71875 14.945312 8.910156 14.625 9.285156 C 14.296875 9.652344 14.136719 10.214844 14.136719 10.964844 Z M 14.136719 10.964844 "/>
<path style=" stroke:none;fill-rule:nonzero;fill:rgb(0%,0%,0%);fill-opacity:1;" d="M 19.359375 12.136719 L 20.335938 11.980469 C 20.382812 12.371094 20.535156 12.675781 20.785156 12.878906 C 21.042969 13.089844 21.394531 13.191406 21.839844 13.191406 C 22.292969 13.191406 22.628906 13.105469 22.855469 12.917969 C 23.074219 12.738281 23.1875 12.523438 23.1875 12.273438 C 23.1875 12.039062 23.089844 11.863281 22.894531 11.746094 C 22.746094 11.660156 22.410156 11.542969 21.878906 11.394531 C 21.144531 11.214844 20.636719 11.058594 20.355469 10.925781 C 20.082031 10.800781 19.871094 10.613281 19.730469 10.378906 C 19.582031 10.144531 19.515625 9.886719 19.515625 9.597656 C 19.515625 9.339844 19.574219 9.101562 19.691406 8.875 C 19.808594 8.65625 19.96875 8.464844 20.179688 8.308594 C 20.335938 8.207031 20.539062 8.113281 20.804688 8.035156 C 21.078125 7.957031 21.359375 7.917969 21.664062 7.917969 C 22.117188 7.917969 22.511719 7.988281 22.855469 8.113281 C 23.207031 8.246094 23.464844 8.421875 23.636719 8.640625 C 23.800781 8.867188 23.917969 9.164062 23.988281 9.539062 L 23.011719 9.675781 C 22.972656 9.378906 22.839844 9.144531 22.621094 8.972656 C 22.410156 8.808594 22.117188 8.71875 21.742188 8.71875 C 21.28125 8.71875 20.960938 8.796875 20.765625 8.953125 C 20.570312 9.101562 20.472656 9.277344 20.472656 9.480469 C 20.472656 9.613281 20.511719 9.726562 20.589844 9.8125 C 20.667969 9.929688 20.792969 10.023438 20.980469 10.085938 C 21.066406 10.125 21.355469 10.214844 21.839844 10.339844 C 22.542969 10.527344 23.03125 10.671875 23.304688 10.789062 C 23.585938 10.90625 23.8125 11.082031 23.96875 11.316406 C 24.125 11.542969 24.203125 11.820312 24.203125 12.15625 C 24.203125 12.5 24.105469 12.8125 23.910156 13.09375 C 23.714844 13.382812 23.429688 13.613281 23.070312 13.777344 C 22.71875 13.933594 22.308594 14.011719 21.839844 14.011719 C 21.082031 14.011719 20.5 13.855469 20.101562 13.542969 C 19.710938 13.222656 19.460938 12.753906 19.359375 12.136719 Z M 19.359375 12.136719 "/>
<path style=" stroke:none;fill-rule:nonzero;fill:rgb(0%,0%,0%);fill-opacity:1;" d="M 25.375 6.960938 L 25.375 5.828125 L 26.371094 5.828125 L 26.371094 6.960938 Z M 25.375 13.875 L 25.375 8.035156 L 26.371094 8.035156 L 26.371094 13.875 Z M 25.375 13.875 "/>
<path style=" stroke:none;fill-rule:nonzero;fill:rgb(0%,0%,0%);fill-opacity:1;" d="M 30.042969 12.996094 L 30.179688 13.855469 C 29.890625 13.921875 29.640625 13.953125 29.4375 13.953125 C 29.070312 13.953125 28.792969 13.894531 28.597656 13.777344 C 28.402344 13.660156 28.253906 13.515625 28.167969 13.328125 C 28.089844 13.148438 28.050781 12.761719 28.050781 12.175781 L 28.050781 8.816406 L 27.328125 8.816406 L 27.328125 8.035156 L 28.050781 8.035156 L 28.050781 6.589844 L 29.046875 6.003906 L 29.046875 8.035156 L 30.042969 8.035156 L 30.042969 8.816406 L 29.046875 8.816406 L 29.046875 12.214844 C 29.046875 12.503906 29.054688 12.683594 29.085938 12.761719 C 29.125 12.839844 29.183594 12.910156 29.261719 12.957031 C 29.339844 13.011719 29.445312 13.035156 29.59375 13.035156 C 29.710938 13.035156 29.855469 13.027344 30.042969 12.996094 Z M 30.042969 12.996094 "/>
<path style=" stroke:none;fill-rule:nonzero;fill:rgb(0%,0%,0%);fill-opacity:1;" d="M 31 6.960938 L 31 5.828125 L 31.996094 5.828125 L 31.996094 6.960938 Z M 31 13.875 L 31 8.035156 L 31.996094 8.035156 L 31.996094 13.875 Z M 31 13.875 "/>
<path style=" stroke:none;fill-rule:nonzero;fill:rgb(0%,0%,0%);fill-opacity:1;" d="M 35.121094 13.875 L 32.894531 8.035156 L 33.949219 8.035156 L 35.199219 11.53125 C 35.324219 11.914062 35.453125 12.304688 35.570312 12.703125 C 35.65625 12.40625 35.785156 12.039062 35.941406 11.609375 L 37.230469 8.035156 L 38.246094 8.035156 L 36.039062 13.875 Z M 35.121094 13.875 "/>
<path style=" stroke:none;fill-rule:nonzero;fill:rgb(0%,0%,0%);fill-opacity:1;" d="M 43.109375 12 L 44.144531 12.117188 C 43.972656 12.71875 43.664062 13.1875 43.226562 13.523438 C 42.796875 13.851562 42.238281 14.011719 41.566406 14.011719 C 40.714844 14.011719 40.042969 13.753906 39.535156 13.230469 C 39.035156 12.699219 38.792969 11.957031 38.792969 11.003906 C 38.792969 10.027344 39.046875 9.277344 39.554688 8.738281 C 40.0625 8.191406 40.714844 7.917969 41.527344 7.917969 C 42.308594 7.917969 42.9375 8.1875 43.421875 8.71875 C 43.914062 9.242188 44.164062 9.984375 44.164062 10.945312 C 44.164062 11.015625 44.164062 11.101562 44.164062 11.21875 L 39.808594 11.21875 C 39.847656 11.859375 40.027344 12.347656 40.355469 12.683594 C 40.675781 13.027344 41.085938 13.191406 41.585938 13.191406 C 41.945312 13.191406 42.253906 13.105469 42.503906 12.917969 C 42.761719 12.722656 42.960938 12.421875 43.109375 12 Z M 39.867188 10.398438 L 43.128906 10.398438 C 43.089844 9.90625 42.960938 9.535156 42.757812 9.285156 C 42.445312 8.910156 42.035156 8.71875 41.527344 8.71875 C 41.066406 8.71875 40.6875 8.875 40.375 9.1875 C 40.070312 9.492188 39.90625 9.890625 39.867188 10.398438 Z M 39.867188 10.398438 "/>
<path style="fill:none;stroke-width:1;stroke-linecap:round;stroke-linejoin:round;stroke:rgb(0%,0%,0%);stroke-opacity:1;stroke-miterlimit:10;" d="M 180.953125 314 L 180.953125 244.4 " transform="matrix(1.25,0,0,1.25,-201.25,-230)"/>
<path style="fill:none;stroke-width:1;stroke-linecap:butt;stroke-linejoin:miter;stroke:rgb(0%,0%,0%);stroke-opacity:1;stroke-miterlimit:10;" d="M 180.953125 240.4 L 180.953125 244.4 M 179.453125 244.4 L 180.953125 240.4 L 182.453125 244.4 " transform="matrix(1.25,0,0,1.25,-201.25,-230)"/>
<path style=" stroke:none;fill-rule:nonzero;fill:rgb(69.803922%,85.098039%,100%);fill-opacity:1;" d="M 0.625 147.5 L 248.574219 147.5 L 248.574219 90 L 0.625 90 Z M 0.625 147.5 "/>
<path style="fill:none;stroke-width:1;stroke-linecap:round;stroke-linejoin:round;stroke:rgb(0%,0%,0%);stroke-opacity:1;stroke-miterlimit:10;" d="M 161.5 256 L 359.859375 256 L 359.859375 302 L 161.5 302 Z M 161.5 256 " transform="matrix(1.25,0,0,1.25,-201.25,-230)"/>
<path style=" stroke:none;fill-rule:nonzero;fill:rgb(0%,0%,0%);fill-opacity:1;" d="M 75.199219 122.316406 L 75.199219 115.207031 L 72.5625 115.207031 L 72.5625 114.269531 L 78.929688 114.269531 L 78.929688 115.207031 L 76.273438 115.207031 L 76.273438 122.316406 Z M 75.199219 122.316406 "/>
<path style=" stroke:none;fill-rule:nonzero;fill:rgb(0%,0%,0%);fill-opacity:1;" d="M 79.464844 122.316406 L 79.464844 116.476562 L 80.363281 116.476562 L 80.363281 117.375 C 80.582031 116.960938 80.792969 116.6875 80.988281 116.554688 C 81.183594 116.425781 81.398438 116.359375 81.632812 116.359375 C 81.953125 116.359375 82.296875 116.464844 82.648438 116.671875 L 82.296875 117.589844 C 82.0625 117.449219 81.816406 117.375 81.574219 117.375 C 81.363281 117.375 81.167969 117.441406 80.988281 117.570312 C 80.816406 117.703125 80.695312 117.882812 80.617188 118.117188 C 80.507812 118.46875 80.460938 118.855469 80.460938 119.269531 L 80.460938 122.316406 Z M 79.464844 122.316406 "/>
<path style=" stroke:none;fill-rule:nonzero;fill:rgb(0%,0%,0%);fill-opacity:1;" d="M 87.039062 121.59375 C 86.671875 121.90625 86.320312 122.128906 85.984375 122.257812 C 85.640625 122.382812 85.28125 122.453125 84.890625 122.453125 C 84.25 122.453125 83.757812 122.296875 83.40625 121.984375 C 83.0625 121.671875 82.898438 121.269531 82.898438 120.773438 C 82.898438 120.488281 82.960938 120.226562 83.09375 119.992188 C 83.21875 119.757812 83.390625 119.570312 83.601562 119.425781 C 83.804688 119.285156 84.039062 119.171875 84.304688 119.09375 C 84.5 119.054688 84.792969 119.011719 85.183594 118.957031 C 85.988281 118.867188 86.578125 118.75 86.960938 118.605469 C 86.960938 118.476562 86.960938 118.390625 86.960938 118.351562 C 86.960938 117.949219 86.867188 117.667969 86.6875 117.511719 C 86.421875 117.277344 86.046875 117.160156 85.554688 117.160156 C 85.085938 117.160156 84.738281 117.246094 84.519531 117.414062 C 84.292969 117.570312 84.132812 117.859375 84.03125 118.273438 L 83.074219 118.15625 C 83.152344 117.742188 83.289062 117.410156 83.484375 117.160156 C 83.6875 116.902344 83.980469 116.707031 84.363281 116.574219 C 84.753906 116.433594 85.191406 116.359375 85.691406 116.359375 C 86.199219 116.359375 86.597656 116.417969 86.902344 116.535156 C 87.214844 116.652344 87.4375 116.804688 87.585938 116.984375 C 87.742188 117.15625 87.84375 117.375 87.898438 117.648438 C 87.9375 117.820312 87.957031 118.117188 87.957031 118.546875 L 87.957031 119.875 C 87.957031 120.789062 87.976562 121.367188 88.015625 121.613281 C 88.054688 121.863281 88.136719 122.097656 88.269531 122.316406 L 87.234375 122.316406 C 87.125 122.109375 87.0625 121.867188 87.039062 121.59375 Z M 86.960938 119.386719 C 86.59375 119.53125 86.050781 119.65625 85.339844 119.757812 C 84.933594 119.824219 84.644531 119.894531 84.480469 119.972656 C 84.308594 120.039062 84.175781 120.144531 84.089844 120.285156 C 83.996094 120.429688 83.953125 120.585938 83.953125 120.753906 C 83.953125 121.015625 84.050781 121.238281 84.246094 121.417969 C 84.441406 121.589844 84.734375 121.671875 85.125 121.671875 C 85.5 121.671875 85.835938 121.589844 86.140625 121.417969 C 86.4375 121.25 86.65625 121.023438 86.804688 120.734375 C 86.90625 120.515625 86.960938 120.1875 86.960938 119.757812 Z M 86.960938 119.386719 "/>
<path style=" stroke:none;fill-rule:nonzero;fill:rgb(0%,0%,0%);fill-opacity:1;" d="M 89.488281 122.316406 L 89.488281 116.476562 L 90.386719 116.476562 L 90.386719 117.316406 C 90.800781 116.679688 91.421875 116.359375 92.242188 116.359375 C 92.59375 116.359375 92.910156 116.425781 93.199219 116.554688 C 93.496094 116.671875 93.714844 116.835938 93.863281 117.042969 C 94.003906 117.238281 94.105469 117.480469 94.175781 117.765625 C 94.214844 117.949219 94.234375 118.269531 94.234375 118.722656 L 94.234375 122.316406 L 93.238281 122.316406 L 93.238281 118.761719 C 93.238281 118.359375 93.199219 118.058594 93.121094 117.863281 C 93.042969 117.667969 92.90625 117.511719 92.710938 117.394531 C 92.515625 117.265625 92.285156 117.199219 92.027344 117.199219 C 91.605469 117.199219 91.246094 117.335938 90.933594 117.609375 C 90.628906 117.871094 90.484375 118.378906 90.484375 119.132812 L 90.484375 122.316406 Z M 89.488281 122.316406 "/>
<path style=" stroke:none;fill-rule:nonzero;fill:rgb(0%,0%,0%);fill-opacity:1;" d="M 95.355469 120.578125 L 96.332031 120.421875 C 96.378906 120.8125 96.53125 121.113281 96.78125 121.320312 C 97.039062 121.53125 97.390625 121.632812 97.835938 121.632812 C 98.289062 121.632812 98.625 121.542969 98.851562 121.359375 C 99.070312 121.179688 99.183594 120.964844 99.183594 120.714844 C 99.183594 120.480469 99.085938 120.304688 98.890625 120.1875 C 98.742188 120.097656 98.40625 119.980469 97.875 119.835938 C 97.140625 119.65625 96.632812 119.5 96.351562 119.367188 C 96.078125 119.238281 95.867188 119.054688 95.726562 118.820312 C 95.578125 118.585938 95.511719 118.328125 95.511719 118.039062 C 95.511719 117.78125 95.570312 117.539062 95.6875 117.316406 C 95.804688 117.097656 95.964844 116.90625 96.175781 116.75 C 96.332031 116.648438 96.535156 116.554688 96.800781 116.476562 C 97.074219 116.398438 97.355469 116.359375 97.660156 116.359375 C 98.113281 116.359375 98.507812 116.425781 98.851562 116.554688 C 99.203125 116.6875 99.460938 116.863281 99.632812 117.082031 C 99.796875 117.304688 99.914062 117.605469 99.984375 117.980469 L 99.007812 118.117188 C 98.96875 117.820312 98.835938 117.585938 98.617188 117.414062 C 98.40625 117.246094 98.113281 117.160156 97.738281 117.160156 C 97.277344 117.160156 96.957031 117.238281 96.761719 117.394531 C 96.566406 117.539062 96.46875 117.714844 96.46875 117.921875 C 96.46875 118.054688 96.507812 118.164062 96.585938 118.253906 C 96.664062 118.371094 96.789062 118.464844 96.976562 118.527344 C 97.0625 118.566406 97.351562 118.652344 97.835938 118.78125 C 98.539062 118.964844 99.027344 119.113281 99.300781 119.230469 C 99.582031 119.347656 99.808594 119.523438 99.964844 119.757812 C 100.121094 119.980469 100.199219 120.261719 100.199219 120.597656 C 100.199219 120.9375 100.101562 121.25 99.90625 121.535156 C 99.710938 121.824219 99.425781 122.050781 99.066406 122.21875 C 98.714844 122.375 98.304688 122.453125 97.835938 122.453125 C 97.078125 122.453125 96.496094 122.296875 96.097656 121.984375 C 95.707031 121.660156 95.457031 121.191406 95.355469 120.578125 Z M 95.355469 120.578125 "/>
<path style=" stroke:none;fill-rule:nonzero;fill:rgb(0%,0%,0%);fill-opacity:1;" d="M 101.605469 122.316406 L 101.605469 117.257812 L 100.726562 117.257812 L 100.726562 116.476562 L 101.605469 116.476562 L 101.605469 115.871094 C 101.605469 115.46875 101.632812 115.175781 101.703125 114.992188 C 101.804688 114.734375 101.976562 114.523438 102.210938 114.367188 C 102.453125 114.210938 102.796875 114.132812 103.226562 114.132812 C 103.5 114.132812 103.800781 114.167969 104.144531 114.230469 L 103.988281 115.089844 C 103.792969 115.050781 103.601562 115.03125 103.421875 115.03125 C 103.117188 115.03125 102.902344 115.097656 102.777344 115.226562 C 102.644531 115.359375 102.582031 115.597656 102.582031 115.949219 L 102.582031 116.476562 L 103.734375 116.476562 L 103.734375 117.257812 L 102.582031 117.257812 L 102.582031 122.316406 Z M 101.605469 122.316406 "/>
<path style=" stroke:none;fill-rule:nonzero;fill:rgb(0%,0%,0%);fill-opacity:1;" d="M 104.125 119.40625 C 104.125 118.328125 104.421875 117.527344 105.023438 117.003906 C 105.53125 116.574219 106.140625 116.359375 106.859375 116.359375 C 107.664062 116.359375 108.324219 116.621094 108.832031 117.140625 C 109.339844 117.664062 109.59375 118.386719 109.59375 119.308594 C 109.59375 120.066406 109.476562 120.65625 109.242188 121.085938 C 109.015625 121.515625 108.695312 121.855469 108.265625 122.101562 C 107.835938 122.335938 107.367188 122.453125 106.859375 122.453125 C 106.039062 122.453125 105.375 122.195312 104.867188 121.671875 C 104.367188 121.140625 104.125 120.382812 104.125 119.40625 Z M 105.140625 119.40625 C 105.140625 120.148438 105.300781 120.710938 105.628906 121.085938 C 105.949219 121.453125 106.359375 121.632812 106.859375 121.632812 C 107.351562 121.632812 107.761719 121.453125 108.089844 121.085938 C 108.410156 120.710938 108.578125 120.136719 108.578125 119.367188 C 108.578125 118.652344 108.410156 118.105469 108.089844 117.726562 C 107.761719 117.351562 107.351562 117.160156 106.859375 117.160156 C 106.359375 117.160156 105.949219 117.351562 105.628906 117.726562 C 105.300781 118.09375 105.140625 118.652344 105.140625 119.40625 Z M 105.140625 119.40625 "/>
<path style=" stroke:none;fill-rule:nonzero;fill:rgb(0%,0%,0%);fill-opacity:1;" d="M 110.734375 122.316406 L 110.734375 116.476562 L 111.632812 116.476562 L 111.632812 117.375 C 111.851562 116.960938 112.0625 116.6875 112.257812 116.554688 C 112.453125 116.425781 112.667969 116.359375 112.902344 116.359375 C 113.222656 116.359375 113.566406 116.464844 113.917969 116.671875 L 113.566406 117.589844 C 113.332031 117.449219 113.085938 117.375 112.84375 117.375 C 112.632812 117.375 112.4375 117.441406 112.257812 117.570312 C 112.085938 117.703125 111.964844 117.882812 111.886719 118.117188 C 111.777344 118.46875 111.730469 118.855469 111.730469 119.269531 L 111.730469 122.316406 Z M 110.734375 122.316406 "/>
<path style=" stroke:none;fill-rule:nonzero;fill:rgb(0%,0%,0%);fill-opacity:1;" d="M 114.5 122.316406 L 114.5 116.476562 L 115.378906 116.476562 L 115.378906 117.296875 C 115.558594 117.011719 115.796875 116.785156 116.101562 116.613281 C 116.414062 116.445312 116.765625 116.359375 117.15625 116.359375 C 117.585938 116.359375 117.9375 116.453125 118.210938 116.632812 C 118.484375 116.804688 118.679688 117.050781 118.796875 117.375 C 119.265625 116.699219 119.859375 116.359375 120.59375 116.359375 C 121.179688 116.359375 121.628906 116.523438 121.941406 116.847656 C 122.253906 117.160156 122.410156 117.648438 122.410156 118.3125 L 122.410156 122.316406 L 121.414062 122.316406 L 121.414062 118.644531 C 121.414062 118.242188 121.378906 117.957031 121.316406 117.785156 C 121.261719 117.617188 121.148438 117.480469 120.984375 117.375 C 120.8125 117.257812 120.613281 117.199219 120.378906 117.199219 C 119.972656 117.199219 119.636719 117.335938 119.363281 117.609375 C 119.089844 117.882812 118.953125 118.320312 118.953125 118.917969 L 118.953125 122.316406 L 117.957031 122.316406 L 117.957031 118.527344 C 117.957031 118.085938 117.878906 117.753906 117.722656 117.53125 C 117.566406 117.3125 117.300781 117.199219 116.941406 117.199219 C 116.652344 117.199219 116.394531 117.277344 116.160156 117.433594 C 115.925781 117.578125 115.753906 117.792969 115.652344 118.078125 C 115.542969 118.351562 115.496094 118.757812 115.496094 119.289062 L 115.496094 122.316406 Z M 114.5 122.316406 "/>
<path style=" stroke:none;fill-rule:nonzero;fill:rgb(0%,0%,0%);fill-opacity:1;" d="M 127.855469 120.441406 L 128.890625 120.558594 C 128.71875 121.160156 128.410156 121.628906 127.972656 121.964844 C 127.542969 122.292969 126.984375 122.453125 126.3125 122.453125 C 125.460938 122.453125 124.789062 122.195312 124.28125 121.671875 C 123.78125 121.140625 123.539062 120.398438 123.539062 119.445312 C 123.539062 118.46875 123.792969 117.714844 124.300781 117.179688 C 124.808594 116.632812 125.460938 116.359375 126.273438 116.359375 C 127.054688 116.359375 127.683594 116.628906 128.167969 117.160156 C 128.660156 117.683594 128.910156 118.425781 128.910156 119.386719 C 128.910156 119.453125 128.910156 119.542969 128.910156 119.660156 L 124.554688 119.660156 C 124.59375 120.300781 124.773438 120.789062 125.101562 121.125 C 125.421875 121.464844 125.832031 121.632812 126.332031 121.632812 C 126.691406 121.632812 127 121.542969 127.25 121.359375 C 127.507812 121.164062 127.707031 120.859375 127.855469 120.441406 Z M 124.613281 118.839844 L 127.875 118.839844 C 127.835938 118.347656 127.707031 117.976562 127.503906 117.726562 C 127.191406 117.351562 126.78125 117.160156 126.273438 117.160156 C 125.8125 117.160156 125.433594 117.316406 125.121094 117.628906 C 124.816406 117.929688 124.652344 118.332031 124.613281 118.839844 Z M 124.613281 118.839844 "/>
<path style=" stroke:none;fill-rule:nonzero;fill:rgb(0%,0%,0%);fill-opacity:1;" d="M 130.109375 122.316406 L 130.109375 116.476562 L 131.007812 116.476562 L 131.007812 117.375 C 131.226562 116.960938 131.4375 116.6875 131.632812 116.554688 C 131.828125 116.425781 132.042969 116.359375 132.277344 116.359375 C 132.597656 116.359375 132.941406 116.464844 133.292969 116.671875 L 132.941406 117.589844 C 132.707031 117.449219 132.460938 117.375 132.21875 117.375 C 132.007812 117.375 131.8125 117.441406 131.632812 117.570312 C 131.460938 117.703125 131.339844 117.882812 131.261719 118.117188 C 131.152344 118.46875 131.105469 118.855469 131.105469 119.269531 L 131.105469 122.316406 Z M 130.109375 122.316406 "/>
<path style=" stroke:none;fill-rule:nonzero;fill:rgb(0%,0%,0%);fill-opacity:1;" d="M 140.984375 120.441406 L 142.019531 120.558594 C 141.847656 121.160156 141.539062 121.628906 141.101562 121.964844 C 140.671875 122.292969 140.113281 122.453125 139.441406 122.453125 C 138.589844 122.453125 137.917969 122.195312 137.410156 121.671875 C 136.910156 121.140625 136.667969 120.398438 136.667969 119.445312 C 136.667969 118.46875 136.921875 117.714844 137.429688 117.179688 C 137.9375 116.632812 138.589844 116.359375 139.402344 116.359375 C 140.183594 116.359375 140.8125 116.628906 141.296875 117.160156 C 141.789062 117.683594 142.039062 118.425781 142.039062 119.386719 C 142.039062 119.453125 142.039062 119.542969 142.039062 119.660156 L 137.683594 119.660156 C 137.722656 120.300781 137.902344 120.789062 138.230469 121.125 C 138.550781 121.464844 138.960938 121.632812 139.460938 121.632812 C 139.820312 121.632812 140.128906 121.542969 140.378906 121.359375 C 140.636719 121.164062 140.835938 120.859375 140.984375 120.441406 Z M 137.742188 118.839844 L 141.003906 118.839844 C 140.964844 118.347656 140.835938 117.976562 140.632812 117.726562 C 140.320312 117.351562 139.910156 117.160156 139.402344 117.160156 C 138.941406 117.160156 138.5625 117.316406 138.25 117.628906 C 137.945312 117.929688 137.78125 118.332031 137.742188 118.839844 Z M 137.742188 118.839844 "/>
<path style=" stroke:none;fill-rule:nonzero;fill:rgb(0%,0%,0%);fill-opacity:1;" d="M 143.257812 122.316406 L 143.257812 116.476562 L 144.15625 116.476562 L 144.15625 117.316406 C 144.570312 116.679688 145.191406 116.359375 146.011719 116.359375 C 146.363281 116.359375 146.679688 116.425781 146.96875 116.554688 C 147.265625 116.671875 147.484375 116.835938 147.632812 117.042969 C 147.773438 117.238281 147.875 117.480469 147.945312 117.765625 C 147.984375 117.949219 148.003906 118.269531 148.003906 118.722656 L 148.003906 122.316406 L 147.007812 122.316406 L 147.007812 118.761719 C 147.007812 118.359375 146.96875 118.058594 146.890625 117.863281 C 146.8125 117.667969 146.675781 117.511719 146.480469 117.394531 C 146.285156 117.265625 146.054688 117.199219 145.796875 117.199219 C 145.375 117.199219 145.015625 117.335938 144.703125 117.609375 C 144.398438 117.871094 144.253906 118.378906 144.253906 119.132812 L 144.253906 122.316406 Z M 143.257812 122.316406 "/>
<path style=" stroke:none;fill-rule:nonzero;fill:rgb(0%,0%,0%);fill-opacity:1;" d="M 153.320312 120.1875 L 154.296875 120.304688 C 154.191406 120.984375 153.917969 121.511719 153.476562 121.886719 C 153.035156 122.265625 152.492188 122.453125 151.855469 122.453125 C 151.0625 122.453125 150.421875 122.195312 149.941406 121.671875 C 149.460938 121.152344 149.21875 120.402344 149.21875 119.425781 C 149.21875 118.789062 149.324219 118.234375 149.53125 117.765625 C 149.738281 117.296875 150.050781 116.945312 150.46875 116.710938 C 150.898438 116.476562 151.367188 116.359375 151.875 116.359375 C 152.5 116.359375 153.015625 116.523438 153.417969 116.847656 C 153.820312 117.160156 154.082031 117.609375 154.199219 118.195312 L 153.242188 118.351562 C 153.152344 117.960938 152.988281 117.667969 152.753906 117.472656 C 152.519531 117.265625 152.238281 117.160156 151.914062 117.160156 C 151.40625 117.160156 150.996094 117.34375 150.683594 117.707031 C 150.382812 118.058594 150.234375 118.621094 150.234375 119.386719 C 150.234375 120.183594 150.382812 120.753906 150.683594 121.105469 C 150.984375 121.457031 151.375 121.632812 151.855469 121.632812 C 152.246094 121.632812 152.570312 121.515625 152.832031 121.28125 C 153.09375 121.046875 153.253906 120.683594 153.320312 120.1875 Z M 153.320312 120.1875 "/>
<path style=" stroke:none;fill-rule:nonzero;fill:rgb(0%,0%,0%);fill-opacity:1;" d="M 154.765625 119.40625 C 154.765625 118.328125 155.066406 117.527344 155.664062 117.003906 C 156.171875 116.574219 156.785156 116.359375 157.5 116.359375 C 158.308594 116.359375 158.964844 116.621094 159.472656 117.140625 C 159.980469 117.664062 160.234375 118.386719 160.234375 119.308594 C 160.234375 120.066406 160.117188 120.65625 159.882812 121.085938 C 159.660156 121.515625 159.335938 121.855469 158.90625 122.101562 C 158.476562 122.335938 158.007812 122.453125 157.5 122.453125 C 156.679688 122.453125 156.015625 122.195312 155.507812 121.671875 C 155.011719 121.140625 154.765625 120.382812 154.765625 119.40625 Z M 155.78125 119.40625 C 155.78125 120.148438 155.945312 120.710938 156.269531 121.085938 C 156.59375 121.453125 157.003906 121.632812 157.5 121.632812 C 157.996094 121.632812 158.40625 121.453125 158.730469 121.085938 C 159.054688 120.710938 159.21875 120.136719 159.21875 119.367188 C 159.21875 118.652344 159.054688 118.105469 158.730469 117.726562 C 158.40625 117.351562 157.996094 117.160156 157.5 117.160156 C 157.003906 117.160156 156.59375 117.351562 156.269531 117.726562 C 155.945312 118.09375 155.78125 118.652344 155.78125 119.40625 Z M 155.78125 119.40625 "/>
<path style=" stroke:none;fill-rule:nonzero;fill:rgb(0%,0%,0%);fill-opacity:1;" d="M 165.183594 122.316406 L 165.183594 121.574219 C 164.804688 122.160156 164.257812 122.453125 163.542969 122.453125 C 163.085938 122.453125 162.664062 122.320312 162.273438 122.0625 C 161.882812 121.804688 161.574219 121.445312 161.355469 120.988281 C 161.144531 120.535156 161.042969 120.007812 161.042969 119.40625 C 161.042969 118.820312 161.140625 118.292969 161.335938 117.824219 C 161.53125 117.34375 161.816406 116.980469 162.195312 116.730469 C 162.585938 116.484375 163.019531 116.359375 163.503906 116.359375 C 163.855469 116.359375 164.167969 116.433594 164.441406 116.574219 C 164.714844 116.71875 164.933594 116.914062 165.105469 117.160156 L 165.105469 114.269531 L 166.101562 114.269531 L 166.101562 122.316406 Z M 162.058594 119.40625 C 162.058594 120.148438 162.214844 120.710938 162.527344 121.085938 C 162.839844 121.453125 163.210938 121.632812 163.640625 121.632812 C 164.070312 121.632812 164.433594 121.457031 164.734375 121.105469 C 165.046875 120.753906 165.203125 120.214844 165.203125 119.484375 C 165.203125 118.691406 165.046875 118.105469 164.734375 117.726562 C 164.421875 117.351562 164.042969 117.160156 163.601562 117.160156 C 163.15625 117.160156 162.785156 117.34375 162.488281 117.707031 C 162.199219 118.074219 162.058594 118.640625 162.058594 119.40625 Z M 162.058594 119.40625 "/>
<path style=" stroke:none;fill-rule:nonzero;fill:rgb(0%,0%,0%);fill-opacity:1;" d="M 171.636719 120.441406 L 172.671875 120.558594 C 172.5 121.160156 172.195312 121.628906 171.753906 121.964844 C 171.324219 122.292969 170.769531 122.453125 170.09375 122.453125 C 169.246094 122.453125 168.570312 122.195312 168.0625 121.671875 C 167.566406 121.140625 167.320312 120.398438 167.320312 119.445312 C 167.320312 118.46875 167.574219 117.714844 168.082031 117.179688 C 168.589844 116.632812 169.246094 116.359375 170.054688 116.359375 C 170.835938 116.359375 171.464844 116.628906 171.949219 117.160156 C 172.441406 117.683594 172.691406 118.425781 172.691406 119.386719 C 172.691406 119.453125 172.691406 119.542969 172.691406 119.660156 L 168.335938 119.660156 C 168.375 120.300781 168.554688 120.789062 168.882812 121.125 C 169.207031 121.464844 169.617188 121.632812 170.113281 121.632812 C 170.476562 121.632812 170.78125 121.542969 171.03125 121.359375 C 171.289062 121.164062 171.492188 120.859375 171.636719 120.441406 Z M 168.394531 118.839844 L 171.65625 118.839844 C 171.617188 118.347656 171.492188 117.976562 171.285156 117.726562 C 170.972656 117.351562 170.5625 117.160156 170.054688 117.160156 C 169.597656 117.160156 169.214844 117.316406 168.902344 117.628906 C 168.601562 117.929688 168.433594 118.332031 168.394531 118.839844 Z M 168.394531 118.839844 "/>
<path style=" stroke:none;fill-rule:nonzero;fill:rgb(0%,0%,0%);fill-opacity:1;" d="M 173.890625 122.316406 L 173.890625 116.476562 L 174.789062 116.476562 L 174.789062 117.375 C 175.007812 116.960938 175.21875 116.6875 175.414062 116.554688 C 175.609375 116.425781 175.824219 116.359375 176.058594 116.359375 C 176.378906 116.359375 176.722656 116.464844 177.074219 116.671875 L 176.722656 117.589844 C 176.488281 117.449219 176.242188 117.375 176 117.375 C 175.789062 117.375 175.59375 117.441406 175.414062 117.570312 C 175.242188 117.703125 175.121094 117.882812 175.042969 118.117188 C 174.933594 118.46875 174.886719 118.855469 174.886719 119.269531 L 174.886719 122.316406 Z M 173.890625 122.316406 "/>
<path style="fill:none;stroke-width:1;stroke-linecap:round;stroke-linejoin:round;stroke:rgb(0%,0%,0%);stroke-opacity:1;stroke-miterlimit:10;" d="M 180.953125 217.246875 L 180.953125 205.65 " transform="matrix(1.25,0,0,1.25,-201.25,-230)"/>
<path style="fill:none;stroke-width:1;stroke-linecap:butt;stroke-linejoin:miter;stroke:rgb(0%,0%,0%);stroke-opacity:1;stroke-miterlimit:10;" d="M 180.953125 201.65 L 180.953125 205.65 M 179.453125 205.65 L 180.953125 201.65 L 182.453125 205.65 " transform="matrix(1.25,0,0,1.25,-201.25,-230)"/>
</g>
</svg>
