<?xml version="1.0" encoding="UTF-8"?>
<svg xmlns="http://www.w3.org/2000/svg" xmlns:xlink="http://www.w3.org/1999/xlink" width="493pt" height="221pt" viewBox="0 0 493 221" version="1.1">
<g id="surface1">
<path style="fill-rule:nonzero;fill:rgb(100%,100%,100%);fill-opacity:1;stroke-width:1;stroke-linecap:round;stroke-linejoin:round;stroke:rgb(0%,0%,0%);stroke-opacity:1;stroke-miterlimit:10;" d="M 112 235.8875 L 244.5 235.8875 C 248.91875 235.8875 252.5 239.46875 252.5 243.8875 L 252.5 306.8875 C 252.5 311.30625 248.91875 314.8875 244.5 314.8875 L 112 314.8875 C 107.58125 314.8875 104 311.30625 104 306.8875 L 104 243.8875 C 104 239.46875 107.58125 235.8875 112 235.8875 Z M 112 235.8875 " transform="matrix(1.25,0,0,1.25,41.25,-293.75)"/>
<path style="fill-rule:nonzero;fill:rgb(100%,100%,100%);fill-opacity:1;stroke-width:1;stroke-linecap:round;stroke-linejoin:round;stroke:rgb(0%,0%,0%);stroke-opacity:1;stroke-miterlimit:10;" d="M 112 332.190625 L 244.5 332.190625 C 248.91875 332.190625 252.5 335.775 252.5 340.190625 L 252.5 403.190625 C 252.5 407.609375 248.91875 411.190625 244.5 411.190625 L 112 411.190625 C 107.58125 411.190625 104 407.609375 104 403.190625 L 104 340.190625 C 104 335.775 107.58125 332.190625 112 332.190625 Z M 112 332.190625 " transform="matrix(1.25,0,0,1.25,41.25,-293.75)"/>
<path style=" stroke:none;fill-rule:nonzero;fill:rgb(0%,0%,0%);fill-opacity:1;" d="M 296.5 134.574219 L 296.5 133.636719 L 299.917969 133.636719 L 299.917969 136.625 C 299.394531 137.046875 298.851562 137.359375 298.296875 137.5625 C 297.734375 137.769531 297.164062 137.875 296.578125 137.875 C 295.796875 137.875 295.078125 137.710938 294.429688 137.367188 C 293.773438 137.03125 293.285156 136.542969 292.964844 135.902344 C 292.636719 135.269531 292.476562 134.550781 292.476562 133.753906 C 292.476562 132.972656 292.636719 132.246094 292.964844 131.566406 C 293.285156 130.878906 293.753906 130.371094 294.371094 130.042969 C 294.996094 129.722656 295.703125 129.554688 296.5 129.554688 C 297.085938 129.554688 297.613281 129.652344 298.082031 129.847656 C 298.550781 130.035156 298.910156 130.292969 299.175781 130.628906 C 299.449219 130.957031 299.652344 131.390625 299.800781 131.9375 L 298.84375 132.191406 C 298.710938 131.792969 298.554688 131.46875 298.375 131.234375 C 298.203125 131 297.949219 130.816406 297.613281 130.667969 C 297.285156 130.527344 296.914062 130.453125 296.5 130.453125 C 296.015625 130.453125 295.589844 130.53125 295.230469 130.6875 C 294.878906 130.835938 294.589844 131.03125 294.371094 131.273438 C 294.160156 131.507812 294 131.773438 293.882812 132.054688 C 293.671875 132.5625 293.570312 133.105469 293.570312 133.675781 C 293.570312 134.410156 293.691406 135.015625 293.941406 135.492188 C 294.183594 135.976562 294.546875 136.332031 295.015625 136.566406 C 295.484375 136.800781 295.980469 136.917969 296.519531 136.917969 C 296.988281 136.917969 297.4375 136.835938 297.867188 136.664062 C 298.304688 136.484375 298.648438 136.289062 298.882812 136.078125 L 298.882812 134.574219 Z M 296.5 134.574219 "/>
<path style=" stroke:none;fill-rule:nonzero;fill:rgb(0%,0%,0%);fill-opacity:1;" d="M 301.480469 137.738281 L 301.480469 129.691406 L 304.527344 129.691406 C 305.058594 129.691406 305.46875 129.722656 305.757812 129.769531 C 306.148438 129.839844 306.46875 129.960938 306.734375 130.140625 C 307.007812 130.328125 307.222656 130.585938 307.378906 130.921875 C 307.542969 131.25 307.632812 131.617188 307.632812 132.015625 C 307.632812 132.710938 307.40625 133.285156 306.96875 133.753906 C 306.539062 134.222656 305.757812 134.457031 304.625 134.457031 L 302.554688 134.457031 L 302.554688 137.738281 Z M 302.554688 133.519531 L 304.644531 133.519531 C 305.316406 133.519531 305.800781 133.394531 306.089844 133.128906 C 306.386719 132.871094 306.539062 132.515625 306.539062 132.054688 C 306.539062 131.71875 306.449219 131.429688 306.285156 131.195312 C 306.113281 130.953125 305.882812 130.785156 305.601562 130.707031 C 305.429688 130.660156 305.097656 130.628906 304.605469 130.628906 L 302.554688 130.628906 Z M 302.554688 133.519531 "/>
<path style=" stroke:none;fill-rule:nonzero;fill:rgb(0%,0%,0%);fill-opacity:1;" d="M 314.277344 129.691406 L 315.351562 129.691406 L 315.351562 134.339844 C 315.351562 135.152344 315.253906 135.796875 315.058594 136.273438 C 314.871094 136.742188 314.539062 137.128906 314.0625 137.425781 C 313.59375 137.730469 312.96875 137.875 312.1875 137.875 C 311.429688 137.875 310.808594 137.746094 310.332031 137.484375 C 309.863281 137.226562 309.519531 136.851562 309.316406 136.351562 C 309.105469 135.859375 309.003906 135.191406 309.003906 134.339844 L 309.003906 129.691406 L 310.078125 129.691406 L 310.078125 134.339844 C 310.078125 135.035156 310.140625 135.546875 310.273438 135.882812 C 310.398438 136.210938 310.625 136.464844 310.9375 136.644531 C 311.25 136.832031 311.640625 136.917969 312.109375 136.917969 C 312.890625 136.917969 313.441406 136.742188 313.769531 136.390625 C 314.105469 136.03125 314.277344 135.347656 314.277344 134.339844 Z M 314.277344 129.691406 "/>
<path style=" stroke:none;fill-rule:nonzero;fill:rgb(0%,0%,0%);fill-opacity:1;" d="M 323.574219 137.738281 L 322.578125 137.738281 L 322.578125 131.429688 C 322.34375 131.664062 322.03125 131.898438 321.640625 132.132812 C 321.25 132.359375 320.902344 132.519531 320.605469 132.621094 L 320.605469 131.664062 C 321.152344 131.421875 321.628906 131.113281 322.050781 130.746094 C 322.464844 130.371094 322.757812 130.003906 322.929688 129.652344 L 323.574219 129.652344 Z M 323.574219 137.738281 "/>
<path style=" stroke:none;fill-rule:nonzero;fill:rgb(69.803922%,85.098039%,100%);fill-opacity:1;" d="M 76.78125 150.738281 L 145 150.738281 L 145 120.738281 L 76.78125 120.738281 Z M 76.78125 150.738281 "/>
<path style="fill:none;stroke-width:1;stroke-linecap:round;stroke-linejoin:round;stroke:rgb(0%,0%,0%);stroke-opacity:1;stroke-dasharray:4,4;stroke-miterlimit:10;" d="M 28.425 331.590625 L 83 331.590625 L 83 355.590625 L 28.425 355.590625 Z M 28.425 331.590625 " transform="matrix(1.25,0,0,1.25,41.25,-293.75)"/>
<path style="fill:none;stroke-width:1;stroke-linecap:round;stroke-linejoin:round;stroke:rgb(0%,0%,0%);stroke-opacity:1;stroke-miterlimit:10;" d="M 27.925 331.5375 L 83.23125 331.5375 L 83.23125 379.5375 L 27.925 379.5375 Z M 27.925 331.5375 " transform="matrix(1.25,0,0,1.25,41.25,-293.75)"/>
<path style=" stroke:none;fill-rule:nonzero;fill:rgb(40%,74.901961%,100%);fill-opacity:1;" d="M 191.347656 43.125 L 260.476562 43.125 L 260.476562 13.125 L 191.347656 13.125 Z M 191.347656 43.125 "/>
<path style="fill:none;stroke-width:1;stroke-linecap:round;stroke-linejoin:round;stroke:rgb(0%,0%,0%);stroke-opacity:1;stroke-miterlimit:10;" d="M 120.078125 245.5 L 175.38125 245.5 L 175.38125 269.5 L 120.078125 269.5 Z M 120.078125 245.5 " transform="matrix(1.25,0,0,1.25,41.25,-293.75)"/>
<path style=" stroke:none;fill-rule:nonzero;fill:rgb(0%,0%,0%);fill-opacity:1;" d="M 218.589844 24.238281 L 218.589844 24.960938 L 220.230469 24.960938 L 220.230469 25.800781 L 220.992188 25.800781 L 220.992188 24.960938 L 222.789062 24.960938 L 222.789062 25.800781 L 223.570312 25.800781 L 223.570312 24.960938 L 225.308594 24.960938 L 225.308594 24.238281 L 223.570312 24.238281 L 223.570312 23.339844 L 222.789062 23.339844 L 222.789062 24.238281 L 220.992188 24.238281 L 220.992188 23.339844 L 220.230469 23.339844 L 220.230469 24.238281 Z M 221.753906 31.308594 C 222.398438 32.246094 223.453125 33.027344 224.917969 33.652344 L 225.445312 33.007812 C 224.117188 32.539062 223.140625 31.933594 222.476562 31.152344 L 225.328125 31.152344 L 225.328125 30.410156 L 222.085938 30.410156 C 222.164062 30.15625 222.222656 29.882812 222.261719 29.570312 L 224.566406 29.570312 L 224.566406 26.152344 L 219.195312 26.152344 L 219.195312 29.570312 L 221.558594 29.570312 C 221.5 29.863281 221.421875 30.15625 221.34375 30.410156 L 218.375 30.410156 L 218.375 31.152344 L 220.992188 31.152344 C 220.914062 31.328125 220.796875 31.464844 220.679688 31.601562 C 220.191406 32.1875 219.390625 32.617188 218.257812 32.929688 L 218.550781 33.59375 C 219.859375 33.222656 220.757812 32.734375 221.265625 32.070312 C 221.441406 31.855469 221.617188 31.582031 221.753906 31.308594 Z M 217.496094 27.871094 C 217.789062 28.320312 218.160156 28.925781 218.570312 29.667969 L 219 29.023438 C 218.472656 28.261719 217.984375 27.597656 217.496094 27.011719 L 217.496094 26.269531 L 218.6875 26.269531 L 218.6875 25.527344 L 217.496094 25.527344 L 217.496094 23.359375 L 216.734375 23.359375 L 216.734375 25.527344 L 215.425781 25.527344 L 215.425781 26.269531 L 216.734375 26.269531 L 216.734375 26.328125 C 216.402344 27.714844 215.835938 28.925781 215.054688 30 L 215.40625 30.878906 C 215.953125 30.019531 216.382812 29.042969 216.734375 27.988281 L 216.734375 33.59375 L 217.496094 33.59375 Z M 223.84375 28.925781 L 219.917969 28.925781 L 219.917969 28.164062 L 223.84375 28.164062 Z M 219.917969 27.558594 L 219.917969 26.816406 L 223.84375 26.816406 L 223.84375 27.558594 Z M 219.917969 27.558594 "/>
<path style=" stroke:none;fill-rule:nonzero;fill:rgb(0%,0%,0%);fill-opacity:1;" d="M 226.96875 23.808594 L 226.96875 24.53125 L 228.101562 24.53125 L 228.101562 26.230469 L 226.675781 26.230469 L 226.675781 26.972656 L 228.0625 26.972656 C 227.945312 27.890625 227.574219 28.574219 226.949219 29.042969 L 227.554688 29.570312 C 228.296875 28.984375 228.726562 28.125 228.84375 26.972656 L 230.328125 26.972656 L 230.328125 29.433594 L 231.109375 29.433594 L 231.109375 26.972656 L 232.496094 26.972656 L 232.496094 26.230469 L 231.109375 26.230469 L 231.109375 24.53125 L 232.242188 24.53125 L 232.242188 23.808594 Z M 228.882812 24.53125 L 230.328125 24.53125 L 230.328125 26.230469 L 228.882812 26.230469 Z M 233.160156 24.082031 L 233.160156 27.949219 L 233.941406 27.949219 L 233.941406 24.082031 Z M 227.222656 30.546875 L 227.222656 31.289062 L 231.1875 31.289062 L 231.1875 32.597656 L 226.597656 32.597656 L 226.597656 33.339844 L 236.480469 33.339844 L 236.480469 32.597656 L 231.988281 32.597656 L 231.988281 31.289062 L 235.855469 31.289062 L 235.855469 30.546875 L 231.988281 30.546875 L 231.988281 29.570312 L 231.1875 29.570312 L 231.1875 30.546875 Z M 235.074219 29.550781 C 235.660156 29.550781 235.972656 29.199219 235.972656 28.515625 L 235.972656 23.457031 L 235.191406 23.457031 L 235.191406 28.320312 C 235.191406 28.652344 235.054688 28.828125 234.800781 28.828125 C 234.351562 28.828125 233.882812 28.808594 233.394531 28.769531 L 233.570312 29.550781 Z M 235.074219 29.550781 "/>
<path style=" stroke:none;fill-rule:nonzero;fill:rgb(40%,74.901961%,100%);fill-opacity:1;" d="M 420.625 130.113281 L 490.664062 130.113281 L 490.664062 84.09375 L 420.625 84.09375 Z M 420.625 130.113281 "/>
<path style="fill:none;stroke-width:1;stroke-linecap:round;stroke-linejoin:round;stroke:rgb(0%,0%,0%);stroke-opacity:1;stroke-miterlimit:10;" d="M 303.5 302.275 L 359.53125 302.275 L 359.53125 339.090625 L 303.5 339.090625 Z M 303.5 302.275 " transform="matrix(1.25,0,0,1.25,41.25,-293.75)"/>
<path style=" stroke:none;fill-rule:nonzero;fill:rgb(0%,0%,0%);fill-opacity:1;" d="M 432.597656 104.351562 C 433.378906 104.351562 433.769531 103.960938 433.769531 103.160156 L 433.769531 94.332031 L 432.929688 94.332031 L 432.929688 102.945312 C 432.929688 103.375 432.714844 103.589844 432.304688 103.589844 C 431.796875 103.589844 431.25 103.550781 430.683594 103.511719 L 430.878906 104.351562 Z M 429.921875 96.949219 C 429.472656 98.960938 428.808594 100.582031 427.910156 101.773438 L 428.59375 102.378906 C 429.472656 101.226562 430.195312 99.507812 430.722656 97.261719 Z M 436.308594 96.675781 L 435.566406 97.125 C 436.445312 99.078125 437.128906 100.855469 437.636719 102.4375 L 438.359375 101.929688 C 437.871094 100.445312 437.1875 98.6875 436.308594 96.675781 Z M 436.308594 96.675781 "/>
<path style=" stroke:none;fill-rule:nonzero;fill:rgb(0%,0%,0%);fill-opacity:1;" d="M 442.597656 99.078125 C 442.226562 99.234375 441.875 99.390625 441.503906 99.527344 L 441.503906 97.027344 L 442.617188 97.027344 L 442.617188 96.246094 L 441.503906 96.246094 L 441.503906 94.15625 L 440.722656 94.15625 L 440.722656 96.246094 L 439.453125 96.246094 L 439.453125 97.027344 L 440.722656 97.027344 L 440.722656 99.78125 C 440.253906 99.917969 439.785156 100.035156 439.316406 100.132812 L 439.492188 100.894531 C 439.902344 100.796875 440.3125 100.679688 440.722656 100.5625 L 440.722656 103.238281 C 440.722656 103.53125 440.585938 103.667969 440.3125 103.667969 C 440.039062 103.667969 439.746094 103.648438 439.453125 103.609375 L 439.609375 104.410156 L 440.585938 104.410156 C 441.191406 104.410156 441.503906 104.078125 441.503906 103.433594 L 441.503906 100.289062 C 441.855469 100.152344 442.226562 99.996094 442.597656 99.839844 Z M 443.945312 98.296875 L 445.527344 98.296875 L 445.527344 97.515625 L 443.945312 97.515625 L 443.945312 94.273438 L 443.144531 94.273438 L 443.144531 103.101562 C 443.144531 103.335938 443.027344 103.511719 442.773438 103.589844 L 442.96875 104.351562 C 443.945312 104.117188 444.804688 103.84375 445.566406 103.53125 L 445.410156 102.789062 C 444.960938 103.003906 444.492188 103.179688 443.945312 103.316406 Z M 447.988281 104.332031 C 448.4375 104.332031 448.75 104.195312 448.964844 103.980469 C 449.199219 103.707031 449.355469 102.964844 449.433594 101.714844 L 448.691406 101.480469 C 448.652344 102.496094 448.554688 103.101562 448.417969 103.316406 C 448.300781 103.472656 448.125 103.550781 447.851562 103.550781 L 447.304688 103.550781 C 447.011719 103.550781 446.875 103.394531 446.875 103.101562 L 446.875 98.414062 C 447.636719 98.160156 448.457031 97.789062 449.316406 97.320312 L 448.847656 96.65625 C 448.203125 97.046875 447.539062 97.378906 446.875 97.59375 L 446.875 94.195312 L 446.074219 94.195312 L 446.074219 103.257812 C 446.074219 103.960938 446.40625 104.332031 447.050781 104.332031 Z M 447.988281 104.332031 "/>
<path style=" stroke:none;fill-rule:nonzero;fill:rgb(0%,0%,0%);fill-opacity:1;" d="M 451.738281 98.882812 L 451.738281 101.753906 L 455.234375 101.753906 L 455.234375 102.378906 L 451.464844 102.378906 L 451.464844 102.925781 L 455.234375 102.925781 L 455.234375 103.589844 L 450.625 103.589844 L 450.625 104.214844 L 460.664062 104.214844 L 460.664062 103.589844 L 456.035156 103.589844 L 456.035156 102.925781 L 459.84375 102.925781 L 459.84375 102.378906 L 456.035156 102.378906 L 456.035156 101.753906 L 459.570312 101.753906 L 459.570312 98.882812 Z M 458.789062 101.246094 L 456.035156 101.246094 L 456.035156 100.5625 L 458.789062 100.5625 Z M 455.234375 101.246094 L 452.519531 101.246094 L 452.519531 100.5625 L 455.234375 100.5625 Z M 452.519531 100.074219 L 452.519531 99.390625 L 455.234375 99.390625 L 455.234375 100.074219 Z M 456.035156 99.390625 L 458.789062 99.390625 L 458.789062 100.074219 L 456.035156 100.074219 Z M 451.992188 94.351562 L 451.992188 97.125 L 459.335938 97.125 L 459.335938 94.351562 Z M 458.554688 96.636719 L 452.773438 96.636719 L 452.773438 95.972656 L 458.554688 95.972656 Z M 452.773438 95.484375 L 452.773438 94.839844 L 458.554688 94.839844 L 458.554688 95.484375 Z M 450.605469 97.710938 L 450.605469 98.316406 L 460.683594 98.316406 L 460.683594 97.710938 Z M 450.605469 97.710938 "/>
<path style=" stroke:none;fill-rule:nonzero;fill:rgb(0%,0%,0%);fill-opacity:1;" d="M 462.207031 94.605469 L 462.207031 104.410156 L 462.949219 104.410156 L 462.949219 95.328125 L 464.277344 95.328125 C 464.121094 96.226562 463.867188 97.222656 463.554688 98.296875 C 464.0625 99.175781 464.316406 99.976562 464.316406 100.679688 C 464.316406 100.933594 464.277344 101.089844 464.199219 101.1875 C 464.121094 101.285156 463.984375 101.34375 463.828125 101.363281 C 463.671875 101.363281 463.457031 101.34375 463.222656 101.324219 L 463.457031 102.085938 C 464.101562 102.066406 464.53125 101.929688 464.785156 101.675781 C 464.980469 101.480469 465.058594 101.148438 465.058594 100.679688 C 465.019531 99.976562 464.765625 99.15625 464.277344 98.199219 C 464.570312 97.164062 464.824219 96.167969 465.019531 95.230469 L 465.019531 94.605469 Z M 465.859375 94.820312 L 465.253906 95.191406 C 465.683594 95.835938 466.035156 96.441406 466.289062 97.007812 L 466.875 96.578125 C 466.640625 96.089844 466.308594 95.484375 465.859375 94.820312 Z M 469.84375 103.550781 C 469.453125 103.550781 469.0625 103.53125 468.671875 103.53125 C 468.261719 103.492188 467.890625 103.414062 467.597656 103.296875 C 467.265625 103.121094 466.992188 102.90625 466.796875 102.632812 C 466.777344 102.59375 466.738281 102.574219 466.71875 102.535156 L 466.71875 97.945312 L 465 97.945312 L 465 98.667969 L 465.957031 98.667969 L 465.957031 102.417969 C 465.566406 102.59375 465.097656 103.082031 464.53125 103.84375 L 465.019531 104.449219 C 465.644531 103.550781 466.074219 103.121094 466.289062 103.121094 C 466.40625 103.121094 466.523438 103.199219 466.660156 103.375 C 466.914062 103.6875 467.207031 103.921875 467.578125 104.058594 C 467.929688 104.195312 468.359375 104.253906 468.847656 104.273438 C 469.160156 104.273438 469.472656 104.292969 469.804688 104.292969 L 471.835938 104.292969 L 472.03125 103.53125 C 471.347656 103.53125 470.625 103.550781 469.84375 103.550781 Z M 467.148438 95.25 L 467.148438 95.992188 L 468.535156 95.992188 C 468.164062 97.242188 467.617188 98.257812 466.875 99.058594 L 467.285156 99.605469 C 467.578125 99.332031 467.851562 99 468.105469 98.628906 L 468.105469 102.886719 L 468.808594 102.886719 L 468.808594 100.972656 L 470.800781 100.972656 L 470.800781 101.832031 C 470.800781 102.066406 470.703125 102.203125 470.507812 102.203125 C 470.273438 102.203125 470.019531 102.183594 469.746094 102.144531 L 469.941406 102.847656 L 470.761719 102.847656 C 471.269531 102.828125 471.542969 102.574219 471.542969 102.066406 L 471.542969 97.105469 L 468.90625 97.105469 C 469.042969 96.753906 469.179688 96.382812 469.296875 95.992188 L 471.972656 95.992188 L 471.972656 95.25 L 469.492188 95.25 C 469.570312 94.9375 469.628906 94.605469 469.6875 94.273438 L 468.90625 94.175781 C 468.847656 94.527344 468.789062 94.878906 468.710938 95.25 Z M 468.808594 99.410156 L 470.800781 99.410156 L 470.800781 100.328125 L 468.808594 100.328125 Z M 470.800781 98.746094 L 468.808594 98.746094 L 468.808594 97.75 L 470.800781 97.75 Z M 470.800781 98.746094 "/>
<path style=" stroke:none;fill-rule:nonzero;fill:rgb(0%,0%,0%);fill-opacity:1;" d="M 473.164062 96.363281 L 473.164062 97.144531 L 474.824219 97.144531 C 474.433594 98.550781 473.828125 99.800781 472.949219 100.894531 L 473.300781 101.773438 C 473.945312 100.855469 474.453125 99.839844 474.84375 98.707031 L 474.84375 104.429688 L 475.664062 104.429688 L 475.664062 98.492188 C 475.976562 98.941406 476.347656 99.507812 476.777344 100.210938 L 477.246094 99.527344 C 476.699219 98.863281 476.171875 98.257812 475.664062 97.710938 L 475.664062 97.144531 L 477.050781 97.144531 L 477.050781 96.363281 L 475.664062 96.363281 L 475.664062 94.175781 L 474.84375 94.175781 L 474.84375 96.363281 Z M 476.523438 103.921875 L 477.1875 104.527344 C 477.714844 103.707031 478.085938 102.886719 478.261719 102.007812 C 478.476562 101.167969 478.574219 100.132812 478.574219 98.902344 L 478.574219 95.40625 L 480.566406 95.40625 L 480.566406 103.238281 C 480.566406 103.882812 480.9375 104.214844 481.660156 104.214844 L 482.109375 104.214844 C 482.480469 104.214844 482.753906 104.136719 482.929688 104.019531 C 483.105469 103.863281 483.222656 103.589844 483.261719 103.179688 C 483.300781 102.75 483.339844 102.144531 483.339844 101.34375 L 482.597656 101.109375 C 482.597656 102.183594 482.558594 102.828125 482.519531 103.042969 C 482.5 103.21875 482.441406 103.316406 482.34375 103.375 C 482.265625 103.414062 482.167969 103.453125 482.03125 103.453125 L 481.660156 103.453125 C 481.464844 103.453125 481.386719 103.335938 481.386719 103.160156 L 481.386719 94.644531 L 477.753906 94.644531 L 477.753906 98.902344 C 477.753906 100.054688 477.675781 100.972656 477.539062 101.675781 C 477.34375 102.457031 477.011719 103.21875 476.523438 103.921875 Z M 476.523438 103.921875 "/>
<path style=" stroke:none;fill-rule:nonzero;fill:rgb(0%,0%,0%);fill-opacity:1;" d="M 436.054688 115.054688 C 436.328125 115.542969 436.640625 116.167969 436.992188 116.910156 L 437.441406 116.246094 C 436.972656 115.464844 436.503906 114.761719 436.054688 114.136719 L 436.054688 113.394531 L 437.265625 113.394531 L 437.265625 112.613281 L 436.054688 112.613281 L 436.054688 110.445312 L 435.253906 110.445312 L 435.253906 112.613281 L 433.808594 112.613281 L 433.808594 113.394531 L 435.253906 113.394531 L 435.253906 113.472656 C 434.902344 114.78125 434.355469 115.953125 433.574219 117.027344 L 433.90625 117.867188 C 434.453125 117.027344 434.902344 116.089844 435.253906 115.054688 L 435.253906 120.699219 L 436.054688 120.699219 Z M 440.15625 113.003906 L 440.15625 114.371094 L 438.144531 114.371094 L 437.695312 117.066406 L 440.078125 117.066406 C 439.433594 118.101562 438.417969 118.980469 436.992188 119.644531 L 437.421875 120.347656 C 438.59375 119.664062 439.511719 118.863281 440.15625 117.886719 L 440.15625 120.738281 L 440.957031 120.738281 L 440.957031 117.066406 L 442.871094 117.066406 C 442.871094 117.847656 442.851562 118.375 442.792969 118.667969 C 442.714844 118.980469 442.558594 119.136719 442.285156 119.136719 C 442.03125 119.136719 441.777344 119.117188 441.484375 119.097656 L 441.679688 119.839844 C 441.914062 119.839844 442.148438 119.859375 442.402344 119.859375 C 442.929688 119.839844 443.242188 119.625 443.398438 119.195312 C 443.535156 118.804688 443.613281 117.867188 443.613281 116.382812 L 440.957031 116.382812 L 440.957031 115.074219 L 443.261719 115.074219 L 443.261719 112.300781 L 441.621094 112.300781 C 441.992188 111.792969 442.304688 111.207031 442.578125 110.582031 L 441.816406 110.367188 C 441.503906 111.109375 441.152344 111.753906 440.742188 112.300781 L 437.773438 112.300781 L 437.773438 113.003906 Z M 440.15625 115.074219 L 440.15625 116.382812 L 438.515625 116.382812 L 438.769531 115.074219 Z M 440.957031 114.371094 L 440.957031 113.003906 L 442.558594 113.003906 L 442.558594 114.371094 Z M 439.0625 110.464844 L 438.339844 110.699219 C 438.671875 111.148438 439.003906 111.65625 439.277344 112.242188 L 439.980469 111.949219 C 439.707031 111.421875 439.414062 110.933594 439.0625 110.464844 Z M 439.0625 110.464844 "/>
<path style=" stroke:none;fill-rule:nonzero;fill:rgb(0%,0%,0%);fill-opacity:1;" d="M 447.324219 116.597656 L 447.324219 117.300781 L 448.007812 117.300781 C 448.535156 118.003906 449.21875 118.628906 450.058594 119.136719 C 449.042969 119.566406 447.871094 119.878906 446.5625 120.074219 L 446.914062 120.777344 C 448.398438 120.523438 449.707031 120.113281 450.859375 119.585938 C 451.914062 120.113281 453.242188 120.523438 454.785156 120.777344 L 455.136719 120.074219 C 453.808594 119.898438 452.636719 119.585938 451.621094 119.175781 C 452.519531 118.628906 453.300781 117.964844 453.925781 117.203125 L 453.925781 116.597656 Z M 448.867188 117.300781 L 452.871094 117.300781 C 452.285156 117.867188 451.601562 118.375 450.800781 118.785156 C 450.039062 118.375 449.394531 117.886719 448.867188 117.300781 Z M 446.679688 114.078125 L 448.574219 114.078125 L 448.574219 115.835938 L 453.125 115.835938 L 453.125 114.078125 L 454.863281 114.078125 L 454.863281 113.335938 L 453.125 113.335938 L 453.125 112.417969 L 452.34375 112.417969 L 452.34375 113.335938 L 449.355469 113.335938 L 449.355469 112.4375 L 448.574219 112.4375 L 448.574219 113.335938 L 446.679688 113.335938 L 446.679688 112.066406 L 454.882812 112.066406 L 454.882812 111.285156 L 451.015625 111.285156 C 450.898438 110.953125 450.761719 110.640625 450.625 110.367188 L 449.765625 110.484375 C 449.921875 110.738281 450.058594 110.992188 450.195312 111.285156 L 445.859375 111.285156 L 445.859375 114.957031 C 445.839844 117.183594 445.507812 118.902344 444.863281 120.152344 L 445.46875 120.699219 C 446.230469 119.253906 446.640625 117.339844 446.679688 114.957031 Z M 449.355469 114.078125 L 452.34375 114.078125 L 452.34375 115.152344 L 449.355469 115.152344 Z M 449.355469 114.078125 "/>
<path style=" stroke:none;fill-rule:nonzero;fill:rgb(0%,0%,0%);fill-opacity:1;" d="M 456.269531 111.011719 L 456.269531 111.8125 L 460.566406 111.8125 L 460.566406 120.757812 L 461.386719 120.757812 L 461.386719 114.371094 C 462.402344 114.898438 463.652344 115.660156 465.15625 116.65625 L 465.625 115.933594 C 464.199219 115.015625 462.773438 114.214844 461.386719 113.511719 L 461.386719 111.8125 L 466.269531 111.8125 L 466.269531 111.011719 Z M 456.269531 111.011719 "/>
<path style=" stroke:none;fill-rule:nonzero;fill:rgb(0%,0%,0%);fill-opacity:1;" d="M 471.445312 118.941406 L 474.179688 118.941406 L 474.179688 120.71875 L 474.941406 120.71875 L 474.941406 118.941406 L 477.34375 118.941406 L 477.34375 118.21875 L 474.941406 118.21875 L 474.941406 116.558594 L 476.972656 116.558594 L 476.972656 115.835938 L 474.941406 115.835938 L 474.941406 115.015625 L 474.179688 115.015625 L 474.179688 115.835938 L 471.464844 115.835938 L 471.464844 116.558594 L 474.179688 116.558594 L 474.179688 118.21875 L 472.382812 118.21875 L 472.695312 117.085938 L 471.972656 116.96875 Z M 467.8125 110.894531 L 467.8125 120.738281 L 468.574219 120.738281 L 468.574219 111.65625 L 470.351562 111.65625 C 470.058594 112.59375 469.667969 113.648438 469.160156 114.820312 C 469.902344 115.777344 470.292969 116.636719 470.292969 117.398438 C 470.292969 117.632812 470.214844 117.789062 470.097656 117.867188 C 469.960938 117.964844 469.707031 118.003906 469.316406 118.023438 C 469.199219 118.023438 469.0625 118.003906 468.886719 117.984375 L 469.140625 118.824219 C 469.902344 118.804688 470.429688 118.667969 470.742188 118.414062 C 470.976562 118.21875 471.074219 117.867188 471.074219 117.398438 C 471.035156 116.597656 470.664062 115.699219 469.960938 114.703125 C 470.410156 113.589844 470.800781 112.535156 471.152344 111.519531 L 471.152344 110.894531 Z M 473.203125 110.386719 C 472.617188 111.441406 471.875 112.28125 470.976562 112.925781 L 471.464844 113.550781 C 471.796875 113.296875 472.089844 113.042969 472.363281 112.75 C 472.65625 113.179688 473.066406 113.550781 473.554688 113.882812 C 472.8125 114.214844 471.933594 114.46875 470.917969 114.664062 L 471.308594 115.367188 C 472.480469 115.09375 473.476562 114.742188 474.316406 114.3125 C 475.136719 114.742188 476.171875 115.074219 477.382812 115.289062 L 477.675781 114.585938 C 476.679688 114.390625 475.820312 114.15625 475.097656 113.863281 C 475.878906 113.316406 476.464844 112.691406 476.796875 111.949219 L 476.796875 111.304688 L 473.515625 111.304688 C 473.671875 111.070312 473.808594 110.835938 473.964844 110.5625 Z M 474.335938 113.492188 C 473.691406 113.121094 473.203125 112.710938 472.851562 112.222656 C 472.910156 112.144531 472.949219 112.085938 473.007812 112.007812 L 475.9375 112.007812 C 475.566406 112.574219 475.039062 113.0625 474.335938 113.492188 Z M 474.335938 113.492188 "/>
<path style=" stroke:none;fill-rule:nonzero;fill:rgb(69.803922%,85.098039%,100%);fill-opacity:1;" d="M 191.347656 88.496094 L 261.386719 88.496094 L 261.386719 58.496094 L 191.347656 58.496094 Z M 191.347656 88.496094 "/>
<path style="fill:none;stroke-width:1;stroke-linecap:round;stroke-linejoin:round;stroke:rgb(0%,0%,0%);stroke-opacity:1;stroke-miterlimit:10;" d="M 120.078125 281.796875 L 176.109375 281.796875 L 176.109375 305.796875 L 120.078125 305.796875 Z M 120.078125 281.796875 " transform="matrix(1.25,0,0,1.25,41.25,-293.75)"/>
<path style=" stroke:none;fill-rule:nonzero;fill:rgb(0%,0%,0%);fill-opacity:1;" d="M 203.320312 78.867188 C 204.101562 78.867188 204.492188 78.476562 204.492188 77.675781 L 204.492188 68.847656 L 203.652344 68.847656 L 203.652344 77.460938 C 203.652344 77.890625 203.4375 78.105469 203.027344 78.105469 C 202.519531 78.105469 201.972656 78.066406 201.40625 78.027344 L 201.601562 78.867188 Z M 200.644531 71.464844 C 200.195312 73.476562 199.53125 75.097656 198.632812 76.289062 L 199.316406 76.894531 C 200.195312 75.742188 200.917969 74.023438 201.445312 71.777344 Z M 207.03125 71.191406 L 206.289062 71.640625 C 207.167969 73.59375 207.851562 75.371094 208.359375 76.953125 L 209.082031 76.445312 C 208.59375 74.960938 207.910156 73.203125 207.03125 71.191406 Z M 207.03125 71.191406 "/>
<path style=" stroke:none;fill-rule:nonzero;fill:rgb(0%,0%,0%);fill-opacity:1;" d="M 213.320312 73.59375 C 212.949219 73.75 212.597656 73.90625 212.226562 74.042969 L 212.226562 71.542969 L 213.339844 71.542969 L 213.339844 70.761719 L 212.226562 70.761719 L 212.226562 68.671875 L 211.445312 68.671875 L 211.445312 70.761719 L 210.175781 70.761719 L 210.175781 71.542969 L 211.445312 71.542969 L 211.445312 74.296875 C 210.976562 74.433594 210.507812 74.550781 210.039062 74.648438 L 210.214844 75.410156 C 210.625 75.3125 211.035156 75.195312 211.445312 75.078125 L 211.445312 77.753906 C 211.445312 78.046875 211.308594 78.183594 211.035156 78.183594 C 210.761719 78.183594 210.46875 78.164062 210.175781 78.125 L 210.332031 78.925781 L 211.308594 78.925781 C 211.914062 78.925781 212.226562 78.59375 212.226562 77.949219 L 212.226562 74.804688 C 212.578125 74.667969 212.949219 74.511719 213.320312 74.355469 Z M 214.667969 72.8125 L 216.25 72.8125 L 216.25 72.03125 L 214.667969 72.03125 L 214.667969 68.789062 L 213.867188 68.789062 L 213.867188 77.617188 C 213.867188 77.851562 213.75 78.027344 213.496094 78.105469 L 213.691406 78.867188 C 214.667969 78.632812 215.527344 78.359375 216.289062 78.046875 L 216.132812 77.304688 C 215.683594 77.519531 215.214844 77.695312 214.667969 77.832031 Z M 218.710938 78.847656 C 219.160156 78.847656 219.472656 78.710938 219.6875 78.496094 C 219.921875 78.222656 220.078125 77.480469 220.15625 76.230469 L 219.414062 75.996094 C 219.375 77.011719 219.277344 77.617188 219.140625 77.832031 C 219.023438 77.988281 218.847656 78.066406 218.574219 78.066406 L 218.027344 78.066406 C 217.734375 78.066406 217.597656 77.910156 217.597656 77.617188 L 217.597656 72.929688 C 218.359375 72.675781 219.179688 72.304688 220.039062 71.835938 L 219.570312 71.171875 C 218.925781 71.5625 218.261719 71.894531 217.597656 72.109375 L 217.597656 68.710938 L 216.796875 68.710938 L 216.796875 77.773438 C 216.796875 78.476562 217.128906 78.847656 217.773438 78.847656 Z M 218.710938 78.847656 "/>
<path style=" stroke:none;fill-rule:nonzero;fill:rgb(0%,0%,0%);fill-opacity:1;" d="M 222.460938 73.398438 L 222.460938 76.269531 L 225.957031 76.269531 L 225.957031 76.894531 L 222.1875 76.894531 L 222.1875 77.441406 L 225.957031 77.441406 L 225.957031 78.105469 L 221.347656 78.105469 L 221.347656 78.730469 L 231.386719 78.730469 L 231.386719 78.105469 L 226.757812 78.105469 L 226.757812 77.441406 L 230.566406 77.441406 L 230.566406 76.894531 L 226.757812 76.894531 L 226.757812 76.269531 L 230.292969 76.269531 L 230.292969 73.398438 Z M 229.511719 75.761719 L 226.757812 75.761719 L 226.757812 75.078125 L 229.511719 75.078125 Z M 225.957031 75.761719 L 223.242188 75.761719 L 223.242188 75.078125 L 225.957031 75.078125 Z M 223.242188 74.589844 L 223.242188 73.90625 L 225.957031 73.90625 L 225.957031 74.589844 Z M 226.757812 73.90625 L 229.511719 73.90625 L 229.511719 74.589844 L 226.757812 74.589844 Z M 222.714844 68.867188 L 222.714844 71.640625 L 230.058594 71.640625 L 230.058594 68.867188 Z M 229.277344 71.152344 L 223.496094 71.152344 L 223.496094 70.488281 L 229.277344 70.488281 Z M 223.496094 70 L 223.496094 69.355469 L 229.277344 69.355469 L 229.277344 70 Z M 221.328125 72.226562 L 221.328125 72.832031 L 231.40625 72.832031 L 231.40625 72.226562 Z M 221.328125 72.226562 "/>
<path style=" stroke:none;fill-rule:nonzero;fill:rgb(0%,0%,0%);fill-opacity:1;" d="M 232.695312 73.515625 L 232.695312 74.296875 L 237.441406 74.296875 L 237.441406 77.636719 C 237.441406 77.988281 237.265625 78.164062 236.894531 78.164062 C 236.25 78.164062 235.644531 78.144531 235.078125 78.125 L 235.292969 78.925781 L 237.226562 78.925781 C 237.910156 78.925781 238.261719 78.574219 238.261719 77.910156 L 238.261719 74.296875 L 242.539062 74.296875 L 242.539062 73.515625 L 238.261719 73.515625 L 238.261719 72.34375 C 239.414062 71.582031 240.410156 70.78125 241.308594 69.941406 L 241.308594 69.179688 L 233.886719 69.179688 L 233.886719 69.941406 L 240.195312 69.941406 C 239.335938 70.703125 238.398438 71.367188 237.441406 71.914062 L 237.441406 73.515625 Z M 232.695312 73.515625 "/>
<path style=" stroke:none;fill-rule:nonzero;fill:rgb(0%,0%,0%);fill-opacity:1;" d="M 247.480469 76.269531 C 246.835938 76.933594 245.644531 77.519531 243.90625 78.046875 L 244.335938 78.75 C 246.25 78.046875 247.578125 77.226562 248.28125 76.269531 L 248.496094 76.269531 L 248.496094 79.003906 L 249.296875 79.003906 L 249.296875 76.269531 L 249.511719 76.269531 C 250.3125 77.265625 251.621094 78.066406 253.496094 78.710938 L 253.847656 77.988281 C 252.246094 77.558594 251.074219 76.972656 250.3125 76.269531 L 253.710938 76.269531 L 253.710938 75.527344 L 249.296875 75.527344 L 249.296875 74.941406 L 248.496094 74.941406 L 248.496094 75.527344 L 244.023438 75.527344 L 244.023438 76.269531 Z M 245.117188 71.484375 L 245.117188 74.648438 L 253.398438 74.648438 L 253.398438 73.964844 L 249.589844 73.964844 L 249.589844 73.164062 L 252.753906 73.164062 L 252.753906 72.519531 L 249.589844 72.519531 L 249.589844 71.777344 L 252.753906 71.777344 L 252.753906 71.152344 L 249.589844 71.152344 L 249.589844 70.390625 L 253.183594 70.390625 L 253.183594 69.707031 L 249.550781 69.707031 C 249.394531 69.316406 249.257812 68.945312 249.101562 68.613281 L 248.261719 68.75 C 248.4375 69.042969 248.59375 69.375 248.75 69.707031 L 246.328125 69.707031 C 246.464844 69.433594 246.601562 69.140625 246.699219 68.828125 L 245.957031 68.652344 C 245.449219 69.863281 244.707031 70.917969 243.710938 71.816406 L 244.179688 72.441406 C 244.511719 72.128906 244.824219 71.816406 245.117188 71.484375 Z M 248.808594 73.964844 L 245.878906 73.964844 L 245.878906 73.164062 L 248.808594 73.164062 Z M 248.808594 72.519531 L 245.878906 72.519531 L 245.878906 71.777344 L 248.808594 71.777344 Z M 248.808594 71.152344 L 245.878906 71.152344 L 245.878906 70.488281 L 245.9375 70.390625 L 248.808594 70.390625 Z M 248.808594 71.152344 "/>
<path style=" stroke:none;fill-rule:nonzero;fill:rgb(0%,0%,0%);fill-opacity:1;" d="M 296.5 14.191406 L 296.5 13.253906 L 299.917969 13.253906 L 299.917969 16.242188 C 299.394531 16.664062 298.851562 16.976562 298.296875 17.179688 C 297.734375 17.386719 297.164062 17.492188 296.578125 17.492188 C 295.796875 17.492188 295.078125 17.328125 294.429688 16.984375 C 293.773438 16.648438 293.285156 16.160156 292.964844 15.519531 C 292.636719 14.886719 292.476562 14.167969 292.476562 13.371094 C 292.476562 12.589844 292.636719 11.863281 292.964844 11.183594 C 293.285156 10.496094 293.753906 9.988281 294.371094 9.660156 C 294.996094 9.339844 295.703125 9.171875 296.5 9.171875 C 297.085938 9.171875 297.613281 9.269531 298.082031 9.464844 C 298.550781 9.652344 298.910156 9.910156 299.175781 10.246094 C 299.449219 10.574219 299.652344 11.007812 299.800781 11.554688 L 298.84375 11.808594 C 298.710938 11.410156 298.554688 11.085938 298.375 10.851562 C 298.203125 10.617188 297.949219 10.433594 297.613281 10.285156 C 297.285156 10.144531 296.914062 10.070312 296.5 10.070312 C 296.015625 10.070312 295.589844 10.148438 295.230469 10.304688 C 294.878906 10.453125 294.589844 10.648438 294.371094 10.890625 C 294.160156 11.125 294 11.390625 293.882812 11.671875 C 293.671875 12.179688 293.570312 12.722656 293.570312 13.292969 C 293.570312 14.027344 293.691406 14.632812 293.941406 15.109375 C 294.183594 15.59375 294.546875 15.949219 295.015625 16.183594 C 295.484375 16.417969 295.980469 16.535156 296.519531 16.535156 C 296.988281 16.535156 297.4375 16.453125 297.867188 16.28125 C 298.304688 16.101562 298.648438 15.90625 298.882812 15.695312 L 298.882812 14.191406 Z M 296.5 14.191406 "/>
<path style=" stroke:none;fill-rule:nonzero;fill:rgb(0%,0%,0%);fill-opacity:1;" d="M 301.480469 17.355469 L 301.480469 9.308594 L 304.527344 9.308594 C 305.058594 9.308594 305.46875 9.339844 305.757812 9.386719 C 306.148438 9.457031 306.46875 9.578125 306.734375 9.757812 C 307.007812 9.945312 307.222656 10.203125 307.378906 10.539062 C 307.542969 10.867188 307.632812 11.234375 307.632812 11.632812 C 307.632812 12.328125 307.40625 12.902344 306.96875 13.371094 C 306.539062 13.839844 305.757812 14.074219 304.625 14.074219 L 302.554688 14.074219 L 302.554688 17.355469 Z M 302.554688 13.136719 L 304.644531 13.136719 C 305.316406 13.136719 305.800781 13.011719 306.089844 12.746094 C 306.386719 12.488281 306.539062 12.132812 306.539062 11.671875 C 306.539062 11.335938 306.449219 11.046875 306.285156 10.8125 C 306.113281 10.570312 305.882812 10.402344 305.601562 10.324219 C 305.429688 10.277344 305.097656 10.246094 304.605469 10.246094 L 302.554688 10.246094 Z M 302.554688 13.136719 "/>
<path style=" stroke:none;fill-rule:nonzero;fill:rgb(0%,0%,0%);fill-opacity:1;" d="M 314.277344 9.308594 L 315.351562 9.308594 L 315.351562 13.957031 C 315.351562 14.769531 315.253906 15.414062 315.058594 15.890625 C 314.871094 16.359375 314.539062 16.746094 314.0625 17.042969 C 313.59375 17.347656 312.96875 17.492188 312.1875 17.492188 C 311.429688 17.492188 310.808594 17.363281 310.332031 17.101562 C 309.863281 16.84375 309.519531 16.46875 309.316406 15.96875 C 309.105469 15.476562 309.003906 14.808594 309.003906 13.957031 L 309.003906 9.308594 L 310.078125 9.308594 L 310.078125 13.957031 C 310.078125 14.652344 310.140625 15.164062 310.273438 15.5 C 310.398438 15.828125 310.625 16.082031 310.9375 16.261719 C 311.25 16.449219 311.640625 16.535156 312.109375 16.535156 C 312.890625 16.535156 313.441406 16.359375 313.769531 16.007812 C 314.105469 15.648438 314.277344 14.964844 314.277344 13.957031 Z M 314.277344 9.308594 "/>
<path style=" stroke:none;fill-rule:nonzero;fill:rgb(0%,0%,0%);fill-opacity:1;" d="M 319.84375 13.390625 C 319.84375 12.445312 319.941406 11.671875 320.136719 11.085938 C 320.332031 10.5 320.613281 10.050781 320.996094 9.738281 C 321.386719 9.425781 321.875 9.269531 322.460938 9.269531 C 322.898438 9.269531 323.285156 9.363281 323.613281 9.542969 C 323.933594 9.714844 324.203125 9.964844 324.414062 10.285156 C 324.617188 10.613281 324.785156 11.007812 324.902344 11.476562 C 325.027344 11.945312 325.097656 12.585938 325.097656 13.390625 C 325.097656 14.328125 325 15.089844 324.804688 15.675781 C 324.609375 16.253906 324.316406 16.703125 323.925781 17.023438 C 323.542969 17.335938 323.054688 17.492188 322.460938 17.492188 C 321.6875 17.492188 321.082031 17.214844 320.644531 16.652344 C 320.105469 15.988281 319.84375 14.90625 319.84375 13.390625 Z M 320.859375 13.390625 C 320.859375 14.710938 321.003906 15.589844 321.308594 16.027344 C 321.621094 16.457031 322 16.671875 322.460938 16.671875 C 322.914062 16.671875 323.300781 16.457031 323.613281 16.027344 C 323.925781 15.589844 324.082031 14.710938 324.082031 13.390625 C 324.082031 12.0625 323.925781 11.183594 323.613281 10.753906 C 323.300781 10.316406 322.914062 10.089844 322.460938 10.089844 C 322 10.089844 321.640625 10.28125 321.367188 10.65625 C 321.023438 11.15625 320.859375 12.0625 320.859375 13.390625 Z M 320.859375 13.390625 "/>
<path style="fill:none;stroke-width:1;stroke-linecap:round;stroke-linejoin:round;stroke:rgb(0%,0%,0%);stroke-opacity:1;stroke-miterlimit:10;" d="M 77.975 331.590625 L 120.6375 308.596875 " transform="matrix(1.25,0,0,1.25,41.25,-293.75)"/>
<path style="fill:none;stroke-width:1;stroke-linecap:butt;stroke-linejoin:miter;stroke:rgb(0%,0%,0%);stroke-opacity:1;stroke-miterlimit:10;" d="M 124.15625 306.7 L 120.6375 308.596875 M 119.925 307.278125 L 124.15625 306.7 L 121.346875 309.91875 " transform="matrix(1.25,0,0,1.25,41.25,-293.75)"/>
<path style=" stroke:none;fill-rule:nonzero;fill:rgb(100%,100%,100%);fill-opacity:1;" d="M 192.261719 209.613281 L 261.386719 209.613281 L 261.386719 179.613281 L 192.261719 179.613281 Z M 192.261719 209.613281 "/>
<path style="fill:none;stroke-width:1;stroke-linecap:round;stroke-linejoin:round;stroke:rgb(0%,0%,0%);stroke-opacity:1;stroke-miterlimit:10;" d="M 120.809375 378.690625 L 176.109375 378.690625 L 176.109375 402.690625 L 120.809375 402.690625 Z M 120.809375 378.690625 " transform="matrix(1.25,0,0,1.25,41.25,-293.75)"/>
<path style=" stroke:none;fill-rule:nonzero;fill:rgb(0%,0%,0%);fill-opacity:1;" d="M 203.777344 199.984375 C 204.558594 199.984375 204.949219 199.59375 204.949219 198.792969 L 204.949219 189.964844 L 204.109375 189.964844 L 204.109375 198.578125 C 204.109375 199.007812 203.894531 199.222656 203.484375 199.222656 C 202.976562 199.222656 202.429688 199.183594 201.863281 199.144531 L 202.058594 199.984375 Z M 201.101562 192.582031 C 200.652344 194.59375 199.988281 196.214844 199.089844 197.40625 L 199.773438 198.011719 C 200.652344 196.859375 201.375 195.140625 201.902344 192.894531 Z M 207.488281 192.308594 L 206.746094 192.757812 C 207.625 194.710938 208.308594 196.488281 208.816406 198.070312 L 209.539062 197.5625 C 209.050781 196.078125 208.367188 194.320312 207.488281 192.308594 Z M 207.488281 192.308594 "/>
<path style=" stroke:none;fill-rule:nonzero;fill:rgb(0%,0%,0%);fill-opacity:1;" d="M 213.777344 194.710938 C 213.40625 194.867188 213.054688 195.023438 212.683594 195.160156 L 212.683594 192.660156 L 213.796875 192.660156 L 213.796875 191.878906 L 212.683594 191.878906 L 212.683594 189.789062 L 211.902344 189.789062 L 211.902344 191.878906 L 210.632812 191.878906 L 210.632812 192.660156 L 211.902344 192.660156 L 211.902344 195.414062 C 211.433594 195.550781 210.964844 195.667969 210.496094 195.765625 L 210.671875 196.527344 C 211.082031 196.429688 211.492188 196.3125 211.902344 196.195312 L 211.902344 198.871094 C 211.902344 199.164062 211.765625 199.300781 211.492188 199.300781 C 211.21875 199.300781 210.925781 199.28125 210.632812 199.242188 L 210.789062 200.042969 L 211.765625 200.042969 C 212.371094 200.042969 212.683594 199.710938 212.683594 199.066406 L 212.683594 195.921875 C 213.035156 195.785156 213.40625 195.628906 213.777344 195.472656 Z M 215.125 193.929688 L 216.707031 193.929688 L 216.707031 193.148438 L 215.125 193.148438 L 215.125 189.90625 L 214.324219 189.90625 L 214.324219 198.734375 C 214.324219 198.96875 214.207031 199.144531 213.953125 199.222656 L 214.148438 199.984375 C 215.125 199.75 215.984375 199.476562 216.746094 199.164062 L 216.589844 198.421875 C 216.140625 198.636719 215.671875 198.8125 215.125 198.949219 Z M 219.167969 199.964844 C 219.617188 199.964844 219.929688 199.828125 220.144531 199.613281 C 220.378906 199.339844 220.535156 198.597656 220.613281 197.347656 L 219.871094 197.113281 C 219.832031 198.128906 219.734375 198.734375 219.597656 198.949219 C 219.480469 199.105469 219.304688 199.183594 219.03125 199.183594 L 218.484375 199.183594 C 218.191406 199.183594 218.054688 199.027344 218.054688 198.734375 L 218.054688 194.046875 C 218.816406 193.792969 219.636719 193.421875 220.496094 192.953125 L 220.027344 192.289062 C 219.382812 192.679688 218.71875 193.011719 218.054688 193.226562 L 218.054688 189.828125 L 217.253906 189.828125 L 217.253906 198.890625 C 217.253906 199.59375 217.585938 199.964844 218.230469 199.964844 Z M 219.167969 199.964844 "/>
<path style=" stroke:none;fill-rule:nonzero;fill:rgb(0%,0%,0%);fill-opacity:1;" d="M 222.917969 194.515625 L 222.917969 197.386719 L 226.414062 197.386719 L 226.414062 198.011719 L 222.644531 198.011719 L 222.644531 198.558594 L 226.414062 198.558594 L 226.414062 199.222656 L 221.804688 199.222656 L 221.804688 199.847656 L 231.84375 199.847656 L 231.84375 199.222656 L 227.214844 199.222656 L 227.214844 198.558594 L 231.023438 198.558594 L 231.023438 198.011719 L 227.214844 198.011719 L 227.214844 197.386719 L 230.75 197.386719 L 230.75 194.515625 Z M 229.96875 196.878906 L 227.214844 196.878906 L 227.214844 196.195312 L 229.96875 196.195312 Z M 226.414062 196.878906 L 223.699219 196.878906 L 223.699219 196.195312 L 226.414062 196.195312 Z M 223.699219 195.707031 L 223.699219 195.023438 L 226.414062 195.023438 L 226.414062 195.707031 Z M 227.214844 195.023438 L 229.96875 195.023438 L 229.96875 195.707031 L 227.214844 195.707031 Z M 223.171875 189.984375 L 223.171875 192.757812 L 230.515625 192.757812 L 230.515625 189.984375 Z M 229.734375 192.269531 L 223.953125 192.269531 L 223.953125 191.605469 L 229.734375 191.605469 Z M 223.953125 191.117188 L 223.953125 190.472656 L 229.734375 190.472656 L 229.734375 191.117188 Z M 221.785156 193.34375 L 221.785156 193.949219 L 231.863281 193.949219 L 231.863281 193.34375 Z M 221.785156 193.34375 "/>
<path style=" stroke:none;fill-rule:nonzero;fill:rgb(0%,0%,0%);fill-opacity:1;" d="M 233.152344 194.632812 L 233.152344 195.414062 L 237.898438 195.414062 L 237.898438 198.753906 C 237.898438 199.105469 237.722656 199.28125 237.351562 199.28125 C 236.707031 199.28125 236.101562 199.261719 235.535156 199.242188 L 235.75 200.042969 L 237.683594 200.042969 C 238.367188 200.042969 238.71875 199.691406 238.71875 199.027344 L 238.71875 195.414062 L 242.996094 195.414062 L 242.996094 194.632812 L 238.71875 194.632812 L 238.71875 193.460938 C 239.871094 192.699219 240.867188 191.898438 241.765625 191.058594 L 241.765625 190.296875 L 234.34375 190.296875 L 234.34375 191.058594 L 240.652344 191.058594 C 239.792969 191.820312 238.855469 192.484375 237.898438 193.03125 L 237.898438 194.632812 Z M 233.152344 194.632812 "/>
<path style=" stroke:none;fill-rule:nonzero;fill:rgb(0%,0%,0%);fill-opacity:1;" d="M 247.9375 197.386719 C 247.292969 198.050781 246.101562 198.636719 244.363281 199.164062 L 244.792969 199.867188 C 246.707031 199.164062 248.035156 198.34375 248.738281 197.386719 L 248.953125 197.386719 L 248.953125 200.121094 L 249.753906 200.121094 L 249.753906 197.386719 L 249.96875 197.386719 C 250.769531 198.382812 252.078125 199.183594 253.953125 199.828125 L 254.304688 199.105469 C 252.703125 198.675781 251.53125 198.089844 250.769531 197.386719 L 254.167969 197.386719 L 254.167969 196.644531 L 249.753906 196.644531 L 249.753906 196.058594 L 248.953125 196.058594 L 248.953125 196.644531 L 244.480469 196.644531 L 244.480469 197.386719 Z M 245.574219 192.601562 L 245.574219 195.765625 L 253.855469 195.765625 L 253.855469 195.082031 L 250.046875 195.082031 L 250.046875 194.28125 L 253.210938 194.28125 L 253.210938 193.636719 L 250.046875 193.636719 L 250.046875 192.894531 L 253.210938 192.894531 L 253.210938 192.269531 L 250.046875 192.269531 L 250.046875 191.507812 L 253.640625 191.507812 L 253.640625 190.824219 L 250.007812 190.824219 C 249.851562 190.433594 249.714844 190.0625 249.558594 189.730469 L 248.71875 189.867188 C 248.894531 190.160156 249.050781 190.492188 249.207031 190.824219 L 246.785156 190.824219 C 246.921875 190.550781 247.058594 190.257812 247.15625 189.945312 L 246.414062 189.769531 C 245.90625 190.980469 245.164062 192.035156 244.167969 192.933594 L 244.636719 193.558594 C 244.96875 193.246094 245.28125 192.933594 245.574219 192.601562 Z M 249.265625 195.082031 L 246.335938 195.082031 L 246.335938 194.28125 L 249.265625 194.28125 Z M 249.265625 193.636719 L 246.335938 193.636719 L 246.335938 192.894531 L 249.265625 192.894531 Z M 249.265625 192.269531 L 246.335938 192.269531 L 246.335938 191.605469 L 246.394531 191.507812 L 249.265625 191.507812 Z M 249.265625 192.269531 "/>
<path style="fill:none;stroke-width:1;stroke-linecap:round;stroke-linejoin:round;stroke:rgb(0%,0%,0%);stroke-opacity:1;stroke-miterlimit:10;" d="M 83.23125 366.003125 L 115.2875 378.1375 " transform="matrix(1.25,0,0,1.25,41.25,-293.75)"/>
<path style="fill:none;stroke-width:1;stroke-linecap:butt;stroke-linejoin:miter;stroke:rgb(0%,0%,0%);stroke-opacity:1;stroke-miterlimit:10;" d="M 119.03125 379.55625 L 115.2875 378.1375 M 115.81875 376.734375 L 119.03125 379.55625 L 114.75625 379.5375 " transform="matrix(1.25,0,0,1.25,41.25,-293.75)"/>
<path style=" stroke:none;fill-rule:nonzero;fill:rgb(40%,74.901961%,100%);fill-opacity:1;" d="M 76.78125 86.25 L 145 86.25 L 145 56.25 L 76.78125 56.25 Z M 76.78125 86.25 "/>
<path style="fill:none;stroke-width:1;stroke-linecap:round;stroke-linejoin:round;stroke:rgb(0%,0%,0%);stroke-opacity:1;stroke-miterlimit:10;" d="M 28.425 280 L 83 280 L 83 304 L 28.425 304 Z M 28.425 280 " transform="matrix(1.25,0,0,1.25,41.25,-293.75)"/>
<path style=" stroke:none;fill-rule:nonzero;fill:rgb(40%,74.901961%,100%);fill-opacity:1;" d="M 192.261719 165.238281 L 260.476562 165.238281 L 260.476562 135.238281 L 192.261719 135.238281 Z M 192.261719 165.238281 "/>
<path style="fill:none;stroke-width:1;stroke-linecap:round;stroke-linejoin:round;stroke:rgb(0%,0%,0%);stroke-opacity:1;stroke-miterlimit:10;" d="M 120.809375 343.190625 L 175.38125 343.190625 L 175.38125 367.190625 L 120.809375 367.190625 Z M 120.809375 343.190625 " transform="matrix(1.25,0,0,1.25,41.25,-293.75)"/>
<path style=" stroke:none;fill-rule:nonzero;fill:rgb(0%,0%,0%);fill-opacity:1;" d="M 219.042969 146.351562 L 219.042969 147.074219 L 220.683594 147.074219 L 220.683594 147.914062 L 221.445312 147.914062 L 221.445312 147.074219 L 223.242188 147.074219 L 223.242188 147.914062 L 224.023438 147.914062 L 224.023438 147.074219 L 225.761719 147.074219 L 225.761719 146.351562 L 224.023438 146.351562 L 224.023438 145.453125 L 223.242188 145.453125 L 223.242188 146.351562 L 221.445312 146.351562 L 221.445312 145.453125 L 220.683594 145.453125 L 220.683594 146.351562 Z M 222.207031 153.421875 C 222.851562 154.359375 223.90625 155.140625 225.371094 155.765625 L 225.898438 155.121094 C 224.570312 154.652344 223.59375 154.046875 222.929688 153.265625 L 225.78125 153.265625 L 225.78125 152.523438 L 222.539062 152.523438 C 222.617188 152.269531 222.675781 151.996094 222.714844 151.683594 L 225.019531 151.683594 L 225.019531 148.265625 L 219.648438 148.265625 L 219.648438 151.683594 L 222.011719 151.683594 C 221.953125 151.976562 221.875 152.269531 221.796875 152.523438 L 218.828125 152.523438 L 218.828125 153.265625 L 221.445312 153.265625 C 221.367188 153.441406 221.25 153.578125 221.132812 153.714844 C 220.644531 154.300781 219.84375 154.730469 218.710938 155.042969 L 219.003906 155.707031 C 220.3125 155.335938 221.210938 154.847656 221.71875 154.183594 C 221.894531 153.96875 222.070312 153.695312 222.207031 153.421875 Z M 217.949219 149.984375 C 218.242188 150.433594 218.613281 151.039062 219.023438 151.78125 L 219.453125 151.136719 C 218.925781 150.375 218.4375 149.710938 217.949219 149.125 L 217.949219 148.382812 L 219.140625 148.382812 L 219.140625 147.640625 L 217.949219 147.640625 L 217.949219 145.472656 L 217.1875 145.472656 L 217.1875 147.640625 L 215.878906 147.640625 L 215.878906 148.382812 L 217.1875 148.382812 L 217.1875 148.441406 C 216.855469 149.828125 216.289062 151.039062 215.507812 152.113281 L 215.859375 152.992188 C 216.40625 152.132812 216.835938 151.15625 217.1875 150.101562 L 217.1875 155.707031 L 217.949219 155.707031 Z M 224.296875 151.039062 L 220.371094 151.039062 L 220.371094 150.277344 L 224.296875 150.277344 Z M 220.371094 149.671875 L 220.371094 148.929688 L 224.296875 148.929688 L 224.296875 149.671875 Z M 220.371094 149.671875 "/>
<path style=" stroke:none;fill-rule:nonzero;fill:rgb(0%,0%,0%);fill-opacity:1;" d="M 227.421875 145.921875 L 227.421875 146.644531 L 228.554688 146.644531 L 228.554688 148.34375 L 227.128906 148.34375 L 227.128906 149.085938 L 228.515625 149.085938 C 228.398438 150.003906 228.027344 150.6875 227.402344 151.15625 L 228.007812 151.683594 C 228.75 151.097656 229.179688 150.238281 229.296875 149.085938 L 230.78125 149.085938 L 230.78125 151.546875 L 231.5625 151.546875 L 231.5625 149.085938 L 232.949219 149.085938 L 232.949219 148.34375 L 231.5625 148.34375 L 231.5625 146.644531 L 232.695312 146.644531 L 232.695312 145.921875 Z M 229.335938 146.644531 L 230.78125 146.644531 L 230.78125 148.34375 L 229.335938 148.34375 Z M 233.613281 146.195312 L 233.613281 150.0625 L 234.394531 150.0625 L 234.394531 146.195312 Z M 227.675781 152.660156 L 227.675781 153.402344 L 231.640625 153.402344 L 231.640625 154.710938 L 227.050781 154.710938 L 227.050781 155.453125 L 236.933594 155.453125 L 236.933594 154.710938 L 232.441406 154.710938 L 232.441406 153.402344 L 236.308594 153.402344 L 236.308594 152.660156 L 232.441406 152.660156 L 232.441406 151.683594 L 231.640625 151.683594 L 231.640625 152.660156 Z M 235.527344 151.664062 C 236.113281 151.664062 236.425781 151.3125 236.425781 150.628906 L 236.425781 145.570312 L 235.644531 145.570312 L 235.644531 150.433594 C 235.644531 150.765625 235.507812 150.941406 235.253906 150.941406 C 234.804688 150.941406 234.335938 150.921875 233.847656 150.882812 L 234.023438 151.664062 Z M 235.527344 151.664062 "/>
<path style=" stroke:none;fill-rule:nonzero;fill:rgb(69.803922%,85.098039%,100%);fill-opacity:1;" d="M 278.75 65.484375 L 338.75 65.484375 L 338.75 35.484375 L 278.75 35.484375 Z M 278.75 65.484375 "/>
<path style="fill:none;stroke-width:1;stroke-linecap:round;stroke-linejoin:round;stroke:rgb(0%,0%,0%);stroke-opacity:1;stroke-miterlimit:10;" d="M 190 263.3875 L 238 263.3875 L 238 287.3875 L 190 287.3875 Z M 190 263.3875 " transform="matrix(1.25,0,0,1.25,41.25,-293.75)"/>
<path style=" stroke:none;fill-rule:nonzero;fill:rgb(0%,0%,0%);fill-opacity:1;" d="M 287.050781 47.726562 L 287.050781 48.507812 L 290.742188 48.507812 C 289.902344 50.5 288.554688 52.140625 286.660156 53.390625 L 287.128906 54.152344 C 289.121094 52.667969 290.546875 50.792969 291.386719 48.507812 L 291.464844 48.507812 L 291.464844 52.902344 L 289.140625 52.902344 L 289.140625 53.683594 L 291.464844 53.683594 L 291.464844 55.988281 L 292.285156 55.988281 L 292.285156 53.683594 L 294.707031 53.683594 L 294.707031 52.902344 L 292.285156 52.902344 L 292.285156 48.507812 L 292.382812 48.507812 C 293.144531 50.539062 294.511719 52.375 296.503906 53.996094 L 297.050781 53.3125 C 295.117188 51.90625 293.769531 50.304688 293.007812 48.507812 L 296.679688 48.507812 L 296.679688 47.726562 L 292.285156 47.726562 L 292.285156 45.695312 L 291.464844 45.695312 L 291.464844 47.726562 Z M 287.050781 47.726562 "/>
<path style=" stroke:none;fill-rule:nonzero;fill:rgb(0%,0%,0%);fill-opacity:1;" d="M 307.890625 47.84375 L 305.46875 48.585938 L 305.46875 45.65625 L 304.667969 45.65625 L 304.667969 48.820312 L 303.027344 49.328125 L 303.027344 46.808594 L 302.246094 46.808594 L 302.246094 49.582031 L 301.308594 49.875 L 301.308594 50.65625 L 302.246094 50.363281 L 302.246094 54.660156 C 302.246094 55.402344 302.617188 55.773438 303.378906 55.773438 L 306.933594 55.773438 C 307.34375 55.773438 307.65625 55.65625 307.832031 55.460938 C 308.066406 55.207031 308.203125 54.523438 308.28125 53.390625 L 307.539062 53.136719 C 307.480469 54.054688 307.402344 54.601562 307.285156 54.796875 C 307.1875 54.933594 307.011719 55.011719 306.777344 55.011719 L 303.613281 55.011719 C 303.222656 55.011719 303.027344 54.835938 303.027344 54.503906 L 303.027344 50.128906 L 304.667969 49.640625 L 304.667969 53.644531 L 305.46875 53.644531 L 305.46875 49.40625 L 307.109375 48.898438 C 307.089844 50.441406 307.070312 51.320312 307.011719 51.554688 C 306.933594 51.808594 306.738281 51.925781 306.445312 51.925781 C 306.308594 51.925781 306.152344 51.925781 305.976562 51.90625 L 306.210938 52.707031 L 306.269531 52.707031 C 307.109375 52.707031 307.597656 52.453125 307.714844 51.984375 C 307.832031 51.496094 307.890625 50.109375 307.890625 47.84375 Z M 301.445312 52.609375 C 301.015625 52.824219 300.566406 53.019531 300.117188 53.175781 L 300.117188 49.445312 L 301.289062 49.445312 L 301.289062 48.664062 L 300.117188 48.664062 L 300.117188 45.753906 L 299.316406 45.753906 L 299.316406 48.664062 L 298.046875 48.664062 L 298.046875 49.445312 L 299.316406 49.445312 L 299.316406 53.449219 C 298.847656 53.585938 298.378906 53.703125 297.910156 53.800781 L 298.105469 54.621094 C 299.296875 54.308594 300.410156 53.898438 301.445312 53.410156 Z M 301.445312 52.609375 "/>
<path style=" stroke:none;fill-rule:nonzero;fill:rgb(0%,0%,0%);fill-opacity:1;" d="M 311.660156 50.304688 C 311.933594 50.792969 312.246094 51.417969 312.597656 52.160156 L 313.046875 51.496094 C 312.578125 50.714844 312.109375 50.011719 311.660156 49.386719 L 311.660156 48.644531 L 312.871094 48.644531 L 312.871094 47.863281 L 311.660156 47.863281 L 311.660156 45.695312 L 310.859375 45.695312 L 310.859375 47.863281 L 309.414062 47.863281 L 309.414062 48.644531 L 310.859375 48.644531 L 310.859375 48.722656 C 310.507812 50.03125 309.960938 51.203125 309.179688 52.277344 L 309.511719 53.117188 C 310.058594 52.277344 310.507812 51.339844 310.859375 50.304688 L 310.859375 55.949219 L 311.660156 55.949219 Z M 315.761719 48.253906 L 315.761719 49.621094 L 313.75 49.621094 L 313.300781 52.316406 L 315.683594 52.316406 C 315.039062 53.351562 314.023438 54.230469 312.597656 54.894531 L 313.027344 55.597656 C 314.199219 54.914062 315.117188 54.113281 315.761719 53.136719 L 315.761719 55.988281 L 316.5625 55.988281 L 316.5625 52.316406 L 318.476562 52.316406 C 318.476562 53.097656 318.457031 53.625 318.398438 53.917969 C 318.320312 54.230469 318.164062 54.386719 317.890625 54.386719 C 317.636719 54.386719 317.382812 54.367188 317.089844 54.347656 L 317.285156 55.089844 C 317.519531 55.089844 317.753906 55.109375 318.007812 55.109375 C 318.535156 55.089844 318.847656 54.875 319.003906 54.445312 C 319.140625 54.054688 319.21875 53.117188 319.21875 51.632812 L 316.5625 51.632812 L 316.5625 50.324219 L 318.867188 50.324219 L 318.867188 47.550781 L 317.226562 47.550781 C 317.597656 47.042969 317.910156 46.457031 318.183594 45.832031 L 317.421875 45.617188 C 317.109375 46.359375 316.757812 47.003906 316.347656 47.550781 L 313.378906 47.550781 L 313.378906 48.253906 Z M 315.761719 50.324219 L 315.761719 51.632812 L 314.121094 51.632812 L 314.375 50.324219 Z M 316.5625 49.621094 L 316.5625 48.253906 L 318.164062 48.253906 L 318.164062 49.621094 Z M 314.667969 45.714844 L 313.945312 45.949219 C 314.277344 46.398438 314.609375 46.90625 314.882812 47.492188 L 315.585938 47.199219 C 315.3125 46.671875 315.019531 46.183594 314.667969 45.714844 Z M 314.667969 45.714844 "/>
<path style=" stroke:none;fill-rule:nonzero;fill:rgb(0%,0%,0%);fill-opacity:1;" d="M 322.929688 51.847656 L 322.929688 52.550781 L 323.613281 52.550781 C 324.140625 53.253906 324.824219 53.878906 325.664062 54.386719 C 324.648438 54.816406 323.476562 55.128906 322.167969 55.324219 L 322.519531 56.027344 C 324.003906 55.773438 325.3125 55.363281 326.464844 54.835938 C 327.519531 55.363281 328.847656 55.773438 330.390625 56.027344 L 330.742188 55.324219 C 329.414062 55.148438 328.242188 54.835938 327.226562 54.425781 C 328.125 53.878906 328.90625 53.214844 329.53125 52.453125 L 329.53125 51.847656 Z M 324.472656 52.550781 L 328.476562 52.550781 C 327.890625 53.117188 327.207031 53.625 326.40625 54.035156 C 325.644531 53.625 325 53.136719 324.472656 52.550781 Z M 322.285156 49.328125 L 324.179688 49.328125 L 324.179688 51.085938 L 328.730469 51.085938 L 328.730469 49.328125 L 330.46875 49.328125 L 330.46875 48.585938 L 328.730469 48.585938 L 328.730469 47.667969 L 327.949219 47.667969 L 327.949219 48.585938 L 324.960938 48.585938 L 324.960938 47.6875 L 324.179688 47.6875 L 324.179688 48.585938 L 322.285156 48.585938 L 322.285156 47.316406 L 330.488281 47.316406 L 330.488281 46.535156 L 326.621094 46.535156 C 326.503906 46.203125 326.367188 45.890625 326.230469 45.617188 L 325.371094 45.734375 C 325.527344 45.988281 325.664062 46.242188 325.800781 46.535156 L 321.464844 46.535156 L 321.464844 50.207031 C 321.445312 52.433594 321.113281 54.152344 320.46875 55.402344 L 321.074219 55.949219 C 321.835938 54.503906 322.246094 52.589844 322.285156 50.207031 Z M 324.960938 49.328125 L 327.949219 49.328125 L 327.949219 50.402344 L 324.960938 50.402344 Z M 324.960938 49.328125 "/>
<path style="fill-rule:nonzero;fill:rgb(100%,100%,100%);fill-opacity:1;stroke-width:1;stroke-linecap:round;stroke-linejoin:round;stroke:rgb(0%,0%,0%);stroke-opacity:1;stroke-miterlimit:10;" d="M 287.278125 312.90625 C 291.575 317.2 291.575 324.1625 287.278125 328.4625 C 282.98125 332.75625 276.01875 332.75625 271.721875 328.4625 C 267.425 324.1625 267.425 317.2 271.721875 312.90625 C 276.01875 308.609375 282.98125 308.609375 287.278125 312.90625 " transform="matrix(1.25,0,0,1.25,41.25,-293.75)"/>
<path style=" stroke:none;fill-rule:nonzero;fill:rgb(0%,0%,0%);fill-opacity:1;" d="M 390.152344 109.363281 L 390.152344 107.15625 L 387.964844 107.15625 L 387.964844 106.238281 L 390.152344 106.238281 L 390.152344 104.050781 L 391.089844 104.050781 L 391.089844 106.238281 L 393.277344 106.238281 L 393.277344 107.15625 L 391.089844 107.15625 L 391.089844 109.363281 Z M 390.152344 109.363281 "/>
<path style="fill:none;stroke-width:1;stroke-linecap:round;stroke-linejoin:round;stroke:rgb(0%,0%,0%);stroke-opacity:1;stroke-miterlimit:10;" d="M 83 281.76875 L 114.55625 269.9375 " transform="matrix(1.25,0,0,1.25,41.25,-293.75)"/>
<path style="fill:none;stroke-width:1;stroke-linecap:butt;stroke-linejoin:miter;stroke:rgb(0%,0%,0%);stroke-opacity:1;stroke-miterlimit:10;" d="M 118.3 268.534375 L 114.55625 269.9375 M 114.028125 268.534375 L 118.3 268.534375 L 115.08125 271.34375 " transform="matrix(1.25,0,0,1.25,41.25,-293.75)"/>
<path style="fill:none;stroke-width:1;stroke-linecap:round;stroke-linejoin:round;stroke:rgb(0%,0%,0%);stroke-opacity:1;stroke-miterlimit:10;" d="M 73.253125 304 L 125.684375 339.859375 " transform="matrix(1.25,0,0,1.25,41.25,-293.75)"/>
<path style="fill:none;stroke-width:1;stroke-linecap:butt;stroke-linejoin:miter;stroke:rgb(0%,0%,0%);stroke-opacity:1;stroke-miterlimit:10;" d="M 128.984375 342.11875 L 125.684375 339.859375 M 126.528125 338.621875 L 128.984375 342.11875 L 124.8375 341.096875 " transform="matrix(1.25,0,0,1.25,41.25,-293.75)"/>
<path style=" stroke:none;fill-rule:nonzero;fill:rgb(100%,100%,100%);fill-opacity:1;" d="M 278.75 190 L 338.75 190 L 338.75 160 L 278.75 160 Z M 278.75 190 "/>
<path style="fill:none;stroke-width:1;stroke-linecap:round;stroke-linejoin:round;stroke:rgb(0%,0%,0%);stroke-opacity:1;stroke-miterlimit:10;" d="M 190 363 L 238 363 L 238 387 L 190 387 Z M 190 363 " transform="matrix(1.25,0,0,1.25,41.25,-293.75)"/>
<path style=" stroke:none;fill-rule:nonzero;fill:rgb(0%,0%,0%);fill-opacity:1;" d="M 287.050781 172.246094 L 287.050781 173.027344 L 290.742188 173.027344 C 289.902344 175.019531 288.554688 176.660156 286.660156 177.910156 L 287.128906 178.671875 C 289.121094 177.1875 290.546875 175.3125 291.386719 173.027344 L 291.464844 173.027344 L 291.464844 177.421875 L 289.140625 177.421875 L 289.140625 178.203125 L 291.464844 178.203125 L 291.464844 180.507812 L 292.285156 180.507812 L 292.285156 178.203125 L 294.707031 178.203125 L 294.707031 177.421875 L 292.285156 177.421875 L 292.285156 173.027344 L 292.382812 173.027344 C 293.144531 175.058594 294.511719 176.894531 296.503906 178.515625 L 297.050781 177.832031 C 295.117188 176.425781 293.769531 174.824219 293.007812 173.027344 L 296.679688 173.027344 L 296.679688 172.246094 L 292.285156 172.246094 L 292.285156 170.214844 L 291.464844 170.214844 L 291.464844 172.246094 Z M 287.050781 172.246094 "/>
<path style=" stroke:none;fill-rule:nonzero;fill:rgb(0%,0%,0%);fill-opacity:1;" d="M 307.890625 172.363281 L 305.46875 173.105469 L 305.46875 170.175781 L 304.667969 170.175781 L 304.667969 173.339844 L 303.027344 173.847656 L 303.027344 171.328125 L 302.246094 171.328125 L 302.246094 174.101562 L 301.308594 174.394531 L 301.308594 175.175781 L 302.246094 174.882812 L 302.246094 179.179688 C 302.246094 179.921875 302.617188 180.292969 303.378906 180.292969 L 306.933594 180.292969 C 307.34375 180.292969 307.65625 180.175781 307.832031 179.980469 C 308.066406 179.726562 308.203125 179.042969 308.28125 177.910156 L 307.539062 177.65625 C 307.480469 178.574219 307.402344 179.121094 307.285156 179.316406 C 307.1875 179.453125 307.011719 179.53125 306.777344 179.53125 L 303.613281 179.53125 C 303.222656 179.53125 303.027344 179.355469 303.027344 179.023438 L 303.027344 174.648438 L 304.667969 174.160156 L 304.667969 178.164062 L 305.46875 178.164062 L 305.46875 173.925781 L 307.109375 173.417969 C 307.089844 174.960938 307.070312 175.839844 307.011719 176.074219 C 306.933594 176.328125 306.738281 176.445312 306.445312 176.445312 C 306.308594 176.445312 306.152344 176.445312 305.976562 176.425781 L 306.210938 177.226562 L 306.269531 177.226562 C 307.109375 177.226562 307.597656 176.972656 307.714844 176.503906 C 307.832031 176.015625 307.890625 174.628906 307.890625 172.363281 Z M 301.445312 177.128906 C 301.015625 177.34375 300.566406 177.539062 300.117188 177.695312 L 300.117188 173.964844 L 301.289062 173.964844 L 301.289062 173.183594 L 300.117188 173.183594 L 300.117188 170.273438 L 299.316406 170.273438 L 299.316406 173.183594 L 298.046875 173.183594 L 298.046875 173.964844 L 299.316406 173.964844 L 299.316406 177.96875 C 298.847656 178.105469 298.378906 178.222656 297.910156 178.320312 L 298.105469 179.140625 C 299.296875 178.828125 300.410156 178.417969 301.445312 177.929688 Z M 301.445312 177.128906 "/>
<path style=" stroke:none;fill-rule:nonzero;fill:rgb(0%,0%,0%);fill-opacity:1;" d="M 311.660156 174.824219 C 311.933594 175.3125 312.246094 175.9375 312.597656 176.679688 L 313.046875 176.015625 C 312.578125 175.234375 312.109375 174.53125 311.660156 173.90625 L 311.660156 173.164062 L 312.871094 173.164062 L 312.871094 172.382812 L 311.660156 172.382812 L 311.660156 170.214844 L 310.859375 170.214844 L 310.859375 172.382812 L 309.414062 172.382812 L 309.414062 173.164062 L 310.859375 173.164062 L 310.859375 173.242188 C 310.507812 174.550781 309.960938 175.722656 309.179688 176.796875 L 309.511719 177.636719 C 310.058594 176.796875 310.507812 175.859375 310.859375 174.824219 L 310.859375 180.46875 L 311.660156 180.46875 Z M 315.761719 172.773438 L 315.761719 174.140625 L 313.75 174.140625 L 313.300781 176.835938 L 315.683594 176.835938 C 315.039062 177.871094 314.023438 178.75 312.597656 179.414062 L 313.027344 180.117188 C 314.199219 179.433594 315.117188 178.632812 315.761719 177.65625 L 315.761719 180.507812 L 316.5625 180.507812 L 316.5625 176.835938 L 318.476562 176.835938 C 318.476562 177.617188 318.457031 178.144531 318.398438 178.4375 C 318.320312 178.75 318.164062 178.90625 317.890625 178.90625 C 317.636719 178.90625 317.382812 178.886719 317.089844 178.867188 L 317.285156 179.609375 C 317.519531 179.609375 317.753906 179.628906 318.007812 179.628906 C 318.535156 179.609375 318.847656 179.394531 319.003906 178.964844 C 319.140625 178.574219 319.21875 177.636719 319.21875 176.152344 L 316.5625 176.152344 L 316.5625 174.84375 L 318.867188 174.84375 L 318.867188 172.070312 L 317.226562 172.070312 C 317.597656 171.5625 317.910156 170.976562 318.183594 170.351562 L 317.421875 170.136719 C 317.109375 170.878906 316.757812 171.523438 316.347656 172.070312 L 313.378906 172.070312 L 313.378906 172.773438 Z M 315.761719 174.84375 L 315.761719 176.152344 L 314.121094 176.152344 L 314.375 174.84375 Z M 316.5625 174.140625 L 316.5625 172.773438 L 318.164062 172.773438 L 318.164062 174.140625 Z M 314.667969 170.234375 L 313.945312 170.46875 C 314.277344 170.917969 314.609375 171.425781 314.882812 172.011719 L 315.585938 171.71875 C 315.3125 171.191406 315.019531 170.703125 314.667969 170.234375 Z M 314.667969 170.234375 "/>
<path style=" stroke:none;fill-rule:nonzero;fill:rgb(0%,0%,0%);fill-opacity:1;" d="M 322.929688 176.367188 L 322.929688 177.070312 L 323.613281 177.070312 C 324.140625 177.773438 324.824219 178.398438 325.664062 178.90625 C 324.648438 179.335938 323.476562 179.648438 322.167969 179.84375 L 322.519531 180.546875 C 324.003906 180.292969 325.3125 179.882812 326.464844 179.355469 C 327.519531 179.882812 328.847656 180.292969 330.390625 180.546875 L 330.742188 179.84375 C 329.414062 179.667969 328.242188 179.355469 327.226562 178.945312 C 328.125 178.398438 328.90625 177.734375 329.53125 176.972656 L 329.53125 176.367188 Z M 324.472656 177.070312 L 328.476562 177.070312 C 327.890625 177.636719 327.207031 178.144531 326.40625 178.554688 C 325.644531 178.144531 325 177.65625 324.472656 177.070312 Z M 322.285156 173.847656 L 324.179688 173.847656 L 324.179688 175.605469 L 328.730469 175.605469 L 328.730469 173.847656 L 330.46875 173.847656 L 330.46875 173.105469 L 328.730469 173.105469 L 328.730469 172.1875 L 327.949219 172.1875 L 327.949219 173.105469 L 324.960938 173.105469 L 324.960938 172.207031 L 324.179688 172.207031 L 324.179688 173.105469 L 322.285156 173.105469 L 322.285156 171.835938 L 330.488281 171.835938 L 330.488281 171.054688 L 326.621094 171.054688 C 326.503906 170.722656 326.367188 170.410156 326.230469 170.136719 L 325.371094 170.253906 C 325.527344 170.507812 325.664062 170.761719 325.800781 171.054688 L 321.464844 171.054688 L 321.464844 174.726562 C 321.445312 176.953125 321.113281 178.671875 320.46875 179.921875 L 321.074219 180.46875 C 321.835938 179.023438 322.246094 177.109375 322.285156 174.726562 Z M 324.960938 173.847656 L 327.949219 173.847656 L 327.949219 174.921875 L 324.960938 174.921875 Z M 324.960938 173.847656 "/>
<path style="fill:none;stroke-width:1;stroke-linecap:round;stroke-linejoin:round;stroke:rgb(0%,0%,0%);stroke-opacity:1;stroke-miterlimit:10;" d="M 231.35 287.3875 L 265.596875 311.06875 " transform="matrix(1.25,0,0,1.25,41.25,-293.75)"/>
<path style="fill:none;stroke-width:1;stroke-linecap:butt;stroke-linejoin:miter;stroke:rgb(0%,0%,0%);stroke-opacity:1;stroke-miterlimit:10;" d="M 268.8875 313.34375 L 265.596875 311.06875 M 266.453125 309.8375 L 268.8875 313.34375 L 264.746875 312.30625 " transform="matrix(1.25,0,0,1.25,41.25,-293.75)"/>
<path style="fill:none;stroke-width:1;stroke-linecap:round;stroke-linejoin:round;stroke:rgb(0%,0%,0%);stroke-opacity:1;stroke-miterlimit:10;" d="M 228.46875 363 L 266.49375 331.471875 " transform="matrix(1.25,0,0,1.25,41.25,-293.75)"/>
<path style="fill:none;stroke-width:1;stroke-linecap:butt;stroke-linejoin:miter;stroke:rgb(0%,0%,0%);stroke-opacity:1;stroke-miterlimit:10;" d="M 269.56875 328.91875 L 266.49375 331.471875 M 265.53125 330.315625 L 269.56875 328.91875 L 267.45 332.625 " transform="matrix(1.25,0,0,1.25,41.25,-293.75)"/>
<path style="fill:none;stroke-width:1;stroke-linecap:round;stroke-linejoin:round;stroke:rgb(0%,0%,0%);stroke-opacity:1;stroke-miterlimit:10;" d="M 290.5 320.684375 L 297.6 320.684375 " transform="matrix(1.25,0,0,1.25,41.25,-293.75)"/>
<path style="fill:none;stroke-width:1;stroke-linecap:butt;stroke-linejoin:miter;stroke:rgb(0%,0%,0%);stroke-opacity:1;stroke-miterlimit:10;" d="M 301.6 320.684375 L 297.6 320.684375 M 297.6 319.184375 L 301.6 320.684375 L 297.6 322.184375 " transform="matrix(1.25,0,0,1.25,41.25,-293.75)"/>
<path style="fill:none;stroke-width:1;stroke-linecap:round;stroke-linejoin:round;stroke:rgb(0%,0%,0%);stroke-opacity:1;stroke-miterlimit:10;" d="M 175.38125 264.965625 L 184.30625 267.371875 " transform="matrix(1.25,0,0,1.25,41.25,-293.75)"/>
<path style="fill:none;stroke-width:1;stroke-linecap:butt;stroke-linejoin:miter;stroke:rgb(0%,0%,0%);stroke-opacity:1;stroke-miterlimit:10;" d="M 188.1625 268.4125 L 184.30625 267.371875 M 184.69375 265.921875 L 188.1625 268.4125 L 183.9125 268.81875 " transform="matrix(1.25,0,0,1.25,41.25,-293.75)"/>
<path style="fill:none;stroke-width:1;stroke-linecap:round;stroke-linejoin:round;stroke:rgb(0%,0%,0%);stroke-opacity:1;stroke-miterlimit:10;" d="M 176.109375 285.96875 L 184.315625 283.675 " transform="matrix(1.25,0,0,1.25,41.25,-293.75)"/>
<path style="fill:none;stroke-width:1;stroke-linecap:butt;stroke-linejoin:miter;stroke:rgb(0%,0%,0%);stroke-opacity:1;stroke-miterlimit:10;" d="M 188.171875 282.6 L 184.315625 283.675 M 183.9125 282.234375 L 188.171875 282.6 L 184.721875 285.121875 " transform="matrix(1.25,0,0,1.25,41.25,-293.75)"/>
<path style="fill:none;stroke-width:1;stroke-linecap:round;stroke-linejoin:round;stroke:rgb(0%,0%,0%);stroke-opacity:1;stroke-miterlimit:10;" d="M 175.38125 363.39375 L 184.35 366.090625 " transform="matrix(1.25,0,0,1.25,41.25,-293.75)"/>
<path style="fill:none;stroke-width:1;stroke-linecap:butt;stroke-linejoin:miter;stroke:rgb(0%,0%,0%);stroke-opacity:1;stroke-miterlimit:10;" d="M 188.18125 367.2375 L 184.35 366.090625 M 184.78125 364.653125 L 188.18125 367.2375 L 183.91875 367.525 " transform="matrix(1.25,0,0,1.25,41.25,-293.75)"/>
<path style="fill:none;stroke-width:1;stroke-linecap:round;stroke-linejoin:round;stroke:rgb(0%,0%,0%);stroke-opacity:1;stroke-miterlimit:10;" d="M 176.109375 384.06875 L 184.2625 382.121875 " transform="matrix(1.25,0,0,1.25,41.25,-293.75)"/>
<path style="fill:none;stroke-width:1;stroke-linecap:butt;stroke-linejoin:miter;stroke:rgb(0%,0%,0%);stroke-opacity:1;stroke-miterlimit:10;" d="M 188.153125 381.1875 L 184.2625 382.121875 M 183.9125 380.659375 L 188.153125 381.1875 L 184.6125 383.578125 " transform="matrix(1.25,0,0,1.25,41.25,-293.75)"/>
<path style=" stroke:none;fill-rule:nonzero;fill:rgb(0%,0%,0%);fill-opacity:1;" d="M 7.1875 146.296875 L 7.1875 156.101562 L 7.929688 156.101562 L 7.929688 147.019531 L 9.257812 147.019531 C 9.101562 147.917969 8.847656 148.914062 8.535156 149.988281 C 9.042969 150.867188 9.296875 151.667969 9.296875 152.371094 C 9.296875 152.625 9.257812 152.78125 9.179688 152.878906 C 9.101562 152.976562 8.964844 153.035156 8.808594 153.054688 C 8.652344 153.054688 8.4375 153.035156 8.203125 153.015625 L 8.4375 153.777344 C 9.082031 153.757812 9.511719 153.621094 9.765625 153.367188 C 9.960938 153.171875 10.039062 152.839844 10.039062 152.371094 C 10 151.667969 9.746094 150.847656 9.257812 149.890625 C 9.550781 148.855469 9.804688 147.859375 10 146.921875 L 10 146.296875 Z M 10.839844 146.511719 L 10.234375 146.882812 C 10.664062 147.527344 11.015625 148.132812 11.269531 148.699219 L 11.855469 148.269531 C 11.621094 147.78125 11.289062 147.175781 10.839844 146.511719 Z M 14.824219 155.242188 C 14.433594 155.242188 14.042969 155.222656 13.652344 155.222656 C 13.242188 155.183594 12.871094 155.105469 12.578125 154.988281 C 12.246094 154.8125 11.972656 154.597656 11.777344 154.324219 C 11.757812 154.285156 11.71875 154.265625 11.699219 154.226562 L 11.699219 149.636719 L 9.980469 149.636719 L 9.980469 150.359375 L 10.9375 150.359375 L 10.9375 154.109375 C 10.546875 154.285156 10.078125 154.773438 9.511719 155.535156 L 10 156.140625 C 10.625 155.242188 11.054688 154.8125 11.269531 154.8125 C 11.386719 154.8125 11.503906 154.890625 11.640625 155.066406 C 11.894531 155.378906 12.1875 155.613281 12.558594 155.75 C 12.910156 155.886719 13.339844 155.945312 13.828125 155.964844 C 14.140625 155.964844 14.453125 155.984375 14.785156 155.984375 L 16.816406 155.984375 L 17.011719 155.222656 C 16.328125 155.222656 15.605469 155.242188 14.824219 155.242188 Z M 12.128906 146.941406 L 12.128906 147.683594 L 13.515625 147.683594 C 13.144531 148.933594 12.597656 149.949219 11.855469 150.75 L 12.265625 151.296875 C 12.558594 151.023438 12.832031 150.691406 13.085938 150.320312 L 13.085938 154.578125 L 13.789062 154.578125 L 13.789062 152.664062 L 15.78125 152.664062 L 15.78125 153.523438 C 15.78125 153.757812 15.683594 153.894531 15.488281 153.894531 C 15.253906 153.894531 15 153.875 14.726562 153.835938 L 14.921875 154.539062 L 15.742188 154.539062 C 16.25 154.519531 16.523438 154.265625 16.523438 153.757812 L 16.523438 148.796875 L 13.886719 148.796875 C 14.023438 148.445312 14.160156 148.074219 14.277344 147.683594 L 16.953125 147.683594 L 16.953125 146.941406 L 14.472656 146.941406 C 14.550781 146.628906 14.609375 146.296875 14.667969 145.964844 L 13.886719 145.867188 C 13.828125 146.21875 13.769531 146.570312 13.691406 146.941406 Z M 13.789062 151.101562 L 15.78125 151.101562 L 15.78125 152.019531 L 13.789062 152.019531 Z M 15.78125 150.4375 L 13.789062 150.4375 L 13.789062 149.441406 L 15.78125 149.441406 Z M 15.78125 150.4375 "/>
<path style=" stroke:none;fill-rule:nonzero;fill:rgb(0%,0%,0%);fill-opacity:1;" d="M 18.144531 148.054688 L 18.144531 148.835938 L 19.804688 148.835938 C 19.414062 150.242188 18.808594 151.492188 17.929688 152.585938 L 18.28125 153.464844 C 18.925781 152.546875 19.433594 151.53125 19.824219 150.398438 L 19.824219 156.121094 L 20.644531 156.121094 L 20.644531 150.183594 C 20.957031 150.632812 21.328125 151.199219 21.757812 151.902344 L 22.226562 151.21875 C 21.679688 150.554688 21.152344 149.949219 20.644531 149.402344 L 20.644531 148.835938 L 22.03125 148.835938 L 22.03125 148.054688 L 20.644531 148.054688 L 20.644531 145.867188 L 19.824219 145.867188 L 19.824219 148.054688 Z M 21.503906 155.613281 L 22.167969 156.21875 C 22.695312 155.398438 23.066406 154.578125 23.242188 153.699219 C 23.457031 152.859375 23.554688 151.824219 23.554688 150.59375 L 23.554688 147.097656 L 25.546875 147.097656 L 25.546875 154.929688 C 25.546875 155.574219 25.917969 155.90625 26.640625 155.90625 L 27.089844 155.90625 C 27.460938 155.90625 27.734375 155.828125 27.910156 155.710938 C 28.085938 155.554688 28.203125 155.28125 28.242188 154.871094 C 28.28125 154.441406 28.320312 153.835938 28.320312 153.035156 L 27.578125 152.800781 C 27.578125 153.875 27.539062 154.519531 27.5 154.734375 C 27.480469 154.910156 27.421875 155.007812 27.324219 155.066406 C 27.246094 155.105469 27.148438 155.144531 27.011719 155.144531 L 26.640625 155.144531 C 26.445312 155.144531 26.367188 155.027344 26.367188 154.851562 L 26.367188 146.335938 L 22.734375 146.335938 L 22.734375 150.59375 C 22.734375 151.746094 22.65625 152.664062 22.519531 153.367188 C 22.324219 154.148438 21.992188 154.910156 21.503906 155.613281 Z M 21.503906 155.613281 "/>
<path style=" stroke:none;fill-rule:nonzero;fill:rgb(0%,0%,0%);fill-opacity:1;" d="M 33.828125 156.042969 C 34.609375 156.042969 35 155.652344 35 154.851562 L 35 146.023438 L 34.160156 146.023438 L 34.160156 154.636719 C 34.160156 155.066406 33.945312 155.28125 33.535156 155.28125 C 33.027344 155.28125 32.480469 155.242188 31.914062 155.203125 L 32.109375 156.042969 Z M 31.152344 148.640625 C 30.703125 150.652344 30.039062 152.273438 29.140625 153.464844 L 29.824219 154.070312 C 30.703125 152.917969 31.425781 151.199219 31.953125 148.953125 Z M 37.539062 148.367188 L 36.796875 148.816406 C 37.675781 150.769531 38.359375 152.546875 38.867188 154.128906 L 39.589844 153.621094 C 39.101562 152.136719 38.417969 150.378906 37.539062 148.367188 Z M 37.539062 148.367188 "/>
<path style=" stroke:none;fill-rule:nonzero;fill:rgb(0%,0%,0%);fill-opacity:1;" d="M 43.828125 150.769531 C 43.457031 150.925781 43.105469 151.082031 42.734375 151.21875 L 42.734375 148.71875 L 43.847656 148.71875 L 43.847656 147.9375 L 42.734375 147.9375 L 42.734375 145.847656 L 41.953125 145.847656 L 41.953125 147.9375 L 40.683594 147.9375 L 40.683594 148.71875 L 41.953125 148.71875 L 41.953125 151.472656 C 41.484375 151.609375 41.015625 151.726562 40.546875 151.824219 L 40.722656 152.585938 C 41.132812 152.488281 41.542969 152.371094 41.953125 152.253906 L 41.953125 154.929688 C 41.953125 155.222656 41.816406 155.359375 41.542969 155.359375 C 41.269531 155.359375 40.976562 155.339844 40.683594 155.300781 L 40.839844 156.101562 L 41.816406 156.101562 C 42.421875 156.101562 42.734375 155.769531 42.734375 155.125 L 42.734375 151.980469 C 43.085938 151.84375 43.457031 151.6875 43.828125 151.53125 Z M 45.175781 149.988281 L 46.757812 149.988281 L 46.757812 149.207031 L 45.175781 149.207031 L 45.175781 145.964844 L 44.375 145.964844 L 44.375 154.792969 C 44.375 155.027344 44.257812 155.203125 44.003906 155.28125 L 44.199219 156.042969 C 45.175781 155.808594 46.035156 155.535156 46.796875 155.222656 L 46.640625 154.480469 C 46.191406 154.695312 45.722656 154.871094 45.175781 155.007812 Z M 49.21875 156.023438 C 49.667969 156.023438 49.980469 155.886719 50.195312 155.671875 C 50.429688 155.398438 50.585938 154.65625 50.664062 153.40625 L 49.921875 153.171875 C 49.882812 154.1875 49.785156 154.792969 49.648438 155.007812 C 49.53125 155.164062 49.355469 155.242188 49.082031 155.242188 L 48.535156 155.242188 C 48.242188 155.242188 48.105469 155.085938 48.105469 154.792969 L 48.105469 150.105469 C 48.867188 149.851562 49.6875 149.480469 50.546875 149.011719 L 50.078125 148.347656 C 49.433594 148.738281 48.769531 149.070312 48.105469 149.285156 L 48.105469 145.886719 L 47.304688 145.886719 L 47.304688 154.949219 C 47.304688 155.652344 47.636719 156.023438 48.28125 156.023438 Z M 49.21875 156.023438 "/>
<path style=" stroke:none;fill-rule:nonzero;fill:rgb(0%,0%,0%);fill-opacity:1;" d="M 52.96875 150.574219 L 52.96875 153.445312 L 56.464844 153.445312 L 56.464844 154.070312 L 52.695312 154.070312 L 52.695312 154.617188 L 56.464844 154.617188 L 56.464844 155.28125 L 51.855469 155.28125 L 51.855469 155.90625 L 61.894531 155.90625 L 61.894531 155.28125 L 57.265625 155.28125 L 57.265625 154.617188 L 61.074219 154.617188 L 61.074219 154.070312 L 57.265625 154.070312 L 57.265625 153.445312 L 60.800781 153.445312 L 60.800781 150.574219 Z M 60.019531 152.9375 L 57.265625 152.9375 L 57.265625 152.253906 L 60.019531 152.253906 Z M 56.464844 152.9375 L 53.75 152.9375 L 53.75 152.253906 L 56.464844 152.253906 Z M 53.75 151.765625 L 53.75 151.082031 L 56.464844 151.082031 L 56.464844 151.765625 Z M 57.265625 151.082031 L 60.019531 151.082031 L 60.019531 151.765625 L 57.265625 151.765625 Z M 53.222656 146.042969 L 53.222656 148.816406 L 60.566406 148.816406 L 60.566406 146.042969 Z M 59.785156 148.328125 L 54.003906 148.328125 L 54.003906 147.664062 L 59.785156 147.664062 Z M 54.003906 147.175781 L 54.003906 146.53125 L 59.785156 146.53125 L 59.785156 147.175781 Z M 51.835938 149.402344 L 51.835938 150.007812 L 61.914062 150.007812 L 61.914062 149.402344 Z M 51.835938 149.402344 "/>
<path style=" stroke:none;fill-rule:nonzero;fill:rgb(0%,0%,0%);fill-opacity:1;" d="M 27.050781 67.988281 L 27.050781 68.710938 L 28.691406 68.710938 L 28.691406 69.550781 L 29.453125 69.550781 L 29.453125 68.710938 L 31.25 68.710938 L 31.25 69.550781 L 32.03125 69.550781 L 32.03125 68.710938 L 33.769531 68.710938 L 33.769531 67.988281 L 32.03125 67.988281 L 32.03125 67.089844 L 31.25 67.089844 L 31.25 67.988281 L 29.453125 67.988281 L 29.453125 67.089844 L 28.691406 67.089844 L 28.691406 67.988281 Z M 30.214844 75.058594 C 30.859375 75.996094 31.914062 76.777344 33.378906 77.402344 L 33.90625 76.757812 C 32.578125 76.289062 31.601562 75.683594 30.9375 74.902344 L 33.789062 74.902344 L 33.789062 74.160156 L 30.546875 74.160156 C 30.625 73.90625 30.683594 73.632812 30.722656 73.320312 L 33.027344 73.320312 L 33.027344 69.902344 L 27.65625 69.902344 L 27.65625 73.320312 L 30.019531 73.320312 C 29.960938 73.613281 29.882812 73.90625 29.804688 74.160156 L 26.835938 74.160156 L 26.835938 74.902344 L 29.453125 74.902344 C 29.375 75.078125 29.257812 75.214844 29.140625 75.351562 C 28.652344 75.9375 27.851562 76.367188 26.71875 76.679688 L 27.011719 77.34375 C 28.320312 76.972656 29.21875 76.484375 29.726562 75.820312 C 29.902344 75.605469 30.078125 75.332031 30.214844 75.058594 Z M 25.957031 71.621094 C 26.25 72.070312 26.621094 72.675781 27.03125 73.417969 L 27.460938 72.773438 C 26.933594 72.011719 26.445312 71.347656 25.957031 70.761719 L 25.957031 70.019531 L 27.148438 70.019531 L 27.148438 69.277344 L 25.957031 69.277344 L 25.957031 67.109375 L 25.195312 67.109375 L 25.195312 69.277344 L 23.886719 69.277344 L 23.886719 70.019531 L 25.195312 70.019531 L 25.195312 70.078125 C 24.863281 71.464844 24.296875 72.675781 23.515625 73.75 L 23.867188 74.628906 C 24.414062 73.769531 24.84375 72.792969 25.195312 71.738281 L 25.195312 77.34375 L 25.957031 77.34375 Z M 32.304688 72.675781 L 28.378906 72.675781 L 28.378906 71.914062 L 32.304688 71.914062 Z M 28.378906 71.308594 L 28.378906 70.566406 L 32.304688 70.566406 L 32.304688 71.308594 Z M 28.378906 71.308594 "/>
<path style=" stroke:none;fill-rule:nonzero;fill:rgb(0%,0%,0%);fill-opacity:1;" d="M 35.429688 67.558594 L 35.429688 68.28125 L 36.5625 68.28125 L 36.5625 69.980469 L 35.136719 69.980469 L 35.136719 70.722656 L 36.523438 70.722656 C 36.40625 71.640625 36.035156 72.324219 35.410156 72.792969 L 36.015625 73.320312 C 36.757812 72.734375 37.1875 71.875 37.304688 70.722656 L 38.789062 70.722656 L 38.789062 73.183594 L 39.570312 73.183594 L 39.570312 70.722656 L 40.957031 70.722656 L 40.957031 69.980469 L 39.570312 69.980469 L 39.570312 68.28125 L 40.703125 68.28125 L 40.703125 67.558594 Z M 37.34375 68.28125 L 38.789062 68.28125 L 38.789062 69.980469 L 37.34375 69.980469 Z M 41.621094 67.832031 L 41.621094 71.699219 L 42.402344 71.699219 L 42.402344 67.832031 Z M 35.683594 74.296875 L 35.683594 75.039062 L 39.648438 75.039062 L 39.648438 76.347656 L 35.058594 76.347656 L 35.058594 77.089844 L 44.941406 77.089844 L 44.941406 76.347656 L 40.449219 76.347656 L 40.449219 75.039062 L 44.316406 75.039062 L 44.316406 74.296875 L 40.449219 74.296875 L 40.449219 73.320312 L 39.648438 73.320312 L 39.648438 74.296875 Z M 43.535156 73.300781 C 44.121094 73.300781 44.433594 72.949219 44.433594 72.265625 L 44.433594 67.207031 L 43.652344 67.207031 L 43.652344 72.070312 C 43.652344 72.402344 43.515625 72.578125 43.261719 72.578125 C 42.8125 72.578125 42.34375 72.558594 41.855469 72.519531 L 42.03125 73.300781 Z M 43.535156 73.300781 "/>
</g>
</svg>
