<?xml version="1.0" encoding="UTF-8"?>
<svg xmlns="http://www.w3.org/2000/svg" xmlns:xlink="http://www.w3.org/1999/xlink" width="303pt" height="209pt" viewBox="0 0 303 209" version="1.1">
<defs>
<clipPath id="clip1">
  <path d="M 55 9 L 58 9 L 58 178.875 L 55 178.875 Z M 55 9 "/>
</clipPath>
<clipPath id="clip2">
  <path d="M 132 9 L 134 9 L 134 178.875 L 132 178.875 Z M 132 9 "/>
</clipPath>
<clipPath id="clip3">
  <path d="M 209 9 L 211 9 L 211 178.875 L 209 178.875 Z M 209 9 "/>
</clipPath>
<clipPath id="clip4">
  <path d="M 285 9 L 287 9 L 287 178.875 L 285 178.875 Z M 285 9 "/>
</clipPath>
<clipPath id="clip5">
  <path d="M 45.582031 170 L 289.707031 170 L 289.707031 172 L 45.582031 172 Z M 45.582031 170 "/>
</clipPath>
<clipPath id="clip6">
  <path d="M 45.582031 139 L 289.707031 139 L 289.707031 141 L 45.582031 141 Z M 45.582031 139 "/>
</clipPath>
<clipPath id="clip7">
  <path d="M 45.582031 108 L 289.707031 108 L 289.707031 111 L 45.582031 111 Z M 45.582031 108 "/>
</clipPath>
<clipPath id="clip8">
  <path d="M 45.582031 77 L 289.707031 77 L 289.707031 80 L 45.582031 80 Z M 45.582031 77 "/>
</clipPath>
<clipPath id="clip9">
  <path d="M 45.582031 46 L 289.707031 46 L 289.707031 49 L 45.582031 49 Z M 45.582031 46 "/>
</clipPath>
<clipPath id="clip10">
  <path d="M 45.582031 16 L 289.707031 16 L 289.707031 18 L 45.582031 18 Z M 45.582031 16 "/>
</clipPath>
</defs>
<g id="surface1">
<path style=" stroke:none;fill-rule:nonzero;fill:rgb(100%,100%,100%);fill-opacity:1;" d="M 45.582031 178.875 L 289.707031 178.875 L 289.707031 9 L 45.582031 9 Z M 45.582031 178.875 "/>
<g clip-path="url(#clip1)" clip-rule="nonzero">
<path style="fill:none;stroke-width:0.8;stroke-linecap:square;stroke-linejoin:round;stroke:rgb(69.019608%,69.019608%,69.019608%);stroke-opacity:1;stroke-miterlimit:4;" d="M 45.34375 143.1 L 45.34375 7.2 " transform="matrix(1.25,0,0,1.25,0,0)"/>
</g>
<path style="fill:none;stroke-width:0.8;stroke-linecap:butt;stroke-linejoin:round;stroke:rgb(0%,0%,0%);stroke-opacity:1;stroke-miterlimit:4;" d="M 0.000852 -0.000000000000028422 L 0.000852 3.5 " transform="matrix(1.25,0,0,1.25,56.678623,178.875)"/>
<path style=" stroke:none;fill-rule:nonzero;fill:rgb(0%,0%,0%);fill-opacity:1;" d="M 56.675781 188.824219 C 56.039062 188.824219 55.5625 189.136719 55.242188 189.761719 C 54.925781 190.382812 54.765625 191.324219 54.765625 192.578125 C 54.765625 193.824219 54.925781 194.761719 55.242188 195.386719 C 55.5625 196.011719 56.039062 196.324219 56.675781 196.324219 C 57.3125 196.324219 57.792969 196.011719 58.113281 195.386719 C 58.433594 194.761719 58.59375 193.824219 58.59375 192.578125 C 58.59375 191.324219 58.433594 190.382812 58.113281 189.761719 C 57.792969 189.136719 57.3125 188.824219 56.675781 188.824219 Z M 56.675781 187.847656 C 57.695312 187.847656 58.476562 188.25 59.015625 189.058594 C 59.554688 189.867188 59.824219 191.039062 59.824219 192.578125 C 59.824219 194.109375 59.554688 195.28125 59.015625 196.089844 C 58.476562 196.898438 57.695312 197.300781 56.675781 197.300781 C 55.652344 197.300781 54.875 196.898438 54.335938 196.089844 C 53.796875 195.28125 53.527344 194.109375 53.527344 192.578125 C 53.527344 191.039062 53.796875 189.867188 54.335938 189.058594 C 54.875 188.25 55.652344 187.847656 56.675781 187.847656 Z M 56.675781 187.847656 "/>
<g clip-path="url(#clip2)" clip-rule="nonzero">
<path style="fill:none;stroke-width:0.8;stroke-linecap:square;stroke-linejoin:round;stroke:rgb(69.019608%,69.019608%,69.019608%);stroke-opacity:1;stroke-miterlimit:4;" d="M 106.565625 143.1 L 106.565625 7.2 " transform="matrix(1.25,0,0,1.25,0,0)"/>
</g>
<path style="fill:none;stroke-width:0.8;stroke-linecap:butt;stroke-linejoin:round;stroke:rgb(0%,0%,0%);stroke-opacity:1;stroke-miterlimit:4;" d="M 0.000157 -0.000000000000028422 L 0.000157 3.5 " transform="matrix(1.25,0,0,1.25,133.206835,178.875)"/>
<path style=" stroke:none;fill-rule:nonzero;fill:rgb(0%,0%,0%);fill-opacity:1;" d="M 126.804688 196.085938 L 128.816406 196.085938 L 128.816406 189.132812 L 126.625 189.574219 L 126.625 188.449219 L 128.804688 188.011719 L 130.039062 188.011719 L 130.039062 196.085938 L 132.050781 196.085938 L 132.050781 197.125 L 126.804688 197.125 Z M 126.804688 196.085938 "/>
<path style=" stroke:none;fill-rule:nonzero;fill:rgb(0%,0%,0%);fill-opacity:1;" d="M 137.179688 188.824219 C 136.546875 188.824219 136.066406 189.136719 135.746094 189.761719 C 135.429688 190.382812 135.269531 191.324219 135.269531 192.578125 C 135.269531 193.824219 135.429688 194.761719 135.746094 195.386719 C 136.066406 196.011719 136.546875 196.324219 137.179688 196.324219 C 137.820312 196.324219 138.296875 196.011719 138.617188 195.386719 C 138.9375 194.761719 139.097656 193.824219 139.097656 192.578125 C 139.097656 191.324219 138.9375 190.382812 138.617188 189.761719 C 138.296875 189.136719 137.820312 188.824219 137.179688 188.824219 Z M 137.179688 187.847656 C 138.203125 187.847656 138.980469 188.25 139.519531 189.058594 C 140.058594 189.867188 140.328125 191.039062 140.328125 192.578125 C 140.328125 194.109375 140.058594 195.28125 139.519531 196.089844 C 138.980469 196.898438 138.203125 197.300781 137.179688 197.300781 C 136.160156 197.300781 135.378906 196.898438 134.839844 196.089844 C 134.300781 195.28125 134.03125 194.109375 134.03125 192.578125 C 134.03125 191.039062 134.300781 189.867188 134.839844 189.058594 C 135.378906 188.25 136.160156 187.847656 137.179688 187.847656 Z M 137.179688 187.847656 "/>
<g clip-path="url(#clip3)" clip-rule="nonzero">
<path style="fill:none;stroke-width:0.8;stroke-linecap:square;stroke-linejoin:round;stroke:rgb(69.019608%,69.019608%,69.019608%);stroke-opacity:1;stroke-miterlimit:4;" d="M 167.7875 143.1 L 167.7875 7.2 " transform="matrix(1.25,0,0,1.25,0,0)"/>
</g>
<path style="fill:none;stroke-width:0.8;stroke-linecap:butt;stroke-linejoin:round;stroke:rgb(0%,0%,0%);stroke-opacity:1;stroke-miterlimit:4;" d="M -0.000539 -0.000000000000028422 L -0.000539 3.5 " transform="matrix(1.25,0,0,1.25,209.735049,178.875)"/>
<path style=" stroke:none;fill-rule:nonzero;fill:rgb(0%,0%,0%);fill-opacity:1;" d="M 204.179688 196.085938 L 208.484375 196.085938 L 208.484375 197.125 L 202.699219 197.125 L 202.699219 196.085938 C 203.164062 195.601562 203.804688 194.953125 204.609375 194.136719 C 205.417969 193.320312 205.925781 192.792969 206.132812 192.558594 C 206.527344 192.113281 206.804688 191.738281 206.960938 191.433594 C 207.117188 191.125 207.195312 190.824219 207.195312 190.527344 C 207.195312 190.042969 207.027344 189.648438 206.6875 189.34375 C 206.347656 189.035156 205.902344 188.882812 205.359375 188.882812 C 204.972656 188.882812 204.5625 188.949219 204.132812 189.085938 C 203.707031 189.21875 203.246094 189.421875 202.757812 189.695312 L 202.757812 188.449219 C 203.253906 188.25 203.71875 188.101562 204.148438 188 C 204.582031 187.898438 204.976562 187.847656 205.335938 187.847656 C 206.277344 187.847656 207.03125 188.082031 207.59375 188.554688 C 208.152344 189.027344 208.433594 189.65625 208.433594 190.445312 C 208.433594 190.820312 208.363281 191.175781 208.222656 191.511719 C 208.085938 191.847656 207.828125 192.242188 207.457031 192.699219 C 207.355469 192.816406 207.03125 193.15625 206.488281 193.722656 C 205.941406 194.285156 205.175781 195.074219 204.179688 196.085938 Z M 204.179688 196.085938 "/>
<path style=" stroke:none;fill-rule:nonzero;fill:rgb(0%,0%,0%);fill-opacity:1;" d="M 213.707031 188.824219 C 213.074219 188.824219 212.597656 189.136719 212.277344 189.761719 C 211.957031 190.382812 211.796875 191.324219 211.796875 192.578125 C 211.796875 193.824219 211.957031 194.761719 212.277344 195.386719 C 212.597656 196.011719 213.074219 196.324219 213.707031 196.324219 C 214.347656 196.324219 214.824219 196.011719 215.144531 195.386719 C 215.464844 194.761719 215.625 193.824219 215.625 192.578125 C 215.625 191.324219 215.464844 190.382812 215.144531 189.761719 C 214.824219 189.136719 214.347656 188.824219 213.707031 188.824219 Z M 213.707031 187.847656 C 214.730469 187.847656 215.511719 188.25 216.050781 189.058594 C 216.589844 189.867188 216.859375 191.039062 216.859375 192.578125 C 216.859375 194.109375 216.589844 195.28125 216.050781 196.089844 C 215.511719 196.898438 214.730469 197.300781 213.707031 197.300781 C 212.6875 197.300781 211.90625 196.898438 211.367188 196.089844 C 210.828125 195.28125 210.558594 194.109375 210.558594 192.578125 C 210.558594 191.039062 210.828125 189.867188 211.367188 189.058594 C 211.90625 188.25 212.6875 187.847656 213.707031 187.847656 Z M 213.707031 187.847656 "/>
<g clip-path="url(#clip4)" clip-rule="nonzero">
<path style="fill:none;stroke-width:0.8;stroke-linecap:square;stroke-linejoin:round;stroke:rgb(69.019608%,69.019608%,69.019608%);stroke-opacity:1;stroke-miterlimit:4;" d="M 229.009375 143.1 L 229.009375 7.2 " transform="matrix(1.25,0,0,1.25,0,0)"/>
</g>
<path style="fill:none;stroke-width:0.8;stroke-linecap:butt;stroke-linejoin:round;stroke:rgb(0%,0%,0%);stroke-opacity:1;stroke-miterlimit:4;" d="M -0.001234 -0.000000000000028422 L -0.001234 3.5 " transform="matrix(1.25,0,0,1.25,286.263261,178.875)"/>
<path style=" stroke:none;fill-rule:nonzero;fill:rgb(0%,0%,0%);fill-opacity:1;" d="M 283.382812 192.210938 C 283.972656 192.335938 284.433594 192.597656 284.761719 193 C 285.09375 193.398438 285.261719 193.890625 285.261719 194.476562 C 285.261719 195.375 284.953125 196.070312 284.332031 196.5625 C 283.714844 197.054688 282.835938 197.300781 281.695312 197.300781 C 281.316406 197.300781 280.921875 197.261719 280.515625 197.1875 C 280.113281 197.113281 279.695312 197 279.261719 196.847656 L 279.261719 195.660156 C 279.605469 195.859375 279.976562 196.007812 280.382812 196.109375 C 280.792969 196.210938 281.21875 196.261719 281.660156 196.261719 C 282.433594 196.261719 283.023438 196.109375 283.425781 195.804688 C 283.832031 195.5 284.035156 195.058594 284.035156 194.476562 C 284.035156 193.9375 283.847656 193.515625 283.46875 193.214844 C 283.09375 192.910156 282.570312 192.761719 281.898438 192.761719 L 280.835938 192.761719 L 280.835938 191.746094 L 281.949219 191.746094 C 282.554688 191.746094 283.019531 191.625 283.339844 191.382812 C 283.660156 191.140625 283.820312 190.792969 283.820312 190.335938 C 283.820312 189.867188 283.65625 189.511719 283.324219 189.261719 C 282.992188 189.007812 282.519531 188.882812 281.898438 188.882812 C 281.5625 188.882812 281.199219 188.921875 280.8125 188.996094 C 280.425781 189.066406 280 189.179688 279.535156 189.335938 L 279.535156 188.238281 C 280.003906 188.105469 280.445312 188.007812 280.851562 187.945312 C 281.261719 187.878906 281.648438 187.847656 282.007812 187.847656 C 282.945312 187.847656 283.6875 188.058594 284.230469 188.484375 C 284.777344 188.910156 285.046875 189.484375 285.046875 190.207031 C 285.046875 190.710938 284.902344 191.140625 284.613281 191.488281 C 284.324219 191.835938 283.914062 192.074219 283.382812 192.210938 Z M 283.382812 192.210938 "/>
<path style=" stroke:none;fill-rule:nonzero;fill:rgb(0%,0%,0%);fill-opacity:1;" d="M 290.234375 188.824219 C 289.601562 188.824219 289.125 189.136719 288.804688 189.761719 C 288.484375 190.382812 288.324219 191.324219 288.324219 192.578125 C 288.324219 193.824219 288.484375 194.761719 288.804688 195.386719 C 289.125 196.011719 289.601562 196.324219 290.234375 196.324219 C 290.875 196.324219 291.355469 196.011719 291.671875 195.386719 C 291.992188 194.761719 292.152344 193.824219 292.152344 192.578125 C 292.152344 191.324219 291.992188 190.382812 291.671875 189.761719 C 291.355469 189.136719 290.875 188.824219 290.234375 188.824219 Z M 290.234375 187.847656 C 291.257812 187.847656 292.039062 188.25 292.578125 189.058594 C 293.117188 189.867188 293.386719 191.039062 293.386719 192.578125 C 293.386719 194.109375 293.117188 195.28125 292.578125 196.089844 C 292.039062 196.898438 291.257812 197.300781 290.234375 197.300781 C 289.214844 197.300781 288.433594 196.898438 287.894531 196.089844 C 287.355469 195.28125 287.085938 194.109375 287.085938 192.578125 C 287.085938 191.039062 287.355469 189.867188 287.894531 189.058594 C 288.433594 188.25 289.214844 187.847656 290.234375 187.847656 Z M 290.234375 187.847656 "/>
<g clip-path="url(#clip5)" clip-rule="nonzero">
<path style="fill:none;stroke-width:0.8;stroke-linecap:square;stroke-linejoin:round;stroke:rgb(69.019608%,69.019608%,69.019608%);stroke-opacity:1;stroke-miterlimit:4;" d="M 36.465625 136.921875 L 231.765625 136.921875 " transform="matrix(1.25,0,0,1.25,0,0)"/>
</g>
<path style="fill:none;stroke-width:0.8;stroke-linecap:butt;stroke-linejoin:round;stroke:rgb(0%,0%,0%);stroke-opacity:1;stroke-miterlimit:4;" d="M -0.000000000000014211 -0.000852 L -3.5 -0.000852 " transform="matrix(1.25,0,0,1.25,45.582031,171.153409)"/>
<path style=" stroke:none;fill-rule:nonzero;fill:rgb(0%,0%,0%);fill-opacity:1;" d="M 12.972656 167.601562 C 12.339844 167.601562 11.863281 167.914062 11.542969 168.539062 C 11.222656 169.164062 11.0625 170.101562 11.0625 171.355469 C 11.0625 172.605469 11.222656 173.542969 11.542969 174.167969 C 11.863281 174.792969 12.339844 175.105469 12.972656 175.105469 C 13.613281 175.105469 14.089844 174.792969 14.410156 174.167969 C 14.730469 173.542969 14.890625 172.605469 14.890625 171.355469 C 14.890625 170.101562 14.730469 169.164062 14.410156 168.539062 C 14.089844 167.914062 13.613281 167.601562 12.972656 167.601562 Z M 12.972656 166.625 C 13.996094 166.625 14.777344 167.03125 15.316406 167.839844 C 15.855469 168.644531 16.125 169.816406 16.125 171.355469 C 16.125 172.890625 15.855469 174.0625 15.316406 174.871094 C 14.777344 175.675781 13.996094 176.082031 12.972656 176.082031 C 11.953125 176.082031 11.171875 175.675781 10.632812 174.871094 C 10.09375 174.0625 9.824219 172.890625 9.824219 171.355469 C 9.824219 169.816406 10.09375 168.644531 10.632812 167.839844 C 11.171875 167.03125 11.953125 166.625 12.972656 166.625 Z M 12.972656 166.625 "/>
<path style=" stroke:none;fill-rule:nonzero;fill:rgb(0%,0%,0%);fill-opacity:1;" d="M 18.289062 174.351562 L 19.578125 174.351562 L 19.578125 175.902344 L 18.289062 175.902344 Z M 18.289062 174.351562 "/>
<path style=" stroke:none;fill-rule:nonzero;fill:rgb(0%,0%,0%);fill-opacity:1;" d="M 23.324219 174.867188 L 27.628906 174.867188 L 27.628906 175.902344 L 21.84375 175.902344 L 21.84375 174.867188 C 22.308594 174.382812 22.945312 173.730469 23.753906 172.917969 C 24.5625 172.101562 25.070312 171.574219 25.277344 171.335938 C 25.671875 170.894531 25.949219 170.519531 26.105469 170.210938 C 26.261719 169.902344 26.339844 169.601562 26.339844 169.304688 C 26.339844 168.820312 26.171875 168.425781 25.832031 168.121094 C 25.492188 167.816406 25.046875 167.664062 24.503906 167.664062 C 24.117188 167.664062 23.707031 167.730469 23.277344 167.863281 C 22.847656 167.996094 22.390625 168.203125 21.902344 168.476562 L 21.902344 167.230469 C 22.398438 167.03125 22.863281 166.878906 23.292969 166.777344 C 23.726562 166.675781 24.121094 166.625 24.480469 166.625 C 25.421875 166.625 26.175781 166.863281 26.738281 167.335938 C 27.296875 167.804688 27.578125 168.4375 27.578125 169.226562 C 27.578125 169.601562 27.507812 169.957031 27.367188 170.292969 C 27.226562 170.625 26.972656 171.019531 26.601562 171.476562 C 26.5 171.59375 26.175781 171.9375 25.632812 172.5 C 25.085938 173.0625 24.316406 173.851562 23.324219 174.867188 Z M 23.324219 174.867188 "/>
<path style=" stroke:none;fill-rule:nonzero;fill:rgb(0%,0%,0%);fill-opacity:1;" d="M 30.230469 166.789062 L 35.070312 166.789062 L 35.070312 167.828125 L 31.359375 167.828125 L 31.359375 170.0625 C 31.535156 170 31.714844 169.953125 31.894531 169.925781 C 32.074219 169.894531 32.253906 169.878906 32.433594 169.878906 C 33.449219 169.878906 34.253906 170.15625 34.847656 170.714844 C 35.441406 171.273438 35.742188 172.027344 35.742188 172.980469 C 35.742188 173.960938 35.433594 174.722656 34.824219 175.265625 C 34.214844 175.808594 33.351562 176.082031 32.242188 176.082031 C 31.859375 176.082031 31.46875 176.046875 31.074219 175.984375 C 30.675781 175.917969 30.265625 175.820312 29.84375 175.691406 L 29.84375 174.449219 C 30.210938 174.648438 30.589844 174.796875 30.980469 174.894531 C 31.371094 174.992188 31.78125 175.042969 32.21875 175.042969 C 32.921875 175.042969 33.480469 174.855469 33.890625 174.488281 C 34.300781 174.117188 34.507812 173.613281 34.507812 172.980469 C 34.507812 172.34375 34.300781 171.84375 33.890625 171.472656 C 33.480469 171.101562 32.921875 170.917969 32.21875 170.917969 C 31.886719 170.917969 31.558594 170.953125 31.230469 171.027344 C 30.902344 171.097656 30.570312 171.210938 30.230469 171.367188 Z M 30.230469 166.789062 "/>
<g clip-path="url(#clip6)" clip-rule="nonzero">
<path style="fill:none;stroke-width:0.8;stroke-linecap:square;stroke-linejoin:round;stroke:rgb(69.019608%,69.019608%,69.019608%);stroke-opacity:1;stroke-miterlimit:4;" d="M 36.465625 112.2125 L 231.765625 112.2125 " transform="matrix(1.25,0,0,1.25,0,0)"/>
</g>
<path style="fill:none;stroke-width:0.8;stroke-linecap:butt;stroke-linejoin:round;stroke:rgb(0%,0%,0%);stroke-opacity:1;stroke-miterlimit:4;" d="M -0.000000000000014211 -0.001136 L -3.5 -0.001136 " transform="matrix(1.25,0,0,1.25,45.582031,140.267045)"/>
<path style=" stroke:none;fill-rule:nonzero;fill:rgb(0%,0%,0%);fill-opacity:1;" d="M 12.972656 136.714844 C 12.339844 136.714844 11.863281 137.027344 11.542969 137.652344 C 11.222656 138.277344 11.0625 139.214844 11.0625 140.46875 C 11.0625 141.71875 11.222656 142.65625 11.542969 143.28125 C 11.863281 143.90625 12.339844 144.21875 12.972656 144.21875 C 13.613281 144.21875 14.089844 143.90625 14.410156 143.28125 C 14.730469 142.65625 14.890625 141.71875 14.890625 140.46875 C 14.890625 139.214844 14.730469 138.277344 14.410156 137.652344 C 14.089844 137.027344 13.613281 136.714844 12.972656 136.714844 Z M 12.972656 135.738281 C 13.996094 135.738281 14.777344 136.144531 15.316406 136.953125 C 15.855469 137.757812 16.125 138.929688 16.125 140.46875 C 16.125 142.003906 15.855469 143.175781 15.316406 143.984375 C 14.777344 144.789062 13.996094 145.195312 12.972656 145.195312 C 11.953125 145.195312 11.171875 144.789062 10.632812 143.984375 C 10.09375 143.175781 9.824219 142.003906 9.824219 140.46875 C 9.824219 138.929688 10.09375 137.757812 10.632812 136.953125 C 11.171875 136.144531 11.953125 135.738281 12.972656 135.738281 Z M 12.972656 135.738281 "/>
<path style=" stroke:none;fill-rule:nonzero;fill:rgb(0%,0%,0%);fill-opacity:1;" d="M 18.289062 143.464844 L 19.578125 143.464844 L 19.578125 145.015625 L 18.289062 145.015625 Z M 18.289062 143.464844 "/>
<path style=" stroke:none;fill-rule:nonzero;fill:rgb(0%,0%,0%);fill-opacity:1;" d="M 26 140.101562 C 26.589844 140.226562 27.046875 140.492188 27.378906 140.890625 C 27.710938 141.289062 27.878906 141.78125 27.878906 142.367188 C 27.878906 143.265625 27.566406 143.960938 26.949219 144.457031 C 26.332031 144.949219 25.453125 145.195312 24.3125 145.195312 C 23.929688 145.195312 23.539062 145.15625 23.132812 145.082031 C 22.726562 145.003906 22.308594 144.890625 21.878906 144.742188 L 21.878906 143.550781 C 22.21875 143.75 22.59375 143.902344 23 144.003906 C 23.40625 144.105469 23.832031 144.15625 24.277344 144.15625 C 25.050781 144.15625 25.636719 144.003906 26.042969 143.699219 C 26.449219 143.394531 26.652344 142.949219 26.652344 142.367188 C 26.652344 141.828125 26.460938 141.410156 26.085938 141.109375 C 25.710938 140.804688 25.1875 140.652344 24.515625 140.652344 L 23.453125 140.652344 L 23.453125 139.640625 L 24.566406 139.640625 C 25.171875 139.640625 25.632812 139.519531 25.957031 139.277344 C 26.277344 139.035156 26.4375 138.683594 26.4375 138.230469 C 26.4375 137.761719 26.273438 137.402344 25.941406 137.152344 C 25.609375 136.902344 25.132812 136.777344 24.515625 136.777344 C 24.175781 136.777344 23.816406 136.8125 23.429688 136.886719 C 23.042969 136.960938 22.617188 137.074219 22.152344 137.226562 L 22.152344 136.128906 C 22.621094 136 23.058594 135.902344 23.46875 135.835938 C 23.878906 135.769531 24.261719 135.738281 24.625 135.738281 C 25.5625 135.738281 26.300781 135.953125 26.847656 136.378906 C 27.390625 136.800781 27.664062 137.375 27.664062 138.101562 C 27.664062 138.605469 27.519531 139.03125 27.230469 139.378906 C 26.941406 139.726562 26.53125 139.96875 26 140.101562 Z M 26 140.101562 "/>
<path style=" stroke:none;fill-rule:nonzero;fill:rgb(0%,0%,0%);fill-opacity:1;" d="M 32.851562 136.714844 C 32.21875 136.714844 31.742188 137.027344 31.421875 137.652344 C 31.101562 138.277344 30.941406 139.214844 30.941406 140.46875 C 30.941406 141.71875 31.101562 142.65625 31.421875 143.28125 C 31.742188 143.90625 32.21875 144.21875 32.851562 144.21875 C 33.492188 144.21875 33.96875 143.90625 34.289062 143.28125 C 34.609375 142.65625 34.769531 141.71875 34.769531 140.46875 C 34.769531 139.214844 34.609375 138.277344 34.289062 137.652344 C 33.96875 137.027344 33.492188 136.714844 32.851562 136.714844 Z M 32.851562 135.738281 C 33.875 135.738281 34.65625 136.144531 35.195312 136.953125 C 35.734375 137.757812 36.003906 138.929688 36.003906 140.46875 C 36.003906 142.003906 35.734375 143.175781 35.195312 143.984375 C 34.65625 144.789062 33.875 145.195312 32.851562 145.195312 C 31.832031 145.195312 31.050781 144.789062 30.511719 143.984375 C 29.972656 143.175781 29.703125 142.003906 29.703125 140.46875 C 29.703125 138.929688 29.972656 137.757812 30.511719 136.953125 C 31.050781 136.144531 31.832031 135.738281 32.851562 135.738281 Z M 32.851562 135.738281 "/>
<g clip-path="url(#clip7)" clip-rule="nonzero">
<path style="fill:none;stroke-width:0.8;stroke-linecap:square;stroke-linejoin:round;stroke:rgb(69.019608%,69.019608%,69.019608%);stroke-opacity:1;stroke-miterlimit:4;" d="M 36.465625 87.503125 L 231.765625 87.503125 " transform="matrix(1.25,0,0,1.25,0,0)"/>
</g>
<path style="fill:none;stroke-width:0.8;stroke-linecap:butt;stroke-linejoin:round;stroke:rgb(0%,0%,0%);stroke-opacity:1;stroke-miterlimit:4;" d="M -0.000000000000014211 -0.00142 L -3.5 -0.00142 " transform="matrix(1.25,0,0,1.25,45.582031,109.380681)"/>
<path style=" stroke:none;fill-rule:nonzero;fill:rgb(0%,0%,0%);fill-opacity:1;" d="M 12.972656 105.828125 C 12.339844 105.828125 11.863281 106.140625 11.542969 106.765625 C 11.222656 107.390625 11.0625 108.328125 11.0625 109.582031 C 11.0625 110.832031 11.222656 111.769531 11.542969 112.394531 C 11.863281 113.019531 12.339844 113.332031 12.972656 113.332031 C 13.613281 113.332031 14.089844 113.019531 14.410156 112.394531 C 14.730469 111.769531 14.890625 110.832031 14.890625 109.582031 C 14.890625 108.328125 14.730469 107.390625 14.410156 106.765625 C 14.089844 106.140625 13.613281 105.828125 12.972656 105.828125 Z M 12.972656 104.851562 C 13.996094 104.851562 14.777344 105.257812 15.316406 106.066406 C 15.855469 106.871094 16.125 108.046875 16.125 109.582031 C 16.125 111.117188 15.855469 112.289062 15.316406 113.097656 C 14.777344 113.902344 13.996094 114.308594 12.972656 114.308594 C 11.953125 114.308594 11.171875 113.902344 10.632812 113.097656 C 10.09375 112.289062 9.824219 111.117188 9.824219 109.582031 C 9.824219 108.046875 10.09375 106.871094 10.632812 106.066406 C 11.171875 105.257812 11.953125 104.851562 12.972656 104.851562 Z M 12.972656 104.851562 "/>
<path style=" stroke:none;fill-rule:nonzero;fill:rgb(0%,0%,0%);fill-opacity:1;" d="M 18.289062 112.578125 L 19.578125 112.578125 L 19.578125 114.128906 L 18.289062 114.128906 Z M 18.289062 112.578125 "/>
<path style=" stroke:none;fill-rule:nonzero;fill:rgb(0%,0%,0%);fill-opacity:1;" d="M 26 109.214844 C 26.589844 109.34375 27.046875 109.605469 27.378906 110.003906 C 27.710938 110.402344 27.878906 110.894531 27.878906 111.480469 C 27.878906 112.378906 27.566406 113.074219 26.949219 113.570312 C 26.332031 114.0625 25.453125 114.308594 24.3125 114.308594 C 23.929688 114.308594 23.539062 114.269531 23.132812 114.195312 C 22.726562 114.117188 22.308594 114.003906 21.878906 113.855469 L 21.878906 112.664062 C 22.21875 112.863281 22.59375 113.015625 23 113.117188 C 23.40625 113.21875 23.832031 113.269531 24.277344 113.269531 C 25.050781 113.269531 25.636719 113.117188 26.042969 112.8125 C 26.449219 112.507812 26.652344 112.0625 26.652344 111.480469 C 26.652344 110.945312 26.460938 110.523438 26.085938 110.222656 C 25.710938 109.917969 25.1875 109.765625 24.515625 109.765625 L 23.453125 109.765625 L 23.453125 108.753906 L 24.566406 108.753906 C 25.171875 108.753906 25.632812 108.632812 25.957031 108.390625 C 26.277344 108.148438 26.4375 107.796875 26.4375 107.34375 C 26.4375 106.875 26.273438 106.515625 25.941406 106.265625 C 25.609375 106.015625 25.132812 105.890625 24.515625 105.890625 C 24.175781 105.890625 23.816406 105.925781 23.429688 106 C 23.042969 106.074219 22.617188 106.1875 22.152344 106.339844 L 22.152344 105.242188 C 22.621094 105.113281 23.058594 105.015625 23.46875 104.949219 C 23.878906 104.886719 24.261719 104.851562 24.625 104.851562 C 25.5625 104.851562 26.300781 105.066406 26.847656 105.492188 C 27.390625 105.914062 27.664062 106.488281 27.664062 107.214844 C 27.664062 107.71875 27.519531 108.144531 27.230469 108.492188 C 26.941406 108.839844 26.53125 109.082031 26 109.214844 Z M 26 109.214844 "/>
<path style=" stroke:none;fill-rule:nonzero;fill:rgb(0%,0%,0%);fill-opacity:1;" d="M 30.230469 105.015625 L 35.070312 105.015625 L 35.070312 106.054688 L 31.359375 106.054688 L 31.359375 108.289062 C 31.535156 108.226562 31.714844 108.179688 31.894531 108.152344 C 32.074219 108.121094 32.253906 108.105469 32.433594 108.105469 C 33.449219 108.105469 34.253906 108.386719 34.847656 108.941406 C 35.441406 109.5 35.742188 110.253906 35.742188 111.207031 C 35.742188 112.1875 35.433594 112.949219 34.824219 113.492188 C 34.214844 114.035156 33.351562 114.308594 32.242188 114.308594 C 31.859375 114.308594 31.46875 114.273438 31.074219 114.210938 C 30.675781 114.144531 30.265625 114.046875 29.84375 113.917969 L 29.84375 112.675781 C 30.210938 112.875 30.589844 113.023438 30.980469 113.121094 C 31.371094 113.21875 31.78125 113.269531 32.21875 113.269531 C 32.921875 113.269531 33.480469 113.082031 33.890625 112.714844 C 34.300781 112.34375 34.507812 111.839844 34.507812 111.207031 C 34.507812 110.570312 34.300781 110.070312 33.890625 109.699219 C 33.480469 109.328125 32.921875 109.144531 32.21875 109.144531 C 31.886719 109.144531 31.558594 109.179688 31.230469 109.253906 C 30.902344 109.324219 30.570312 109.441406 30.230469 109.59375 Z M 30.230469 105.015625 "/>
<g clip-path="url(#clip8)" clip-rule="nonzero">
<path style="fill:none;stroke-width:0.8;stroke-linecap:square;stroke-linejoin:round;stroke:rgb(69.019608%,69.019608%,69.019608%);stroke-opacity:1;stroke-miterlimit:4;" d="M 36.465625 62.796875 L 231.765625 62.796875 " transform="matrix(1.25,0,0,1.25,0,0)"/>
</g>
<path style="fill:none;stroke-width:0.8;stroke-linecap:butt;stroke-linejoin:round;stroke:rgb(0%,0%,0%);stroke-opacity:1;stroke-miterlimit:4;" d="M -0.000000000000014211 0.00142 L -3.5 0.00142 " transform="matrix(1.25,0,0,1.25,45.582031,78.494319)"/>
<path style=" stroke:none;fill-rule:nonzero;fill:rgb(0%,0%,0%);fill-opacity:1;" d="M 12.972656 74.941406 C 12.339844 74.941406 11.863281 75.253906 11.542969 75.878906 C 11.222656 76.503906 11.0625 77.441406 11.0625 78.695312 C 11.0625 79.945312 11.222656 80.882812 11.542969 81.507812 C 11.863281 82.132812 12.339844 82.445312 12.972656 82.445312 C 13.613281 82.445312 14.089844 82.132812 14.410156 81.507812 C 14.730469 80.882812 14.890625 79.945312 14.890625 78.695312 C 14.890625 77.441406 14.730469 76.503906 14.410156 75.878906 C 14.089844 75.253906 13.613281 74.941406 12.972656 74.941406 Z M 12.972656 73.964844 C 13.996094 73.964844 14.777344 74.371094 15.316406 75.179688 C 15.855469 75.984375 16.125 77.160156 16.125 78.695312 C 16.125 80.230469 15.855469 81.402344 15.316406 82.210938 C 14.777344 83.015625 13.996094 83.421875 12.972656 83.421875 C 11.953125 83.421875 11.171875 83.015625 10.632812 82.210938 C 10.09375 81.402344 9.824219 80.230469 9.824219 78.695312 C 9.824219 77.160156 10.09375 75.984375 10.632812 75.179688 C 11.171875 74.371094 11.953125 73.964844 12.972656 73.964844 Z M 12.972656 73.964844 "/>
<path style=" stroke:none;fill-rule:nonzero;fill:rgb(0%,0%,0%);fill-opacity:1;" d="M 18.289062 81.691406 L 19.578125 81.691406 L 19.578125 83.242188 L 18.289062 83.242188 Z M 18.289062 81.691406 "/>
<path style=" stroke:none;fill-rule:nonzero;fill:rgb(0%,0%,0%);fill-opacity:1;" d="M 25.652344 75.203125 L 22.539062 80.070312 L 25.652344 80.070312 Z M 25.328125 74.128906 L 26.878906 74.128906 L 26.878906 80.070312 L 28.179688 80.070312 L 28.179688 81.09375 L 26.878906 81.09375 L 26.878906 83.242188 L 25.652344 83.242188 L 25.652344 81.09375 L 21.539062 81.09375 L 21.539062 79.90625 Z M 25.328125 74.128906 "/>
<path style=" stroke:none;fill-rule:nonzero;fill:rgb(0%,0%,0%);fill-opacity:1;" d="M 32.851562 74.941406 C 32.21875 74.941406 31.742188 75.253906 31.421875 75.878906 C 31.101562 76.503906 30.941406 77.441406 30.941406 78.695312 C 30.941406 79.945312 31.101562 80.882812 31.421875 81.507812 C 31.742188 82.132812 32.21875 82.445312 32.851562 82.445312 C 33.492188 82.445312 33.96875 82.132812 34.289062 81.507812 C 34.609375 80.882812 34.769531 79.945312 34.769531 78.695312 C 34.769531 77.441406 34.609375 76.503906 34.289062 75.878906 C 33.96875 75.253906 33.492188 74.941406 32.851562 74.941406 Z M 32.851562 73.964844 C 33.875 73.964844 34.65625 74.371094 35.195312 75.179688 C 35.734375 75.984375 36.003906 77.160156 36.003906 78.695312 C 36.003906 80.230469 35.734375 81.402344 35.195312 82.210938 C 34.65625 83.015625 33.875 83.421875 32.851562 83.421875 C 31.832031 83.421875 31.050781 83.015625 30.511719 82.210938 C 29.972656 81.402344 29.703125 80.230469 29.703125 78.695312 C 29.703125 77.160156 29.972656 75.984375 30.511719 75.179688 C 31.050781 74.371094 31.832031 73.964844 32.851562 73.964844 Z M 32.851562 73.964844 "/>
<g clip-path="url(#clip9)" clip-rule="nonzero">
<path style="fill:none;stroke-width:0.8;stroke-linecap:square;stroke-linejoin:round;stroke:rgb(69.019608%,69.019608%,69.019608%);stroke-opacity:1;stroke-miterlimit:4;" d="M 36.465625 38.0875 L 231.765625 38.0875 " transform="matrix(1.25,0,0,1.25,0,0)"/>
</g>
<path style="fill:none;stroke-width:0.8;stroke-linecap:butt;stroke-linejoin:round;stroke:rgb(0%,0%,0%);stroke-opacity:1;stroke-miterlimit:4;" d="M -0.000000000000014211 0.001136 L -3.5 0.001136 " transform="matrix(1.25,0,0,1.25,45.582031,47.607955)"/>
<path style=" stroke:none;fill-rule:nonzero;fill:rgb(0%,0%,0%);fill-opacity:1;" d="M 12.972656 44.054688 C 12.339844 44.054688 11.863281 44.367188 11.542969 44.992188 C 11.222656 45.617188 11.0625 46.554688 11.0625 47.808594 C 11.0625 49.058594 11.222656 49.996094 11.542969 50.621094 C 11.863281 51.246094 12.339844 51.558594 12.972656 51.558594 C 13.613281 51.558594 14.089844 51.246094 14.410156 50.621094 C 14.730469 49.996094 14.890625 49.058594 14.890625 47.808594 C 14.890625 46.554688 14.730469 45.617188 14.410156 44.992188 C 14.089844 44.367188 13.613281 44.054688 12.972656 44.054688 Z M 12.972656 43.078125 C 13.996094 43.078125 14.777344 43.484375 15.316406 44.292969 C 15.855469 45.101562 16.125 46.273438 16.125 47.808594 C 16.125 49.34375 15.855469 50.515625 15.316406 51.324219 C 14.777344 52.132812 13.996094 52.535156 12.972656 52.535156 C 11.953125 52.535156 11.171875 52.132812 10.632812 51.324219 C 10.09375 50.515625 9.824219 49.34375 9.824219 47.808594 C 9.824219 46.273438 10.09375 45.101562 10.632812 44.292969 C 11.171875 43.484375 11.953125 43.078125 12.972656 43.078125 Z M 12.972656 43.078125 "/>
<path style=" stroke:none;fill-rule:nonzero;fill:rgb(0%,0%,0%);fill-opacity:1;" d="M 18.289062 50.804688 L 19.578125 50.804688 L 19.578125 52.355469 L 18.289062 52.355469 Z M 18.289062 50.804688 "/>
<path style=" stroke:none;fill-rule:nonzero;fill:rgb(0%,0%,0%);fill-opacity:1;" d="M 25.652344 44.316406 L 22.539062 49.183594 L 25.652344 49.183594 Z M 25.328125 43.242188 L 26.878906 43.242188 L 26.878906 49.183594 L 28.179688 49.183594 L 28.179688 50.207031 L 26.878906 50.207031 L 26.878906 52.355469 L 25.652344 52.355469 L 25.652344 50.207031 L 21.539062 50.207031 L 21.539062 49.019531 Z M 25.328125 43.242188 "/>
<path style=" stroke:none;fill-rule:nonzero;fill:rgb(0%,0%,0%);fill-opacity:1;" d="M 30.230469 43.242188 L 35.070312 43.242188 L 35.070312 44.28125 L 31.359375 44.28125 L 31.359375 46.515625 C 31.535156 46.453125 31.714844 46.410156 31.894531 46.378906 C 32.074219 46.347656 32.253906 46.332031 32.433594 46.332031 C 33.449219 46.332031 34.253906 46.613281 34.847656 47.167969 C 35.441406 47.726562 35.742188 48.480469 35.742188 49.433594 C 35.742188 50.414062 35.433594 51.175781 34.824219 51.71875 C 34.214844 52.261719 33.351562 52.535156 32.242188 52.535156 C 31.859375 52.535156 31.46875 52.503906 31.074219 52.4375 C 30.675781 52.371094 30.265625 52.273438 29.84375 52.144531 L 29.84375 50.902344 C 30.210938 51.101562 30.589844 51.25 30.980469 51.347656 C 31.371094 51.445312 31.78125 51.496094 32.21875 51.496094 C 32.921875 51.496094 33.480469 51.3125 33.890625 50.941406 C 34.300781 50.570312 34.507812 50.070312 34.507812 49.433594 C 34.507812 48.800781 34.300781 48.296875 33.890625 47.925781 C 33.480469 47.554688 32.921875 47.371094 32.21875 47.371094 C 31.886719 47.371094 31.558594 47.40625 31.230469 47.480469 C 30.902344 47.554688 30.570312 47.667969 30.230469 47.820312 Z M 30.230469 43.242188 "/>
<g clip-path="url(#clip10)" clip-rule="nonzero">
<path style="fill:none;stroke-width:0.8;stroke-linecap:square;stroke-linejoin:round;stroke:rgb(69.019608%,69.019608%,69.019608%);stroke-opacity:1;stroke-miterlimit:4;" d="M 36.465625 13.378125 L 231.765625 13.378125 " transform="matrix(1.25,0,0,1.25,0,0)"/>
</g>
<path style="fill:none;stroke-width:0.8;stroke-linecap:butt;stroke-linejoin:round;stroke:rgb(0%,0%,0%);stroke-opacity:1;stroke-miterlimit:4;" d="M -0.000000000000014211 0.000852 L -3.5 0.000852 " transform="matrix(1.25,0,0,1.25,45.582031,16.721591)"/>
<path style=" stroke:none;fill-rule:nonzero;fill:rgb(0%,0%,0%);fill-opacity:1;" d="M 12.972656 13.167969 C 12.339844 13.167969 11.863281 13.480469 11.542969 14.105469 C 11.222656 14.730469 11.0625 15.667969 11.0625 16.921875 C 11.0625 18.171875 11.222656 19.109375 11.542969 19.734375 C 11.863281 20.359375 12.339844 20.671875 12.972656 20.671875 C 13.613281 20.671875 14.089844 20.359375 14.410156 19.734375 C 14.730469 19.109375 14.890625 18.171875 14.890625 16.921875 C 14.890625 15.667969 14.730469 14.730469 14.410156 14.105469 C 14.089844 13.480469 13.613281 13.167969 12.972656 13.167969 Z M 12.972656 12.191406 C 13.996094 12.191406 14.777344 12.597656 15.316406 13.40625 C 15.855469 14.214844 16.125 15.386719 16.125 16.921875 C 16.125 18.457031 15.855469 19.628906 15.316406 20.4375 C 14.777344 21.246094 13.996094 21.648438 12.972656 21.648438 C 11.953125 21.648438 11.171875 21.246094 10.632812 20.4375 C 10.09375 19.628906 9.824219 18.457031 9.824219 16.921875 C 9.824219 15.386719 10.09375 14.214844 10.632812 13.40625 C 11.171875 12.597656 11.953125 12.191406 12.972656 12.191406 Z M 12.972656 12.191406 "/>
<path style=" stroke:none;fill-rule:nonzero;fill:rgb(0%,0%,0%);fill-opacity:1;" d="M 18.289062 19.917969 L 19.578125 19.917969 L 19.578125 21.46875 L 18.289062 21.46875 Z M 18.289062 19.917969 "/>
<path style=" stroke:none;fill-rule:nonzero;fill:rgb(0%,0%,0%);fill-opacity:1;" d="M 22.277344 12.355469 L 27.117188 12.355469 L 27.117188 13.394531 L 23.40625 13.394531 L 23.40625 15.628906 C 23.582031 15.566406 23.761719 15.523438 23.941406 15.492188 C 24.121094 15.460938 24.300781 15.445312 24.480469 15.445312 C 25.496094 15.445312 26.300781 15.726562 26.894531 16.28125 C 27.488281 16.839844 27.789062 17.59375 27.789062 18.546875 C 27.789062 19.527344 27.480469 20.289062 26.871094 20.832031 C 26.261719 21.375 25.398438 21.648438 24.289062 21.648438 C 23.90625 21.648438 23.515625 21.617188 23.121094 21.550781 C 22.722656 21.484375 22.3125 21.386719 21.890625 21.257812 L 21.890625 20.015625 C 22.257812 20.214844 22.636719 20.363281 23.027344 20.460938 C 23.417969 20.558594 23.828125 20.609375 24.265625 20.609375 C 24.96875 20.609375 25.527344 20.425781 25.9375 20.054688 C 26.347656 19.683594 26.554688 19.183594 26.554688 18.546875 C 26.554688 17.914062 26.347656 17.410156 25.9375 17.039062 C 25.527344 16.667969 24.96875 16.484375 24.265625 16.484375 C 23.933594 16.484375 23.605469 16.519531 23.277344 16.59375 C 22.949219 16.667969 22.617188 16.78125 22.277344 16.933594 Z M 22.277344 12.355469 "/>
<path style=" stroke:none;fill-rule:nonzero;fill:rgb(0%,0%,0%);fill-opacity:1;" d="M 32.851562 13.167969 C 32.21875 13.167969 31.742188 13.480469 31.421875 14.105469 C 31.101562 14.730469 30.941406 15.667969 30.941406 16.921875 C 30.941406 18.171875 31.101562 19.109375 31.421875 19.734375 C 31.742188 20.359375 32.21875 20.671875 32.851562 20.671875 C 33.492188 20.671875 33.96875 20.359375 34.289062 19.734375 C 34.609375 19.109375 34.769531 18.171875 34.769531 16.921875 C 34.769531 15.667969 34.609375 14.730469 34.289062 14.105469 C 33.96875 13.480469 33.492188 13.167969 32.851562 13.167969 Z M 32.851562 12.191406 C 33.875 12.191406 34.65625 12.597656 35.195312 13.40625 C 35.734375 14.214844 36.003906 15.386719 36.003906 16.921875 C 36.003906 18.457031 35.734375 19.628906 35.195312 20.4375 C 34.65625 21.246094 33.875 21.648438 32.851562 21.648438 C 31.832031 21.648438 31.050781 21.246094 30.511719 20.4375 C 29.972656 19.628906 29.703125 18.457031 29.703125 16.921875 C 29.703125 15.386719 29.972656 14.214844 30.511719 13.40625 C 31.050781 12.597656 31.832031 12.191406 32.851562 12.191406 Z M 32.851562 12.191406 "/>
<path style="fill:none;stroke-width:1.5;stroke-linecap:square;stroke-linejoin:round;stroke:rgb(12.156863%,46.666667%,70.588235%);stroke-opacity:1;stroke-miterlimit:4;" d="M 45.34375 13.378125 L 131.053125 13.378125 L 137.178125 136.921875 L 222.8875 136.921875 " transform="matrix(1.25,0,0,1.25,0,0)"/>
<path style="fill:none;stroke-width:0.8;stroke-linecap:square;stroke-linejoin:miter;stroke:rgb(0%,0%,0%);stroke-opacity:1;stroke-miterlimit:4;" d="M 36.465625 143.1 L 36.465625 7.2 " transform="matrix(1.25,0,0,1.25,0,0)"/>
<path style="fill:none;stroke-width:0.8;stroke-linecap:square;stroke-linejoin:miter;stroke:rgb(0%,0%,0%);stroke-opacity:1;stroke-miterlimit:4;" d="M 231.765625 143.1 L 231.765625 7.2 " transform="matrix(1.25,0,0,1.25,0,0)"/>
<path style="fill:none;stroke-width:0.8;stroke-linecap:square;stroke-linejoin:miter;stroke:rgb(0%,0%,0%);stroke-opacity:1;stroke-miterlimit:4;" d="M 36.465625 143.1 L 231.765625 143.1 " transform="matrix(1.25,0,0,1.25,0,0)"/>
<path style="fill:none;stroke-width:0.8;stroke-linecap:square;stroke-linejoin:miter;stroke:rgb(0%,0%,0%);stroke-opacity:1;stroke-miterlimit:4;" d="M 36.465625 7.2 L 231.765625 7.2 " transform="matrix(1.25,0,0,1.25,0,0)"/>
</g>
</svg>
