<?xml version="1.0" encoding="UTF-8"?>
<svg xmlns="http://www.w3.org/2000/svg" xmlns:xlink="http://www.w3.org/1999/xlink" width="295pt" height="209pt" viewBox="0 0 295 209" version="1.1">
<defs>
<clipPath id="clip1">
  <path d="M 48 9 L 50 9 L 50 178.875 L 48 178.875 Z M 48 9 "/>
</clipPath>
<clipPath id="clip2">
  <path d="M 124 9 L 126 9 L 126 178.875 L 124 178.875 Z M 124 9 "/>
</clipPath>
<clipPath id="clip3">
  <path d="M 201 9 L 203 9 L 203 178.875 L 201 178.875 Z M 201 9 "/>
</clipPath>
<clipPath id="clip4">
  <path d="M 277 9 L 280 9 L 280 178.875 L 277 178.875 Z M 277 9 "/>
</clipPath>
<clipPath id="clip5">
  <path d="M 37.628906 175 L 281.753906 175 L 281.753906 178 L 37.628906 178 Z M 37.628906 175 "/>
</clipPath>
<clipPath id="clip6">
  <path d="M 37.628906 122 L 281.753906 122 L 281.753906 124 L 37.628906 124 Z M 37.628906 122 "/>
</clipPath>
<clipPath id="clip7">
  <path d="M 37.628906 69 L 281.753906 69 L 281.753906 71 L 37.628906 71 Z M 37.628906 69 "/>
</clipPath>
<clipPath id="clip8">
  <path d="M 37.628906 16 L 281.753906 16 L 281.753906 18 L 37.628906 18 Z M 37.628906 16 "/>
</clipPath>
</defs>
<g id="surface1">
<path style=" stroke:none;fill-rule:nonzero;fill:rgb(100%,100%,100%);fill-opacity:1;" d="M 37.628906 178.875 L 281.753906 178.875 L 281.753906 9 L 37.628906 9 Z M 37.628906 178.875 "/>
<g clip-path="url(#clip1)" clip-rule="nonzero">
<path style="fill:none;stroke-width:0.8;stroke-linecap:square;stroke-linejoin:round;stroke:rgb(69.019608%,69.019608%,69.019608%);stroke-opacity:1;stroke-miterlimit:4;" d="M 38.98125 143.1 L 38.98125 7.2 " transform="matrix(1.25,0,0,1.25,0,0.000000000000028422)"/>
</g>
<path style="fill:none;stroke-width:0.8;stroke-linecap:butt;stroke-linejoin:round;stroke:rgb(0%,0%,0%);stroke-opacity:1;stroke-miterlimit:4;" d="M 0.000852 0 L 0.000852 3.5 " transform="matrix(1.25,0,0,1.25,48.725497,178.875)"/>
<path style=" stroke:none;fill-rule:nonzero;fill:rgb(0%,0%,0%);fill-opacity:1;" d="M 48.722656 188.824219 C 48.085938 188.824219 47.609375 189.136719 47.289062 189.761719 C 46.972656 190.382812 46.8125 191.324219 46.8125 192.578125 C 46.8125 193.824219 46.972656 194.761719 47.289062 195.386719 C 47.609375 196.011719 48.085938 196.324219 48.722656 196.324219 C 49.359375 196.324219 49.839844 196.011719 50.160156 195.386719 C 50.480469 194.761719 50.640625 193.824219 50.640625 192.578125 C 50.640625 191.324219 50.480469 190.382812 50.160156 189.761719 C 49.839844 189.136719 49.359375 188.824219 48.722656 188.824219 Z M 48.722656 187.847656 C 49.742188 187.847656 50.523438 188.25 51.0625 189.058594 C 51.601562 189.867188 51.871094 191.039062 51.871094 192.578125 C 51.871094 194.109375 51.601562 195.28125 51.0625 196.089844 C 50.523438 196.898438 49.742188 197.300781 48.722656 197.300781 C 47.699219 197.300781 46.921875 196.898438 46.382812 196.089844 C 45.84375 195.28125 45.574219 194.109375 45.574219 192.578125 C 45.574219 191.039062 45.84375 189.867188 46.382812 189.058594 C 46.921875 188.25 47.699219 187.847656 48.722656 187.847656 Z M 48.722656 187.847656 "/>
<g clip-path="url(#clip2)" clip-rule="nonzero">
<path style="fill:none;stroke-width:0.8;stroke-linecap:square;stroke-linejoin:round;stroke:rgb(69.019608%,69.019608%,69.019608%);stroke-opacity:1;stroke-miterlimit:4;" d="M 100.203125 143.1 L 100.203125 7.2 " transform="matrix(1.25,0,0,1.25,0,0.000000000000028422)"/>
</g>
<path style="fill:none;stroke-width:0.8;stroke-linecap:butt;stroke-linejoin:round;stroke:rgb(0%,0%,0%);stroke-opacity:1;stroke-miterlimit:4;" d="M 0.000157 0 L 0.000157 3.5 " transform="matrix(1.25,0,0,1.25,125.25371,178.875)"/>
<path style=" stroke:none;fill-rule:nonzero;fill:rgb(0%,0%,0%);fill-opacity:1;" d="M 118.851562 196.085938 L 120.863281 196.085938 L 120.863281 189.132812 L 118.671875 189.574219 L 118.671875 188.449219 L 120.851562 188.011719 L 122.085938 188.011719 L 122.085938 196.085938 L 124.097656 196.085938 L 124.097656 197.125 L 118.851562 197.125 Z M 118.851562 196.085938 "/>
<path style=" stroke:none;fill-rule:nonzero;fill:rgb(0%,0%,0%);fill-opacity:1;" d="M 129.226562 188.824219 C 128.59375 188.824219 128.113281 189.136719 127.792969 189.761719 C 127.476562 190.382812 127.316406 191.324219 127.316406 192.578125 C 127.316406 193.824219 127.476562 194.761719 127.792969 195.386719 C 128.113281 196.011719 128.59375 196.324219 129.226562 196.324219 C 129.867188 196.324219 130.34375 196.011719 130.664062 195.386719 C 130.984375 194.761719 131.144531 193.824219 131.144531 192.578125 C 131.144531 191.324219 130.984375 190.382812 130.664062 189.761719 C 130.34375 189.136719 129.867188 188.824219 129.226562 188.824219 Z M 129.226562 187.847656 C 130.25 187.847656 131.027344 188.25 131.566406 189.058594 C 132.105469 189.867188 132.375 191.039062 132.375 192.578125 C 132.375 194.109375 132.105469 195.28125 131.566406 196.089844 C 131.027344 196.898438 130.25 197.300781 129.226562 197.300781 C 128.207031 197.300781 127.425781 196.898438 126.886719 196.089844 C 126.347656 195.28125 126.078125 194.109375 126.078125 192.578125 C 126.078125 191.039062 126.347656 189.867188 126.886719 189.058594 C 127.425781 188.25 128.207031 187.847656 129.226562 187.847656 Z M 129.226562 187.847656 "/>
<g clip-path="url(#clip3)" clip-rule="nonzero">
<path style="fill:none;stroke-width:0.8;stroke-linecap:square;stroke-linejoin:round;stroke:rgb(69.019608%,69.019608%,69.019608%);stroke-opacity:1;stroke-miterlimit:4;" d="M 161.425 143.1 L 161.425 7.2 " transform="matrix(1.25,0,0,1.25,0,0.000000000000028422)"/>
</g>
<path style="fill:none;stroke-width:0.8;stroke-linecap:butt;stroke-linejoin:round;stroke:rgb(0%,0%,0%);stroke-opacity:1;stroke-miterlimit:4;" d="M -0.000539 0 L -0.000539 3.5 " transform="matrix(1.25,0,0,1.25,201.781924,178.875)"/>
<path style=" stroke:none;fill-rule:nonzero;fill:rgb(0%,0%,0%);fill-opacity:1;" d="M 196.226562 196.085938 L 200.53125 196.085938 L 200.53125 197.125 L 194.746094 197.125 L 194.746094 196.085938 C 195.210938 195.601562 195.851562 194.953125 196.65625 194.136719 C 197.464844 193.320312 197.972656 192.792969 198.179688 192.558594 C 198.574219 192.113281 198.851562 191.738281 199.007812 191.433594 C 199.164062 191.125 199.242188 190.824219 199.242188 190.527344 C 199.242188 190.042969 199.074219 189.648438 198.734375 189.34375 C 198.394531 189.035156 197.949219 188.882812 197.40625 188.882812 C 197.019531 188.882812 196.609375 188.949219 196.179688 189.085938 C 195.753906 189.21875 195.292969 189.421875 194.804688 189.695312 L 194.804688 188.449219 C 195.300781 188.25 195.765625 188.101562 196.195312 188 C 196.628906 187.898438 197.023438 187.847656 197.382812 187.847656 C 198.324219 187.847656 199.078125 188.082031 199.640625 188.554688 C 200.199219 189.027344 200.480469 189.65625 200.480469 190.445312 C 200.480469 190.820312 200.410156 191.175781 200.269531 191.511719 C 200.132812 191.847656 199.875 192.242188 199.503906 192.699219 C 199.402344 192.816406 199.078125 193.15625 198.535156 193.722656 C 197.988281 194.285156 197.222656 195.074219 196.226562 196.085938 Z M 196.226562 196.085938 "/>
<path style=" stroke:none;fill-rule:nonzero;fill:rgb(0%,0%,0%);fill-opacity:1;" d="M 205.753906 188.824219 C 205.121094 188.824219 204.644531 189.136719 204.324219 189.761719 C 204.003906 190.382812 203.84375 191.324219 203.84375 192.578125 C 203.84375 193.824219 204.003906 194.761719 204.324219 195.386719 C 204.644531 196.011719 205.121094 196.324219 205.753906 196.324219 C 206.394531 196.324219 206.871094 196.011719 207.191406 195.386719 C 207.511719 194.761719 207.671875 193.824219 207.671875 192.578125 C 207.671875 191.324219 207.511719 190.382812 207.191406 189.761719 C 206.871094 189.136719 206.394531 188.824219 205.753906 188.824219 Z M 205.753906 187.847656 C 206.777344 187.847656 207.558594 188.25 208.097656 189.058594 C 208.636719 189.867188 208.90625 191.039062 208.90625 192.578125 C 208.90625 194.109375 208.636719 195.28125 208.097656 196.089844 C 207.558594 196.898438 206.777344 197.300781 205.753906 197.300781 C 204.734375 197.300781 203.953125 196.898438 203.414062 196.089844 C 202.875 195.28125 202.605469 194.109375 202.605469 192.578125 C 202.605469 191.039062 202.875 189.867188 203.414062 189.058594 C 203.953125 188.25 204.734375 187.847656 205.753906 187.847656 Z M 205.753906 187.847656 "/>
<g clip-path="url(#clip4)" clip-rule="nonzero">
<path style="fill:none;stroke-width:0.8;stroke-linecap:square;stroke-linejoin:round;stroke:rgb(69.019608%,69.019608%,69.019608%);stroke-opacity:1;stroke-miterlimit:4;" d="M 222.646875 143.1 L 222.646875 7.2 " transform="matrix(1.25,0,0,1.25,0,0.000000000000028422)"/>
</g>
<path style="fill:none;stroke-width:0.8;stroke-linecap:butt;stroke-linejoin:round;stroke:rgb(0%,0%,0%);stroke-opacity:1;stroke-miterlimit:4;" d="M -0.001234 0 L -0.001234 3.5 " transform="matrix(1.25,0,0,1.25,278.310136,178.875)"/>
<path style=" stroke:none;fill-rule:nonzero;fill:rgb(0%,0%,0%);fill-opacity:1;" d="M 275.429688 192.210938 C 276.019531 192.335938 276.480469 192.597656 276.808594 193 C 277.140625 193.398438 277.308594 193.890625 277.308594 194.476562 C 277.308594 195.375 277 196.070312 276.378906 196.5625 C 275.761719 197.054688 274.882812 197.300781 273.742188 197.300781 C 273.363281 197.300781 272.96875 197.261719 272.5625 197.1875 C 272.160156 197.113281 271.742188 197 271.308594 196.847656 L 271.308594 195.660156 C 271.652344 195.859375 272.023438 196.007812 272.429688 196.109375 C 272.839844 196.210938 273.265625 196.261719 273.707031 196.261719 C 274.480469 196.261719 275.070312 196.109375 275.472656 195.804688 C 275.878906 195.5 276.082031 195.058594 276.082031 194.476562 C 276.082031 193.9375 275.894531 193.515625 275.515625 193.214844 C 275.140625 192.910156 274.617188 192.761719 273.945312 192.761719 L 272.882812 192.761719 L 272.882812 191.746094 L 273.996094 191.746094 C 274.601562 191.746094 275.066406 191.625 275.386719 191.382812 C 275.707031 191.140625 275.867188 190.792969 275.867188 190.335938 C 275.867188 189.867188 275.703125 189.511719 275.371094 189.261719 C 275.039062 189.007812 274.566406 188.882812 273.945312 188.882812 C 273.609375 188.882812 273.246094 188.921875 272.859375 188.996094 C 272.472656 189.066406 272.046875 189.179688 271.582031 189.335938 L 271.582031 188.238281 C 272.050781 188.105469 272.492188 188.007812 272.898438 187.945312 C 273.308594 187.878906 273.695312 187.847656 274.054688 187.847656 C 274.992188 187.847656 275.734375 188.058594 276.277344 188.484375 C 276.824219 188.910156 277.09375 189.484375 277.09375 190.207031 C 277.09375 190.710938 276.949219 191.140625 276.660156 191.488281 C 276.371094 191.835938 275.960938 192.074219 275.429688 192.210938 Z M 275.429688 192.210938 "/>
<path style=" stroke:none;fill-rule:nonzero;fill:rgb(0%,0%,0%);fill-opacity:1;" d="M 282.28125 188.824219 C 281.648438 188.824219 281.171875 189.136719 280.851562 189.761719 C 280.53125 190.382812 280.371094 191.324219 280.371094 192.578125 C 280.371094 193.824219 280.53125 194.761719 280.851562 195.386719 C 281.171875 196.011719 281.648438 196.324219 282.28125 196.324219 C 282.921875 196.324219 283.402344 196.011719 283.71875 195.386719 C 284.039062 194.761719 284.199219 193.824219 284.199219 192.578125 C 284.199219 191.324219 284.039062 190.382812 283.71875 189.761719 C 283.402344 189.136719 282.921875 188.824219 282.28125 188.824219 Z M 282.28125 187.847656 C 283.304688 187.847656 284.085938 188.25 284.625 189.058594 C 285.164062 189.867188 285.433594 191.039062 285.433594 192.578125 C 285.433594 194.109375 285.164062 195.28125 284.625 196.089844 C 284.085938 196.898438 283.304688 197.300781 282.28125 197.300781 C 281.261719 197.300781 280.480469 196.898438 279.941406 196.089844 C 279.402344 195.28125 279.132812 194.109375 279.132812 192.578125 C 279.132812 191.039062 279.402344 189.867188 279.941406 189.058594 C 280.480469 188.25 281.261719 187.847656 282.28125 187.847656 Z M 282.28125 187.847656 "/>
<g clip-path="url(#clip5)" clip-rule="nonzero">
<path style="fill:none;stroke-width:0.8;stroke-linecap:square;stroke-linejoin:round;stroke:rgb(69.019608%,69.019608%,69.019608%);stroke-opacity:1;stroke-miterlimit:4;" d="M 30.103125 141.184375 L 225.403125 141.184375 " transform="matrix(1.25,0,0,1.25,0,0.000000000000028422)"/>
</g>
<path style="fill:none;stroke-width:0.8;stroke-linecap:butt;stroke-linejoin:round;stroke:rgb(0%,0%,0%);stroke-opacity:1;stroke-miterlimit:4;" d="M 0.000000000000007105 0.00146 L -3.5 0.00146 " transform="matrix(1.25,0,0,1.25,37.628906,176.478644)"/>
<path style=" stroke:none;fill-rule:nonzero;fill:rgb(0%,0%,0%);fill-opacity:1;" d="M 12.972656 172.925781 C 12.339844 172.925781 11.859375 173.238281 11.539062 173.863281 C 11.222656 174.488281 11.0625 175.425781 11.0625 176.679688 C 11.0625 177.929688 11.222656 178.867188 11.539062 179.492188 C 11.859375 180.117188 12.339844 180.429688 12.972656 180.429688 C 13.613281 180.429688 14.089844 180.117188 14.410156 179.492188 C 14.730469 178.867188 14.890625 177.929688 14.890625 176.679688 C 14.890625 175.425781 14.730469 174.488281 14.410156 173.863281 C 14.089844 173.238281 13.613281 172.925781 12.972656 172.925781 Z M 12.972656 171.949219 C 13.996094 171.949219 14.773438 172.355469 15.3125 173.164062 C 15.851562 173.96875 16.121094 175.144531 16.121094 176.679688 C 16.121094 178.214844 15.851562 179.386719 15.3125 180.195312 C 14.773438 181 13.996094 181.40625 12.972656 181.40625 C 11.953125 181.40625 11.171875 181 10.632812 180.195312 C 10.09375 179.386719 9.824219 178.214844 9.824219 176.679688 C 9.824219 175.144531 10.09375 173.96875 10.632812 173.164062 C 11.171875 172.355469 11.953125 171.949219 12.972656 171.949219 Z M 12.972656 171.949219 "/>
<path style=" stroke:none;fill-rule:nonzero;fill:rgb(0%,0%,0%);fill-opacity:1;" d="M 18.289062 179.675781 L 19.578125 179.675781 L 19.578125 181.226562 L 18.289062 181.226562 Z M 18.289062 179.675781 "/>
<path style=" stroke:none;fill-rule:nonzero;fill:rgb(0%,0%,0%);fill-opacity:1;" d="M 24.898438 172.925781 C 24.265625 172.925781 23.789062 173.238281 23.46875 173.863281 C 23.148438 174.488281 22.988281 175.425781 22.988281 176.679688 C 22.988281 177.929688 23.148438 178.867188 23.46875 179.492188 C 23.789062 180.117188 24.265625 180.429688 24.898438 180.429688 C 25.539062 180.429688 26.015625 180.117188 26.335938 179.492188 C 26.65625 178.867188 26.816406 177.929688 26.816406 176.679688 C 26.816406 175.425781 26.65625 174.488281 26.335938 173.863281 C 26.015625 173.238281 25.539062 172.925781 24.898438 172.925781 Z M 24.898438 171.949219 C 25.921875 171.949219 26.703125 172.355469 27.242188 173.164062 C 27.78125 173.96875 28.050781 175.144531 28.050781 176.679688 C 28.050781 178.214844 27.78125 179.386719 27.242188 180.195312 C 26.703125 181 25.921875 181.40625 24.898438 181.40625 C 23.878906 181.40625 23.097656 181 22.558594 180.195312 C 22.019531 179.386719 21.75 178.214844 21.75 176.679688 C 21.75 175.144531 22.019531 173.96875 22.558594 173.164062 C 23.097656 172.355469 23.878906 171.949219 24.898438 171.949219 Z M 24.898438 171.949219 "/>
<g clip-path="url(#clip6)" clip-rule="nonzero">
<path style="fill:none;stroke-width:0.8;stroke-linecap:square;stroke-linejoin:round;stroke:rgb(69.019608%,69.019608%,69.019608%);stroke-opacity:1;stroke-miterlimit:4;" d="M 30.103125 98.58125 L 225.403125 98.58125 " transform="matrix(1.25,0,0,1.25,0,0.000000000000028422)"/>
</g>
<path style="fill:none;stroke-width:0.8;stroke-linecap:butt;stroke-linejoin:round;stroke:rgb(0%,0%,0%);stroke-opacity:1;stroke-miterlimit:4;" d="M 0.000000000000007105 0.000216 L -3.5 0.000216 " transform="matrix(1.25,0,0,1.25,37.628906,123.226293)"/>
<path style=" stroke:none;fill-rule:nonzero;fill:rgb(0%,0%,0%);fill-opacity:1;" d="M 12.972656 119.675781 C 12.339844 119.675781 11.859375 119.988281 11.539062 120.613281 C 11.222656 121.234375 11.0625 122.175781 11.0625 123.429688 C 11.0625 124.675781 11.222656 125.613281 11.539062 126.238281 C 11.859375 126.863281 12.339844 127.175781 12.972656 127.175781 C 13.613281 127.175781 14.089844 126.863281 14.410156 126.238281 C 14.730469 125.613281 14.890625 124.675781 14.890625 123.429688 C 14.890625 122.175781 14.730469 121.234375 14.410156 120.613281 C 14.089844 119.988281 13.613281 119.675781 12.972656 119.675781 Z M 12.972656 118.699219 C 13.996094 118.699219 14.773438 119.101562 15.3125 119.910156 C 15.851562 120.71875 16.121094 121.890625 16.121094 123.429688 C 16.121094 124.960938 15.851562 126.132812 15.3125 126.941406 C 14.773438 127.75 13.996094 128.152344 12.972656 128.152344 C 11.953125 128.152344 11.171875 127.75 10.632812 126.941406 C 10.09375 126.132812 9.824219 124.960938 9.824219 123.429688 C 9.824219 121.890625 10.09375 120.71875 10.632812 119.910156 C 11.171875 119.101562 11.953125 118.699219 12.972656 118.699219 Z M 12.972656 118.699219 "/>
<path style=" stroke:none;fill-rule:nonzero;fill:rgb(0%,0%,0%);fill-opacity:1;" d="M 18.289062 126.425781 L 19.578125 126.425781 L 19.578125 127.976562 L 18.289062 127.976562 Z M 18.289062 126.425781 "/>
<path style=" stroke:none;fill-rule:nonzero;fill:rgb(0%,0%,0%);fill-opacity:1;" d="M 22.476562 126.9375 L 24.492188 126.9375 L 24.492188 119.984375 L 22.300781 120.425781 L 22.300781 119.300781 L 24.480469 118.863281 L 25.710938 118.863281 L 25.710938 126.9375 L 27.726562 126.9375 L 27.726562 127.976562 L 22.476562 127.976562 Z M 22.476562 126.9375 "/>
<g clip-path="url(#clip7)" clip-rule="nonzero">
<path style="fill:none;stroke-width:0.8;stroke-linecap:square;stroke-linejoin:round;stroke:rgb(69.019608%,69.019608%,69.019608%);stroke-opacity:1;stroke-miterlimit:4;" d="M 30.103125 55.978125 L 225.403125 55.978125 " transform="matrix(1.25,0,0,1.25,0,0.000000000000028422)"/>
</g>
<path style="fill:none;stroke-width:0.8;stroke-linecap:butt;stroke-linejoin:round;stroke:rgb(0%,0%,0%);stroke-opacity:1;stroke-miterlimit:4;" d="M 0.000000000000007105 -0.001029 L -3.5 -0.001029 " transform="matrix(1.25,0,0,1.25,37.628906,69.973943)"/>
<path style=" stroke:none;fill-rule:nonzero;fill:rgb(0%,0%,0%);fill-opacity:1;" d="M 12.972656 66.421875 C 12.339844 66.421875 11.859375 66.734375 11.539062 67.359375 C 11.222656 67.984375 11.0625 68.921875 11.0625 70.175781 C 11.0625 71.425781 11.222656 72.363281 11.539062 72.988281 C 11.859375 73.613281 12.339844 73.925781 12.972656 73.925781 C 13.613281 73.925781 14.089844 73.613281 14.410156 72.988281 C 14.730469 72.363281 14.890625 71.425781 14.890625 70.175781 C 14.890625 68.921875 14.730469 67.984375 14.410156 67.359375 C 14.089844 66.734375 13.613281 66.421875 12.972656 66.421875 Z M 12.972656 65.445312 C 13.996094 65.445312 14.773438 65.851562 15.3125 66.660156 C 15.851562 67.464844 16.121094 68.636719 16.121094 70.175781 C 16.121094 71.710938 15.851562 72.882812 15.3125 73.691406 C 14.773438 74.496094 13.996094 74.902344 12.972656 74.902344 C 11.953125 74.902344 11.171875 74.496094 10.632812 73.691406 C 10.09375 72.882812 9.824219 71.710938 9.824219 70.175781 C 9.824219 68.636719 10.09375 67.464844 10.632812 66.660156 C 11.171875 65.851562 11.953125 65.445312 12.972656 65.445312 Z M 12.972656 65.445312 "/>
<path style=" stroke:none;fill-rule:nonzero;fill:rgb(0%,0%,0%);fill-opacity:1;" d="M 18.289062 73.171875 L 19.578125 73.171875 L 19.578125 74.722656 L 18.289062 74.722656 Z M 18.289062 73.171875 "/>
<path style=" stroke:none;fill-rule:nonzero;fill:rgb(0%,0%,0%);fill-opacity:1;" d="M 23.324219 73.6875 L 27.628906 73.6875 L 27.628906 74.722656 L 21.84375 74.722656 L 21.84375 73.6875 C 22.308594 73.203125 22.945312 72.550781 23.753906 71.738281 C 24.5625 70.921875 25.070312 70.394531 25.277344 70.15625 C 25.671875 69.714844 25.949219 69.339844 26.105469 69.03125 C 26.261719 68.722656 26.339844 68.421875 26.339844 68.125 C 26.339844 67.640625 26.171875 67.246094 25.832031 66.941406 C 25.492188 66.636719 25.046875 66.484375 24.503906 66.484375 C 24.117188 66.484375 23.707031 66.550781 23.277344 66.683594 C 22.847656 66.816406 22.390625 67.023438 21.902344 67.296875 L 21.902344 66.050781 C 22.398438 65.851562 22.863281 65.699219 23.292969 65.597656 C 23.726562 65.496094 24.121094 65.445312 24.480469 65.445312 C 25.421875 65.445312 26.175781 65.683594 26.738281 66.15625 C 27.296875 66.625 27.578125 67.257812 27.578125 68.046875 C 27.578125 68.421875 27.507812 68.777344 27.367188 69.113281 C 27.226562 69.445312 26.972656 69.839844 26.601562 70.296875 C 26.5 70.414062 26.175781 70.757812 25.632812 71.320312 C 25.085938 71.882812 24.316406 72.671875 23.324219 73.6875 Z M 23.324219 73.6875 "/>
<g clip-path="url(#clip8)" clip-rule="nonzero">
<path style="fill:none;stroke-width:0.8;stroke-linecap:square;stroke-linejoin:round;stroke:rgb(69.019608%,69.019608%,69.019608%);stroke-opacity:1;stroke-miterlimit:4;" d="M 30.103125 13.378125 L 225.403125 13.378125 " transform="matrix(1.25,0,0,1.25,0,0.000000000000028422)"/>
</g>
<path style="fill:none;stroke-width:0.8;stroke-linecap:butt;stroke-linejoin:round;stroke:rgb(0%,0%,0%);stroke-opacity:1;stroke-miterlimit:4;" d="M 0.000000000000007105 0.000852 L -3.5 0.000852 " transform="matrix(1.25,0,0,1.25,37.628906,16.721591)"/>
<path style=" stroke:none;fill-rule:nonzero;fill:rgb(0%,0%,0%);fill-opacity:1;" d="M 12.972656 13.167969 C 12.339844 13.167969 11.859375 13.480469 11.539062 14.105469 C 11.222656 14.730469 11.0625 15.667969 11.0625 16.921875 C 11.0625 18.171875 11.222656 19.109375 11.539062 19.734375 C 11.859375 20.359375 12.339844 20.671875 12.972656 20.671875 C 13.613281 20.671875 14.089844 20.359375 14.410156 19.734375 C 14.730469 19.109375 14.890625 18.171875 14.890625 16.921875 C 14.890625 15.667969 14.730469 14.730469 14.410156 14.105469 C 14.089844 13.480469 13.613281 13.167969 12.972656 13.167969 Z M 12.972656 12.191406 C 13.996094 12.191406 14.773438 12.597656 15.3125 13.40625 C 15.851562 14.214844 16.121094 15.386719 16.121094 16.921875 C 16.121094 18.457031 15.851562 19.628906 15.3125 20.4375 C 14.773438 21.246094 13.996094 21.648438 12.972656 21.648438 C 11.953125 21.648438 11.171875 21.246094 10.632812 20.4375 C 10.09375 19.628906 9.824219 18.457031 9.824219 16.921875 C 9.824219 15.386719 10.09375 14.214844 10.632812 13.40625 C 11.171875 12.597656 11.953125 12.191406 12.972656 12.191406 Z M 12.972656 12.191406 "/>
<path style=" stroke:none;fill-rule:nonzero;fill:rgb(0%,0%,0%);fill-opacity:1;" d="M 18.289062 19.917969 L 19.578125 19.917969 L 19.578125 21.46875 L 18.289062 21.46875 Z M 18.289062 19.917969 "/>
<path style=" stroke:none;fill-rule:nonzero;fill:rgb(0%,0%,0%);fill-opacity:1;" d="M 26 16.554688 C 26.589844 16.683594 27.046875 16.945312 27.378906 17.34375 C 27.710938 17.742188 27.878906 18.234375 27.878906 18.820312 C 27.878906 19.71875 27.566406 20.417969 26.949219 20.910156 C 26.332031 21.402344 25.453125 21.648438 24.3125 21.648438 C 23.929688 21.648438 23.539062 21.609375 23.132812 21.535156 C 22.726562 21.460938 22.308594 21.347656 21.878906 21.195312 L 21.878906 20.003906 C 22.21875 20.203125 22.59375 20.355469 23 20.457031 C 23.40625 20.558594 23.832031 20.609375 24.277344 20.609375 C 25.050781 20.609375 25.636719 20.457031 26.042969 20.152344 C 26.449219 19.847656 26.652344 19.402344 26.652344 18.820312 C 26.652344 18.285156 26.460938 17.863281 26.085938 17.5625 C 25.710938 17.257812 25.1875 17.105469 24.515625 17.105469 L 23.453125 17.105469 L 23.453125 16.09375 L 24.566406 16.09375 C 25.171875 16.09375 25.632812 15.972656 25.957031 15.730469 C 26.277344 15.488281 26.4375 15.140625 26.4375 14.683594 C 26.4375 14.214844 26.273438 13.855469 25.941406 13.605469 C 25.609375 13.355469 25.132812 13.230469 24.515625 13.230469 C 24.175781 13.230469 23.816406 13.265625 23.429688 13.339844 C 23.042969 13.414062 22.617188 13.527344 22.152344 13.679688 L 22.152344 12.582031 C 22.621094 12.453125 23.058594 12.355469 23.46875 12.289062 C 23.878906 12.226562 24.261719 12.191406 24.625 12.191406 C 25.5625 12.191406 26.300781 12.40625 26.847656 12.832031 C 27.390625 13.257812 27.664062 13.832031 27.664062 14.554688 C 27.664062 15.058594 27.519531 15.484375 27.230469 15.832031 C 26.941406 16.179688 26.53125 16.421875 26 16.554688 Z M 26 16.554688 "/>
<path style="fill:none;stroke-width:1.5;stroke-linecap:square;stroke-linejoin:round;stroke:rgb(12.156863%,46.666667%,70.588235%);stroke-opacity:1;stroke-miterlimit:4;" d="M 38.98125 13.378125 L 45.103125 14.1375 L 51.225 16.4 L 57.346875 20.109375 L 63.46875 25.175 L 69.590625 31.46875 L 75.7125 38.840625 L 81.8375 47.10625 L 87.959375 56.0625 L 94.08125 65.4875 L 106.325 84.8125 L 112.446875 94.2375 L 118.56875 103.19375 L 124.690625 111.459375 L 130.815625 118.83125 L 136.9375 125.125 L 143.059375 130.190625 L 149.18125 133.9 L 155.303125 136.1625 L 161.425 136.921875 L 216.525 136.921875 " transform="matrix(1.25,0,0,1.25,0,0.000000000000028422)"/>
<path style="fill:none;stroke-width:0.8;stroke-linecap:square;stroke-linejoin:miter;stroke:rgb(0%,0%,0%);stroke-opacity:1;stroke-miterlimit:4;" d="M 30.103125 143.1 L 30.103125 7.2 " transform="matrix(1.25,0,0,1.25,0,0.000000000000028422)"/>
<path style="fill:none;stroke-width:0.8;stroke-linecap:square;stroke-linejoin:miter;stroke:rgb(0%,0%,0%);stroke-opacity:1;stroke-miterlimit:4;" d="M 225.403125 143.1 L 225.403125 7.2 " transform="matrix(1.25,0,0,1.25,0,0.000000000000028422)"/>
<path style="fill:none;stroke-width:0.8;stroke-linecap:square;stroke-linejoin:miter;stroke:rgb(0%,0%,0%);stroke-opacity:1;stroke-miterlimit:4;" d="M 30.103125 143.1 L 225.403125 143.1 " transform="matrix(1.25,0,0,1.25,0,0.000000000000028422)"/>
<path style="fill:none;stroke-width:0.8;stroke-linecap:square;stroke-linejoin:miter;stroke:rgb(0%,0%,0%);stroke-opacity:1;stroke-miterlimit:4;" d="M 30.103125 7.2 L 225.403125 7.2 " transform="matrix(1.25,0,0,1.25,0,0.000000000000028422)"/>
</g>
</svg>
