<svg xmlns="http://www.w3.org/2000/svg" xmlns:xlink="http://www.w3.org/1999/xlink" version="1.1" width="1158.943pt" height="1519.5064pt" viewBox="0 0 1158.943 1519.5064">
<defs>
<clipPath id="clip_0">
<path transform="matrix(1,0,0,-1,-10.66107,1532.549)" d="M0 0H1201V1552H0Z"/>
</clipPath>
</defs>
<path transform="matrix(1,0,0,-1,-10.66107,1532.549)" d="M0 1552H1627V0H0Z" fill="#ffffff"/>
<path transform="matrix(1,0,0,-1,-10.66107,1532.549)" d="M0 1552H1627V0H0Z" fill="#ffffff"/>
<path transform="matrix(1,0,0,-1,-10.66107,1532.549)" d="M0 1552H1627V0H0Z" fill="#ffffff"/>
<g clip-path="url(#clip_0)">
<path transform="matrix(1,0,0,-1,-10.66107,1532.549)" d="M0 1552H1201.266V0H0Z" fill="#ffffff"/>
<path transform="matrix(1,0,0,1,-9882.161,-9179.951)" stroke-width="8" stroke-linecap="butt" stroke-miterlimit="4" stroke-linejoin="miter" fill="none" stroke="#127c97" d="M10000 9937C10000 9937 10010 9386.5 10178 9386.5"/>
<path transform="matrix(1,0,0,1,-9882.161,-9179.951)" stroke-width="8" stroke-linecap="butt" stroke-miterlimit="4" stroke-linejoin="miter" fill="none" stroke="#005eaa" d="M10000 9937C10000 9937 10010 9682 10178 9682"/>
<path transform="matrix(1,0,0,1,-9882.161,-9179.951)" stroke-width="8" stroke-linecap="butt" stroke-miterlimit="4" stroke-linejoin="miter" fill="none" stroke="#80bc42" d="M10000 9937C10000 9937 10010 10159 10178 10159"/>
<path transform="matrix(1,0,0,1,-9882.161,-9179.951)" stroke-width="8" stroke-linecap="butt" stroke-miterlimit="4" stroke-linejoin="miter" fill="none" stroke="#339ca8" d="M10000 9937C10000 9937 10010 10619.5 10178 10619.5"/>
<path transform="matrix(1,0,0,-1,-10.66107,1532.549)" d="M311 118.3594H459C461.7614 118.3594 464 116.1208 464 113.3594V73.35938C464 70.5979 461.7614 68.35938 459 68.35938H311C308.2386 68.35938 306 70.5979 306 73.35938V113.3594C306 116.1208 308.2386 118.3594 311 118.3594Z" fill="#ffffff"/>
<path transform="matrix(1,0,0,1,-10.66107,-19.45105)" stroke-width="1" stroke-linecap="butt" stroke-miterlimit="4" stroke-linejoin="miter" fill="none" stroke="#339ca8" d="M311 1433.641H459C461.7614 1433.641 464 1435.879 464 1438.641V1478.641C464 1481.402 461.7614 1483.641 459 1483.641H311C308.2386 1483.641 306 1481.402 306 1478.641V1438.641C306 1435.879 308.2386 1433.641 311 1433.641Z"/>
<text fill="#444444" xml:space="preserve" transform="matrix(.5 0 0 .5 -10.66107 -19.45105)" font-size="34" font-family="PingFangSC"><tspan y="2932.081" x="634 653.618 672.65798 684.72799 703.76797 716.1779 735.0479 746.36996 770.37399 779.07797 791.4879 810.3579 828.95596 841.02597 849.7299 869.65396 888.6599">Future Directions</tspan></text>
<path transform="matrix(1,0,0,-1,-10.66107,1532.549)" d="M500.9219 157H656.9219C657.4742 157 657.9219 156.5522 657.9219 156V130C657.9219 129.4478 657.4742 129 656.9219 129H500.9219C500.3696 129 499.9219 129.4478 499.9219 130V156C499.9219 156.5522 500.3696 157 500.9219 157Z" fill-opacity="0"/>
<text fill="#444444" xml:space="preserve" transform="matrix(.5 0 0 .5 -10.66107 -19.45105)" font-size="26" font-family="PingFangSC"><tspan y="2829.2" x="1017.844 1035.42 1049.8501 1062.3821 1069.0381 1082.1681 1088.8241 1098.0541 1104.7101 1119.2442 1134.6101 1143.2681 1160.3501 1173.4801 1186.6101 1201.1702 1223.4002 1238.6361 1247.8661 1254.5221 1269.758 1284.2921">Revisiting Assumptions</tspan></text>
<path transform="matrix(1,0,0,-1,-10.66107,1532.549)" d="M500.9219 124H676.9219C677.4742 124 677.9219 123.5522 677.9219 123V97C677.9219 96.44775 677.4742 96 676.9219 96H500.9219C500.3696 96 499.9219 96.44775 499.9219 97V123C499.9219 123.5522 500.3696 124 500.9219 124Z" fill-opacity="0"/>
<text fill="#444444" xml:space="preserve" transform="matrix(.5 0 0 .5 -10.66107 -19.45105)" font-size="26" font-family="PingFangSC"><tspan y="2895.2" x="1017.844 1033.938 1048.394 1062.8241 1078.06 1087.55 1101.9801 1111.2101 1117.8661 1132.0881 1146.6222 1152.7322 1161.3901 1179.9541 1194.4882 1209.7241 1224.1542 1233.6442 1246.7742 1256.0042 1270.5382 1285.0723 1300.3082 1306.9642 1321.4983">Theoretical Understanding</tspan></text>
<path transform="matrix(1,0,0,-1,-10.66107,1532.549)" d="M500.9219 91H657.9219C658.4742 91 658.9219 90.55225 658.9219 90V64C658.9219 63.44775 658.4742 63 657.9219 63H500.9219C500.3696 63 499.9219 63.44775 499.9219 64V90C499.9219 90.55225 500.3696 91 500.9219 91Z" fill-opacity="0"/>
<text fill="#444444" xml:space="preserve" transform="matrix(.5 0 0 .5 -10.66107 -19.45105)" font-size="26" font-family="PingFangSC"><tspan y="2961.2" x="1017.844 1033.132 1047.666 1056.896 1071.326 1085.8601 1095.0901 1103.748 1121.3241 1135.7542 1150.9901 1160.4801 1174.9102 1188.0402 1202.4702 1217.0043 1226.2343 1240.7683 1249.9983 1256.6543 1271.8903 1286.4243">Latent Representations</tspan></text>
<path transform="matrix(1,0,0,-1,-10.66107,1532.549)" d="M500.9219 58H751.9219C752.4742 58 752.9219 57.55225 752.9219 57V31C752.9219 30.44775 752.4742 30 751.9219 30H500.9219C500.3696 30 499.9219 30.44775 499.9219 31V57C499.9219 57.55225 500.3696 58 500.9219 58Z" fill-opacity="0"/>
<text fill="#444444" xml:space="preserve" transform="matrix(.5 0 0 .5 -10.66107 -19.45105)" font-size="26" font-family="PingFangSC"><tspan y="3027.2" x="1017.844 1034.926 1041.088 1060.536 1079.464 1088.122 1102.656 1117.1901 1132.426 1141.084 1159.44 1166.096 1183.932 1198.4921 1211.6221 1218.2781 1233.514 1248.0481 1256.706 1271.708 1286.944 1301.504 1316.0381 1331.274 1345.8081 1355.0381 1361.6941 1376.93 1391.4641 1400.1221 1423.0541 1438.29 1453.526 1467.956 1474.066">AIGC and Di&#xfb00;usion Foundation Models</tspan></text>
<path transform="matrix(1,0,0,-1,-10.66107,1532.549)" d="M311 578.3594H420C422.7614 578.3594 425 576.1208 425 573.3594V533.3594C425 530.598 422.7614 528.3594 420 528.3594H311C308.2386 528.3594 306 530.598 306 533.3594V573.3594C306 576.1208 308.2386 578.3594 311 578.3594Z" fill="#ffffff"/>
<path transform="matrix(1,0,0,1,-10.66107,-19.45105)" stroke-width="1" stroke-linecap="butt" stroke-miterlimit="4" stroke-linejoin="miter" fill="none" stroke="#80bc42" d="M311 973.6406H420C422.7614 973.6406 425 975.8792 425 978.6406V1018.641C425 1021.402 422.7614 1023.641 420 1023.641H311C308.2386 1023.641 306 1021.402 306 1018.641V978.6406C306 975.8792 308.2386 973.6406 311 973.6406Z"/>
<text fill="#444444" xml:space="preserve" transform="matrix(.5 0 0 .5 -10.66107 -19.45105)" font-size="34" font-family="PingFangSC"><tspan y="2012.081" x="634 656.338 676.262 696.18606 704.176 712.88 731.478 750.484 762.554 771.258 791.182 810.188">Applications</tspan></text>
<path transform="matrix(1,0,0,-1,-10.66107,1532.549)" d="M461.6875 881.3594H765.6875C766.2398 881.3594 766.6875 880.9117 766.6875 880.3594V854.3594C766.6875 853.8071 766.2398 853.3594 765.6875 853.3594H461.6875C461.1352 853.3594 460.6875 853.8071 460.6875 854.3594V880.3594C460.6875 880.9117 461.1352 881.3594 461.6875 881.3594Z" fill-opacity="0"/>
<text fill="#444444" xml:space="preserve" transform="matrix(.5 0 0 .5 -10.66107 -19.45105)" font-size="26" font-family="PingFangSC"><tspan y="1380.481" x="939.375 957.939 972.473 986.695 1001.931 1016.465 1031.701 1038.357 1047.587 1054.243 1069.479 1084.0131 1098.5471 1104.6571 1113.3151 1127.8491 1142.3832 1157.6192 1166.2771 1185.2051 1200.441 1214.9751 1230.211 1236.8671 1246.097 1252.753 1267.989 1282.5231 1297.0571 1303.1671 1311.8251 1330.181 1336.837 1354.6731 1369.2332 1382.3632 1389.0192 1404.2551 1418.7892 1427.4472 1450.3792 1465.6151 1480.8511 1495.2811 1501.3911">Unconditional and Conditional Di&#xfb00;usion Models</tspan></text>
<path transform="matrix(1,0,0,-1,-10.66107,1532.549)" d="M803.2656 931H975.2656C975.8179 931 976.2656 930.5523 976.2656 930V904C976.2656 903.4477 975.8179 903 975.2656 903H803.2656C802.7133 903 802.2656 903.4477 802.2656 904V930C802.2656 930.5523 802.7133 931 803.2656 931Z" fill-opacity="0"/>
<text fill="#444444" xml:space="preserve" transform="matrix(.5 0 0 .5 -10.66107 -19.45105)" font-size="26" font-family="PingFangSC"><tspan y="1281.2" x="1622.531 1641.459 1656.695 1671.229 1686.465 1693.121 1702.351 1709.007 1724.2429 1738.777 1745.433 1759.967 1775.333 1783.991 1806.923 1821.353 1835.5751 1850.0311 1864.5652 1879.0993 1885.7553 1898.8853 1921.1152">Conditioning Mechanisms</tspan></text>
<path transform="matrix(1,0,0,-1,-10.66107,1532.549)" d="M803.2656 898H1091.266C1091.818 898 1092.266 897.5523 1092.266 897V871C1092.266 870.4477 1091.818 870 1091.266 870H803.2656C802.7133 870 802.2656 870.4477 802.2656 871V897C802.2656 897.5523 802.7133 898 803.2656 898Z" fill-opacity="0"/>
<text fill="#444444" xml:space="preserve" transform="matrix(.5 0 0 .5 -10.66107 -19.45105)" font-size="26" font-family="PingFangSC"><tspan y="1347.2" x="1622.531 1641.459 1656.695 1671.229 1686.465 1693.121 1702.351 1709.007 1724.2429 1738.777 1747.4349 1765.7909 1772.4469 1790.283 1804.843 1817.973 1824.629 1839.865 1854.399 1863.057 1878.293 1892.827 1901.485 1916.773 1931.307 1946.543 1960.973 1967.083 1980.213 1988.871 2003.405 2017.9391 2033.175 2041.833 2060.761 2066.871 2081.405 2094.535 2107.6649 2114.3209 2130.129 2144.5589 2154.0489">Condition Di&#xfb00;usion on Labels and Classi&#xfb01;ers</tspan></text>
<path transform="matrix(1,0,0,-1,-10.66107,1532.549)" d="M803.2656 865H1170.266C1170.818 865 1171.266 864.5523 1171.266 864V838C1171.266 837.4477 1170.818 837 1170.266 837H803.2656C802.7133 837 802.2656 837.4477 802.2656 838V864C802.2656 864.5523 802.7133 865 803.2656 865Z" fill-opacity="0"/>
<text fill="#444444" xml:space="preserve" transform="matrix(.5 0 0 .5 -10.66107 -19.45105)" font-size="26" font-family="PingFangSC"><tspan y="1413.2" x="1622.531 1641.459 1656.695 1671.229 1686.465 1693.121 1702.351 1709.007 1724.2429 1738.777 1747.4349 1765.7909 1772.4469 1790.283 1804.843 1817.973 1824.629 1839.865 1854.399 1863.057 1878.293 1892.827 1901.485 1917.579 1932.009 1945.243 1954.473 1967.603 1974.467 1983.125 1989.287 2011.517 2026.051 2041.417 2055.847 2068.9769 2075.8409 2084.4989 2099.0328 2113.5667 2128.8028 2137.4608 2153.8927 2168.3226 2190.5526 2205.0865 2219.6204 2228.8504 2235.5064 2249.7283 2258.3863 2281.318 2295.852 2311.0882">Condition Di&#xfb00;usion on Texts, Images, and Semantic Maps</tspan></text>
<path transform="matrix(1,0,0,-1,-10.66107,1532.549)" d="M803.2656 832H1002.266C1002.818 832 1003.266 831.5523 1003.266 831V805C1003.266 804.4477 1002.818 804 1002.266 804H803.2656C802.7133 804 802.2656 804.4477 802.2656 805V831C802.2656 831.5523 802.7133 832 803.2656 832Z" fill-opacity="0"/>
<text fill="#444444" xml:space="preserve" transform="matrix(.5 0 0 .5 -10.66107 -19.45105)" font-size="26" font-family="PingFangSC"><tspan y="1479.2" x="1622.531 1641.459 1656.695 1671.229 1686.465 1693.121 1702.351 1709.007 1724.2429 1738.777 1747.4349 1765.7909 1772.4469 1790.283 1804.843 1817.973 1824.629 1839.865 1854.399 1863.057 1878.293 1892.827 1901.485 1920.933 1930.423 1944.957 1960.193 1974.649">Condition Di&#xfb00;usion on Graphs</tspan></text>
<path transform="matrix(1,0,0,-1,-10.66107,1532.549)" d="M461.6875 732.3594H577.6875C578.2398 732.3594 578.6875 731.9117 578.6875 731.3594V705.3594C578.6875 704.8071 578.2398 704.3594 577.6875 704.3594H461.6875C461.1352 704.3594 460.6875 704.8071 460.6875 705.3594V731.3594C460.6875 731.9117 461.1352 732.3594 461.6875 732.3594Z" fill-opacity="0"/>
<text fill="#444444" xml:space="preserve" transform="matrix(.5 0 0 .5 -10.66107 -19.45105)" font-size="26" font-family="PingFangSC"><tspan y="1678.481" x="939.375 958.303 973.539 995.769 1011.005 1025.5651 1034.795 1049.2251 1058.7151 1067.373 1083.987 1090.6431 1103.7731 1110.4291 1125.665">Computer Vision</tspan></text>
<path transform="matrix(1,0,0,-1,-10.66107,1532.549)" d="M616.1094 799H1071.109C1071.662 799 1072.109 798.5523 1072.109 798V772C1072.109 771.4477 1071.662 771 1071.109 771H616.1094C615.5571 771 615.1094 771.4477 615.1094 772V798C615.1094 798.5523 615.5571 799 616.1094 799Z" fill-opacity="0"/>
<text fill="#444444" xml:space="preserve" transform="matrix(.5 0 0 .5 -10.66107 -19.45105)" font-size="26" font-family="PingFangSC"><tspan y="1545.2" x="1248.219 1254.381 1276.611 1291.145 1306.511 1320.941 1329.599 1346.031 1360.5911 1375.827 1390.2571 1399.7471 1408.405 1425.9811 1440.4111 1453.5411 1468.7771 1474.8871 1489.4472 1498.6771 1505.3331 1520.5691 1535.1032 1541.9672 1550.6251 1556.7871 1571.3212 1586.5571 1601.0912 1607.7472 1622.2813 1631.5112 1638.1672 1652.7013 1668.0673 1674.9313 1683.5892 1701.1653 1715.5953 1728.7254 1737.9553 1753.1913 1762.6813 1777.2153 1786.4453 1793.1013 1808.3373 1822.8713 1829.7354 1838.3933 1854.4873 1863.9773 1878.5114 1893.0454 1906.1754 1912.2854 1926.8195 1936.0494 1942.7055 1957.9414 1972.4755 1979.3395 1987.9974 2002.5315 2017.0656 2032.3015 2040.9595 2057.5216 2072.7576 2079.4136 2088.6436 2095.2996 2109.8336">Image Super Resolution, Inpainting, Restoration, Translation, and Editing</tspan></text>
<path transform="matrix(1,0,0,-1,-10.66107,1532.549)" d="M616.1094 766H776.1094C776.6617 766 777.1094 765.5523 777.1094 765V739C777.1094 738.4477 776.6617 738 776.1094 738H616.1094C615.5571 738 615.1094 738.4477 615.1094 739V765C615.1094 765.5523 615.5571 766 616.1094 766Z" fill-opacity="0"/>
<text fill="#444444" xml:space="preserve" transform="matrix(.5 0 0 .5 -10.66107 -19.45105)" font-size="26" font-family="PingFangSC"><tspan y="1611.2" x="1248.219 1264.651 1279.081 1301.311 1315.8451 1330.3792 1339.6091 1346.2651 1360.4872 1369.1452 1385.5772 1400.0072 1415.3732 1437.6032 1452.0332 1466.5673 1475.7973 1490.3313 1499.5613 1506.2173 1521.4533">Semantic Segmentation</tspan></text>
<path transform="matrix(1,0,0,-1,-10.66107,1532.549)" d="M616.1094 733H737.1094C737.6617 733 738.1094 732.5523 738.1094 732V706C738.1094 705.4477 737.6617 705 737.1094 705H616.1094C615.5571 705 615.1094 705.4477 615.1094 706V732C615.1094 732.5523 615.5571 733 616.1094 733Z" fill-opacity="0"/>
<text fill="#444444" xml:space="preserve" transform="matrix(.5 0 0 .5 -10.66107 -19.45105)" font-size="26" font-family="PingFangSC"><tspan y="1677.2" x="1248.219 1264.833 1271.489 1286.725 1301.155 1316.391 1325.049 1344.497 1358.927 1373.461 1387.8911 1397.3811 1411.9152 1421.1452 1427.8012 1443.0371">Video Generation</tspan></text>
<path transform="matrix(1,0,0,-1,-10.66107,1532.549)" d="M616.1094 700H873.1094C873.6617 700 874.1094 699.5523 874.1094 699V673C874.1094 672.4477 873.6617 672 873.1094 672H616.1094C615.5571 672 615.1094 672.4477 615.1094 673V699C615.1094 699.5523 615.5571 700 616.1094 700Z" fill-opacity="0"/>
<text fill="#444444" xml:space="preserve" transform="matrix(.5 0 0 .5 -10.66107 -19.45105)" font-size="26" font-family="PingFangSC"><tspan y="1743.2" x="1248.219 1264.911 1280.147 1286.803 1301.337 1310.567 1319.225 1338.153 1344.263 1359.4989 1374.059 1389.2949 1397.9529 1416.8809 1432.1168 1454.3468 1469.5828 1475.6928 1490.1228 1499.3528 1506.0088 1521.2448 1535.7788 1544.4368 1558.9708 1573.5049 1588.7409 1597.3988 1616.8468 1631.2769 1645.8109 1660.241 1669.731 1684.265 1693.495 1700.151 1715.387">Point Cloud Completion and Generation</tspan></text>
<path transform="matrix(1,0,0,-1,-10.66107,1532.549)" d="M616.1094 667H746.1094C746.6617 667 747.1094 666.5523 747.1094 666V640C747.1094 639.4477 746.6617 639 746.1094 639H616.1094C615.5571 639 615.1094 639.4477 615.1094 640V666C615.1094 666.5523 615.5571 667 616.1094 667Z" fill-opacity="0"/>
<text fill="#444444" xml:space="preserve" transform="matrix(.5 0 0 .5 -10.66107 -19.45105)" font-size="26" font-family="PingFangSC"><tspan y="1809.2" x="1248.219 1265.301 1279.8351 1295.071 1317.301 1331.8351 1337.9451 1350.8411 1359.499 1377.855 1392.285 1401.515 1415.9451 1430.1671 1439.3971 1446.0531 1461.2891">Anomaly Detection</tspan></text>
<path transform="matrix(1,0,0,-1,-10.66107,1532.549)" d="M461.6875 634H655.6875C656.2398 634 656.6875 633.5523 656.6875 633V607C656.6875 606.4477 656.2398 606 655.6875 606H461.6875C461.1352 606 460.6875 606.4477 460.6875 607V633C460.6875 633.5523 461.1352 634 461.6875 634Z" fill-opacity="0"/>
<text fill="#444444" xml:space="preserve" transform="matrix(.5 0 0 .5 -10.66107 -19.45105)" font-size="26" font-family="PingFangSC"><tspan y="1875.2" x="939.375 958.069 972.60299 981.83297 996.39297 1005.88296 1020.41696 1026.527 1035.1849 1050.4729 1065.007 1079.541 1094.907 1109.467 1124.0011 1139.3671 1153.7971 1162.4551 1181.9031 1196.3331 1210.8672 1225.2973 1234.7872 1249.3213 1258.5513 1265.2073 1280.4432">Natural Language Generation</tspan></text>
<path transform="matrix(1,0,0,-1,-10.66107,1532.549)" d="M461.6875 518.3594H622.6875C623.2398 518.3594 623.6875 517.9116 623.6875 517.3594V491.3594C623.6875 490.8071 623.2398 490.3594 622.6875 490.3594H461.6875C461.1352 490.3594 460.6875 490.8071 460.6875 491.3594V517.3594C460.6875 517.9116 461.1352 518.3594 461.6875 518.3594Z" fill-opacity="0"/>
<text fill="#444444" xml:space="preserve" transform="matrix(.5 0 0 .5 -10.66107 -19.45105)" font-size="26" font-family="PingFangSC"><tspan y="2106.481" x="939.375 962.307 976.867 982.977 992.207 998.863 1014.59298 1037.5249 1052.7609 1067.9968 1082.5309 1088.6409 1097.2988 1116.7468 1131.1769 1145.7109 1160.141 1169.631 1184.165 1193.395 1200.051 1215.287">Multi-Modal Generation</tspan></text>
<path transform="matrix(1,0,0,-1,-10.66107,1532.549)" d="M660.9219 601H837.9219C838.4742 601 838.9219 600.5523 838.9219 600V574C838.9219 573.4477 838.4742 573 837.9219 573H660.9219C660.3696 573 659.9219 573.4477 659.9219 574V600C659.9219 600.5523 660.3696 601 660.9219 601Z" fill-opacity="0"/>
<text fill="#444444" xml:space="preserve" transform="matrix(.5 0 0 .5 -10.66107 -19.45105)" font-size="26" font-family="PingFangSC"><tspan y="1941.2" x="1337.844 1353.938 1368.368 1381.602 1390.832 1406.562 1415.792 1431.028 1446.7579 1452.9199 1475.1499 1489.684 1505.0499 1519.48 1528.138 1547.5859 1562.016 1576.55 1590.9801 1600.4701 1615.0042 1624.2341 1630.8901 1646.1261">Text-to-Image Generation</tspan></text>
<path transform="matrix(1,0,0,-1,-10.66107,1532.549)" d="M660.9219 568H889.9219C890.4742 568 890.9219 567.5523 890.9219 567V541C890.9219 540.4477 890.4742 540 889.9219 540H660.9219C660.3696 540 659.9219 540.4477 659.9219 541V567C659.9219 567.5523 660.3696 568 660.9219 568Z" fill-opacity="0"/>
<text fill="#444444" xml:space="preserve" transform="matrix(.5 0 0 .5 -10.66107 -19.45105)" font-size="26" font-family="PingFangSC"><tspan y="2007.2" x="1337.844 1354.276 1368.498 1382.9281 1397.4622 1411.8922 1420.5502 1439.9982 1449.4882 1464.0222 1479.2582 1493.7142 1509.4442 1518.6742 1533.9102 1549.6401 1555.8021 1578.0321 1592.5662 1607.9321 1622.3622 1631.0202 1650.4682 1664.8982 1679.4323 1693.8623 1703.3523 1717.8864 1727.1163 1733.7723 1749.0083">Scene Graph-to-Image Generation</tspan></text>
<path transform="matrix(1,0,0,-1,-10.66107,1532.549)" d="M660.9219 535H818.9219C819.4742 535 819.9219 534.5523 819.9219 534V508C819.9219 507.4478 819.4742 507 818.9219 507H660.9219C660.3696 507 659.9219 507.4478 659.9219 508V534C659.9219 534.5523 660.3696 535 660.9219 535Z" fill-opacity="0"/>
<text fill="#444444" xml:space="preserve" transform="matrix(.5 0 0 .5 -10.66107 -19.45105)" font-size="26" font-family="PingFangSC"><tspan y="2073.2" x="1337.844 1353.938 1368.368 1381.602 1390.832 1406.562 1415.792 1431.028 1446.7579 1462.3579 1480.7139 1489.3718 1508.8198 1523.2499 1537.7839 1552.214 1561.704 1576.238 1585.468 1592.124 1607.36">Text-to-3D Generation</tspan></text>
<path transform="matrix(1,0,0,-1,-10.66107,1532.549)" d="M660.9219 502H843.9219C844.4742 502 844.9219 501.5522 844.9219 501V475C844.9219 474.4478 844.4742 474 843.9219 474H660.9219C660.3696 474 659.9219 474.4478 659.9219 475V501C659.9219 501.5522 660.3696 502 660.9219 502Z" fill-opacity="0"/>
<text fill="#444444" xml:space="preserve" transform="matrix(.5 0 0 .5 -10.66107 -19.45105)" font-size="26" font-family="PingFangSC"><tspan y="2139.2" x="1337.844 1353.938 1368.368 1381.602 1390.832 1406.562 1415.792 1431.028 1446.7579 1469.69 1484.9259 1494.1559 1500.8119 1516.0479 1530.5819 1539.2399 1558.6879 1573.1179 1587.652 1602.082 1611.572 1626.1061 1635.336 1641.9921 1657.228">Text-to-Motion Generation</tspan></text>
<path transform="matrix(1,0,0,-1,-10.66107,1532.549)" d="M660.9219 469H835.9219C836.4742 469 836.9219 468.5522 836.9219 468V442C836.9219 441.4478 836.4742 441 835.9219 441H660.9219C660.3696 441 659.9219 441.4478 659.9219 442V468C659.9219 468.5522 660.3696 469 660.9219 469Z" fill-opacity="0"/>
<text fill="#444444" xml:space="preserve" transform="matrix(.5 0 0 .5 -10.66107 -19.45105)" font-size="26" font-family="PingFangSC"><tspan y="2205.2" x="1337.844 1353.938 1368.368 1381.602 1390.832 1406.562 1415.792 1431.028 1446.7579 1463.372 1470.028 1485.2639 1499.694 1514.9299 1523.5879 1543.0359 1557.466 1572 1586.43 1595.92 1610.4541 1619.6841 1626.3401 1641.576">Text-to-Video Generation</tspan></text>
<path transform="matrix(1,0,0,-1,-10.66107,1532.549)" d="M660.9219 436H835.9219C836.4742 436 836.9219 435.5522 836.9219 435V409C836.9219 408.4478 836.4742 408 835.9219 408H660.9219C660.3696 408 659.9219 408.4478 659.9219 409V435C659.9219 435.5522 660.3696 436 660.9219 436Z" fill-opacity="0"/>
<text fill="#444444" xml:space="preserve" transform="matrix(.5 0 0 .5 -10.66107 -19.45105)" font-size="26" font-family="PingFangSC"><tspan y="2271.2" x="1337.844 1353.938 1368.368 1381.602 1390.832 1406.562 1415.792 1431.028 1446.7579 1463.84 1478.4 1493.636 1500.292 1515.528 1524.1859 1543.6339 1558.064 1572.598 1587.0281 1596.5181 1611.0521 1620.2821 1626.9381 1642.1741">Text-to-Audio Generation</tspan></text>
<path transform="matrix(1,0,0,-1,-10.66107,1532.549)" d="M461.6875 369.3594H626.6875C627.2398 369.3594 627.6875 368.9116 627.6875 368.3594V342.3594C627.6875 341.8071 627.2398 341.3594 626.6875 341.3594H461.6875C461.1352 341.3594 460.6875 341.8071 460.6875 342.3594V368.3594C460.6875 368.9116 461.1352 369.3594 461.6875 369.3594Z" fill-opacity="0"/>
<text fill="#444444" xml:space="preserve" transform="matrix(.5 0 0 .5 -10.66107 -19.45105)" font-size="26" font-family="PingFangSC"><tspan y="2404.481" x="939.375 955.469 969.899 992.12899 1007.365 1022.601 1032.0911 1046.6251 1052.7351 1061.3931 1079.749 1094.2831 1103.5131 1118.0471 1126.7051 1149.6371 1164.873 1180.109 1194.5391 1200.649 1207.305 1221.8391">Temporal Data Modeling</tspan></text>
<path transform="matrix(1,0,0,-1,-10.66107,1532.549)" d="M664.6094 403H819.6094C820.1617 403 820.6094 402.5522 820.6094 402V376C820.6094 375.4478 820.1617 375 819.6094 375H664.6094C664.0571 375 663.6094 375.4478 663.6094 376V402C663.6094 402.5522 664.0571 403 664.6094 403Z" fill-opacity="0"/>
<text fill="#444444" xml:space="preserve" transform="matrix(.5 0 0 .5 -10.66107 -19.45105)" font-size="26" font-family="PingFangSC"><tspan y="2337.2" x="1345.219 1361.313 1367.969 1390.199 1404.629 1413.287 1429.719 1444.149 1453.639 1460.295 1474.7251 1487.8551 1496.5131 1502.675 1524.905 1540.141 1554.701 1563.931 1578.4651 1587.6951 1594.3511 1609.587">Time Series Imputation</tspan></text>
<path transform="matrix(1,0,0,-1,-10.66107,1532.549)" d="M664.6094 370H831.6094C832.1617 370 832.6094 369.5522 832.6094 369V343C832.6094 342.4478 832.1617 342 831.6094 342H664.6094C664.0571 342 663.6094 342.4478 663.6094 343V369C663.6094 369.5522 664.0571 370 664.6094 370Z" fill-opacity="0"/>
<text fill="#444444" xml:space="preserve" transform="matrix(.5 0 0 .5 -10.66107 -19.45105)" font-size="26" font-family="PingFangSC"><tspan y="2403.2" x="1345.219 1361.313 1367.969 1390.199 1404.629 1413.287 1429.719 1444.149 1453.639 1460.295 1474.7251 1487.8551 1496.5131 1511.515 1526.751 1536.241 1550.671 1564.8931 1579.4271 1592.5571 1601.7871 1608.4431 1622.9772 1638.3432">Time Series Forecasting </tspan></text>
<path transform="matrix(1,0,0,-1,-10.66107,1532.549)" d="M664.6094 337H853.6094C854.1617 337 854.6094 336.5522 854.6094 336V310C854.6094 309.4478 854.1617 309 853.6094 309H664.6094C664.0571 309 663.6094 309.4478 663.6094 310V336C663.6094 336.5522 664.0571 337 664.6094 337Z" fill-opacity="0"/>
<text fill="#444444" xml:space="preserve" transform="matrix(.5 0 0 .5 -10.66107 -19.45105)" font-size="26" font-family="PingFangSC"><tspan y="2469.2" x="1345.219 1369.399 1383.9331 1396.4651 1410.8952 1420.5932 1435.8291 1445.3191 1467.5491 1476.207 1492.639 1499.295 1514.661 1529.1951 1543.7291 1549.8391 1558.4971 1575.1891 1584.6791 1599.915 1614.1371 1628.5671 1641.6972 1654.8272 1661.4832 1676.0172">Waveform Signal Processing</tspan></text>
<path transform="matrix(1,0,0,-1,-10.66107,1532.549)" d="M461.6875 304H576.6875C577.2398 304 577.6875 303.5522 577.6875 303V277C577.6875 276.4478 577.2398 276 576.6875 276H461.6875C461.1352 276 460.6875 276.4478 460.6875 277V303C460.6875 303.5522 461.1352 304 461.6875 304Z" fill-opacity="0"/>
<text fill="#444444" xml:space="preserve" transform="matrix(.5 0 0 .5 -10.66107 -19.45105)" font-size="26" font-family="PingFangSC"><tspan y="2535.2" x="939.375 956.951 972.187 987.42306 1001.98306 1015.11306 1024.343 1033.001 1048.289 1062.719 1077.253 1086.743 1101.2771 1107.9331 1122.4672">Robust Learning</tspan></text>
<path transform="matrix(1,0,0,-1,-10.66107,1532.549)" d="M461.6875 237.3594H650.6875C651.2398 237.3594 651.6875 236.9116 651.6875 236.3594V210.3594C651.6875 209.8071 651.2398 209.3594 650.6875 209.3594H461.6875C461.1352 209.3594 460.6875 209.8071 460.6875 210.3594V236.3594C460.6875 236.9116 461.1352 237.3594 461.6875 237.3594Z" fill-opacity="0"/>
<text fill="#444444" xml:space="preserve" transform="matrix(.5 0 0 .5 -10.66107 -19.45105)" font-size="26" font-family="PingFangSC"><tspan y="2668.481" x="939.375 945.537 960.071 969.30099 983.73098 993.22097 1008.457 1015.113 1028.2429 1042.465 1049.121 1064.3569 1070.4669 1077.1229 1091.657 1106.191 1115.681 1128.577 1137.235 1154.317 1169.553 1184.789 1190.8989 1197.5549 1211.777 1226.311 1235.541 1242.197 1257.433 1271.967">Interdisciplinary Applications</tspan></text>
<path transform="matrix(1,0,0,-1,-10.66107,1532.549)" d="M688.5625 271H884.5625C885.1148 271 885.5625 270.5522 885.5625 270V244C885.5625 243.4478 885.1148 243 884.5625 243H688.5625C688.0102 243 687.5625 243.4478 687.5625 244V270C687.5625 270.5522 688.0102 271 688.5625 271Z" fill-opacity="0"/>
<text fill="#444444" xml:space="preserve" transform="matrix(.5 0 0 .5 -10.66107 -19.45105)" font-size="26" font-family="PingFangSC"><tspan y="2601.2" x="1393.125 1411.481 1420.971 1435.531 1450.897 1459.5549 1477.9109 1492.341 1505.471 1512.127 1527.4929 1542.027 1550.6849 1565.219 1579.753 1594.989 1603.647 1618.9349 1625.591 1635.289 1649.719 1658.377 1674.809 1689.031 1695.687 1710.1171 1724.6511 1738.8732">Drug Design and Life Science</tspan></text>
<path transform="matrix(1,0,0,-1,-10.66107,1532.549)" d="M688.5625 238H799.5625C800.1148 238 800.5625 237.5522 800.5625 237V211C800.5625 210.4478 800.1148 210 799.5625 210H688.5625C688.0102 210 687.5625 210.4478 687.5625 211V237C687.5625 237.5522 688.0102 238 688.5625 238Z" fill-opacity="0"/>
<text fill="#444444" xml:space="preserve" transform="matrix(.5 0 0 .5 -10.66107 -19.45105)" font-size="26" font-family="PingFangSC"><tspan y="2667.2" x="1393.125 1416.057 1430.5911 1439.821 1454.2511 1463.7411 1470.3971 1484.9312 1491.0411 1499.6991 1518.055 1532.4851 1545.6151 1552.2711 1567.6371">Material Design</tspan></text>
<path transform="matrix(1,0,0,-1,-10.66107,1532.549)" d="M688.5625 205H887.5625C888.1148 205 888.5625 204.5522 888.5625 204V178C888.5625 177.4478 888.1148 177 887.5625 177H688.5625C688.0102 177 687.5625 177.4478 687.5625 178V204C687.5625 204.5522 688.0102 205 688.5625 205Z" fill-opacity="0"/>
<text fill="#444444" xml:space="preserve" transform="matrix(.5 0 0 .5 -10.66107 -19.45105)" font-size="26" font-family="PingFangSC"><tspan y="2733.2" x="1393.125 1416.057 1430.487 1445.723 1452.379 1466.6011 1481.1351 1487.2451 1495.9031 1502.0651 1524.295 1538.8291 1554.1951 1568.6251 1577.2831 1594.8591 1609.2892 1623.5112 1638.7472 1653.2813 1666.4113 1675.6412 1685.1312 1699.6913 1713.9133 1723.1433 1729.7993 1745.0353">Medical Image Reconstruction</tspan></text>
<path transform="matrix(1,0,0,-1,-10.66107,1532.549)" d="M311 1055.359H663C665.7614 1055.359 668 1053.121 668 1050.359V1010.359C668 1007.598 665.7614 1005.359 663 1005.359H311C308.2386 1005.359 306 1007.598 306 1010.359V1050.359C306 1053.121 308.2386 1055.359 311 1055.359Z" fill="#ffffff"/>
<path transform="matrix(1,0,0,1,-10.66107,-19.45105)" stroke-width="1" stroke-linecap="butt" stroke-miterlimit="4" stroke-linejoin="miter" fill="none" stroke="#005eaa" d="M311 496.6406H663C665.7614 496.6406 668 498.8792 668 501.6406V541.6406C668 544.402 665.7614 546.6406 663 546.6406H311C308.2386 546.6406 306 544.402 306 541.6406V501.6406C306 498.8792 308.2386 496.6406 311 496.6406Z"/>
<text fill="#444444" xml:space="preserve" transform="matrix(.5 0 0 .5 -10.66107 -19.45105)" font-size="34" font-family="PingFangSC"><tspan y="1058.081" x="634 658.752 678.676 697.682 716.688 735.558 754.156 766.226 774.93 794.854 813.86 831.02999 842.352 868.022 876.72598 888.79598 907.69998 919.022 945.1 957.17 976.074 994.944 1007.35397 1018.67599 1044.1079 1062.9779 1081.9839 1100.8539 1113.2639 1132.2699 1144.3399 1153.0438 1169.4319 1188.3019 1199.6239 1229.6119 1249.5359 1269.4598 1288.3298 1296.3198">Connections with Other Generative Models</tspan></text>
<path transform="matrix(1,0,0,-1,-10.66107,1532.549)" d="M704.75 1111H872.75C873.3023 1111 873.75 1110.552 873.75 1110V1084C873.75 1083.448 873.3023 1083 872.75 1083H704.75C704.1977 1083 703.75 1083.448 703.75 1084V1110C703.75 1110.552 704.1977 1111 704.75 1111Z" fill-opacity="0"/>
<text fill="#444444" xml:space="preserve" transform="matrix(.5 0 0 .5 -10.66107 -19.45105)" font-size="26" font-family="PingFangSC"><tspan y="921.2" x="1425.5 1442.114 1456.6481 1466.1381 1472.7941 1487.3281 1496.5581 1503.2141 1518.4501 1532.9841 1547.5182 1553.6282 1562.2861 1579.3682 1593.9282 1603.1582 1618.3942 1632.8242 1647.3583 1661.5803 1676.8163 1692.0523 1706.4823 1715.9723">Variational Autoencoders</tspan></text>
<path transform="matrix(1,0,0,-1,-10.66107,1532.549)" d="M704.75 1078H917.75C918.3023 1078 918.75 1077.552 918.75 1077V1051C918.75 1050.448 918.3023 1050 917.75 1050H704.75C704.1977 1050 703.75 1050.448 703.75 1051V1077C703.75 1077.552 704.1977 1078 704.75 1078Z" fill-opacity="0"/>
<text fill="#444444" xml:space="preserve" transform="matrix(.5 0 0 .5 -10.66107 -19.45105)" font-size="26" font-family="PingFangSC"><tspan y="987.2" x="1425.5 1444.948 1459.378 1473.9121 1488.3422 1497.8322 1512.3662 1521.5962 1528.2522 1540.7842 1555.2142 1563.8722 1580.9542 1596.1902 1608.7222 1623.1522 1632.6422 1645.7722 1660.3063 1669.7963 1676.4523 1690.9863 1697.0963 1705.7543 1724.4483 1738.8783 1748.1083 1767.7383 1782.9743 1792.4642 1806.2183">Generative Adversarial Networks</tspan></text>
<path transform="matrix(1,0,0,-1,-10.66107,1532.549)" d="M704.75 1045H830.75C831.3023 1045 831.75 1044.552 831.75 1044V1018C831.75 1017.448 831.3023 1017 830.75 1017H704.75C704.1977 1017 703.75 1017.448 703.75 1018V1044C703.75 1044.552 704.1977 1045 704.75 1045Z" fill-opacity="0"/>
<text fill="#444444" xml:space="preserve" transform="matrix(.5 0 0 .5 -10.66107 -19.45105)" font-size="26" font-family="PingFangSC"><tspan y="1053.2" x="1425.5 1444.194 1459.4299 1468.9199 1491.1499 1505.684 1511.794 1518.45 1531.1119 1537.768 1552.302 1567.668 1576.3259 1591.3279 1597.4379 1612.6738 1632.3038">Normalizing Flows</tspan></text>
<path transform="matrix(1,0,0,-1,-10.66107,1532.549)" d="M704.75 1012H857.75C858.3023 1012 858.75 1011.552 858.75 1011V985C858.75 984.4477 858.3023 984 857.75 984H704.75C704.1977 984 703.75 984.4477 703.75 985V1011C703.75 1011.552 704.1977 1012 704.75 1012Z" fill-opacity="0"/>
<text fill="#444444" xml:space="preserve" transform="matrix(.5 0 0 .5 -10.66107 -19.45105)" font-size="26" font-family="PingFangSC"><tspan y="1119.2" x="1425.5 1442.582 1457.1421 1466.3721 1481.608 1491.098 1505.5281 1520.894 1530.384 1544.8141 1557.9441 1571.0741 1577.7301 1590.2621 1604.6921 1613.3501 1636.2821 1651.5181 1666.754 1681.1841 1687.2941">Autoregressive Models</tspan></text>
<path transform="matrix(1,0,0,-1,-10.66107,1532.549)" d="M704.75 979H854.75C855.3023 979 855.75 978.5523 855.75 978V952C855.75 951.4477 855.3023 951 854.75 951H704.75C704.1977 951 703.75 951.4477 703.75 952V978C703.75 978.5523 704.1977 979 704.75 979Z" fill-opacity="0"/>
<text fill="#444444" xml:space="preserve" transform="matrix(.5 0 0 .5 -10.66107 -19.45105)" font-size="26" font-family="PingFangSC"><tspan y="1185.2" x="1425.5 1442.062 1456.5961 1471.0261 1480.5161 1495.8821 1508.7781 1524.508 1539.744 1554.2781 1567.4081 1581.8381 1597.0741 1605.732 1628.6641 1643.9 1659.136 1673.566 1679.676">Energy-based Models</tspan></text>
<path transform="matrix(1,0,0,-1,-10.66107,1532.549)" d="M311 1351.359H407C409.7614 1351.359 412 1349.121 412 1346.359V1306.359C412 1303.598 409.7614 1301.359 407 1301.359H311C308.2386 1301.359 306 1303.598 306 1306.359V1346.359C306 1349.121 308.2386 1351.359 311 1351.359Z" fill="#ffffff"/>
<path transform="matrix(1,0,0,1,-10.66107,-19.45105)" stroke-width="1" stroke-linecap="butt" stroke-miterlimit="4" stroke-linejoin="miter" fill="none" stroke="#127c97" d="M311 200.6406H407C409.7614 200.6406 412 202.8792 412 205.6406V245.6406C412 248.4021 409.7614 250.6406 407 250.6406H311C308.2386 250.6406 306 248.4021 306 245.6406V205.6406C306 202.8792 308.2386 200.6406 311 200.6406Z"/>
<text fill="#444444" xml:space="preserve" transform="matrix(.5 0 0 .5 -10.66107 -19.45105)" font-size="34" font-family="PingFangSC"><tspan y="466.0812" x="634 656.338 664.328 684.422 704.346 716.756 725.45999 737.52999 756.43399 785.50399">Algorithms</tspan></text>
<path transform="matrix(1,0,0,-1,-10.66107,1532.549)" d="M449.3438 1455.359H575.3438C575.8961 1455.359 576.3438 1454.912 576.3438 1454.359V1428.359C576.3438 1427.807 575.8961 1427.359 575.3438 1427.359H449.3438C448.7915 1427.359 448.3438 1427.807 448.3438 1428.359V1454.359C448.3438 1454.912 448.7915 1455.359 449.3438 1455.359Z" fill-opacity="0"/>
<text fill="#444444" xml:space="preserve" transform="matrix(.5 0 0 .5 -10.66107 -19.45105)" font-size="26" font-family="PingFangSC"><tspan y="232.4812" x="914.6875 931.2495 955.1955 969.4175 976.0735 990.5035 1005.0375 1014.26748 1022.9255 1039.3574 1053.8915 1076.1215 1091.3574 1097.4674 1104.1234 1118.6575">E&#xfb03;cient Sampling</tspan></text>
<path transform="matrix(1,0,0,-1,-10.66107,1532.549)" d="M613.0156 1505.359H776.0156C776.5679 1505.359 777.0156 1504.912 777.0156 1504.359V1478.359C777.0156 1477.807 776.5679 1477.359 776.0156 1477.359H613.0156C612.4633 1477.359 612.0156 1477.807 612.0156 1478.359V1504.359C612.0156 1504.912 612.4633 1505.359 613.0156 1505.359Z" fill-opacity="0"/>
<text fill="#444444" xml:space="preserve" transform="matrix(.5 0 0 .5 -10.66107 -19.45105)" font-size="26" font-family="PingFangSC"><tspan y="132.4812" x="1242.031 1257.319 1271.749 1286.2831 1295.7731 1310.3071 1316.9631 1331.4972 1346.8632 1362.5932 1377.5951 1387.0851 1401.5151 1415.9452 1424.6032 1441.0352 1455.5692 1477.7992 1493.0352 1499.1452 1505.8012 1520.3352">Learning-Free Sampling</tspan></text>
<path transform="matrix(1,0,0,-1,-10.66107,1532.549)" d="M813.8594 1522H903.8594C904.4117 1522 904.8594 1521.552 904.8594 1521V1495C904.8594 1494.448 904.4117 1494 903.8594 1494H813.8594C813.3071 1494 812.8594 1494.448 812.8594 1495V1521C812.8594 1521.552 813.3071 1522 813.8594 1522Z" fill-opacity="0"/>
<text fill="#444444" xml:space="preserve" transform="matrix(.5 0 0 .5 -10.66107 -19.45105)" font-size="26" font-family="PingFangSC"><tspan y="99.2" x="1643.719 1660.151 1678.507 1695.069 1703.7269 1720.1589 1735.3949 1741.5049 1754.0369 1768.4669 1777.9569">SDE Solvers</tspan></text>
<path transform="matrix(1,0,0,-1,-10.66107,1532.549)" d="M813.8594 1489H904.8594C905.4117 1489 905.8594 1488.552 905.8594 1488V1462C905.8594 1461.448 905.4117 1461 904.8594 1461H813.8594C813.3071 1461 812.8594 1461.448 812.8594 1462V1488C812.8594 1488.552 813.3071 1489 813.8594 1489Z" fill-opacity="0"/>
<text fill="#444444" xml:space="preserve" transform="matrix(.5 0 0 .5 -10.66107 -19.45105)" font-size="26" font-family="PingFangSC"><tspan y="165.2" x="1643.719 1663.661 1682.017 1698.579 1707.2369 1723.669 1738.9049 1745.0149 1757.5469 1771.9769 1781.4669">ODE Solvers</tspan></text>
<path transform="matrix(1,0,0,-1,-10.66107,1532.549)" d="M613.0156 1422.359H787.0156C787.5679 1422.359 788.0156 1421.912 788.0156 1421.359V1395.359C788.0156 1394.807 787.5679 1394.359 787.0156 1394.359H613.0156C612.4633 1394.359 612.0156 1394.807 612.0156 1395.359V1421.359C612.0156 1421.912 612.4633 1422.359 613.0156 1422.359Z" fill-opacity="0"/>
<text fill="#444444" xml:space="preserve" transform="matrix(.5 0 0 .5 -10.66107 -19.45105)" font-size="26" font-family="PingFangSC"><tspan y="298.4813" x="1242.031 1257.319 1271.749 1286.2831 1295.7731 1310.3071 1316.9631 1331.4972 1346.8632 1362.5932 1380.1952 1394.7293 1407.8593 1422.2893 1437.5253 1446.1832 1462.6152 1477.1493 1499.3793 1514.6152 1520.7252 1527.3812 1541.9153">Learning-Based Sampling</tspan></text>
<path transform="matrix(1,0,0,-1,-10.66107,1532.549)" d="M824.6406 1456H988.6406C989.1929 1456 989.6406 1455.552 989.6406 1455V1429C989.6406 1428.448 989.1929 1428 988.6406 1428H824.6406C824.0883 1428 823.6406 1428.448 823.6406 1429V1455C823.6406 1455.552 824.0883 1456 824.6406 1456Z" fill-opacity="0"/>
<text fill="#444444" xml:space="preserve" transform="matrix(.5 0 0 .5 -10.66107 -19.45105)" font-size="26" font-family="PingFangSC"><tspan y="231.2" x="1665.281 1685.223 1700.459 1709.689 1716.345 1738.575 1745.231 1757.893 1772.323 1787.559 1796.2169 1814.5729 1821.2289 1834.3589 1848.5809 1858.0709 1872.501 1881.731 1888.387 1901.049 1915.583 1924.813 1931.469 1946.705">Optimized Discretization</tspan></text>
<path transform="matrix(1,0,0,-1,-10.66107,1532.549)" d="M824.6406 1423H959.6406C960.1929 1423 960.6406 1422.552 960.6406 1422V1396C960.6406 1395.448 960.1929 1395 959.6406 1395H824.6406C824.0883 1395 823.6406 1395.448 823.6406 1396V1422C823.6406 1422.552 824.0883 1423 824.6406 1423Z" fill-opacity="0"/>
<text fill="#444444" xml:space="preserve" transform="matrix(.5 0 0 .5 -10.66107 -19.45105)" font-size="26" font-family="PingFangSC"><tspan y="297.2" x="1665.281 1681.375 1690.865 1705.425 1719.9591 1734.1812 1748.7152 1757.9452 1772.3753 1787.6112 1796.2692 1814.6251 1821.2811 1839.1172 1853.6773 1866.8073 1873.4633 1888.6992">Truncated Di&#xfb00;usion</tspan></text>
<path transform="matrix(1,0,0,-1,-10.66107,1532.549)" d="M824.6406 1390H974.6406C975.1929 1390 975.6406 1389.552 975.6406 1389V1363C975.6406 1362.448 975.1929 1362 974.6406 1362H824.6406C824.0883 1362 823.6406 1362.448 823.6406 1363V1389C823.6406 1389.552 824.0883 1390 824.6406 1390Z" fill-opacity="0"/>
<text fill="#444444" xml:space="preserve" transform="matrix(.5 0 0 .5 -10.66107 -19.45105)" font-size="26" font-family="PingFangSC"><tspan y="363.2" x="1665.281 1683.221 1697.755 1712.991 1732.621 1738.731 1753.161 1768.397 1783.763 1798.193 1806.851 1825.2069 1831.8629 1844.9929 1854.2229 1860.8789 1866.9889 1873.0989 1887.6329 1896.8629 1903.5189 1918.7549">Knowledge Distillation</tspan></text>
<path transform="matrix(1,0,0,-1,-10.66107,1532.549)" d="M449.3438 1323.359H586.3438C586.8961 1323.359 587.3438 1322.912 587.3438 1322.359V1296.359C587.3438 1295.807 586.8961 1295.359 586.3438 1295.359H449.3438C448.7915 1295.359 448.3438 1295.807 448.3438 1296.359V1322.359C448.3438 1322.912 448.7915 1323.359 449.3438 1323.359Z" fill-opacity="0"/>
<text fill="#444444" xml:space="preserve" transform="matrix(.5 0 0 .5 -10.66107 -19.45105)" font-size="26" font-family="PingFangSC"><tspan y="496.4813" x="914.6875 920.8495 943.07949 958.3155 967.8055 983.0415 995.5735 1010.0035 1025.2395 1033.8975 1049.1854 1055.8414 1069.5955 1084.0255 1090.1355 1096.7915 1111.2476 1126.4835 1141.7195">Improved Likelihood</tspan></text>
<path transform="matrix(1,0,0,-1,-10.66107,1532.549)" d="M624.4844 1357H814.4844C815.0367 1357 815.4844 1356.552 815.4844 1356V1330C815.4844 1329.448 815.0367 1329 814.4844 1329H624.4844C623.9321 1329 623.4844 1329.448 623.4844 1330V1356C623.4844 1356.552 623.9321 1357 624.4844 1357Z" fill-opacity="0"/>
<text fill="#444444" xml:space="preserve" transform="matrix(.5 0 0 .5 -10.66107 -19.45105)" font-size="26" font-family="PingFangSC"><tspan y="429.2" x="1264.969 1283.663 1298.8989 1305.5549 1318.6849 1333.115 1341.773 1358.205 1372.427 1386.883 1401.3131 1416.5491 1431.1091 1437.2191 1451.6492 1460.3071 1480.2492 1495.4851 1504.7151 1511.3711 1533.6011 1540.2571 1552.9191 1567.4531 1576.6831 1583.3391 1598.5751">Noise Schedule Optimization</tspan></text>
<path transform="matrix(1,0,0,-1,-10.66107,1532.549)" d="M624.4844 1324H802.4844C803.0367 1324 803.4844 1323.552 803.4844 1323V1297C803.4844 1296.448 803.0367 1296 802.4844 1296H624.4844C623.9321 1296 623.4844 1296.448 623.4844 1297V1323C623.4844 1323.552 623.9321 1324 624.4844 1324Z" fill-opacity="0"/>
<text fill="#444444" xml:space="preserve" transform="matrix(.5 0 0 .5 -10.66107 -19.45105)" font-size="26" font-family="PingFangSC"><tspan y="495.2" x="1264.969 1282.545 1296.9751 1309.5071 1323.9371 1333.4271 1346.5571 1360.9872 1369.6452 1386.2592 1400.7932 1410.2832 1416.9392 1431.4733 1446.0073 1460.2294 1474.6594 1483.3174 1498.6054 1513.0354 1527.5695 1537.0595 1551.5935 1558.2495 1572.7836">Reverse Variance Learning</tspan></text>
<path transform="matrix(1,0,0,-1,-10.66107,1532.549)" d="M624.4844 1291H822.4844C823.0367 1291 823.4844 1290.552 823.4844 1290V1264C823.4844 1263.448 823.0367 1263 822.4844 1263H624.4844C623.9321 1263 623.4844 1263.448 623.4844 1264V1290C623.4844 1290.552 623.9321 1291 624.4844 1291Z" fill-opacity="0"/>
<text fill="#444444" xml:space="preserve" transform="matrix(.5 0 0 .5 -10.66107 -19.45105)" font-size="26" font-family="PingFangSC"><tspan y="561.2" x="1264.969 1281.531 1294.765 1309.2991 1323.5211 1332.7511 1341.409 1356.697 1363.353 1377.107 1391.5371 1397.6471 1404.3031 1418.7592 1433.9951 1449.2311 1464.467 1473.125 1492.053 1507.289 1529.5189 1544.7549 1559.315 1568.5449 1583.079 1592.309 1598.965 1614.2009">Exact Likelihood Computation</tspan></text>
<path transform="matrix(1,0,0,-1,-10.66107,1532.549)" d="M449.3438 1208.359H638.3438C638.8961 1208.359 639.3438 1207.912 639.3438 1207.359V1181.359C639.3438 1180.807 638.8961 1180.359 638.3438 1180.359H449.3438C448.7915 1180.359 448.3438 1180.807 448.3438 1181.359V1207.359C448.3438 1207.912 448.7915 1208.359 449.3438 1208.359Z" fill-opacity="0"/>
<text fill="#444444" xml:space="preserve" transform="matrix(.5 0 0 .5 -10.66107 -19.45105)" font-size="26" font-family="PingFangSC"><tspan y="726.4813" x="914.6875 933.0435 947.5775 956.8075 971.3415 979.9995 999.6295 1006.2855 1015.5155 1029.9716 1038.6295 1055.0615 1070.2975 1084.7276 1098.9496 1105.6056 1120.1397 1126.2496 1134.9076 1151.3396 1160.5696 1170.0596 1184.6196 1198.8417 1208.0717 1222.6317 1232.1217 1246.5518">Data with Special Structures</tspan></text>
<path transform="matrix(1,0,0,-1,-10.66107,1532.549)" d="M675.8438 1258H774.8438C775.3961 1258 775.8438 1257.552 775.8438 1257V1231C775.8438 1230.448 775.3961 1230 774.8438 1230H675.8438C675.2914 1230 674.8438 1230.448 674.8438 1231V1257C674.8438 1257.552 675.2914 1258 675.8438 1258Z" fill-opacity="0"/>
<text fill="#444444" xml:space="preserve" transform="matrix(.5 0 0 .5 -10.66107 -19.45105)" font-size="26" font-family="PingFangSC"><tspan y="627.2" x="1367.688 1386.044 1392.7 1405.83 1420.052 1429.542 1443.972 1453.202 1467.6321 1476.29 1494.646 1509.18 1518.41">Discrete Data</tspan></text>
<path transform="matrix(1,0,0,-1,-10.66107,1532.549)" d="M675.8438 1225H871.8438C872.3961 1225 872.8438 1224.552 872.8438 1224V1198C872.8438 1197.448 872.3961 1197 871.8438 1197H675.8438C675.2914 1197 674.8438 1197.448 674.8438 1198V1224C674.8438 1224.552 675.2914 1225 675.8438 1225Z" fill-opacity="0"/>
<text fill="#444444" xml:space="preserve" transform="matrix(.5 0 0 .5 -10.66107 -19.45105)" font-size="26" font-family="PingFangSC"><tspan y="693.2" x="1367.688 1386.044 1400.578 1409.808 1424.342 1433 1452.63 1459.286 1468.516 1482.972 1491.63 1497.792 1512.326 1524.858 1539.3921 1548.8821 1555.5381 1570.0722 1584.6062 1593.8362 1602.4942 1618.9262 1628.1561 1637.6461 1652.2062 1666.4282 1675.6582 1690.2183 1699.7083 1714.1383">Data with Invariant Structures</tspan></text>
<path transform="matrix(1,0,0,-1,-10.66107,1532.549)" d="M675.8438 1175.359H872.8438C873.3961 1175.359 873.8438 1174.912 873.8438 1174.359V1148.359C873.8438 1147.807 873.3961 1147.359 872.8438 1147.359H675.8438C675.2914 1147.359 674.8438 1147.807 674.8438 1148.359V1174.359C674.8438 1174.912 675.2914 1175.359 675.8438 1175.359Z" fill-opacity="0"/>
<text fill="#444444" xml:space="preserve" transform="matrix(.5 0 0 .5 -10.66107 -19.45105)" font-size="26" font-family="PingFangSC"><tspan y="792.4813" x="1367.688 1386.044 1400.578 1409.808 1424.342 1433 1452.63 1459.286 1468.516 1482.972 1491.63 1514.562 1529.0961 1543.6301 1550.2861 1559.9841 1575.2201 1581.3301 1596.566 1605.224 1621.656 1630.886 1640.376 1654.936 1669.1581 1678.3881 1692.9481 1702.4381 1716.8682">Data with Manifold Structures</tspan></text>
<path transform="matrix(1,0,0,-1,-10.66107,1532.549)" d="M911 1192H1031C1031.552 1192 1032 1191.552 1032 1191V1165C1032 1164.448 1031.552 1164 1031 1164H911C910.4477 1164 910 1164.448 910 1165V1191C910 1191.552 910.4477 1192 911 1192Z" fill-opacity="0"/>
<text fill="#444444" xml:space="preserve" transform="matrix(.5 0 0 .5 -10.66107 -19.45105)" font-size="26" font-family="PingFangSC"><tspan y="759.2" x="1838 1855.94 1870.474 1885.71 1905.34 1919.874 1928.532 1951.464 1965.998 1980.5321 1987.1881 1996.8861 2012.1221 2018.232 2033.468">Known Manifolds</tspan></text>
<path transform="matrix(1,0,0,-1,-10.66107,1532.549)" d="M911 1159H1039C1039.552 1159 1040 1158.552 1040 1158V1132C1040 1131.448 1039.552 1131 1039 1131H911C910.4477 1131 910 1131.448 910 1132V1158C910 1158.552 910.4477 1159 911 1159Z" fill-opacity="0"/>
<text fill="#444444" xml:space="preserve" transform="matrix(.5 0 0 .5 -10.66107 -19.45105)" font-size="26" font-family="PingFangSC"><tspan y="825.2" x="1838 1853.288 1867.718 1882.2521 1891.7421 1906.2761 1920.7062 1935.9421 1944.6001 1967.5321 1982.0662 1996.6002 2003.2562 2012.9542 2028.1902 2034.3002 2049.5362">Learned Manifolds</tspan></text>
<path transform="matrix(1,0,0,1,295.83894,1376.049)" stroke-width="1" stroke-linecap="round" stroke-miterlimit="4" stroke-linejoin="miter" fill="none" stroke="#339ca8" d="M157.9219 63.5H173.9219C181.9219 63.5 173.9219 14 193.9219 14"/>
<path transform="matrix(1,0,0,1,295.83894,1376.049)" stroke-width="1" stroke-linecap="round" stroke-miterlimit="4" stroke-linejoin="miter" fill="none" stroke="#339ca8" d="M157.9219 63.5H173.9219C181.9219 63.5 173.9219 47 193.9219 47"/>
<path transform="matrix(1,0,0,1,295.83894,1376.049)" stroke-width="1" stroke-linecap="round" stroke-miterlimit="4" stroke-linejoin="miter" fill="none" stroke="#339ca8" d="M157.9219 63.5H173.9219C181.9219 63.5 173.9219 80 193.9219 80"/>
<path transform="matrix(1,0,0,1,295.83894,1376.049)" stroke-width="1" stroke-linecap="round" stroke-miterlimit="4" stroke-linejoin="miter" fill="none" stroke="#339ca8" d="M157.9219 63.5H173.9219C181.9219 63.5 173.9219 113 193.9219 113"/>
<path transform="matrix(1,0,0,1,295.83894,602.04898)" stroke-width="1" stroke-linecap="round" stroke-miterlimit="4" stroke-linejoin="miter" fill="none" stroke="#80bc42" d="M118.6875 377H134.6875C142.6875 377 134.6875 63.64062 154.6875 63.64062"/>
<path transform="matrix(1,0,0,1,295.83894,602.04898)" stroke-width="1" stroke-linecap="round" stroke-miterlimit="4" stroke-linejoin="miter" fill="none" stroke="#80bc42" d="M460.2656 63.64062H476.2656C484.2656 63.64062 476.2656 14 496.2656 14"/>
<path transform="matrix(1,0,0,1,295.83894,602.04898)" stroke-width="1" stroke-linecap="round" stroke-miterlimit="4" stroke-linejoin="miter" fill="none" stroke="#80bc42" d="M460.2656 63.64062H476.2656C484.2656 63.64062 476.2656 47 496.2656 47"/>
<path transform="matrix(1,0,0,1,295.83894,602.04898)" stroke-width="1" stroke-linecap="round" stroke-miterlimit="4" stroke-linejoin="miter" fill="none" stroke="#80bc42" d="M460.2656 63.64062H476.2656C484.2656 63.64062 476.2656 80 496.2656 80"/>
<path transform="matrix(1,0,0,1,295.83894,602.04898)" stroke-width="1" stroke-linecap="round" stroke-miterlimit="4" stroke-linejoin="miter" fill="none" stroke="#80bc42" d="M460.2656 63.64062H476.2656C484.2656 63.64062 476.2656 113 496.2656 113"/>
<path transform="matrix(1,0,0,1,295.83894,602.04898)" stroke-width="1" stroke-linecap="round" stroke-miterlimit="4" stroke-linejoin="miter" fill="none" stroke="#80bc42" d="M118.6875 377H134.6875C142.6875 377 134.6875 212.6406 154.6875 212.6406"/>
<path transform="matrix(1,0,0,1,295.83894,602.04898)" stroke-width="1" stroke-linecap="round" stroke-miterlimit="4" stroke-linejoin="miter" fill="none" stroke="#80bc42" d="M273.1094 212.6406H289.1094C297.1094 212.6406 289.1094 146 309.1094 146"/>
<path transform="matrix(1,0,0,1,295.83894,602.04898)" stroke-width="1" stroke-linecap="round" stroke-miterlimit="4" stroke-linejoin="miter" fill="none" stroke="#80bc42" d="M273.1094 212.6406H289.1094C297.1094 212.6406 289.1094 179 309.1094 179"/>
<path transform="matrix(1,0,0,1,295.83894,602.04898)" stroke-width="1" stroke-linecap="round" stroke-miterlimit="4" stroke-linejoin="miter" fill="none" stroke="#80bc42" d="M273.1094 212.6406H289.1094C297.1094 212.6406 289.1094 212 309.1094 212"/>
<path transform="matrix(1,0,0,1,295.83894,602.04898)" stroke-width="1" stroke-linecap="round" stroke-miterlimit="4" stroke-linejoin="miter" fill="none" stroke="#80bc42" d="M273.1094 212.6406H289.1094C297.1094 212.6406 289.1094 245 309.1094 245"/>
<path transform="matrix(1,0,0,1,295.83894,602.04898)" stroke-width="1" stroke-linecap="round" stroke-miterlimit="4" stroke-linejoin="miter" fill="none" stroke="#80bc42" d="M273.1094 212.6406H289.1094C297.1094 212.6406 289.1094 278 309.1094 278"/>
<path transform="matrix(1,0,0,1,295.83894,602.04898)" stroke-width="1" stroke-linecap="round" stroke-miterlimit="4" stroke-linejoin="miter" fill="none" stroke="#80bc42" d="M118.6875 377H134.6875C142.6875 377 134.6875 311 154.6875 311"/>
<path transform="matrix(1,0,0,1,295.83894,602.04898)" stroke-width="1" stroke-linecap="round" stroke-miterlimit="4" stroke-linejoin="miter" fill="none" stroke="#80bc42" d="M118.6875 377H134.6875C142.6875 377 134.6875 426.6406 154.6875 426.6406"/>
<path transform="matrix(1,0,0,1,295.83894,602.04898)" stroke-width="1" stroke-linecap="round" stroke-miterlimit="4" stroke-linejoin="miter" fill="none" stroke="#80bc42" d="M317.9219 426.6406H333.9219C341.9219 426.6406 333.9219 344 353.9219 344"/>
<path transform="matrix(1,0,0,1,295.83894,602.04898)" stroke-width="1" stroke-linecap="round" stroke-miterlimit="4" stroke-linejoin="miter" fill="none" stroke="#80bc42" d="M317.9219 426.6406H333.9219C341.9219 426.6406 333.9219 377 353.9219 377"/>
<path transform="matrix(1,0,0,1,295.83894,602.04898)" stroke-width="1" stroke-linecap="round" stroke-miterlimit="4" stroke-linejoin="miter" fill="none" stroke="#80bc42" d="M317.9219 426.6406H333.9219C341.9219 426.6406 333.9219 410 353.9219 410"/>
<path transform="matrix(1,0,0,1,295.83894,602.04898)" stroke-width="1" stroke-linecap="round" stroke-miterlimit="4" stroke-linejoin="miter" fill="none" stroke="#80bc42" d="M317.9219 426.6406H333.9219C341.9219 426.6406 333.9219 443 353.9219 443"/>
<path transform="matrix(1,0,0,1,295.83894,602.04898)" stroke-width="1" stroke-linecap="round" stroke-miterlimit="4" stroke-linejoin="miter" fill="none" stroke="#80bc42" d="M317.9219 426.6406H333.9219C341.9219 426.6406 333.9219 476 353.9219 476"/>
<path transform="matrix(1,0,0,1,295.83894,602.04898)" stroke-width="1" stroke-linecap="round" stroke-miterlimit="4" stroke-linejoin="miter" fill="none" stroke="#80bc42" d="M317.9219 426.6406H333.9219C341.9219 426.6406 333.9219 509 353.9219 509"/>
<path transform="matrix(1,0,0,1,295.83894,602.04898)" stroke-width="1" stroke-linecap="round" stroke-miterlimit="4" stroke-linejoin="miter" fill="none" stroke="#80bc42" d="M118.6875 377H134.6875C142.6875 377 134.6875 575.6406 154.6875 575.6406"/>
<path transform="matrix(1,0,0,1,295.83894,602.04898)" stroke-width="1" stroke-linecap="round" stroke-miterlimit="4" stroke-linejoin="miter" fill="none" stroke="#80bc42" d="M321.6094 575.6406H337.6094C345.6094 575.6406 337.6094 542 357.6094 542"/>
<path transform="matrix(1,0,0,1,295.83894,602.04898)" stroke-width="1" stroke-linecap="round" stroke-miterlimit="4" stroke-linejoin="miter" fill="none" stroke="#80bc42" d="M321.6094 575.6406H337.6094C345.6094 575.6406 337.6094 575 357.6094 575"/>
<path transform="matrix(1,0,0,1,295.83894,602.04898)" stroke-width="1" stroke-linecap="round" stroke-miterlimit="4" stroke-linejoin="miter" fill="none" stroke="#80bc42" d="M321.6094 575.6406H337.6094C345.6094 575.6406 337.6094 608 357.6094 608"/>
<path transform="matrix(1,0,0,1,295.83894,602.04898)" stroke-width="1" stroke-linecap="round" stroke-miterlimit="4" stroke-linejoin="miter" fill="none" stroke="#80bc42" d="M118.6875 377H134.6875C142.6875 377 134.6875 641 154.6875 641"/>
<path transform="matrix(1,0,0,1,295.83894,602.04898)" stroke-width="1" stroke-linecap="round" stroke-miterlimit="4" stroke-linejoin="miter" fill="none" stroke="#80bc42" d="M118.6875 377H134.6875C142.6875 377 134.6875 707.6406 154.6875 707.6406"/>
<path transform="matrix(1,0,0,1,295.83894,602.04898)" stroke-width="1" stroke-linecap="round" stroke-miterlimit="4" stroke-linejoin="miter" fill="none" stroke="#80bc42" d="M345.5625 707.6406H361.5625C369.5625 707.6406 361.5625 674 381.5625 674"/>
<path transform="matrix(1,0,0,1,295.83894,602.04898)" stroke-width="1" stroke-linecap="round" stroke-miterlimit="4" stroke-linejoin="miter" fill="none" stroke="#80bc42" d="M345.5625 707.6406H361.5625C369.5625 707.6406 361.5625 707 381.5625 707"/>
<path transform="matrix(1,0,0,1,295.83894,602.04898)" stroke-width="1" stroke-linecap="round" stroke-miterlimit="4" stroke-linejoin="miter" fill="none" stroke="#80bc42" d="M345.5625 707.6406H361.5625C369.5625 707.6406 361.5625 740 381.5625 740"/>
<path transform="matrix(1,0,0,1,295.83894,422.04896)" stroke-width="1" stroke-linecap="round" stroke-miterlimit="4" stroke-linejoin="miter" fill="none" stroke="#005eaa" d="M361.75 80H377.75C385.75 80 377.75 14 397.75 14"/>
<path transform="matrix(1,0,0,1,295.83894,422.04896)" stroke-width="1" stroke-linecap="round" stroke-miterlimit="4" stroke-linejoin="miter" fill="none" stroke="#005eaa" d="M361.75 80H377.75C385.75 80 377.75 47 397.75 47"/>
<path transform="matrix(1,0,0,1,295.83894,422.04896)" stroke-width="1" stroke-linecap="round" stroke-miterlimit="4" stroke-linejoin="miter" fill="none" stroke="#005eaa" d="M361.75 80H377.75C385.75 80 377.75 80 397.75 80"/>
<path transform="matrix(1,0,0,1,295.83894,422.04896)" stroke-width="1" stroke-linecap="round" stroke-miterlimit="4" stroke-linejoin="miter" fill="none" stroke="#005eaa" d="M361.75 80H377.75C385.75 80 377.75 113 397.75 113"/>
<path transform="matrix(1,0,0,1,295.83894,422.04896)" stroke-width="1" stroke-linecap="round" stroke-miterlimit="4" stroke-linejoin="miter" fill="none" stroke="#005eaa" d="M361.75 80H377.75C385.75 80 377.75 146 397.75 146"/>
<path transform="matrix(1,0,0,1,295.83894,11.04895)" stroke-width="1" stroke-linecap="round" stroke-miterlimit="4" stroke-linejoin="miter" fill="none" stroke="#127c97" d="M106.3438 195.5H122.3438C130.3438 195.5 122.3438 80.64062 142.3438 80.64062"/>
<path transform="matrix(1,0,0,1,295.83894,11.04895)" stroke-width="1" stroke-linecap="round" stroke-miterlimit="4" stroke-linejoin="miter" fill="none" stroke="#127c97" d="M270.0156 80.64062H286.0156C294.0156 80.64062 286.0156 30.64062 306.0156 30.64062"/>
<path transform="matrix(1,0,0,1,295.83894,11.04895)" stroke-width="1" stroke-linecap="round" stroke-miterlimit="4" stroke-linejoin="miter" fill="none" stroke="#127c97" d="M470.8594 30.64062H486.8594C494.8594 30.64062 486.8594 14 506.8594 14"/>
<path transform="matrix(1,0,0,1,295.83894,11.04895)" stroke-width="1" stroke-linecap="round" stroke-miterlimit="4" stroke-linejoin="miter" fill="none" stroke="#127c97" d="M470.8594 30.64062H486.8594C494.8594 30.64062 486.8594 47 506.8594 47"/>
<path transform="matrix(1,0,0,1,295.83894,11.04895)" stroke-width="1" stroke-linecap="round" stroke-miterlimit="4" stroke-linejoin="miter" fill="none" stroke="#127c97" d="M270.0156 80.64062H286.0156C294.0156 80.64062 286.0156 113.6406 306.0156 113.6406"/>
<path transform="matrix(1,0,0,1,295.83894,11.04895)" stroke-width="1" stroke-linecap="round" stroke-miterlimit="4" stroke-linejoin="miter" fill="none" stroke="#127c97" d="M481.6406 113.6406H497.6406C505.6406 113.6406 497.6406 80 517.6406 80"/>
<path transform="matrix(1,0,0,1,295.83894,11.04895)" stroke-width="1" stroke-linecap="round" stroke-miterlimit="4" stroke-linejoin="miter" fill="none" stroke="#127c97" d="M481.6406 113.6406H497.6406C505.6406 113.6406 497.6406 113 517.6406 113"/>
<path transform="matrix(1,0,0,1,295.83894,11.04895)" stroke-width="1" stroke-linecap="round" stroke-miterlimit="4" stroke-linejoin="miter" fill="none" stroke="#127c97" d="M481.6406 113.6406H497.6406C505.6406 113.6406 497.6406 146 517.6406 146"/>
<path transform="matrix(1,0,0,1,295.83894,11.04895)" stroke-width="1" stroke-linecap="round" stroke-miterlimit="4" stroke-linejoin="miter" fill="none" stroke="#127c97" d="M106.3438 195.5H122.3438C130.3438 195.5 122.3438 212.6406 142.3438 212.6406"/>
<path transform="matrix(1,0,0,1,295.83894,11.04895)" stroke-width="1" stroke-linecap="round" stroke-miterlimit="4" stroke-linejoin="miter" fill="none" stroke="#127c97" d="M281.4844 212.6406H297.4844C305.4844 212.6406 297.4844 179 317.4844 179"/>
<path transform="matrix(1,0,0,1,295.83894,11.04895)" stroke-width="1" stroke-linecap="round" stroke-miterlimit="4" stroke-linejoin="miter" fill="none" stroke="#127c97" d="M281.4844 212.6406H297.4844C305.4844 212.6406 297.4844 212 317.4844 212"/>
<path transform="matrix(1,0,0,1,295.83894,11.04895)" stroke-width="1" stroke-linecap="round" stroke-miterlimit="4" stroke-linejoin="miter" fill="none" stroke="#127c97" d="M281.4844 212.6406H297.4844C305.4844 212.6406 297.4844 245 317.4844 245"/>
<path transform="matrix(1,0,0,1,295.83894,11.04895)" stroke-width="1" stroke-linecap="round" stroke-miterlimit="4" stroke-linejoin="miter" fill="none" stroke="#127c97" d="M106.3438 195.5H122.3438C130.3438 195.5 122.3438 327.6406 142.3438 327.6406"/>
<path transform="matrix(1,0,0,1,295.83894,11.04895)" stroke-width="1" stroke-linecap="round" stroke-miterlimit="4" stroke-linejoin="miter" fill="none" stroke="#127c97" d="M332.8438 327.6406H348.8438C356.8438 327.6406 348.8438 278 368.8438 278"/>
<path transform="matrix(1,0,0,1,295.83894,11.04895)" stroke-width="1" stroke-linecap="round" stroke-miterlimit="4" stroke-linejoin="miter" fill="none" stroke="#127c97" d="M332.8438 327.6406H348.8438C356.8438 327.6406 348.8438 311 368.8438 311"/>
<path transform="matrix(1,0,0,1,295.83894,11.04895)" stroke-width="1" stroke-linecap="round" stroke-miterlimit="4" stroke-linejoin="miter" fill="none" stroke="#127c97" d="M332.8438 327.6406H348.8438C356.8438 327.6406 348.8438 360.6406 368.8438 360.6406"/>
<path transform="matrix(1,0,0,1,295.83894,11.04895)" stroke-width="1" stroke-linecap="round" stroke-miterlimit="4" stroke-linejoin="miter" fill="none" stroke="#127c97" d="M568 360.6406H584C592 360.6406 584 344 604 344"/>
<path transform="matrix(1,0,0,1,295.83894,11.04895)" stroke-width="1" stroke-linecap="round" stroke-miterlimit="4" stroke-linejoin="miter" fill="none" stroke="#127c97" d="M568 360.6406H584C592 360.6406 584 377 604 377"/>
<path transform="matrix(1,0,0,-1,-10.66107,1532.549)" d="M35 809H221C223.7614 809 226 806.7614 226 804V748C226 745.2386 223.7614 743 221 743H35C32.23857 743 30 745.2386 30 748V804C30 806.7614 32.23857 809 35 809Z" fill="#0d47a1"/>
<text fill="#ffffff" xml:space="preserve" transform="matrix(.5 0 0 .5 -10.66107 -19.45105)" font-size="44" font-family="PingFangSC"><tspan y="1570.8" x="84 115.064 126.328 156.51201 181.15201 203.37201 214.63602 240.42002 265.01603 279.66804 318.47605 344.26005 370.04405 394.46406 404.80406">Di&#xfb00;usion Models</tspan></text>
</g>
</svg>
